<?xml version="1.0" encoding="UTF-8" standalone="no"?>
<svg
   xmlns:dc="http://purl.org/dc/elements/1.1/"
   xmlns:cc="http://creativecommons.org/ns#"
   xmlns:rdf="http://www.w3.org/1999/02/22-rdf-syntax-ns#"
   xmlns:svg="http://www.w3.org/2000/svg"
   xmlns="http://www.w3.org/2000/svg"
   xmlns:xlink="http://www.w3.org/1999/xlink"
   xmlns:sodipodi="http://sodipodi.sourceforge.net/DTD/sodipodi-0.dtd"
   xmlns:inkscape="http://www.inkscape.org/namespaces/inkscape"
   version="1.1"
   width="75"
   height="380"
   viewBox="0 0 75 380"
   id="svg143"
   sodipodi:docname="FM.svg"
   inkscape:version="1.0.2 (e86c8708, 2021-01-15)">
  <metadata
     id="metadata147">
    <rdf:RDF>
      <cc:Work
         rdf:about="">
        <dc:format>image/svg+xml</dc:format>
        <dc:type
           rdf:resource="http://purl.org/dc/dcmitype/StillImage" />
      </cc:Work>
    </rdf:RDF>
  </metadata>
  <sodipodi:namedview
     pagecolor="#ffffff"
     bordercolor="#666666"
     borderopacity="1"
     objecttolerance="10"
     gridtolerance="10"
     guidetolerance="10"
     inkscape:pageopacity="0"
     inkscape:pageshadow="2"
     inkscape:window-width="689"
     inkscape:window-height="480"
     id="namedview145"
     showgrid="false"
     inkscape:zoom="2.1763158"
     inkscape:cx="37.5"
     inkscape:cy="190"
     inkscape:window-x="0"
     inkscape:window-y="25"
     inkscape:window-maximized="0"
     inkscape:current-layer="svg143" />
  <style
     id="style2">
    text.title {
      fill: #a91913;
      font-family: 'American Typewriter';
      font-size: 12.5pt;
    }
    text.logo {
      fill: #a91913;
      font-family: 'American Typewriter';
      font-size: 11pt;
    }
    text.big-label {
      fill: #343434;
      font-family: 'Helvetica';
      font-weight: bold;
      font-size: 7.5pt;
    }
    text.label {
      fill: #343434;
      font-family: 'Helvetica';
      font-weight: bold;
      font-size: 6pt;
    }
    .background {
      fill: #e0e0e0;
    }
    .output {
      fill: #bbbbbb;
    }
    polyline.icon {
      stroke: #343434;
      stroke-width: 1.2;
      fill: none;
    }
    polyline.connect {
      stroke: #343434;
      stroke-width: 1;
      fill: none;
    }

    .blueprint {
      stroke: #08f;
      fill: none;
    }
  </style>
  <!-- ======== defs ======== -->
  <defs
     id="defs53">
    <linearGradient
       id="smallKnobMediumGradient">
      <stop
         offset="5%"
         stop-color="#888"
         id="stop4" />
      <stop
         offset="95%"
         stop-color="#333"
         id="stop6" />
    </linearGradient>
    <linearGradient
       id="smallKnobDarkGradient">
      <stop
         offset="5%"
         stop-color="#444"
         id="stop9" />
      <stop
         offset="95%"
         stop-color="#222"
         id="stop11" />
    </linearGradient>
    <linearGradient
       id="bigKnobDarkGradient">
      <stop
         offset="5%"
         stop-color="#5c5c5c"
         id="stop14" />
      <stop
         offset="95%"
         stop-color="#282828"
         id="stop16" />
    </linearGradient>
    <linearGradient
       id="bigKnobMediumGradient">
      <stop
         offset="5%"
         stop-color="#888"
         id="stop19" />
      <stop
         offset="95%"
         stop-color="#333"
         id="stop21" />
    </linearGradient>
    <symbol
       id="knob18">
      <g
         transform="translate(9 9)"
         id="g30">
        <circle
           r="8.5"
           stroke="#222"
           fill="none"
           id="circle24" />
        <circle
           r="8"
           fill="url('#smallKnobMediumGradient')"
           transform="rotate(90)"
           id="circle26" />
        <circle
           r="7"
           fill="url('#smallKnobDarkGradient')"
           transform="rotate(90)"
           id="circle28" />
      </g>
    </symbol>
    <symbol
       id="knob40">
      <g
         transform="translate(20 20)"
         id="g37">
        <circle
           r="19.5"
           fill="url('#bigKnobDarkGradient')"
           transform="rotate(90)"
           id="circle33" />
        <circle
           r="17.5"
           fill="url('#bigKnobMediumGradient')"
           transform="rotate(90)"
           id="circle35" />
      </g>
    </symbol>
    <symbol
       id="knob50">
      <g
         transform="translate(25 25)"
         id="g44">
        <circle
           r="24.5"
           fill="url('#bigKnobDarkGradient')"
           transform="rotate(90)"
           id="circle40" />
        <circle
           r="22.5"
           fill="url('#bigKnobMediumGradient')"
           transform="rotate(90)"
           id="circle42" />
      </g>
    </symbol>
    <symbol
       id="port">
      <g
         transform="translate(12 12)"
         id="g47" />
    </symbol>
    <symbol
       id="hswitch14">
      <g
         transform="translate(12 7)"
         id="g50" />
    </symbol>
    <linearGradient
       inkscape:collect="always"
       xlink:href="#bigKnobDarkGradient"
       id="linearGradient187"
       x1="-19.5"
       y1="-19.5"
       x2="19.5"
       y2="-19.5"
       gradientUnits="userSpaceOnUse" />
    <linearGradient
       inkscape:collect="always"
       xlink:href="#bigKnobMediumGradient"
       id="linearGradient189"
       x1="-17.5"
       y1="-17.5"
       x2="17.5"
       y2="-17.5"
       gradientUnits="userSpaceOnUse" />
    <linearGradient
       inkscape:collect="always"
       xlink:href="#bigKnobDarkGradient"
       id="linearGradient211"
       x1="-19.5"
       y1="-19.5"
       x2="19.5"
       y2="-19.5"
       gradientUnits="userSpaceOnUse" />
    <linearGradient
       inkscape:collect="always"
       xlink:href="#bigKnobMediumGradient"
       id="linearGradient213"
       x1="-17.5"
       y1="-17.5"
       x2="17.5"
       y2="-17.5"
       gradientUnits="userSpaceOnUse" />
    <linearGradient
       inkscape:collect="always"
       xlink:href="#smallKnobMediumGradient"
       id="linearGradient225"
       x1="-8"
       y1="-8"
       x2="8"
       y2="-8"
       gradientUnits="userSpaceOnUse" />
    <linearGradient
       inkscape:collect="always"
       xlink:href="#smallKnobDarkGradient"
       id="linearGradient227"
       x1="-7"
       y1="-7"
       x2="7"
       y2="-7"
       gradientUnits="userSpaceOnUse" />
    <linearGradient
       inkscape:collect="always"
       xlink:href="#smallKnobMediumGradient"
       id="linearGradient239"
       x1="-8"
       y1="-8"
       x2="8"
       y2="-8"
       gradientUnits="userSpaceOnUse" />
    <linearGradient
       inkscape:collect="always"
       xlink:href="#smallKnobDarkGradient"
       id="linearGradient241"
       x1="-7"
       y1="-7"
       x2="7"
       y2="-7"
       gradientUnits="userSpaceOnUse" />
  </defs>
  <!-- ======== id ======== -->
  <path
     id="rect55"
     style="fill:#e0e0e0"
     d="M 0,0 H 75 V 380 H 0 Z"
     class="background" />
  <g
     aria-label="FM"
     id="text57"
     style="font-size:16.6667px;font-family:'American Typewriter';text-anchor:middle;fill:#a91913"
     class="title">
    <path
       d="m 26.913282,25.15 v -1.4 l -0.01667,-2.65 q 0,-1.233333 -0.85,-1.233333 -0.216667,0 -0.333333,0.03333 -0.266667,0.05 -0.433334,0.05 -0.216666,0 -0.366666,-0.15 -0.15,-0.166666 -0.15,-0.4 0,-0.583333 0.7,-0.583333 0.08333,0 0.25,0.01667 l 1.15,0.116666 q 0.65,0.06667 1.45,0.06667 0.433333,0 1.866666,-0.05 L 32.096615,18.9 q 0.383333,-0.01667 0.9,-0.05 0.233333,-0.01667 0.5,-0.01667 0.883333,0 0.883333,0.783333 0,0.3 -0.08333,0.916667 -0.08333,0.616666 -0.08333,0.933333 0,0.266667 0.03333,0.666667 0.03333,0.4 0.03333,0.733333 0,0.683333 -0.6,0.683333 -0.616667,0 -0.616667,-0.783333 0,-0.233333 0.01667,-0.716667 0.03333,-0.483333 0.03333,-0.716666 0,-0.883334 -0.5,-1.116667 -0.5,-0.233333 -2.366666,-0.233333 -1.583333,0 -1.8,0.283333 Q 28.279948,20.483334 28.279948,21.8 v 1.233334 q 0,0.466666 0.116667,0.583333 0.133333,0.1 0.7,0.1 h 0.55 q 1.083333,0 1.083333,-0.8 0,-0.183333 -0.05,-0.5 -0.03333,-0.316667 -0.03333,-0.483333 0,-0.633334 0.6,-0.633334 0.566666,0 0.566666,0.733334 0,0.1 -0.03333,0.4 l -0.1,0.9 q -0.06667,0.6 -0.06667,0.9 0,0.683333 0.15,1.733333 0.05,0.35 0.05,0.666666 0,0.65 -0.6,0.65 -0.566666,0 -0.566666,-0.7 0,-0.166666 0.01667,-0.5 0.03333,-0.333333 0.03333,-0.499999 0,-0.516667 -0.283333,-0.666667 Q 30.229948,24.8 29.646615,24.8 h -0.516667 q -0.583333,0 -0.716666,0.133334 -0.133334,0.133333 -0.133334,0.733333 V 27.65 q 0,0.783333 0.166667,1.066667 0.183333,0.266666 0.666667,0.266666 0.116666,0 0.366666,-0.01667 0.25,-0.01667 0.366667,-0.01667 0.766667,0 0.766667,0.566667 0,0.233333 -0.183334,0.4 -0.166666,0.166666 -0.416666,0.166666 -0.266667,0 -0.783334,-0.08333 -0.733333,-0.116667 -1.666666,-0.116667 -0.6,0 -1.283334,0.1 l -0.566666,0.08333 q -0.05,0 -0.116667,0.01667 -0.06667,0 -0.1,0 -0.733333,0 -0.733333,-0.6 0,-0.533333 0.516666,-0.533333 0.06667,0 0.433334,0.03333 0.183333,0.05 0.35,0.05 0.45,0 0.616666,-0.266666 0.183334,-0.283334 0.2,-0.983334 z"
       style="font-size:16.6667px;font-family:'American Typewriter';text-anchor:middle;fill:#a91913"
       id="path306" />
    <path
       d="M 40.082291,20.066667 42.648958,28.5 45.465624,19.516667 q 0.216667,-0.7 0.75,-0.7 h 0.08333 q 0.166666,0 0.433333,0.05 0.333333,0.08333 0.433333,0.08333 0.266667,0.03333 0.733334,0.03333 0.5,0 0.783333,-0.05 l 0.583333,-0.1 q 0.05,-0.01667 0.2,-0.01667 0.766667,0 0.766667,0.583333 0,0.533334 -0.533333,0.533334 -0.133334,0 -0.4,-0.03333 -0.25,-0.05 -0.383334,-0.05 -0.85,0 -0.85,1.25 v 1.166667 l -0.01667,1.466667 V 25.15 l 0.01667,2.633333 q 0,1.25 0.833334,1.25 0.166666,0 0.366666,-0.05 0.366667,-0.03333 0.433334,-0.03333 0.533333,0 0.533333,0.533333 0,0.6 -0.716667,0.6 0.03333,0 -0.25,-0.03333 -1.15,-0.133333 -1.95,-0.133333 -0.783333,0 -1.5,0.116666 -0.3,0.05 -0.533333,0.05 -0.65,0 -0.65,-0.55 0,-0.566666 0.666667,-0.566666 0.166666,0 0.25,0.01667 0.366666,0.03333 0.433333,0.03333 0.6,0 0.75,-1.25 0.03333,-0.266667 0.03333,-1.7 0,-0.55 0.01667,-1.6 l 0.03333,-1.5 v -2.95 q 0,-0.1 -0.08333,-0.1 -0.05,0 -0.1,0.1 l -3.066666,9.516666 q -0.2,0.633334 -0.933334,0.633334 -0.433333,0 -0.65,-0.133334 -0.2,-0.116666 -0.316666,-0.5 l -3.016667,-9.516666 q -0.05,-0.1 -0.116667,-0.1 -0.06667,0 -0.06667,0.1 l 0.1,7.75 q 0.01667,1.216666 0.666666,1.216666 0.183334,0 0.5,-0.06667 h 0.2 q 0.65,0 0.65,0.583333 0,0.583333 -0.666666,0.583333 -0.116667,0 -0.35,-0.03333 -0.366667,-0.05 -0.783334,-0.116667 -0.333333,-0.05 -0.85,-0.05 -0.916666,0 -1.183333,0.05 l -0.7,0.133334 q -0.03333,0 -0.1,0.01667 -0.06667,0 -0.1,0 -0.766666,0 -0.766666,-0.583333 0,-0.233333 0.15,-0.383333 0.15,-0.166667 0.366666,-0.166667 0.183333,0 0.433333,0.05 0.25,0.05 0.366667,0.05 0.85,0 0.85,-1.25 v -6.7 q 0,-1.25 -0.85,-1.25 -0.133333,0 -0.4,0.05 -0.266667,0.03333 -0.4,0.03333 -0.516666,0 -0.516666,-0.533334 0,-0.583333 0.749999,-0.583333 0.06667,0 0.216667,0.01667 L 36.632291,18.9 q 0.433334,0.05 0.816667,0.05 0.316667,0 0.85,-0.06667 0.55,-0.06667 0.8,-0.06667 0.65,0 0.866667,0.816667 z"
       style="font-size:16.6667px;font-family:'American Typewriter';text-anchor:middle;fill:#a91913"
       id="path308" />
  </g>
  <g
     aria-label="a.r.c."
     id="text59"
     style="font-size:14.6667px;font-family:'American Typewriter';text-anchor:middle;fill:#a91913"
     class="logo">
    <path
       d="m 27.577885,362.19067 q -1.202666,0 -1.481333,-1.04134 -0.748,1.1 -2.346667,1.1 -1.188,0 -1.906667,-0.58666 -0.704,-0.58667 -0.704,-1.56934 0,-1.21733 1.041334,-1.78933 0.396,-0.22 0.674666,-0.27867 0.293334,-0.0733 1.158667,-0.176 1.232,-0.132 1.598667,-0.36666 0.381333,-0.23467 0.381333,-0.86534 0,-0.60133 -0.425333,-0.93866 -0.410667,-0.352 -1.158667,-0.352 -0.66,0 -1.232,0.36666 -0.22,0.14667 -0.22,0.308 0,0.0587 0.132,0.14667 0.205333,0.14667 0.205333,0.49867 0,0.29333 -0.22,0.484 -0.205333,0.19066 -0.528,0.19066 -0.381333,0 -0.645333,-0.264 -0.249333,-0.264 -0.249333,-0.64533 0,-0.82133 0.806666,-1.408 0.821334,-0.58667 1.98,-0.58667 2.669334,0 2.669334,2.56667 v 2.96267 q 0,0.704 0.02933,0.836 0.088,0.51333 0.498667,0.51333 0.513333,0 0.513333,-0.93867 v -0.71866 q 0,-0.46934 0.454667,-0.46934 0.484,0 0.484,0.704 v 0.0733 l -0.01467,0.836 q -0.02933,1.408 -1.496,1.408 z m -1.628,-2.91867 0.01467,-1.04133 q -0.322667,0.29333 -0.689334,0.41066 -0.352,0.11734 -1.276,0.20534 -1.672,0.16133 -1.672,1.232 0,0.55733 0.396,0.88 0.410667,0.32266 1.1,0.32266 0.982667,0 1.54,-0.528 0.572,-0.54266 0.586667,-1.48133 z"
       style="font-size:14.6667px;font-family:'American Typewriter';text-anchor:middle;fill:#a91913"
       id="path293" />
    <path
       d="m 30.972532,362.24933 q -0.381334,0 -0.645334,-0.264 -0.264,-0.27866 -0.264,-0.66 0,-0.38133 0.264,-0.64533 0.264,-0.27867 0.645334,-0.27867 0.381333,0 0.645333,0.27867 0.264,0.264 0.264,0.64533 0,0.38134 -0.264,0.66 -0.264,0.264 -0.645333,0.264 z"
       style="font-size:14.6667px;font-family:'American Typewriter';text-anchor:middle;fill:#a91913"
       id="path295" />
    <path
       d="m 35.774949,355.092 v 0.396 q 0.762666,-1.07067 2.038666,-1.07067 1.026667,0 1.657334,0.58667 0.645333,0.572 0.645333,1.48133 0,0.64534 -0.322667,1.056 -0.322666,0.396 -0.850666,0.396 -0.337334,0 -0.572,-0.20533 -0.234667,-0.20533 -0.234667,-0.49867 0,-0.23466 0.176,-0.41066 0.176,-0.19067 0.410667,-0.19067 0.044,0 0.190666,0.044 0.088,-0.176 0.088,-0.32267 0,-0.42533 -0.381333,-0.71866 -0.366667,-0.29334 -0.924,-0.29334 -1.144,0 -1.525333,1.02667 -0.234667,0.63067 -0.234667,1.90667 v 0.968 q 0,0.98266 0.01467,1.1 0.07333,0.836 0.454666,0.836 0.190667,0 0.396,-0.0587 0.161334,-0.044 0.278667,-0.044 0.469333,0 0.469333,0.46933 0,0.51334 -0.601333,0.51334 h -0.05867 q -0.22,0 -0.674666,-0.0587 -0.44,-0.044 -0.66,-0.044 -0.586667,0 -0.924,0.0293 l -0.821334,0.0733 q -0.601333,0 -0.601333,-0.51334 0,-0.45466 0.557333,-0.45466 0.146667,0 0.22,0.0147 l 0.22,0.044 q 0.146667,0.0293 0.205334,0.0293 0.366666,0 0.396,-0.67467 l 0.02933,-0.748 -0.044,-3.32933 q -0.044,-0.86534 -0.44,-0.86534 -0.117333,0 -0.322667,0.044 -0.205333,0.044 -0.322666,0.044 -0.484,0 -0.484,-0.46933 0,-0.51333 0.630666,-0.51333 0.146667,0 0.44,0.044 0.293334,0.0293 0.44,0.0293 0.117334,0 0.381334,-0.0293 0.117333,-0.0293 0.278666,-0.0293 0.381334,0 0.381334,0.41067 z"
       style="font-size:14.6667px;font-family:'American Typewriter';text-anchor:middle;fill:#a91913"
       id="path297" />
    <path
       d="m 40.810893,362.24933 q -0.381333,0 -0.645333,-0.264 -0.264,-0.27866 -0.264,-0.66 0,-0.38133 0.264,-0.64533 0.264,-0.27867 0.645333,-0.27867 0.381334,0 0.645334,0.27867 0.264,0.264 0.264,0.64533 0,0.38134 -0.264,0.66 -0.264,0.264 -0.645334,0.264 z"
       style="font-size:14.6667px;font-family:'American Typewriter';text-anchor:middle;fill:#a91913"
       id="path299" />
    <path
       d="m 47.653802,357.16 q 0,-0.58667 0.733334,-0.67467 -0.07333,-0.51333 -0.498667,-0.80666 -0.410667,-0.29334 -1.070667,-0.29334 -1.012,0 -1.628,0.80667 -0.616,0.80667 -0.616,2.14133 0,1.37867 0.572,2.17067 0.586667,0.77733 1.613334,0.77733 0.645333,0 1.114666,-0.36666 0.484,-0.36667 0.66,-1.012 0.146667,-0.51334 0.176,-0.58667 0.161334,-0.29333 0.469334,-0.29333 0.249333,0 0.410667,0.16133 0.161333,0.16133 0.161333,0.41067 0,0.36666 -0.234667,0.88 -0.234667,0.51333 -0.557333,0.85066 -0.865334,0.924 -2.244,0.924 -1.496,0 -2.42,-1.056 -0.909334,-1.056 -0.909334,-2.772 0,-1.81866 0.938667,-2.904 0.953333,-1.1 2.522667,-1.1 1.173333,0 1.950666,0.64534 0.777334,0.63066 0.777334,1.61333 0,0.54267 -0.308,0.89467 -0.293334,0.352 -0.762667,0.352 -0.366667,0 -0.616,-0.22 -0.234667,-0.22 -0.234667,-0.54267 z"
       style="font-size:14.6667px;font-family:'American Typewriter';text-anchor:middle;fill:#a91913"
       id="path301" />
    <path
       d="m 52.285032,362.24933 q -0.381334,0 -0.645334,-0.264 -0.264,-0.27866 -0.264,-0.66 0,-0.38133 0.264,-0.64533 0.264,-0.27867 0.645334,-0.27867 0.381333,0 0.645333,0.27867 0.264,0.264 0.264,0.64533 0,0.38134 -0.264,0.66 -0.264,0.264 -0.645333,0.264 z"
       style="font-size:14.6667px;font-family:'American Typewriter';text-anchor:middle;fill:#a91913"
       id="path303" />
  </g>
  <!-- ======== knobs and switches ======== -->
  <g
     aria-label="RATIO"
     id="text61"
     style="font-weight:bold;font-size:10px;font-family:Helvetica;text-anchor:middle;fill:#343434"
     class="big-label">
    <path
       d="M 26.132812,53.177734 H 24.580078 V 56 h -1.469726 v -7.197266 h 3.530273 q 0.756836,0.01465 1.162109,0.185547 0.410157,0.170899 0.69336,0.50293 0.234375,0.273437 0.371093,0.605469 0.136719,0.332031 0.136719,0.756836 0,0.512695 -0.258789,1.010742 -0.258789,0.493164 -0.854492,0.698242 0.498047,0.200195 0.703125,0.571289 0.209961,0.366211 0.209961,1.123047 v 0.483398 q 0,0.493164 0.03906,0.668946 0.05859,0.27832 0.273438,0.410156 V 56 h -1.655274 q -0.06836,-0.239258 -0.09766,-0.385742 -0.05859,-0.302735 -0.06348,-0.620117 l -0.0098,-0.668946 q -0.0098,-0.688476 -0.253906,-0.917968 -0.239258,-0.229493 -0.903321,-0.229493 z m 0.913086,-1.308593 q 0.449219,-0.205079 0.449219,-0.810547 0,-0.654297 -0.43457,-0.878907 -0.244141,-0.126953 -0.732422,-0.126953 h -1.748047 v 1.933594 h 1.704102 q 0.507812,0 0.761718,-0.117187 z"
       style="font-weight:bold;font-size:10px;font-family:Helvetica;text-anchor:middle;fill:#343434"
       id="path332" />
    <path
       d="M 34.516602,54.520508 H 31.865234 L 31.367187,56 h -1.572265 l 2.568359,-7.197266 H 34.0625 L 36.611328,56 h -1.630859 z m -0.419922,-1.240235 -0.898438,-2.832031 -0.927734,2.832031 z"
       style="font-weight:bold;font-size:10px;font-family:Helvetica;text-anchor:middle;fill:#343434"
       id="path334" />
    <path
       d="m 42.019043,48.802734 v 1.274414 h -2.15332 V 56 h -1.513672 v -5.922852 h -2.163086 v -1.274414 z"
       style="font-weight:bold;font-size:10px;font-family:Helvetica;text-anchor:middle;fill:#343434"
       id="path336" />
    <path
       d="m 42.783203,48.802734 h 1.494141 V 56 h -1.494141 z"
       style="font-weight:bold;font-size:10px;font-family:Helvetica;text-anchor:middle;fill:#343434"
       id="path338" />
    <path
       d="m 48.857422,56.200195 q -1.542969,0 -2.358399,-0.839843 -1.09375,-1.030274 -1.09375,-2.96875 0,-1.97754 1.09375,-2.96875 0.81543,-0.839844 2.358399,-0.839844 1.542969,0 2.358398,0.839844 1.088867,0.99121 1.088867,2.96875 0,1.938476 -1.088867,2.96875 -0.815429,0.839843 -2.358398,0.839843 z m 1.420898,-1.933593 q 0.522461,-0.65918 0.522461,-1.875 0,-1.210938 -0.527344,-1.870118 -0.52246,-0.664062 -1.416015,-0.664062 -0.893555,0 -1.425781,0.65918 -0.532227,0.659179 -0.532227,1.875 0,1.21582 0.532227,1.875 0.532226,0.659179 1.425781,0.659179 0.893555,0 1.420898,-0.659179 z"
       style="font-weight:bold;font-size:10px;font-family:Helvetica;text-anchor:middle;fill:#343434"
       id="path340" />
  </g>
  <g
     id="use63"
     transform="translate(17.5,62)">
    <g
       transform="translate(20,20)"
       id="g183">
      <path
         id="circle179"
         style="fill:url(#linearGradient187)"
         transform="rotate(90)"
         d="M 19.5,0 A 19.5,19.5 0 0 1 0,19.5 19.5,19.5 0 0 1 -19.5,0 19.5,19.5 0 0 1 0,-19.5 19.5,19.5 0 0 1 19.5,0 Z" />
      <path
         id="circle181"
         style="fill:url(#linearGradient189)"
         transform="rotate(90)"
         d="M 17.5,0 A 17.5,17.5 0 0 1 0,17.5 17.5,17.5 0 0 1 -17.5,0 17.5,17.5 0 0 1 0,-17.5 17.5,17.5 0 0 1 17.5,0 Z" />
    </g>
  </g>
  <g
     id="use67"
     transform="translate(25.5,111)">
    <g
       transform="translate(12,7)"
       id="g199" />
  </g>
  <g
     transform="translate(56.5,118)"
     id="g71">
    <path
       id="polyline69"
       style="fill:none;stroke:#343434;stroke-width:1.2"
       d="M -4,4 4,-4"
       class="icon" />
  </g>
  <g
     transform="translate(18.5,118)"
     id="g75">
    <path
       id="polyline73"
       style="fill:none;stroke:#343434;stroke-width:1.2"
       d="M -4,4 V 0 h 4 v -4 h 4"
       class="icon" />
  </g>
  <g
     aria-label="OFFSET"
     id="text79"
     style="font-weight:bold;font-size:10px;font-family:Helvetica;text-anchor:middle;fill:#343434"
     class="big-label">
    <path
       d="m 21.708984,154.2002 q -1.542968,0 -2.358398,-0.83985 -1.09375,-1.03027 -1.09375,-2.96875 0,-1.97754 1.09375,-2.96875 0.81543,-0.83984 2.358398,-0.83984 1.542969,0 2.358399,0.83984 1.088867,0.99121 1.088867,2.96875 0,1.93848 -1.088867,2.96875 -0.81543,0.83985 -2.358399,0.83985 z m 1.420899,-1.9336 q 0.522461,-0.65918 0.522461,-1.875 0,-1.21094 -0.527344,-1.87012 -0.522461,-0.66406 -1.416016,-0.66406 -0.893554,0 -1.425781,0.65918 -0.532226,0.65918 -0.532226,1.875 0,1.21582 0.532226,1.875 0.532227,0.65918 1.425781,0.65918 0.893555,0 1.420899,-0.65918 z"
       style="font-weight:bold;font-size:10px;font-family:Helvetica;text-anchor:middle;fill:#343434"
       id="path278" />
    <path
       d="m 31.401367,148.07715 h -3.608398 v 1.65527 h 3.159179 v 1.25 H 27.792969 V 154 h -1.494141 v -7.1875 h 5.102539 z"
       style="font-weight:bold;font-size:10px;font-family:Helvetica;text-anchor:middle;fill:#343434"
       id="path280" />
    <path
       d="M 37.514648,148.07715 H 33.90625 v 1.65527 h 3.15918 v 1.25 H 33.90625 V 154 h -1.494141 v -7.1875 h 5.102539 z"
       style="font-weight:bold;font-size:10px;font-family:Helvetica;text-anchor:middle;fill:#343434"
       id="path282" />
    <path
       d="m 41.137695,152.95996 q 0.532227,0 0.864258,-0.11719 0.629883,-0.22461 0.629883,-0.83496 0,-0.35644 -0.3125,-0.55176 -0.3125,-0.19043 -0.981445,-0.33691 l -0.761719,-0.1709 q -1.123047,-0.2539 -1.552735,-0.55176 -0.727539,-0.49804 -0.727539,-1.55761 0,-0.9668 0.703125,-1.60645 0.703125,-0.63965 2.06543,-0.63965 1.137695,0 1.938477,0.60547 0.805664,0.60059 0.844726,1.74805 h -1.445312 q -0.03906,-0.64942 -0.566407,-0.92285 -0.351562,-0.18067 -0.874023,-0.18067 -0.581055,0 -0.927734,0.23438 -0.34668,0.23437 -0.34668,0.6543 0,0.38574 0.341797,0.57617 0.219726,0.12695 0.9375,0.29785 l 1.240234,0.29785 q 0.81543,0.19531 1.230469,0.52246 0.644531,0.50781 0.644531,1.46973 0,0.98633 -0.756836,1.64062 -0.751953,0.64942 -2.128906,0.64942 -1.40625,0 -2.211914,-0.63965 -0.805664,-0.64453 -0.805664,-1.76758 h 1.435547 q 0.06836,0.49316 0.268554,0.7373 0.366211,0.44434 1.254883,0.44434 z"
       style="font-weight:bold;font-size:10px;font-family:Helvetica;text-anchor:middle;fill:#343434"
       id="path284" />
    <path
       d="M 50.214844,150.85547 H 46.71875 v 1.85058 h 3.984375 V 154 h -5.454102 v -7.19727 h 5.278321 v 1.27442 H 46.71875 v 1.52832 h 3.496094 z"
       style="font-weight:bold;font-size:10px;font-family:Helvetica;text-anchor:middle;fill:#343434"
       id="path286" />
    <path
       d="m 57.114258,146.80273 v 1.27442 H 54.960937 V 154 h -1.513671 v -5.92285 H 51.28418 v -1.27442 z"
       style="font-weight:bold;font-size:10px;font-family:Helvetica;text-anchor:middle;fill:#343434"
       id="path288" />
  </g>
  <g
     id="use81"
     transform="translate(17.5,160)">
    <g
       transform="translate(20,20)"
       id="g207">
      <path
         id="circle203"
         style="fill:url(#linearGradient211)"
         transform="rotate(90)"
         d="M 19.5,0 A 19.5,19.5 0 0 1 0,19.5 19.5,19.5 0 0 1 -19.5,0 19.5,19.5 0 0 1 0,-19.5 19.5,19.5 0 0 1 19.5,0 Z" />
      <path
         id="circle205"
         style="fill:url(#linearGradient213)"
         transform="rotate(90)"
         d="M 17.5,0 A 17.5,17.5 0 0 1 0,17.5 17.5,17.5 0 0 1 -17.5,0 17.5,17.5 0 0 1 0,-17.5 17.5,17.5 0 0 1 17.5,0 Z" />
    </g>
  </g>
  <!-- ======== row 1 ======== -->
  <path
     id="polyline85"
     transform="translate(19.5,236)"
     style="fill:none;stroke:#343434;stroke-width:1"
     d="M 0,0 V 42"
     class="connect" />
  <g
     transform="translate(19.5,251)"
     id="g93">
    <path
       id="polyline87"
       style="fill:none;stroke:#343434;stroke-width:1.2"
       d="m -7,0 h 4"
       class="icon" />
    <path
       id="polyline89"
       style="fill:none;stroke:#343434;stroke-width:1.2"
       d="M 7,0 H 3"
       class="icon" />
    <path
       id="polyline91"
       style="fill:none;stroke:#343434;stroke-width:1.2"
       d="M 5,-2 V 2"
       class="icon" />
  </g>
  <g
     id="use97"
     transform="translate(10.5,227)">
    <g
       transform="translate(9,9)"
       id="g221">
      <path
         id="circle215"
         style="fill:none;stroke:#222222"
         d="M 8.5,0 A 8.5,8.5 0 0 1 0,8.5 8.5,8.5 0 0 1 -8.5,0 8.5,8.5 0 0 1 0,-8.5 8.5,8.5 0 0 1 8.5,0 Z" />
      <path
         id="circle217"
         style="fill:url(#linearGradient225)"
         transform="rotate(90)"
         d="M 8,0 A 8,8 0 0 1 0,8 8,8 0 0 1 -8,0 8,8 0 0 1 0,-8 8,8 0 0 1 8,0 Z" />
      <path
         id="circle219"
         style="fill:url(#linearGradient227)"
         transform="rotate(90)"
         d="M 7,0 A 7,7 0 0 1 0,7 7,7 0 0 1 -7,0 7,7 0 0 1 0,-7 7,7 0 0 1 7,0 Z" />
    </g>
  </g>
  <path
     id="polyline101"
     transform="translate(55.5,236)"
     style="fill:none;stroke:#343434;stroke-width:1"
     d="M 0,0 V 42"
     class="connect" />
  <g
     transform="translate(55.5,251)"
     id="g109">
    <path
       id="polyline103"
       style="fill:none;stroke:#343434;stroke-width:1.2"
       d="m -7,0 h 4"
       class="icon" />
    <path
       id="polyline105"
       style="fill:none;stroke:#343434;stroke-width:1.2"
       d="M 7,0 H 3"
       class="icon" />
    <path
       id="polyline107"
       style="fill:none;stroke:#343434;stroke-width:1.2"
       d="M 5,-2 V 2"
       class="icon" />
  </g>
  <g
     id="use113"
     transform="translate(46.5,227)">
    <g
       transform="translate(9,9)"
       id="g235">
      <path
         id="circle229"
         style="fill:none;stroke:#222222"
         d="M 8.5,0 A 8.5,8.5 0 0 1 0,8.5 8.5,8.5 0 0 1 -8.5,0 8.5,8.5 0 0 1 0,-8.5 8.5,8.5 0 0 1 8.5,0 Z" />
      <path
         id="circle231"
         style="fill:url(#linearGradient239)"
         transform="rotate(90)"
         d="M 8,0 A 8,8 0 0 1 0,8 8,8 0 0 1 -8,0 8,8 0 0 1 0,-8 8,8 0 0 1 8,0 Z" />
      <path
         id="circle233"
         style="fill:url(#linearGradient241)"
         transform="rotate(90)"
         d="M 7,0 A 7,7 0 0 1 0,7 7,7 0 0 1 -7,0 7,7 0 0 1 0,-7 7,7 0 0 1 7,0 Z" />
    </g>
  </g>
  <!-- ======== row 2 ======== -->
  <g
     id="use117"
     transform="translate(7.5,266)">
    <g
       transform="translate(12,12)"
       id="g191" />
  </g>
  <g
     aria-label="RAT"
     id="text119"
     style="font-weight:bold;font-size:8px;font-family:Helvetica;text-anchor:middle;fill:#343434"
     class="label">
    <path
       d="M 14.625,297.74219 H 13.382813 V 300 h -1.175782 v -5.75781 h 2.824219 q 0.605469,0.0117 0.929688,0.14843 0.328124,0.13672 0.554687,0.40235 0.1875,0.21875 0.296875,0.48437 0.109375,0.26563 0.109375,0.60547 0,0.41016 -0.207031,0.8086 -0.207032,0.39453 -0.683594,0.55859 0.398437,0.16016 0.5625,0.45703 0.167969,0.29297 0.167969,0.89844 v 0.38672 q 0,0.39453 0.03125,0.53515 0.04687,0.22266 0.21875,0.32813 V 300 H 15.6875 q -0.05469,-0.19141 -0.07813,-0.30859 -0.04687,-0.24219 -0.05078,-0.4961 l -0.0078,-0.53515 q -0.0078,-0.55079 -0.203125,-0.73438 -0.191406,-0.18359 -0.722656,-0.18359 z m 0.730469,-1.04688 q 0.359375,-0.16406 0.359375,-0.64844 0,-0.52343 -0.347656,-0.70312 -0.195313,-0.10156 -0.585938,-0.10156 h -1.398437 v 1.54687 h 1.363281 q 0.40625,0 0.609375,-0.0937 z"
       style="font-weight:bold;font-size:8px;font-family:Helvetica;text-anchor:middle;fill:#343434"
       id="path319" />
    <path
       d="M 21.332031,298.81641 H 19.210937 L 18.8125,300 h -1.257813 l 2.054688,-5.75781 H 20.96875 L 23.007812,300 h -1.304687 z m -0.335937,-0.99219 -0.71875,-2.26563 -0.742188,2.26563 z"
       style="font-weight:bold;font-size:8px;font-family:Helvetica;text-anchor:middle;fill:#343434"
       id="path321" />
    <path
       d="m 27.333984,294.24219 v 1.01953 H 25.611328 V 300 h -1.210937 v -4.73828 h -1.730469 v -1.01953 z"
       style="font-weight:bold;font-size:8px;font-family:Helvetica;text-anchor:middle;fill:#343434"
       id="path323" />
  </g>
  <g
     id="use123"
     transform="translate(43.5,266)">
    <g
       transform="translate(12,12)"
       id="g243" />
  </g>
  <g
     aria-label="OFS"
     id="text125"
     style="font-weight:bold;font-size:8px;font-family:Helvetica;text-anchor:middle;fill:#343434"
     class="label">
    <path
       d="m 50.429687,300.16016 q -1.234375,0 -1.886718,-0.67188 -0.875,-0.82422 -0.875,-2.375 0,-1.58203 0.875,-2.375 0.652343,-0.67187 1.886718,-0.67187 1.234375,0 1.886719,0.67187 0.871094,0.79297 0.871094,2.375 0,1.55078 -0.871094,2.375 -0.652344,0.67188 -1.886719,0.67188 z m 1.136719,-1.54688 q 0.417969,-0.52734 0.417969,-1.5 0,-0.96875 -0.421875,-1.49609 -0.417969,-0.53125 -1.132813,-0.53125 -0.714843,0 -1.140625,0.52734 -0.425781,0.52734 -0.425781,1.5 0,0.97266 0.425781,1.5 0.425782,0.52734 1.140625,0.52734 0.714844,0 1.136719,-0.52734 z"
       style="font-weight:bold;font-size:8px;font-family:Helvetica;text-anchor:middle;fill:#343434"
       id="path259" />
    <path
       d="m 58.183594,295.26172 h -2.886719 v 1.32422 h 2.527344 v 1 H 55.296875 V 300 h -1.195313 v -5.75 h 4.082032 z"
       style="font-weight:bold;font-size:8px;font-family:Helvetica;text-anchor:middle;fill:#343434"
       id="path261" />
    <path
       d="m 61.082031,299.16797 q 0.425781,0 0.691406,-0.0937 0.503907,-0.17969 0.503907,-0.66797 0,-0.28516 -0.25,-0.44141 -0.25,-0.15234 -0.785157,-0.26953 l -0.609375,-0.13672 q -0.898437,-0.20312 -1.242187,-0.4414 -0.582031,-0.39844 -0.582031,-1.2461 0,-0.77343 0.5625,-1.28515 0.5625,-0.51172 1.652343,-0.51172 0.910157,0 1.550782,0.48437 0.644531,0.48047 0.675781,1.39844 h -1.15625 q -0.03125,-0.51953 -0.453125,-0.73828 -0.28125,-0.14453 -0.699219,-0.14453 -0.464844,0 -0.742187,0.1875 -0.277344,0.1875 -0.277344,0.52344 0,0.30859 0.273437,0.46093 0.175782,0.10157 0.75,0.23828 l 0.992188,0.23829 q 0.652344,0.15625 0.984375,0.41796 0.515625,0.40625 0.515625,1.17579 0,0.78906 -0.605469,1.3125 -0.601562,0.51953 -1.703125,0.51953 -1.125,0 -1.769531,-0.51172 -0.644531,-0.51563 -0.644531,-1.41406 h 1.148437 q 0.05469,0.39453 0.214844,0.58984 0.292969,0.35547 1.003906,0.35547 z"
       style="font-weight:bold;font-size:8px;font-family:Helvetica;text-anchor:middle;fill:#343434"
       id="path263" />
  </g>
  <!-- ======== row 3 ======== -->
  <g
     id="use129"
     transform="translate(7.5,308)">
    <g
       transform="translate(12,12)"
       id="g195" />
  </g>
  <g
     aria-label="CAR"
     id="text131"
     style="font-weight:bold;font-size:8px;font-family:Helvetica;text-anchor:middle;fill:#343434"
     class="label">
    <path
       d="m 15.5,341.57031 q -0.644531,0.58985 -1.648437,0.58985 -1.242188,0 -1.953125,-0.79688 -0.710938,-0.80078 -0.710938,-2.19531 0,-1.50781 0.808594,-2.32422 0.703125,-0.71094 1.789062,-0.71094 1.453125,0 2.125,0.95313 0.371094,0.53515 0.398438,1.07422 h -1.203125 q -0.117188,-0.41407 -0.300781,-0.625 -0.328125,-0.375 -0.972657,-0.375 -0.65625,0 -1.035156,0.53125 -0.378906,0.52734 -0.378906,1.49609 0,0.96875 0.398437,1.45312 0.402344,0.48047 1.019532,0.48047 0.632812,0 0.964843,-0.41406 0.183594,-0.22266 0.304688,-0.66797 h 1.191406 q -0.15625,0.94141 -0.796875,1.53125 z"
       style="font-weight:bold;font-size:8px;font-family:Helvetica;text-anchor:middle;fill:#343434"
       id="path312" />
    <path
       d="M 20.589844,340.81641 H 18.46875 L 18.070312,342 H 16.8125 l 2.054687,-5.75781 h 1.359375 L 22.265625,342 h -1.304688 z m -0.335938,-0.99219 -0.71875,-2.26563 -0.742187,2.26563 z"
       style="font-weight:bold;font-size:8px;font-family:Helvetica;text-anchor:middle;fill:#343434"
       id="path314" />
    <path
       d="M 25.445312,339.74219 H 24.203125 V 342 h -1.175781 v -5.75781 h 2.824218 q 0.605469,0.0117 0.929688,0.14843 0.328125,0.13672 0.554687,0.40235 0.1875,0.21875 0.296875,0.48437 0.109375,0.26563 0.109375,0.60547 0,0.41016 -0.207031,0.8086 -0.207031,0.39453 -0.683594,0.55859 0.398438,0.16016 0.5625,0.45703 0.167969,0.29297 0.167969,0.89844 v 0.38672 q 0,0.39453 0.03125,0.53515 0.04687,0.22266 0.21875,0.32813 V 342 h -1.324219 q -0.05469,-0.19141 -0.07813,-0.30859 -0.04687,-0.24219 -0.05078,-0.4961 l -0.0078,-0.53515 q -0.0078,-0.55079 -0.203125,-0.73438 -0.191407,-0.18359 -0.722657,-0.18359 z m 0.730469,-1.04688 q 0.359375,-0.16406 0.359375,-0.64844 0,-0.52343 -0.347656,-0.70312 -0.195313,-0.10156 -0.585938,-0.10156 h -1.398437 v 1.54687 h 1.363281 q 0.40625,0 0.609375,-0.0937 z"
       style="font-weight:bold;font-size:8px;font-family:Helvetica;text-anchor:middle;fill:#343434"
       id="path316" />
  </g>
  <path
     id="rect135"
     style="fill:#bbbbbb"
     d="m 42.5,304 h 26 c 1.662,0 3,1.338 3,3 v 36 c 0,1.662 -1.338,3 -3,3 h -26 c -1.662,0 -3,-1.338 -3,-3 v -36 c 0,-1.662 1.338,-3 3,-3 z"
     class="output" />
  <g
     id="use137"
     transform="translate(43.5,308)">
    <g
       transform="translate(12,12)"
       id="g247" />
  </g>
  <g
     aria-label="MOD"
     id="text139"
     style="font-weight:bold;font-size:8px;font-family:Helvetica;text-anchor:middle;fill:#343434"
     class="label">
    <path
       d="m 47.875,342 h -1.121094 v -5.75781 h 1.75 l 1.046875,4.52734 1.039063,-4.52734 h 1.730468 V 342 h -1.121093 v -3.89453 q 0,-0.16797 0.0039,-0.46875 0.0039,-0.30469 0.0039,-0.46875 L 50.117187,342 h -1.167968 l -1.082032,-4.83203 q 0,0.16406 0.0039,0.46875 0.0039,0.30078 0.0039,0.46875 z"
       style="font-weight:bold;font-size:8px;font-family:Helvetica;text-anchor:middle;fill:#343434"
       id="path251" />
    <path
       d="m 55.992187,342.16016 q -1.234375,0 -1.886718,-0.67188 -0.875,-0.82422 -0.875,-2.375 0,-1.58203 0.875,-2.375 0.652343,-0.67187 1.886718,-0.67187 1.234375,0 1.886719,0.67187 0.871094,0.79297 0.871094,2.375 0,1.55078 -0.871094,2.375 -0.652344,0.67188 -1.886719,0.67188 z m 1.136719,-1.54688 q 0.417969,-0.52734 0.417969,-1.5 0,-0.96875 -0.421875,-1.49609 -0.417969,-0.53125 -1.132813,-0.53125 -0.714843,0 -1.140625,0.52734 -0.425781,0.52734 -0.425781,1.5 0,0.97266 0.425781,1.5 0.425782,0.52734 1.140625,0.52734 0.714844,0 1.136719,-0.52734 z"
       style="font-weight:bold;font-size:8px;font-family:Helvetica;text-anchor:middle;fill:#343434"
       id="path253" />
    <path
       d="m 62.144531,342 h -2.480469 v -5.75781 h 2.480469 q 0.535156,0.008 0.890625,0.125 0.605469,0.19922 0.980469,0.73047 0.300781,0.42968 0.410156,0.92968 0.109375,0.5 0.109375,0.95313 0,1.14844 -0.460937,1.94531 Q 63.449219,342 62.144531,342 Z m 0.894531,-4.28906 q -0.277343,-0.46875 -1.097656,-0.46875 H 60.832031 V 341 h 1.109375 q 0.851563,0 1.1875,-0.83984 0.183594,-0.46094 0.183594,-1.09766 0,-0.87891 -0.273438,-1.35156 z"
       style="font-weight:bold;font-size:8px;font-family:Helvetica;text-anchor:middle;fill:#343434"
       id="path255" />
  </g>
</svg>
