<?xml version="1.0" encoding="UTF-8" standalone="no"?>
<svg
   xmlns:dc="http://purl.org/dc/elements/1.1/"
   xmlns:cc="http://creativecommons.org/ns#"
   xmlns:rdf="http://www.w3.org/1999/02/22-rdf-syntax-ns#"
   xmlns:svg="http://www.w3.org/2000/svg"
   xmlns="http://www.w3.org/2000/svg"
   xmlns:sodipodi="http://sodipodi.sourceforge.net/DTD/sodipodi-0.dtd"
   xmlns:inkscape="http://www.inkscape.org/namespaces/inkscape"
   version="1.1"
   width="60"
   height="380"
   viewBox="0 0 60 380"
   id="svg71"
   sodipodi:docname="FM.svg"
   inkscape:version="1.0.2 (e86c8708, 2021-01-15)">
  <metadata
     id="metadata75">
    <rdf:RDF>
      <cc:Work
         rdf:about="">
        <dc:format>image/svg+xml</dc:format>
        <dc:type
           rdf:resource="http://purl.org/dc/dcmitype/StillImage" />
      </cc:Work>
    </rdf:RDF>
  </metadata>
  <sodipodi:namedview
     pagecolor="#ffffff"
     bordercolor="#666666"
     borderopacity="1"
     objecttolerance="10"
     gridtolerance="10"
     guidetolerance="10"
     inkscape:pageopacity="0"
     inkscape:pageshadow="2"
     inkscape:window-width="689"
     inkscape:window-height="480"
     id="namedview73"
     showgrid="false"
     inkscape:zoom="2.1763158"
     inkscape:cx="30"
     inkscape:cy="190"
     inkscape:window-x="0"
     inkscape:window-y="25"
     inkscape:window-maximized="0"
     inkscape:current-layer="svg71" />
  <style
     id="style2">
    text.title {
      fill: #a91913;
      font-family: 'American Typewriter';
      font-size: 11pt;
    }
    text.big-label {
      fill: #3a3a3a;
      font-family: 'Helvetica';
      font-weight: bold;
      font-size: 7.5pt;
    }
    text.label {
      fill: #3a3a3a;
      font-family: 'Helvetica';
      font-weight: bold;
      font-size: 6pt;
    }
    polyline.connect {
      stroke: #7c6f64;
      stroke-width: 1;
    }
    .layout-button {
      stroke: #080;
      fill: #080;
    }
    .layout {
      stroke: #08f;
      fill: none;
    }
    .background {
      fill: #e0e0e0;
    }
    .output {
      fill: #c3c3c3;
    }
  </style>
  <defs
     id="defs31">
    <symbol
       id="knob36">
      <g
         transform="translate(18 18)"
         id="g10">
        <polyline
           points="-5,0 5,0"
           stroke-width="1"
           class="layout"
           id="polyline4" />
        <polyline
           points="0,-5 0,5"
           stroke-width="1"
           class="layout"
           id="polyline6" />
        <circle
           cx="0"
           cy="0"
           r="17.5"
           stroke-width="1"
           class="layout"
           fill="none"
           id="circle8" />
      </g>
    </symbol>
    <symbol
       id="knob18">
      <g
         transform="translate(9 9)"
         id="g19">
        <polyline
           points="-5,0 5,0"
           stroke-width="1"
           class="layout"
           id="polyline13" />
        <polyline
           points="0,-5 0,5"
           stroke-width="1"
           class="layout"
           id="polyline15" />
        <circle
           cx="0"
           cy="0"
           r="8.5"
           stroke-width="1"
           class="layout"
           fill="none"
           id="circle17" />
      </g>
    </symbol>
    <symbol
       id="port">
      <g
         transform="translate(12 12)"
         id="g28">
        <polyline
           points="-5,0 5,0"
           stroke-width="1"
           class="layout"
           id="polyline22" />
        <polyline
           points="0,-5 0,5"
           stroke-width="1"
           class="layout"
           id="polyline24" />
        <circle
           cx="0"
           cy="0"
           r="10.5"
           stroke-width="3"
           class="layout"
           id="circle26" />
      </g>
    </symbol>
  </defs>
  <path
     id="rect33"
     style="fill:#e0e0e0"
     d="M 0,0 H 60 V 380 H 0 Z"
     class="background" />
  <g
     aria-label="FM"
     id="text35"
     style="font-size:14.6667px;font-family:'American Typewriter';text-anchor:middle;fill:#a91913"
     class="title">
    <path
       d="M 20.683687,23.732 V 22.5 l -0.01467,-2.332 q 0,-1.085334 -0.748,-1.085334 -0.190667,0 -0.293334,0.02933 -0.234666,0.044 -0.381333,0.044 -0.190667,0 -0.322667,-0.132 -0.132,-0.146667 -0.132,-0.352 0,-0.513334 0.616,-0.513334 0.07333,0 0.22,0.01467 l 1.012,0.102667 q 0.572,0.05867 1.276,0.05867 0.381334,0 1.642667,-0.044 L 25.245021,18.232 q 0.337333,-0.01467 0.792,-0.044 0.205333,-0.01467 0.44,-0.01467 0.777333,0 0.777333,0.689333 0,0.264 -0.07333,0.806667 -0.07333,0.542667 -0.07333,0.821334 0,0.234666 0.02933,0.586666 0.02933,0.352 0.02933,0.645334 0,0.601333 -0.528,0.601333 -0.542667,0 -0.542667,-0.689333 0,-0.205334 0.01467,-0.630667 0.02933,-0.425333 0.02933,-0.630667 0,-0.777333 -0.44,-0.982667 -0.44,-0.205333 -2.082666,-0.205333 -1.393334,0 -1.584,0.249333 -0.146667,0.190667 -0.146667,1.349334 v 1.085333 q 0,0.410667 0.102667,0.513334 0.117333,0.088 0.616,0.088 h 0.484 q 0.953333,0 0.953333,-0.704 0,-0.161334 -0.044,-0.44 -0.02933,-0.278667 -0.02933,-0.425334 0,-0.557333 0.528,-0.557333 0.498666,0 0.498666,0.645333 0,0.088 -0.02933,0.352 l -0.088,0.792 q -0.05867,0.528 -0.05867,0.792 0,0.601334 0.132,1.525334 0.044,0.308 0.044,0.586666 0,0.572 -0.528,0.572 -0.498666,0 -0.498666,-0.616 0,-0.146666 0.01467,-0.44 0.02933,-0.293333 0.02933,-0.44 0,-0.454666 -0.249334,-0.586666 Q 23.602354,23.424 23.089021,23.424 h -0.454667 q -0.513333,0 -0.630667,0.117333 -0.117333,0.117334 -0.117333,0.645334 V 25.932 q 0,0.689333 0.146667,0.938667 0.161333,0.234666 0.586666,0.234666 0.102667,0 0.322667,-0.01467 0.22,-0.01467 0.322667,-0.01467 0.674666,0 0.674666,0.498667 0,0.205333 -0.161333,0.352 -0.146667,0.146666 -0.366667,0.146666 -0.234666,0 -0.689333,-0.07333 -0.645333,-0.102667 -1.466667,-0.102667 -0.528,0 -1.129333,0.088 l -0.498667,0.07333 q -0.044,0 -0.102666,0.01467 -0.05867,0 -0.088,0 -0.645334,0 -0.645334,-0.528 0,-0.469333 0.454667,-0.469333 0.05867,0 0.381333,0.02933 0.161334,0.044 0.308,0.044 0.396,0 0.542667,-0.234666 0.161333,-0.249334 0.176,-0.865334 z"
       style="font-size:14.6667px;font-family:'American Typewriter';text-anchor:middle;fill:#a91913"
       id="path194" />
    <path
       d="M 32.272417,19.258666 34.531084,26.68 37.00975,18.774666 q 0.190667,-0.616 0.66,-0.616 h 0.07333 q 0.146666,0 0.381333,0.044 0.293333,0.07333 0.381333,0.07333 0.234667,0.02933 0.645334,0.02933 0.44,0 0.689333,-0.044 l 0.513333,-0.088 q 0.044,-0.01467 0.176,-0.01467 0.674667,0 0.674667,0.513334 0,0.469333 -0.469333,0.469333 -0.117334,0 -0.352,-0.02933 -0.22,-0.044 -0.337334,-0.044 -0.748,0 -0.748,1.1 v 1.026667 l -0.01467,1.290666 V 23.732 l 0.01467,2.317333 q 0,1.1 0.733334,1.1 0.146666,0 0.322666,-0.044 0.322667,-0.02933 0.381334,-0.02933 0.469333,0 0.469333,0.469333 0,0.528 -0.630667,0.528 0.02933,0 -0.22,-0.02933 -1.012,-0.117333 -1.716,-0.117333 -0.689333,0 -1.32,0.102666 -0.264,0.044 -0.469333,0.044 -0.572,0 -0.572,-0.484 0,-0.498666 0.586667,-0.498666 0.146666,0 0.22,0.01467 0.322666,0.02933 0.381333,0.02933 0.528,0 0.66,-1.1 0.02933,-0.234667 0.02933,-1.496 0,-0.484 0.01467,-1.408 l 0.02933,-1.32 v -2.596001 q 0,-0.088 -0.07333,-0.088 -0.044,0 -0.088,0.088 l -2.698667,8.374667 q -0.176,0.557334 -0.821333,0.557334 -0.381333,0 -0.572,-0.117334 -0.176,-0.102666 -0.278667,-0.44 l -2.654667,-8.374667 q -0.044,-0.088 -0.102666,-0.088 -0.05867,0 -0.05867,0.088 l 0.088,6.820001 q 0.01467,1.070666 0.586667,1.070666 0.161333,0 0.44,-0.05867 h 0.176 q 0.572,0 0.572,0.513333 0,0.513333 -0.586667,0.513333 -0.102667,0 -0.308,-0.02933 -0.322667,-0.044 -0.689333,-0.102667 -0.293334,-0.044 -0.748,-0.044 -0.806667,0 -1.041334,0.044 l -0.616,0.117334 q -0.02933,0 -0.088,0.01467 -0.05867,0 -0.088,0 -0.674666,0 -0.674666,-0.513333 0,-0.205333 0.132,-0.337333 0.132,-0.146667 0.322666,-0.146667 0.161334,0 0.381334,0.044 0.22,0.044 0.322666,0.044 0.748,0 0.748,-1.1 v -5.896 q 0,-1.1 -0.748,-1.1 -0.117333,0 -0.352,0.044 -0.234666,0.02933 -0.352,0.02933 -0.454666,0 -0.454666,-0.469333 0,-0.513334 0.66,-0.513334 0.05867,0 0.190666,0.01467 l 0.513334,0.05867 q 0.381333,0.044 0.718666,0.044 0.278667,0 0.748,-0.05867 0.484,-0.05867 0.704,-0.05867 0.572,0 0.762667,0.718667 z"
       style="font-size:14.6667px;font-family:'American Typewriter';text-anchor:middle;fill:#a91913"
       id="path196" />
  </g>
  <g
     aria-label="zaphød"
     id="text37"
     style="font-size:14.6667px;font-family:'American Typewriter';text-anchor:middle;fill:#a91913"
     class="title">
    <path
       d="m 5.384864,360.48933 4.781333,-4.84 H 7.9221974 q -1.1,0 -1.3786667,0.0733 -0.2786666,0.0587 -0.2786666,0.33733 0,0.11733 0.029333,0.264 0.073333,0.38133 0.073333,0.71867 0,0.55733 -0.484,0.55733 -0.4986667,0 -0.4986667,-0.64533 0,-0.27867 0.014667,-0.38134 0.058667,-0.44 0.058667,-0.63066 0,-0.14667 -0.058667,-0.42534 -0.044,-0.29333 -0.044,-0.44 0,-0.45466 0.7333334,-0.45466 0.2346666,0 0.6306666,0.0147 0.4546667,0.0293 0.6306667,0.0293 l 0.88,0.0147 h 2.4933336 q 0.953333,0 0.953333,0.67467 0,0.308 -0.557333,0.86533 l -4.7520003,4.796 h 3.4906668 q 0.8653335,0 0.8653335,-0.49866 V 360.24 q 0,-0.24933 -0.02933,-0.42533 -0.02933,-0.55734 -0.02933,-0.528 0,-0.24934 0.146667,-0.41067 0.146667,-0.176 0.366667,-0.176 0.469333,0 0.469333,0.55733 0,0.24934 -0.02933,0.51334 -0.05867,0.528 -0.05867,0.76266 0,0.16134 0.02933,0.46934 0.044,0.308 0.044,0.46933 0,0.572 -0.645333,0.55733 L 10.092864,362 H 5.8688641 q -0.3666667,0 -0.6013334,-0.22 -0.2346667,-0.22 -0.2346667,-0.55733 0,-0.38134 0.352,-0.73334 z"
       style="font-size:14.6667px;font-family:'American Typewriter';text-anchor:middle;fill:#a91913"
       id="path181" />
    <path
       d="m 19.132573,362.19067 q -1.202667,0 -1.481334,-1.04134 -0.748,1.1 -2.346667,1.1 -1.188,0 -1.906666,-0.58666 -0.704,-0.58667 -0.704,-1.56934 0,-1.21733 1.041333,-1.78933 0.396,-0.22 0.674667,-0.27867 0.293333,-0.0733 1.158666,-0.176 1.232,-0.132 1.598667,-0.36666 0.381333,-0.23467 0.381333,-0.86534 0,-0.60133 -0.425333,-0.93866 -0.410667,-0.352 -1.158667,-0.352 -0.66,0 -1.232,0.36666 -0.22,0.14667 -0.22,0.308 0,0.0587 0.132,0.14667 0.205334,0.14667 0.205334,0.49867 0,0.29333 -0.22,0.484 -0.205334,0.19066 -0.528,0.19066 -0.381334,0 -0.645334,-0.264 -0.249333,-0.264 -0.249333,-0.64533 0,-0.82133 0.806667,-1.408 0.821333,-0.58667 1.98,-0.58667 2.669333,0 2.669333,2.56667 v 2.96267 q 0,0.704 0.02933,0.836 0.088,0.51333 0.498666,0.51333 0.513334,0 0.513334,-0.93867 v -0.71866 q 0,-0.46934 0.454666,-0.46934 0.484,0 0.484,0.704 v 0.0733 l -0.01467,0.836 q -0.02933,1.408 -1.496,1.408 z m -1.628001,-2.91867 0.01467,-1.04133 q -0.322667,0.29333 -0.689333,0.41066 -0.352,0.11734 -1.276,0.20534 -1.672,0.16133 -1.672,1.232 0,0.55733 0.396,0.88 0.410666,0.32266 1.1,0.32266 0.982666,0 1.54,-0.528 0.572,-0.54266 0.586666,-1.48133 z"
       style="font-size:14.6667px;font-family:'American Typewriter';text-anchor:middle;fill:#a91913"
       id="path183" />
    <path
       d="m 23.333886,355.092 v 0.46933 q 0.821333,-1.144 2.244,-1.144 1.466666,0 2.332,1.012 0.865333,1.012 0.865333,2.74267 0,1.86267 -0.924,2.97733 -0.909333,1.1 -2.449333,1.1 -1.276,0 -2.068,-0.89466 v 1.21733 q 0,0.55733 0.02933,0.71867 0.088,0.45466 0.425333,0.45466 0.102667,0 0.308,-0.044 0.205334,-0.044 0.308,-0.044 0.469334,0 0.469334,0.484 0,0.484 -0.616,0.484 -0.22,0 -0.66,-0.0587 -0.322667,-0.044 -0.968,-0.044 -0.352,0 -0.586667,0.0293 -0.586667,0.0733 -0.777333,0.0733 -0.249334,0 -0.425334,-0.16133 -0.176,-0.14667 -0.176,-0.352 0,-0.46933 0.498667,-0.46933 0.088,0 0.278667,0.044 0.249333,0.0587 0.366666,0.0587 0.278667,0 0.337334,-0.29333 0.07333,-0.27867 0.088,-1.584 l 0.01467,-5.66133 q -0.01467,-0.67467 -0.381333,-0.67467 -0.102667,0 -0.322667,0.0587 -0.205333,0.044 -0.322666,0.044 -0.542667,0 -0.542667,-0.484 0,-0.46934 0.645333,-0.46934 0.161334,0 0.352,0.0147 0.366667,0.0293 0.542667,0.0293 0.132,0 0.381333,-0.0147 0.249334,-0.0293 0.366667,-0.0293 0.366667,0 0.366667,0.41067 z m 0.22,1.78933 q -0.132,0.572 -0.146667,1.39334 0,0.0587 -0.01467,0.22 0,0.132 0,0.20533 0,0.98267 0.161334,1.43733 0.161333,0.44 0.630666,0.792 0.484,0.352 1.188,0.352 1.056,0 1.628,-0.76266 0.586667,-0.77734 0.586667,-2.2 0,-2.93334 -2.082667,-2.93334 -0.704,0 -1.261333,0.42534 -0.542667,0.42533 -0.689333,1.07066 z"
       style="font-size:14.6667px;font-family:'American Typewriter';text-anchor:middle;fill:#a91913"
       id="path185" />
    <path
       d="M 32.20149,352.55467 32.142824,355.4 q 0.586666,-0.55733 1.070666,-0.76267 0.484,-0.22 1.144,-0.22 1.261334,0 2.024,0.71867 0.762667,0.71867 0.762667,1.892 v 2.44933 q 0,0.86534 0.01467,0.95334 0.05867,0.73333 0.381333,0.73333 0.117333,0 0.337333,-0.0587 0.088,-0.0147 0.234667,-0.0147 0.542667,0 0.542667,0.484 0,0.484 -0.704,0.484 -0.190667,0 -0.557334,-0.044 -0.616,-0.0733 -0.997333,-0.0733 -0.381333,0 -0.586667,0.0293 -0.616,0.088 -0.762666,0.088 -0.264,0 -0.44,-0.14667 -0.176,-0.16133 -0.176,-0.396 0,-0.19067 0.146666,-0.32267 0.161334,-0.132 0.366667,-0.132 0.161333,0 0.381333,0.0733 0.132,0.044 0.249334,0.044 0.44,0 0.454666,-0.95334 0,-0.176 0.01467,-0.68933 l 0.01467,-0.63067 v -0.792 q 0,-1.496 -0.293334,-2.00933 -0.425333,-0.76267 -1.496,-0.76267 -1.158666,0 -1.686666,0.792 -0.366667,0.54267 -0.381334,1.74534 l -0.01467,1.056 q 0,0.088 -0.01467,0.29333 0,0.19067 0,0.27867 0,0.836 0.01467,0.968 0.07333,0.71866 0.425333,0.71866 0.117333,0 0.322667,-0.044 0.22,-0.0587 0.322666,-0.0587 0.469334,0 0.469334,0.45466 0,0.51334 -0.645334,0.51334 -0.205333,0 -0.616,-0.044 -0.557333,-0.0587 -0.953333,-0.0587 -0.249333,0 -0.689333,0.044 -0.586667,0.0587 -0.748,0.0587 -0.601334,0 -0.601334,-0.528 0,-0.44 0.557334,-0.44 0.190666,0 0.278666,0.0293 0.249334,0.044 0.352,0.044 0.234667,0 0.308,-0.44 0.088,-0.45467 0.102667,-1.83333 l 0.01467,-2.62534 q 0,-2.2 -0.088,-2.772 -0.088,-0.58666 -0.410667,-0.58666 -0.102667,0 -0.308,0.044 -0.205333,0.044 -0.322667,0.044 -0.498666,0 -0.498666,-0.46934 0,-0.20533 0.176,-0.352 0.176,-0.14666 0.425333,-0.14666 0.07333,0 0.498667,0.044 0.278666,0.0293 0.601333,0.0293 0.132,0 0.366667,-0.0293 0.234666,-0.0293 0.337333,-0.0293 0.337333,0 0.337333,0.484 z"
       style="font-size:14.6667px;font-family:'American Typewriter';text-anchor:middle;fill:#a91913"
       id="path187" />
    <path
       d="m 42.772033,354.41733 q 0.850667,0 1.54,0.396 L 44.7667,354.08 q 0.132,-0.22 0.293333,-0.22 H 45.6027 q 0.132,0 0.132,0.11733 0,0.0587 -0.02933,0.10267 l -0.733334,1.17333 q 1.129334,1.08534 1.129334,2.93334 0,1.83333 -0.953334,2.948 -0.938666,1.11466 -2.522666,1.11466 -0.88,0 -1.686667,-0.41066 l -0.557333,0.89466 q -0.132,0.22 -0.249334,0.22 H 39.5307 q -0.102667,0 -0.102667,-0.11733 0,-0.0733 0.02933,-0.10267 l 0.821333,-1.364 q -1.056,-1.20266 -1.056,-2.772 0,-1.848 0.982667,-3.00666 0.997333,-1.17334 2.566666,-1.17334 z m -1.833333,6.10134 2.830667,-4.94267 q -0.513334,-0.22 -0.938667,-0.22 -1.129333,0 -1.774667,0.86533 -0.645333,0.85067 -0.645333,2.332 0,1.144 0.528,1.96534 z m 3.446667,-4.444 -2.874667,4.972 q 0.528,0.264 1.085333,0.264 1.1,0 1.730667,-0.85067 0.645333,-0.86533 0.645333,-2.34667 0,-1.276 -0.586666,-2.03866 z"
       style="font-size:14.6667px;font-family:'American Typewriter';text-anchor:middle;fill:#a91913"
       id="path189" />
    <path
       d="m 50.543532,354.41733 q 1.452,0 2.170667,1.12934 v -1.48134 q 0,-0.58666 -0.02933,-0.71866 -0.07333,-0.45467 -0.410666,-0.45467 -0.117334,0 -0.337334,0.044 -0.205333,0.044 -0.322666,0.044 -0.542667,0 -0.542667,-0.46933 0,-0.484 0.733333,-0.484 0.117334,0 0.425334,0.0293 0.469333,0.044 0.484,0.044 0.132,0 0.381333,-0.0293 0.249333,-0.0293 0.381333,-0.0293 0.410667,0 0.410667,0.58667 v 0.16133 q -0.01467,0.044 -0.02933,0.77734 0,0.088 -0.044,1.12933 -0.02933,0.73333 -0.02933,1.11467 v 1.43733 l 0.02933,2.44933 q 0.01467,0.968 0.088,1.20267 0.07333,0.23467 0.352,0.23467 0.190666,0 0.293333,-0.0293 0.234667,-0.0293 0.322667,-0.0293 0.542666,0 0.542666,0.484 0,0.49867 -0.66,0.49867 -0.146666,0 -0.454666,-0.044 -0.293334,-0.0293 -0.44,-0.0293 -0.044,0 -0.337334,0.0293 -0.176,0.044 -0.308,0.044 -0.396,0 -0.396,-0.528 v -0.0733 l 0.01467,-0.24933 q -0.777333,1.04133 -2.258667,1.04133 -1.496,0 -2.405333,-1.08533 -0.909333,-1.08533 -0.909333,-2.84533 0,-1.77467 0.894666,-2.83067 0.894667,-1.07067 2.390667,-1.07067 z m 2.082667,5.17734 q 0.05867,-0.484 0.05867,-1.24667 0,-0.98267 -0.07333,-1.33467 -0.132,-0.73333 -0.630667,-1.144 -0.586666,-0.484 -1.349333,-0.484 -1.026667,0 -1.613333,0.77734 -0.572,0.77733 -0.572,2.12666 0,1.39334 0.601333,2.2 0.601333,0.792 1.642667,0.792 0.792,0 1.32,-0.45466 0.528,-0.46934 0.616,-1.232 z"
       style="font-size:14.6667px;font-family:'American Typewriter';text-anchor:middle;fill:#a91913"
       id="path191" />
  </g>
  <g
     aria-label="RATIO"
     id="text39"
     style="font-weight:bold;font-size:10px;font-family:Helvetica;text-anchor:middle;fill:#3a3a3a"
     class="big-label">
    <path
       d="M 18.632812,49.177734 H 17.080078 V 52 h -1.469726 v -7.197266 h 3.530273 q 0.756836,0.01465 1.162109,0.185547 0.410157,0.170899 0.69336,0.50293 0.234375,0.273437 0.371093,0.605469 0.136719,0.332031 0.136719,0.756836 0,0.512695 -0.258789,1.010742 -0.258789,0.493164 -0.854492,0.698242 0.498047,0.200195 0.703125,0.571289 0.209961,0.366211 0.209961,1.123047 v 0.483398 q 0,0.493164 0.03906,0.668946 0.05859,0.27832 0.273438,0.410156 V 52 h -1.655274 q -0.06836,-0.239258 -0.09766,-0.385742 -0.05859,-0.302735 -0.06348,-0.620117 l -0.0098,-0.668946 q -0.0098,-0.688476 -0.253906,-0.917968 -0.239258,-0.229493 -0.903321,-0.229493 z m 0.913086,-1.308593 q 0.449219,-0.205079 0.449219,-0.810547 0,-0.654297 -0.43457,-0.878907 -0.244141,-0.126953 -0.732422,-0.126953 h -1.748047 v 1.933594 h 1.704102 q 0.507812,0 0.761718,-0.117187 z"
       style="font-weight:bold;font-size:10px;font-family:Helvetica;text-anchor:middle;fill:#3a3a3a"
       id="path170" />
    <path
       d="M 27.016602,50.520508 H 24.365234 L 23.867187,52 h -1.572265 l 2.568359,-7.197266 H 26.5625 L 29.111328,52 h -1.630859 z m -0.419922,-1.240235 -0.898438,-2.832031 -0.927734,2.832031 z"
       style="font-weight:bold;font-size:10px;font-family:Helvetica;text-anchor:middle;fill:#3a3a3a"
       id="path172" />
    <path
       d="m 34.519043,44.802734 v 1.274414 h -2.15332 V 52 h -1.513672 v -5.922852 h -2.163086 v -1.274414 z"
       style="font-weight:bold;font-size:10px;font-family:Helvetica;text-anchor:middle;fill:#3a3a3a"
       id="path174" />
    <path
       d="m 35.283203,44.802734 h 1.494141 V 52 h -1.494141 z"
       style="font-weight:bold;font-size:10px;font-family:Helvetica;text-anchor:middle;fill:#3a3a3a"
       id="path176" />
    <path
       d="m 41.357422,52.200195 q -1.542969,0 -2.358399,-0.839843 -1.09375,-1.030274 -1.09375,-2.96875 0,-1.97754 1.09375,-2.96875 0.81543,-0.839844 2.358399,-0.839844 1.542969,0 2.358398,0.839844 1.088867,0.99121 1.088867,2.96875 0,1.938476 -1.088867,2.96875 -0.815429,0.839843 -2.358398,0.839843 z m 1.420898,-1.933593 q 0.522461,-0.65918 0.522461,-1.875 0,-1.210938 -0.527344,-1.870118 -0.52246,-0.664062 -1.416015,-0.664062 -0.893555,0 -1.425781,0.65918 -0.532227,0.659179 -0.532227,1.875 0,1.21582 0.532227,1.875 0.532226,0.659179 1.425781,0.659179 0.893555,0 1.420898,-0.659179 z"
       style="font-weight:bold;font-size:10px;font-family:Helvetica;text-anchor:middle;fill:#3a3a3a"
       id="path178" />
  </g>
  <g
     id="use41"
     transform="translate(12,58)">
    <g
       transform="translate(18,18)"
       id="g96">
      <path
         id="polyline90"
         style="fill:none;stroke:#0088ff;stroke-width:1"
         d="M -5,0 H 5"
         class="layout" />
      <path
         id="polyline92"
         style="fill:none;stroke:#0088ff;stroke-width:1"
         d="M 0,-5 V 5"
         class="layout" />
      <path
         id="circle94"
         style="fill:none;stroke:#0088ff;stroke-width:1"
         d="M 17.5,0 A 17.5,17.5 0 0 1 0,17.5 17.5,17.5 0 0 1 -17.5,0 17.5,17.5 0 0 1 0,-17.5 17.5,17.5 0 0 1 17.5,0 Z"
         class="layout" />
    </g>
  </g>
  <g
     transform="translate(15,110)"
     id="g45">
    <g
       id="use43"
       transform="translate(-9,-9)">
      <g
         transform="translate(9,9)"
         id="g136">
        <path
           id="polyline130"
           style="fill:none;stroke:#0088ff;stroke-width:1"
           d="M -5,0 H 5"
           class="layout" />
        <path
           id="polyline132"
           style="fill:none;stroke:#0088ff;stroke-width:1"
           d="M 0,-5 V 5"
           class="layout" />
        <path
           id="circle134"
           style="fill:none;stroke:#0088ff;stroke-width:1"
           d="M 8.5,0 A 8.5,8.5 0 0 1 0,8.5 8.5,8.5 0 0 1 -8.5,0 8.5,8.5 0 0 1 0,-8.5 8.5,8.5 0 0 1 8.5,0 Z"
           class="layout" />
      </g>
    </g>
  </g>
  <g
     transform="translate(45,110)"
     id="g49">
    <g
       id="use47"
       transform="translate(-12,-12)">
      <g
         transform="translate(12,12)"
         id="g126">
        <path
           id="polyline120"
           style="fill:none;stroke:#0088ff;stroke-width:1"
           d="M -5,0 H 5"
           class="layout" />
        <path
           id="polyline122"
           style="fill:none;stroke:#0088ff;stroke-width:1"
           d="M 0,-5 V 5"
           class="layout" />
        <path
           id="circle124"
           style="fill:none;stroke:#0088ff;stroke-width:3"
           d="M 10.5,0 A 10.5,10.5 0 0 1 0,10.5 10.5,10.5 0 0 1 -10.5,0 10.5,10.5 0 0 1 0,-10.5 10.5,10.5 0 0 1 10.5,0 Z"
           class="layout" />
      </g>
    </g>
  </g>
  <path
     id="polyline51"
     transform="translate(30,76)"
     style="stroke:#7c6f64;stroke-width:1"
     d="M -15,34 H 15"
     class="connect" />
  <path
     id="circle55"
     style="fill:none;stroke:#0088ff;stroke-width:3"
     d="M 40.5,270 A 10.5,10.5 0 0 1 30,280.5 10.5,10.5 0 0 1 19.5,270 10.5,10.5 0 0 1 30,259.5 10.5,10.5 0 0 1 40.5,270 Z"
     class="layout" />
  <g
     id="use57"
     transform="translate(18,258)">
    <g
       transform="translate(12,12)"
       id="g106">
      <path
         id="polyline100"
         style="fill:none;stroke:#0088ff;stroke-width:1"
         d="M -5,0 H 5"
         class="layout" />
      <path
         id="polyline102"
         style="fill:none;stroke:#0088ff;stroke-width:1"
         d="M 0,-5 V 5"
         class="layout" />
      <path
         id="circle104"
         style="fill:none;stroke:#0088ff;stroke-width:3"
         d="M 10.5,0 A 10.5,10.5 0 0 1 0,10.5 10.5,10.5 0 0 1 -10.5,0 10.5,10.5 0 0 1 0,-10.5 10.5,10.5 0 0 1 10.5,0 Z"
         class="layout" />
    </g>
  </g>
  <g
     aria-label="IN"
     id="text59"
     style="font-weight:bold;font-size:8px;font-family:Helvetica;text-anchor:middle;fill:#3a3a3a"
     class="label">
    <path
       d="m 26.515625,286.24219 h 1.195312 V 292 h -1.195312 z"
       style="font-weight:bold;font-size:8px;font-family:Helvetica;text-anchor:middle;fill:#3a3a3a"
       id="path151" />
    <path
       d="M 33.484375,292 H 32.28125 l -2.351563,-4.08984 V 292 h -1.121093 v -5.75781 h 1.261718 l 2.292969,4.01953 v -4.01953 h 1.121094 z"
       style="font-weight:bold;font-size:8px;font-family:Helvetica;text-anchor:middle;fill:#3a3a3a"
       id="path153" />
  </g>
  <path
     id="rect63"
     style="fill:#c3c3c3"
     d="m 17,296 h 26 c 1.662,0 3,1.338 3,3 v 40 c 0,1.662 -1.338,3 -3,3 H 17 c -1.662,0 -3,-1.338 -3,-3 v -40 c 0,-1.662 1.338,-3 3,-3 z"
     class="output" />
  <g
     id="use65"
     transform="translate(18,300)">
    <g
       transform="translate(12,12)"
       id="g116">
      <path
         id="polyline110"
         style="fill:none;stroke:#0088ff;stroke-width:1"
         d="M -5,0 H 5"
         class="layout" />
      <path
         id="polyline112"
         style="fill:none;stroke:#0088ff;stroke-width:1"
         d="M 0,-5 V 5"
         class="layout" />
      <path
         id="circle114"
         style="fill:none;stroke:#0088ff;stroke-width:3"
         d="M 10.5,0 A 10.5,10.5 0 0 1 0,10.5 10.5,10.5 0 0 1 -10.5,0 10.5,10.5 0 0 1 0,-10.5 10.5,10.5 0 0 1 10.5,0 Z"
         class="layout" />
    </g>
  </g>
  <g
     aria-label="OUT"
     id="text67"
     style="font-weight:bold;font-size:8px;font-family:Helvetica;text-anchor:middle;fill:#3a3a3a"
     class="label">
    <path
       d="m 24.710937,334.16016 q -1.234375,0 -1.886718,-0.67188 -0.875,-0.82422 -0.875,-2.375 0,-1.58203 0.875,-2.375 0.652343,-0.67187 1.886718,-0.67187 1.234375,0 1.886719,0.67187 0.871094,0.79297 0.871094,2.375 0,1.55078 -0.871094,2.375 -0.652344,0.67188 -1.886719,0.67188 z m 1.136719,-1.54688 q 0.417969,-0.52734 0.417969,-1.5 0,-0.96875 -0.421875,-1.49609 -0.417969,-0.53125 -1.132813,-0.53125 -0.714843,0 -1.140625,0.52734 -0.425781,0.52734 -0.425781,1.5 0,0.97266 0.425781,1.5 0.425782,0.52734 1.140625,0.52734 0.714844,0 1.136719,-0.52734 z"
       style="font-weight:bold;font-size:8px;font-family:Helvetica;text-anchor:middle;fill:#3a3a3a"
       id="path140" />
    <path
       d="m 31.789062,331.78125 v -3.53906 h 1.222657 v 3.53906 q 0,0.91797 -0.285157,1.42969 -0.53125,0.9375 -2.027343,0.9375 -1.496094,0 -2.03125,-0.9375 -0.285157,-0.51172 -0.285157,-1.42969 v -3.53906 h 1.222657 v 3.53906 q 0,0.59375 0.140625,0.86719 0.21875,0.48437 0.953125,0.48437 0.730468,0 0.949218,-0.48437 0.140625,-0.27344 0.140625,-0.86719 z"
       style="font-weight:bold;font-size:8px;font-family:Helvetica;text-anchor:middle;fill:#3a3a3a"
       id="path142" />
    <path
       d="m 38.347656,328.24219 v 1.01953 H 36.625 V 334 h -1.210938 v -4.73828 h -1.730468 v -1.01953 z"
       style="font-weight:bold;font-size:8px;font-family:Helvetica;text-anchor:middle;fill:#3a3a3a"
       id="path144" />
  </g>
</svg>
