<?xml version="1.0" encoding="UTF-8" standalone="no"?>
<svg
   xmlns:dc="http://purl.org/dc/elements/1.1/"
   xmlns:cc="http://creativecommons.org/ns#"
   xmlns:rdf="http://www.w3.org/1999/02/22-rdf-syntax-ns#"
   xmlns:svg="http://www.w3.org/2000/svg"
   xmlns="http://www.w3.org/2000/svg"
   xmlns:xlink="http://www.w3.org/1999/xlink"
   xmlns:sodipodi="http://sodipodi.sourceforge.net/DTD/sodipodi-0.dtd"
   xmlns:inkscape="http://www.inkscape.org/namespaces/inkscape"
   version="1.1"
   width="120"
   height="380"
   viewBox="0 0 120 380"
   id="svg170"
   sodipodi:docname="FM.svg"
   inkscape:version="1.0.2 (e86c8708, 2021-01-15)">
  <metadata
     id="metadata174">
    <rdf:RDF>
      <cc:Work
         rdf:about="">
        <dc:format>image/svg+xml</dc:format>
        <dc:type
           rdf:resource="http://purl.org/dc/dcmitype/StillImage" />
      </cc:Work>
    </rdf:RDF>
  </metadata>
  <sodipodi:namedview
     pagecolor="#ffffff"
     bordercolor="#666666"
     borderopacity="1"
     objecttolerance="10"
     gridtolerance="10"
     guidetolerance="10"
     inkscape:pageopacity="0"
     inkscape:pageshadow="2"
     inkscape:window-width="689"
     inkscape:window-height="480"
     id="namedview172"
     showgrid="false"
     inkscape:zoom="2.1763158"
     inkscape:cx="60"
     inkscape:cy="190"
     inkscape:window-x="0"
     inkscape:window-y="25"
     inkscape:window-maximized="0"
     inkscape:current-layer="svg170" />
  <style
     id="style2">
    text.title {
      fill: #a91913;
      font-family: 'American Typewriter';
      font-size: 13pt;
    }
    text.logo {
      fill: #a91913;
      font-family: 'American Typewriter';
      font-size: 12pt;
    }
    text.big-label {
      fill: #343434;
      font-family: 'Helvetica';
      font-weight: bold;
      font-size: 7.5pt;
    }
    text.label {
      fill: #343434;
      font-family: 'Helvetica';
      font-weight: bold;
      font-size: 6pt;
    }
    .background {
      fill: #e0e0e0;
    }
    .output {
      fill: #b8b8b8;
    }
    polyline.connect {
      stroke: #343434;
      stroke-width: 1;
    }

    .blueprint {
      stroke: #08f;
      fill: none;
    }
  </style>
  <!-- ======== defs ======== -->
  <defs
     id="defs50">
    <linearGradient
       id="smallKnobMediumGradient">
      <stop
         offset="5%"
         stop-color="#888"
         id="stop4" />
      <stop
         offset="95%"
         stop-color="#333"
         id="stop6" />
    </linearGradient>
    <linearGradient
       id="smallKnobDarkGradient">
      <stop
         offset="5%"
         stop-color="#444"
         id="stop9" />
      <stop
         offset="95%"
         stop-color="#222"
         id="stop11" />
    </linearGradient>
    <linearGradient
       id="bigKnobMediumGradient">
      <stop
         offset="5%"
         stop-color="#888"
         id="stop14" />
      <stop
         offset="95%"
         stop-color="#555"
         id="stop16" />
    </linearGradient>
    <linearGradient
       id="bigKnobDarkGradient">
      <stop
         offset="5%"
         stop-color="#555"
         id="stop19" />
      <stop
         offset="95%"
         stop-color="#222"
         id="stop21" />
    </linearGradient>
    <symbol
       id="knob18">
      <g
         transform="translate(9 9)"
         id="g30">
        <circle
           r="8.5"
           stroke="#222"
           fill="none"
           id="circle24" />
        <circle
           r="8"
           fill="url('#smallKnobMediumGradient')"
           transform="rotate(90)"
           id="circle26" />
        <circle
           r="7"
           fill="url('#smallKnobDarkGradient')"
           transform="rotate(90)"
           id="circle28" />
      </g>
    </symbol>
    <symbol
       id="knob40">
      <g
         transform="translate(20 20)"
         id="g37">
        <circle
           r="19.5"
           fill="url('#bigKnobDarkGradient')"
           transform="rotate(90)"
           id="circle33" />
        <circle
           r="16.5"
           fill="url('#bigKnobMediumGradient')"
           transform="rotate(90)"
           id="circle35" />
      </g>
    </symbol>
    <symbol
       id="knob50">
      <g
         transform="translate(25 25)"
         id="g44">
        <circle
           r="24.5"
           fill="url('#bigKnobDarkGradient')"
           transform="rotate(90)"
           id="circle40" />
        <circle
           r="21.5"
           fill="url('#bigKnobMediumGradient')"
           transform="rotate(90)"
           id="circle42" />
      </g>
    </symbol>
    <symbol
       id="port">
      <g
         transform="translate(12 12)"
         id="g47" />
    </symbol>
    <linearGradient
       inkscape:collect="always"
       xlink:href="#bigKnobDarkGradient"
       id="linearGradient223"
       x1="-24.5"
       y1="-24.5"
       x2="24.5"
       y2="-24.5"
       gradientUnits="userSpaceOnUse" />
    <linearGradient
       inkscape:collect="always"
       xlink:href="#bigKnobMediumGradient"
       id="linearGradient225"
       x1="-21.5"
       y1="-21.5"
       x2="21.5"
       y2="-21.5"
       gradientUnits="userSpaceOnUse" />
    <linearGradient
       inkscape:collect="always"
       xlink:href="#bigKnobDarkGradient"
       id="linearGradient243"
       x1="-19.5"
       y1="-19.5"
       x2="19.5"
       y2="-19.5"
       gradientUnits="userSpaceOnUse" />
    <linearGradient
       inkscape:collect="always"
       xlink:href="#bigKnobMediumGradient"
       id="linearGradient245"
       x1="-16.5"
       y1="-16.5"
       x2="16.5"
       y2="-16.5"
       gradientUnits="userSpaceOnUse" />
    <linearGradient
       inkscape:collect="always"
       xlink:href="#bigKnobDarkGradient"
       id="linearGradient255"
       x1="-19.5"
       y1="-19.5"
       x2="19.5"
       y2="-19.5"
       gradientUnits="userSpaceOnUse" />
    <linearGradient
       inkscape:collect="always"
       xlink:href="#bigKnobMediumGradient"
       id="linearGradient257"
       x1="-16.5"
       y1="-16.5"
       x2="16.5"
       y2="-16.5"
       gradientUnits="userSpaceOnUse" />
    <linearGradient
       inkscape:collect="always"
       xlink:href="#smallKnobMediumGradient"
       id="linearGradient269"
       x1="-8"
       y1="-8"
       x2="8"
       y2="-8"
       gradientUnits="userSpaceOnUse" />
    <linearGradient
       inkscape:collect="always"
       xlink:href="#smallKnobDarkGradient"
       id="linearGradient271"
       x1="-7"
       y1="-7"
       x2="7"
       y2="-7"
       gradientUnits="userSpaceOnUse" />
    <linearGradient
       inkscape:collect="always"
       xlink:href="#smallKnobMediumGradient"
       id="linearGradient283"
       x1="-8"
       y1="-8"
       x2="8"
       y2="-8"
       gradientUnits="userSpaceOnUse" />
    <linearGradient
       inkscape:collect="always"
       xlink:href="#smallKnobDarkGradient"
       id="linearGradient285"
       x1="-7"
       y1="-7"
       x2="7"
       y2="-7"
       gradientUnits="userSpaceOnUse" />
    <linearGradient
       inkscape:collect="always"
       xlink:href="#smallKnobMediumGradient"
       id="linearGradient297"
       x1="-8"
       y1="-8"
       x2="8"
       y2="-8"
       gradientUnits="userSpaceOnUse" />
    <linearGradient
       inkscape:collect="always"
       xlink:href="#smallKnobDarkGradient"
       id="linearGradient299"
       x1="-7"
       y1="-7"
       x2="7"
       y2="-7"
       gradientUnits="userSpaceOnUse" />
  </defs>
  <!-- ======== id ======== -->
  <path
     id="rect52"
     style="fill:#e0e0e0"
     d="M 0,0 H 120 V 380 H 0 Z"
     class="background" />
  <g
     aria-label="FM"
     id="text54"
     style="font-size:17.3333px;font-family:'American Typewriter';text-anchor:middle;fill:#a91913"
     class="title">
    <path
       d="M 48.989812,22.956 V 21.5 l -0.01733,-2.756 q 0,-1.282667 -0.884,-1.282667 -0.225334,0 -0.346667,0.03467 -0.277333,0.052 -0.450667,0.052 -0.225333,0 -0.381333,-0.156 -0.156,-0.173334 -0.156,-0.416 0,-0.606667 0.728,-0.606667 0.08667,0 0.26,0.01733 l 1.196,0.121334 q 0.676,0.06933 1.508,0.06933 0.450667,0 1.941334,-0.052 L 54.380479,16.456 q 0.398667,-0.01733 0.936,-0.052 0.242667,-0.01733 0.52,-0.01733 0.918667,0 0.918667,0.814667 0,0.312 -0.08667,0.953333 -0.08667,0.641334 -0.08667,0.970667 0,0.277333 0.03467,0.693333 0.03467,0.416 0.03467,0.762667 0,0.710667 -0.624,0.710667 -0.641334,0 -0.641334,-0.814667 0,-0.242667 0.01733,-0.745333 0.03467,-0.502667 0.03467,-0.745334 0,-0.918666 -0.52,-1.161333 -0.52,-0.242667 -2.461333,-0.242667 -1.646667,0 -1.872,0.294667 -0.173334,0.225333 -0.173334,1.594667 v 1.282666 q 0,0.485334 0.121334,0.606667 0.138666,0.104 0.728,0.104 h 0.572 q 1.126667,0 1.126667,-0.832 0,-0.190667 -0.052,-0.52 -0.03467,-0.329333 -0.03467,-0.502667 0,-0.658666 0.624,-0.658666 0.589333,0 0.589333,0.762666 0,0.104 -0.03467,0.416 l -0.104,0.936 q -0.06933,0.624 -0.06933,0.936 0,0.710667 0.156,1.802667 0.052,0.364 0.052,0.693334 0,0.676 -0.624,0.676 -0.589333,0 -0.589333,-0.728 0,-0.173334 0.01733,-0.52 0.03467,-0.346667 0.03467,-0.520001 0,-0.537333 -0.294667,-0.693333 Q 52.439146,22.592 51.832479,22.592 h -0.537333 q -0.606667,0 -0.745334,0.138666 -0.138667,0.138667 -0.138667,0.762667 V 25.556 q 0,0.814667 0.173334,1.109333 0.190666,0.277334 0.693333,0.277334 0.121334,0 0.381334,-0.01733 0.26,-0.01733 0.381333,-0.01733 0.797333,0 0.797333,0.589333 0,0.242667 -0.190666,0.416 -0.173334,0.173334 -0.433334,0.173334 -0.277333,0 -0.814666,-0.08667 -0.762667,-0.121333 -1.733334,-0.121333 -0.624,0 -1.334667,0.104 l -0.589333,0.08667 q -0.052,0 -0.121333,0.01733 -0.06933,0 -0.104,0 -0.762667,0 -0.762667,-0.624 0,-0.554667 0.537333,-0.554667 0.06933,0 0.450667,0.03467 0.190667,0.052 0.364,0.052 0.468,0 0.641333,-0.277334 0.190667,-0.294666 0.208,-1.022666 z"
       style="font-size:17.3333px;font-family:'American Typewriter';text-anchor:middle;fill:#a91913"
       id="path414" />
    <path
       d="M 62.685584,17.669333 65.354917,26.44 68.284251,17.097333 q 0.225333,-0.728 0.78,-0.728 h 0.08667 q 0.173334,0 0.450667,0.052 0.346667,0.08667 0.450667,0.08667 0.277333,0.03467 0.762666,0.03467 0.52,0 0.814667,-0.052 l 0.606667,-0.104 q 0.052,-0.01733 0.208,-0.01733 0.797333,0 0.797333,0.606667 0,0.554666 -0.554667,0.554666 -0.138666,0 -0.416,-0.03467 -0.26,-0.052 -0.398666,-0.052 -0.884,0 -0.884,1.3 v 1.213333 l -0.01733,1.525333 V 22.956 l 0.01733,2.738667 q 0,1.3 0.866666,1.3 0.173334,0 0.381334,-0.052 0.381333,-0.03467 0.450666,-0.03467 0.554667,0 0.554667,0.554667 0,0.624 -0.745333,0.624 0.03467,0 -0.26,-0.03467 -1.196,-0.138667 -2.028,-0.138667 -0.814667,0 -1.56,0.121334 -0.312,0.052 -0.554667,0.052 -0.676,0 -0.676,-0.572 0,-0.589334 0.693333,-0.589334 0.173334,0 0.26,0.01733 0.381334,0.03467 0.450667,0.03467 0.624,0 0.78,-1.3 0.03467,-0.277333 0.03467,-1.768 0,-0.572 0.01733,-1.664 l 0.03467,-1.56 v -3.068 q 0,-0.104 -0.08667,-0.104 -0.052,0 -0.104,0.104 l -3.189334,9.897334 q -0.208,0.658666 -0.970666,0.658666 -0.450667,0 -0.676,-0.138666 -0.208,-0.121334 -0.329334,-0.52 l -3.137333,-9.897334 q -0.052,-0.104 -0.121333,-0.104 -0.06933,0 -0.06933,0.104 l 0.104,8.06 q 0.01733,1.265334 0.693334,1.265334 0.190666,0 0.52,-0.06933 h 0.208 q 0.676,0 0.676,0.606667 0,0.606667 -0.693334,0.606667 -0.121333,0 -0.364,-0.03467 -0.381333,-0.052 -0.814666,-0.121333 -0.346667,-0.052 -0.884,-0.052 -0.953334,0 -1.230667,0.052 l -0.728,0.138666 q -0.03467,0 -0.104,0.01733 -0.06933,0 -0.104,0 -0.797334,0 -0.797334,-0.606667 0,-0.242667 0.156,-0.398667 0.156,-0.173333 0.381334,-0.173333 0.190667,0 0.450667,0.052 0.26,0.052 0.381333,0.052 0.884,0 0.884,-1.3 v -6.968 q 0,-1.3 -0.884,-1.3 -0.138667,0 -0.416,0.052 -0.277333,0.03467 -0.416,0.03467 -0.537334,0 -0.537334,-0.554666 0,-0.606667 0.780001,-0.606667 0.06933,0 0.225333,0.01733 l 0.606667,0.06933 q 0.450666,0.052 0.849333,0.052 0.329333,0 0.884,-0.06933 0.572,-0.06933 0.832,-0.06933 0.676,0 0.901333,0.849333 z"
       style="font-size:17.3333px;font-family:'American Typewriter';text-anchor:middle;fill:#a91913"
       id="path416" />
  </g>
  <g
     aria-label="zaphod"
     id="text56"
     style="font-size:16px;font-family:'American Typewriter';text-anchor:middle;fill:#a91913"
     class="logo">
    <path
       d="m 33.147125,360.352 5.216,-5.28 h -2.448 q -1.2,0 -1.504,0.08 -0.304,0.064 -0.304,0.368 0,0.128 0.032,0.288 0.08,0.416 0.08,0.784 0,0.608 -0.528,0.608 -0.544,0 -0.544,-0.704 0,-0.304 0.016,-0.416 0.064,-0.48 0.064,-0.688 0,-0.16 -0.064,-0.464 -0.048,-0.32 -0.048,-0.48 0,-0.496 0.8,-0.496 0.256,0 0.688,0.016 0.496,0.032 0.688,0.032 l 0.96,0.016 h 2.72 q 1.04,0 1.04,0.736 0,0.336 -0.608,0.944 l -5.184,5.232 h 3.808 q 0.944,0 0.944,-0.544 v -0.304 q 0,-0.272 -0.032,-0.464 -0.032,-0.608 -0.032,-0.576 0,-0.272 0.16,-0.448 0.16,-0.192 0.4,-0.192 0.512,0 0.512,0.608 0,0.272 -0.032,0.56 -0.064,0.576 -0.064,0.832 0,0.176 0.032,0.512 0.048,0.336 0.048,0.512 0,0.624 -0.704,0.608 l -0.976,-0.032 h -4.608 q -0.4,0 -0.656,-0.24 -0.256,-0.24 -0.256,-0.608 0,-0.416 0.384,-0.8 z"
       style="font-size:16px;font-family:'American Typewriter';text-anchor:middle;fill:#a91913"
       id="path401" />
    <path
       d="m 48.144625,362.208 q -1.312,0 -1.616,-1.136 -0.816,1.2 -2.56,1.2 -1.296,0 -2.08,-0.64 -0.768,-0.64 -0.768,-1.712 0,-1.328 1.136,-1.952 0.432,-0.24 0.736,-0.304 0.32,-0.08 1.264,-0.192 1.344,-0.144 1.744,-0.4 0.416,-0.256 0.416,-0.944 0,-0.656 -0.464,-1.024 -0.448,-0.384 -1.264,-0.384 -0.72,0 -1.344,0.4 -0.24,0.16 -0.24,0.336 0,0.064 0.144,0.16 0.224,0.16 0.224,0.544 0,0.32 -0.24,0.528 -0.224,0.208 -0.576,0.208 -0.416,0 -0.704,-0.288 -0.272,-0.288 -0.272,-0.704 0,-0.896 0.88,-1.536 0.896,-0.64 2.16,-0.64 2.912,0 2.912,2.8 v 3.232 q 0,0.768 0.032,0.912 0.096,0.56 0.544,0.56 0.56,0 0.56,-1.024 v -0.784 q 0,-0.512 0.496,-0.512 0.528,0 0.528,0.768 v 0.08 l -0.016,0.912 q -0.032,1.536 -1.632,1.536 z m -1.776,-3.184 0.016,-1.136 q -0.352,0.32 -0.752,0.448 -0.384,0.128 -1.392,0.224 -1.824,0.176 -1.824,1.344 0,0.608 0.432,0.96 0.448,0.352 1.2,0.352 1.072,0 1.68,-0.576 0.624,-0.592 0.64,-1.616 z"
       style="font-size:16px;font-family:'American Typewriter';text-anchor:middle;fill:#a91913"
       id="path403" />
    <path
       d="m 52.727875,354.464 v 0.512 q 0.896,-1.248 2.448,-1.248 1.6,0 2.544,1.104 0.944,1.104 0.944,2.992 0,2.032 -1.008,3.248 -0.992,1.2 -2.672,1.2 -1.392,0 -2.256,-0.976 v 1.328 q 0,0.608 0.032,0.784 0.096,0.496 0.464,0.496 0.112,0 0.336,-0.048 0.224,-0.048 0.336,-0.048 0.512,0 0.512,0.528 0,0.528 -0.672,0.528 -0.24,0 -0.72,-0.064 -0.352,-0.048 -1.056,-0.048 -0.384,0 -0.64,0.032 -0.64,0.08 -0.848,0.08 -0.272,0 -0.464,-0.176 -0.192,-0.16 -0.192,-0.384 0,-0.512 0.544,-0.512 0.096,0 0.304,0.048 0.272,0.064 0.4,0.064 0.304,0 0.368,-0.32 0.08,-0.304 0.096,-1.728 l 0.016,-6.176 q -0.016,-0.736 -0.416,-0.736 -0.112,0 -0.352,0.064 -0.224,0.048 -0.352,0.048 -0.592,0 -0.592,-0.528 0,-0.512 0.704,-0.512 0.176,0 0.384,0.016 0.4,0.032 0.592,0.032 0.144,0 0.416,-0.016 0.272,-0.032 0.4,-0.032 0.4,0 0.4,0.448 z m 0.24,1.952 q -0.144,0.624 -0.16,1.52 0,0.064 -0.016,0.24 0,0.144 0,0.224 0,1.072 0.176,1.568 0.176,0.48 0.688,0.864 0.528,0.384 1.296,0.384 1.152,0 1.776,-0.832 0.64,-0.848 0.64,-2.4 0,-3.2 -2.272,-3.2 -0.768,0 -1.376,0.464 -0.592,0.464 -0.752,1.168 z"
       style="font-size:16px;font-family:'American Typewriter';text-anchor:middle;fill:#a91913"
       id="path405" />
    <path
       d="m 62.401625,351.696 -0.064,3.104 q 0.64,-0.608 1.168,-0.832 0.528,-0.24 1.248,-0.24 1.376,0 2.208,0.784 0.832,0.784 0.832,2.064 v 2.672 q 0,0.944 0.016,1.04 0.064,0.8 0.416,0.8 0.128,0 0.368,-0.064 0.096,-0.016 0.256,-0.016 0.592,0 0.592,0.528 0,0.528 -0.768,0.528 -0.208,0 -0.608,-0.048 -0.672,-0.08 -1.088,-0.08 -0.416,0 -0.64,0.032 -0.672,0.096 -0.832,0.096 -0.288,0 -0.48,-0.16 -0.192,-0.176 -0.192,-0.432 0,-0.208 0.16,-0.352 0.176,-0.144 0.4,-0.144 0.176,0 0.416,0.08 0.144,0.048 0.272,0.048 0.48,0 0.496,-1.04 0,-0.192 0.016,-0.752 l 0.016,-0.688 v -0.864 q 0,-1.632 -0.32,-2.192 -0.464,-0.832 -1.632,-0.832 -1.264,0 -1.84,0.864 -0.4,0.592 -0.416,1.904 l -0.016,1.152 q 0,0.096 -0.016,0.32 0,0.208 0,0.304 0,0.912 0.016,1.056 0.08,0.784 0.464,0.784 0.128,0 0.352,-0.048 0.24,-0.064 0.352,-0.064 0.512,0 0.512,0.496 0,0.56 -0.704,0.56 -0.224,0 -0.672,-0.048 -0.608,-0.064 -1.04,-0.064 -0.272,0 -0.752,0.048 -0.64,0.064 -0.816,0.064 -0.656,0 -0.656,-0.576 0,-0.48 0.608,-0.48 0.208,0 0.304,0.032 0.272,0.048 0.384,0.048 0.256,0 0.336,-0.48 0.096,-0.496 0.112,-2 l 0.016,-2.864 q 0,-2.4 -0.096,-3.024 -0.096,-0.64 -0.448,-0.64 -0.112,0 -0.336,0.048 -0.224,0.048 -0.352,0.048 -0.544,0 -0.544,-0.512 0,-0.224 0.192,-0.384 0.192,-0.16 0.464,-0.16 0.08,0 0.544,0.048 0.304,0.032 0.656,0.032 0.144,0 0.4,-0.032 0.256,-0.032 0.368,-0.032 0.368,0 0.368,0.528 z"
       style="font-size:16px;font-family:'American Typewriter';text-anchor:middle;fill:#a91913"
       id="path407" />
    <path
       d="m 73.757125,362.272 q -1.68,0 -2.688,-1.152 -1.008,-1.168 -1.008,-3.12 0,-1.952 1.008,-3.104 1.024,-1.168 2.736,-1.168 1.744,0 2.752,1.136 1.008,1.136 1.008,3.088 0,1.952 -1.04,3.136 -1.04,1.184 -2.768,1.184 z m 0.08,-7.488 q -1.12,0 -1.76,0.784 -0.64,0.784 -0.704,2.224 0,0 0,0.208 0,1.504 0.624,2.368 0.64,0.848 1.776,0.848 1.168,0 1.824,-0.848 0.672,-0.864 0.672,-2.384 0,-3.2 -2.432,-3.2 z"
       style="font-size:16px;font-family:'American Typewriter';text-anchor:middle;fill:#a91913"
       id="path409" />
    <path
       d="m 82.411125,353.728 q 1.584,0 2.368,1.232 v -1.616 q 0,-0.64 -0.032,-0.784 -0.08,-0.496 -0.448,-0.496 -0.128,0 -0.368,0.048 -0.224,0.048 -0.352,0.048 -0.592,0 -0.592,-0.512 0,-0.528 0.8,-0.528 0.128,0 0.464,0.032 0.512,0.048 0.528,0.048 0.144,0 0.416,-0.032 0.272,-0.032 0.416,-0.032 0.448,0 0.448,0.64 v 0.176 q -0.016,0.048 -0.032,0.848 0,0.096 -0.048,1.232 -0.032,0.8 -0.032,1.216 v 1.568 l 0.032,2.672 q 0.016,1.056 0.096,1.312 0.08,0.256 0.384,0.256 0.208,0 0.32,-0.032 0.256,-0.032 0.352,-0.032 0.592,0 0.592,0.528 0,0.544 -0.72,0.544 -0.16,0 -0.496,-0.048 -0.32,-0.032 -0.48,-0.032 -0.048,0 -0.368,0.032 -0.192,0.048 -0.336,0.048 -0.432,0 -0.432,-0.576 v -0.08 l 0.016,-0.272 q -0.848,1.136 -2.464,1.136 -1.632,0 -2.624,-1.184 -0.992,-1.184 -0.992,-3.104 0,-1.936 0.976,-3.088 0.976,-1.168 2.608,-1.168 z m 2.272,5.648 q 0.064,-0.528 0.064,-1.36 0,-1.072 -0.08,-1.456 -0.144,-0.8 -0.688,-1.248 -0.64,-0.528 -1.472,-0.528 -1.12,0 -1.76,0.848 -0.624,0.848 -0.624,2.32 0,1.52 0.656,2.4 0.656,0.864 1.792,0.864 0.864,0 1.44,-0.496 0.576,-0.512 0.672,-1.344 z"
       style="font-size:16px;font-family:'American Typewriter';text-anchor:middle;fill:#a91913"
       id="path411" />
  </g>
  <!-- ======== knobs ======== -->
  <g
     aria-label="RATIO"
     id="text58"
     style="font-weight:bold;font-size:10px;font-family:Helvetica;text-anchor:middle;fill:#343434"
     class="big-label">
    <path
       d="M 48.632812,49.177734 H 47.080078 V 52 h -1.469726 v -7.197266 h 3.530273 q 0.756836,0.01465 1.162109,0.185547 0.410157,0.170899 0.69336,0.50293 0.234375,0.273437 0.371093,0.605469 0.136719,0.332031 0.136719,0.756836 0,0.512695 -0.258789,1.010742 -0.258789,0.493164 -0.854492,0.698242 0.498047,0.200195 0.703125,0.571289 0.209961,0.366211 0.209961,1.123047 v 0.483398 q 0,0.493164 0.03906,0.668946 0.05859,0.27832 0.273438,0.410156 V 52 h -1.655274 q -0.06836,-0.239258 -0.09766,-0.385742 -0.05859,-0.302735 -0.06348,-0.620117 l -0.0098,-0.668946 q -0.0098,-0.688476 -0.253906,-0.917968 -0.239258,-0.229493 -0.903321,-0.229493 z m 0.913086,-1.308593 q 0.449219,-0.205079 0.449219,-0.810547 0,-0.654297 -0.43457,-0.878907 -0.244141,-0.126953 -0.732422,-0.126953 h -1.748047 v 1.933594 h 1.704102 q 0.507812,0 0.761718,-0.117187 z"
       style="font-weight:bold;font-size:10px;font-family:Helvetica;text-anchor:middle;fill:#343434"
       id="path445" />
    <path
       d="M 57.016602,50.520508 H 54.365234 L 53.867187,52 h -1.572265 l 2.568359,-7.197266 H 56.5625 L 59.111328,52 h -1.630859 z m -0.419922,-1.240235 -0.898438,-2.832031 -0.927734,2.832031 z"
       style="font-weight:bold;font-size:10px;font-family:Helvetica;text-anchor:middle;fill:#343434"
       id="path447" />
    <path
       d="m 64.519043,44.802734 v 1.274414 h -2.15332 V 52 h -1.513672 v -5.922852 h -2.163086 v -1.274414 z"
       style="font-weight:bold;font-size:10px;font-family:Helvetica;text-anchor:middle;fill:#343434"
       id="path449" />
    <path
       d="m 65.283203,44.802734 h 1.494141 V 52 h -1.494141 z"
       style="font-weight:bold;font-size:10px;font-family:Helvetica;text-anchor:middle;fill:#343434"
       id="path451" />
    <path
       d="m 71.357422,52.200195 q -1.542969,0 -2.358399,-0.839843 -1.09375,-1.030274 -1.09375,-2.96875 0,-1.97754 1.09375,-2.96875 0.81543,-0.839844 2.358399,-0.839844 1.542969,0 2.358398,0.839844 1.088867,0.99121 1.088867,2.96875 0,1.938476 -1.088867,2.96875 -0.815429,0.839843 -2.358398,0.839843 z m 1.420898,-1.933593 q 0.522461,-0.65918 0.522461,-1.875 0,-1.210938 -0.527344,-1.870118 -0.52246,-0.664062 -1.416015,-0.664062 -0.893555,0 -1.425781,0.65918 -0.532227,0.659179 -0.532227,1.875 0,1.21582 0.532227,1.875 0.532226,0.659179 1.425781,0.659179 0.893555,0 1.420898,-0.659179 z"
       style="font-weight:bold;font-size:10px;font-family:Helvetica;text-anchor:middle;fill:#343434"
       id="path453" />
  </g>
  <g
     id="use60"
     transform="translate(35,57)">
    <g
       transform="translate(25,25)"
       id="g219">
      <path
         id="circle215"
         style="fill:url(#linearGradient223)"
         transform="rotate(90)"
         d="M 24.5,0 A 24.5,24.5 0 0 1 0,24.5 24.5,24.5 0 0 1 -24.5,0 24.5,24.5 0 0 1 0,-24.5 24.5,24.5 0 0 1 24.5,0 Z" />
      <path
         id="circle217"
         style="fill:url(#linearGradient225)"
         transform="rotate(90)"
         d="M 21.5,0 A 21.5,21.5 0 0 1 0,21.5 21.5,21.5 0 0 1 -21.5,0 21.5,21.5 0 0 1 0,-21.5 21.5,21.5 0 0 1 21.5,0 Z" />
    </g>
  </g>
  <g
     aria-label="OFFSET"
     id="text64"
     style="font-weight:bold;font-size:10px;font-family:Helvetica;text-anchor:middle;fill:#343434"
     class="big-label">
    <path
       d="m 17.208984,126.2002 q -1.542968,0 -2.358398,-0.83985 -1.09375,-1.03027 -1.09375,-2.96875 0,-1.97754 1.09375,-2.96875 0.81543,-0.83984 2.358398,-0.83984 1.542969,0 2.358399,0.83984 1.088867,0.99121 1.088867,2.96875 0,1.93848 -1.088867,2.96875 -0.81543,0.83985 -2.358399,0.83985 z m 1.420899,-1.9336 q 0.522461,-0.65918 0.522461,-1.875 0,-1.21094 -0.527344,-1.87012 -0.522461,-0.66406 -1.416016,-0.66406 -0.893554,0 -1.425781,0.65918 -0.532226,0.65918 -0.532226,1.875 0,1.21582 0.532226,1.875 0.532227,0.65918 1.425781,0.65918 0.893555,0 1.420899,-0.65918 z"
       style="font-weight:bold;font-size:10px;font-family:Helvetica;text-anchor:middle;fill:#343434"
       id="path388" />
    <path
       d="m 26.901367,120.07715 h -3.608398 v 1.65527 h 3.159179 v 1.25 H 23.292969 V 126 h -1.494141 v -7.1875 h 5.102539 z"
       style="font-weight:bold;font-size:10px;font-family:Helvetica;text-anchor:middle;fill:#343434"
       id="path390" />
    <path
       d="M 33.014648,120.07715 H 29.40625 v 1.65527 h 3.15918 v 1.25 H 29.40625 V 126 h -1.494141 v -7.1875 h 5.102539 z"
       style="font-weight:bold;font-size:10px;font-family:Helvetica;text-anchor:middle;fill:#343434"
       id="path392" />
    <path
       d="m 36.637695,124.95996 q 0.532227,0 0.864258,-0.11719 0.629883,-0.22461 0.629883,-0.83496 0,-0.35644 -0.3125,-0.55176 -0.3125,-0.19042 -0.981445,-0.33691 l -0.761719,-0.1709 q -1.123047,-0.2539 -1.552735,-0.55176 -0.727539,-0.49804 -0.727539,-1.55761 0,-0.9668 0.703125,-1.60645 0.703125,-0.63965 2.06543,-0.63965 1.137695,0 1.938477,0.60547 0.805664,0.60059 0.844726,1.74805 h -1.445312 q -0.03906,-0.64941 -0.566407,-0.92285 -0.351562,-0.18067 -0.874023,-0.18067 -0.581055,0 -0.927734,0.23438 -0.34668,0.23437 -0.34668,0.6543 0,0.38574 0.341797,0.57617 0.219726,0.12695 0.9375,0.29785 l 1.240234,0.29785 q 0.81543,0.19531 1.230469,0.52246 0.644531,0.50781 0.644531,1.46973 0,0.98633 -0.756836,1.64062 -0.751953,0.64942 -2.128906,0.64942 -1.40625,0 -2.211914,-0.63965 -0.805664,-0.64453 -0.805664,-1.76758 h 1.435547 q 0.06836,0.49316 0.268554,0.73731 0.366211,0.44433 1.254883,0.44433 z"
       style="font-weight:bold;font-size:10px;font-family:Helvetica;text-anchor:middle;fill:#343434"
       id="path394" />
    <path
       d="M 45.714844,122.85547 H 42.21875 v 1.85058 h 3.984375 V 126 h -5.454102 v -7.19727 h 5.278321 v 1.27442 H 42.21875 v 1.52832 h 3.496094 z"
       style="font-weight:bold;font-size:10px;font-family:Helvetica;text-anchor:middle;fill:#343434"
       id="path396" />
    <path
       d="m 52.614258,118.80273 v 1.27442 H 50.460937 V 126 h -1.513671 v -5.92285 H 46.78418 v -1.27442 z"
       style="font-weight:bold;font-size:10px;font-family:Helvetica;text-anchor:middle;fill:#343434"
       id="path398" />
  </g>
  <g
     id="use66"
     transform="translate(13,130)">
    <g
       transform="translate(20,20)"
       id="g239">
      <path
         id="circle235"
         style="fill:url(#linearGradient243)"
         transform="rotate(90)"
         d="M 19.5,0 A 19.5,19.5 0 0 1 0,19.5 19.5,19.5 0 0 1 -19.5,0 19.5,19.5 0 0 1 0,-19.5 19.5,19.5 0 0 1 19.5,0 Z" />
      <path
         id="circle237"
         style="fill:url(#linearGradient245)"
         transform="rotate(90)"
         d="M 16.5,0 A 16.5,16.5 0 0 1 0,16.5 16.5,16.5 0 0 1 -16.5,0 16.5,16.5 0 0 1 0,-16.5 16.5,16.5 0 0 1 16.5,0 Z" />
    </g>
  </g>
  <g
     aria-label="INDEX"
     id="text70"
     style="font-weight:bold;font-size:10px;font-family:Helvetica;text-anchor:middle;fill:#343434"
     class="big-label">
    <path
       d="m 72.351562,118.80273 h 1.494141 V 126 h -1.494141 z"
       style="font-weight:bold;font-size:10px;font-family:Helvetica;text-anchor:middle;fill:#343434"
       id="path375" />
    <path
       d="m 81.0625,126 h -1.503906 l -2.939453,-5.1123 V 126 h -1.401368 v -7.19727 h 1.577149 l 2.866211,5.02442 v -5.02442 H 81.0625 Z"
       style="font-weight:bold;font-size:10px;font-family:Helvetica;text-anchor:middle;fill:#343434"
       id="path377" />
    <path
       d="M 85.569336,126 H 82.46875 v -7.19727 h 3.100586 q 0.668945,0.01 1.113281,0.15625 0.756836,0.24903 1.225586,0.91309 0.375977,0.53711 0.512695,1.16211 0.136719,0.625 0.136719,1.19141 0,1.43554 -0.576172,2.43164 Q 87.200195,126 85.569336,126 Z m 1.118164,-5.36133 q -0.34668,-0.58594 -1.37207,-0.58594 H 83.928711 V 124.75 h 1.386719 q 1.064453,0 1.484375,-1.0498 0.229492,-0.57618 0.229492,-1.37207 0,-1.09864 -0.341797,-1.68946 z"
       style="font-weight:bold;font-size:10px;font-family:Helvetica;text-anchor:middle;fill:#343434"
       id="path379" />
    <path
       d="m 94.705078,122.85547 h -3.496094 v 1.85058 h 3.984375 V 126 h -5.454101 v -7.19727 h 5.27832 v 1.27442 h -3.808594 v 1.52832 h 3.496094 z"
       style="font-weight:bold;font-size:10px;font-family:Helvetica;text-anchor:middle;fill:#343434"
       id="path381" />
    <path
       d="m 102.16113,126 h -1.82617 L 98.967773,123.54883 97.522461,126 h -1.748047 l 2.314453,-3.66699 -2.202148,-3.53028 h 1.796875 l 1.284179,2.33887 1.318357,-2.33887 h 1.73828 l -2.202144,3.47168 z"
       style="font-weight:bold;font-size:10px;font-family:Helvetica;text-anchor:middle;fill:#343434"
       id="path383" />
  </g>
  <g
     id="use72"
     transform="translate(67,130)">
    <g
       transform="translate(20,20)"
       id="g251">
      <path
         id="circle247"
         style="fill:url(#linearGradient255)"
         transform="rotate(90)"
         d="M 19.5,0 A 19.5,19.5 0 0 1 0,19.5 19.5,19.5 0 0 1 -19.5,0 19.5,19.5 0 0 1 0,-19.5 19.5,19.5 0 0 1 19.5,0 Z" />
      <path
         id="circle249"
         style="fill:url(#linearGradient257)"
         transform="rotate(90)"
         d="M 16.5,0 A 16.5,16.5 0 0 1 0,16.5 16.5,16.5 0 0 1 -16.5,0 16.5,16.5 0 0 1 0,-16.5 16.5,16.5 0 0 1 16.5,0 Z" />
    </g>
  </g>
  <!-- ======== row 1 ======== -->
  <path
     id="polyline76"
     transform="translate(24,194)"
     style="stroke:#343434;stroke-width:1"
     d="M 0,0 V 42"
     class="connect" />
  <g
     transform="translate(24,209)"
     id="g84">
    <path
       id="polyline78"
       style="stroke:#343434;stroke-width:1"
       d="m -7,0 h 4"
       class="connect" />
    <path
       id="polyline80"
       style="stroke:#343434;stroke-width:1"
       d="M 7,0 H 3"
       class="connect" />
    <path
       id="polyline82"
       style="stroke:#343434;stroke-width:1"
       d="M 5,-2 V 2"
       class="connect" />
  </g>
  <g
     id="use88"
     transform="translate(15,185)">
    <g
       transform="translate(9,9)"
       id="g265">
      <path
         id="circle259"
         style="fill:none;stroke:#222222"
         d="M 8.5,0 A 8.5,8.5 0 0 1 0,8.5 8.5,8.5 0 0 1 -8.5,0 8.5,8.5 0 0 1 0,-8.5 8.5,8.5 0 0 1 8.5,0 Z" />
      <path
         id="circle261"
         style="fill:url(#linearGradient269)"
         transform="rotate(90)"
         d="M 8,0 A 8,8 0 0 1 0,8 8,8 0 0 1 -8,0 8,8 0 0 1 0,-8 8,8 0 0 1 8,0 Z" />
      <path
         id="circle263"
         style="fill:url(#linearGradient271)"
         transform="rotate(90)"
         d="M 7,0 A 7,7 0 0 1 0,7 7,7 0 0 1 -7,0 7,7 0 0 1 0,-7 7,7 0 0 1 7,0 Z" />
    </g>
  </g>
  <path
     id="polyline92"
     transform="translate(60,194)"
     style="stroke:#343434;stroke-width:1"
     d="M 0,0 V 42"
     class="connect" />
  <g
     transform="translate(60,209)"
     id="g100">
    <path
       id="polyline94"
       style="stroke:#343434;stroke-width:1"
       d="m -7,0 h 4"
       class="connect" />
    <path
       id="polyline96"
       style="stroke:#343434;stroke-width:1"
       d="M 7,0 H 3"
       class="connect" />
    <path
       id="polyline98"
       style="stroke:#343434;stroke-width:1"
       d="M 5,-2 V 2"
       class="connect" />
  </g>
  <g
     id="use104"
     transform="translate(51,185)">
    <g
       transform="translate(9,9)"
       id="g279">
      <path
         id="circle273"
         style="fill:none;stroke:#222222"
         d="M 8.5,0 A 8.5,8.5 0 0 1 0,8.5 8.5,8.5 0 0 1 -8.5,0 8.5,8.5 0 0 1 0,-8.5 8.5,8.5 0 0 1 8.5,0 Z" />
      <path
         id="circle275"
         style="fill:url(#linearGradient283)"
         transform="rotate(90)"
         d="M 8,0 A 8,8 0 0 1 0,8 8,8 0 0 1 -8,0 8,8 0 0 1 0,-8 8,8 0 0 1 8,0 Z" />
      <path
         id="circle277"
         style="fill:url(#linearGradient285)"
         transform="rotate(90)"
         d="M 7,0 A 7,7 0 0 1 0,7 7,7 0 0 1 -7,0 7,7 0 0 1 0,-7 7,7 0 0 1 7,0 Z" />
    </g>
  </g>
  <path
     id="polyline108"
     transform="translate(96,194)"
     style="stroke:#343434;stroke-width:1"
     d="M 0,0 V 42"
     class="connect" />
  <g
     transform="translate(96,209)"
     id="g116">
    <path
       id="polyline110"
       style="stroke:#343434;stroke-width:1"
       d="m -7,0 h 4"
       class="connect" />
    <path
       id="polyline112"
       style="stroke:#343434;stroke-width:1"
       d="M 7,0 H 3"
       class="connect" />
    <path
       id="polyline114"
       style="stroke:#343434;stroke-width:1"
       d="M 5,-2 V 2"
       class="connect" />
  </g>
  <g
     id="use120"
     transform="translate(87,185)">
    <g
       transform="translate(9,9)"
       id="g293">
      <path
         id="circle287"
         style="fill:none;stroke:#222222"
         d="M 8.5,0 A 8.5,8.5 0 0 1 0,8.5 8.5,8.5 0 0 1 -8.5,0 8.5,8.5 0 0 1 0,-8.5 8.5,8.5 0 0 1 8.5,0 Z" />
      <path
         id="circle289"
         style="fill:url(#linearGradient297)"
         transform="rotate(90)"
         d="M 8,0 A 8,8 0 0 1 0,8 8,8 0 0 1 -8,0 8,8 0 0 1 0,-8 8,8 0 0 1 8,0 Z" />
      <path
         id="circle291"
         style="fill:url(#linearGradient299)"
         transform="rotate(90)"
         d="M 7,0 A 7,7 0 0 1 0,7 7,7 0 0 1 -7,0 7,7 0 0 1 0,-7 7,7 0 0 1 7,0 Z" />
    </g>
  </g>
  <!-- ======== row 2 ======== -->
  <g
     id="use124"
     transform="translate(12,224)">
    <g
       transform="translate(12,12)"
       id="g227" />
  </g>
  <g
     aria-label="RAT"
     id="text126"
     style="font-weight:bold;font-size:8px;font-family:Helvetica;text-anchor:middle;fill:#343434"
     class="label">
    <path
       d="M 19.125,255.74219 H 17.882812 V 258 h -1.175781 v -5.75781 h 2.824219 q 0.605469,0.0117 0.929687,0.14843 0.328125,0.13672 0.554688,0.40235 0.1875,0.21875 0.296875,0.48437 0.109375,0.26563 0.109375,0.60547 0,0.41016 -0.207031,0.8086 -0.207032,0.39453 -0.683594,0.55859 0.398437,0.16016 0.5625,0.45703 0.167969,0.29297 0.167969,0.89844 v 0.38672 q 0,0.39453 0.03125,0.53515 0.04687,0.22266 0.21875,0.32813 V 258 H 20.1875 q -0.05469,-0.19141 -0.07813,-0.30859 -0.04687,-0.24219 -0.05078,-0.4961 l -0.0078,-0.53515 q -0.0078,-0.55079 -0.203125,-0.73438 -0.191406,-0.18359 -0.722656,-0.18359 z m 0.730469,-1.04688 q 0.359375,-0.16406 0.359375,-0.64844 0,-0.52343 -0.347657,-0.70312 -0.195312,-0.10156 -0.585937,-0.10156 h -1.398438 v 1.54687 h 1.363282 q 0.40625,0 0.609375,-0.0937 z"
       style="font-weight:bold;font-size:8px;font-family:Helvetica;text-anchor:middle;fill:#343434"
       id="path432" />
    <path
       d="M 25.832031,256.81641 H 23.710937 L 23.3125,258 h -1.257813 l 2.054688,-5.75781 H 25.46875 L 27.507812,258 h -1.304687 z m -0.335937,-0.99219 -0.71875,-2.26563 -0.742188,2.26563 z"
       style="font-weight:bold;font-size:8px;font-family:Helvetica;text-anchor:middle;fill:#343434"
       id="path434" />
    <path
       d="m 31.833984,252.24219 v 1.01953 H 30.111328 V 258 h -1.210937 v -4.73828 h -1.730469 v -1.01953 z"
       style="font-weight:bold;font-size:8px;font-family:Helvetica;text-anchor:middle;fill:#343434"
       id="path436" />
  </g>
  <g
     id="use130"
     transform="translate(48,224)">
    <g
       transform="translate(12,12)"
       id="g301" />
  </g>
  <g
     aria-label="OFS"
     id="text132"
     style="font-weight:bold;font-size:8px;font-family:Helvetica;text-anchor:middle;fill:#343434"
     class="label">
    <path
       d="m 54.929687,258.16016 q -1.234375,0 -1.886718,-0.67188 -0.875,-0.82422 -0.875,-2.375 0,-1.58203 0.875,-2.375 0.652343,-0.67187 1.886718,-0.67187 1.234375,0 1.886719,0.67187 0.871094,0.79297 0.871094,2.375 0,1.55078 -0.871094,2.375 -0.652344,0.67188 -1.886719,0.67188 z m 1.136719,-1.54688 q 0.417969,-0.52734 0.417969,-1.5 0,-0.96875 -0.421875,-1.49609 -0.417969,-0.53125 -1.132813,-0.53125 -0.714843,0 -1.140625,0.52734 -0.425781,0.52734 -0.425781,1.5 0,0.97266 0.425781,1.5 0.425782,0.52734 1.140625,0.52734 0.714844,0 1.136719,-0.52734 z"
       style="font-weight:bold;font-size:8px;font-family:Helvetica;text-anchor:middle;fill:#343434"
       id="path349" />
    <path
       d="m 62.683594,253.26172 h -2.886719 v 1.32422 h 2.527344 v 1 H 59.796875 V 258 h -1.195313 v -5.75 h 4.082032 z"
       style="font-weight:bold;font-size:8px;font-family:Helvetica;text-anchor:middle;fill:#343434"
       id="path351" />
    <path
       d="m 65.582031,257.16797 q 0.425781,0 0.691406,-0.0937 0.503907,-0.17969 0.503907,-0.66797 0,-0.28516 -0.25,-0.44141 -0.25,-0.15234 -0.785157,-0.26953 l -0.609375,-0.13672 q -0.898437,-0.20312 -1.242187,-0.4414 -0.582031,-0.39844 -0.582031,-1.2461 0,-0.77343 0.5625,-1.28515 0.5625,-0.51172 1.652343,-0.51172 0.910157,0 1.550782,0.48437 0.644531,0.48047 0.675781,1.39844 h -1.15625 q -0.03125,-0.51953 -0.453125,-0.73828 -0.28125,-0.14453 -0.699219,-0.14453 -0.464844,0 -0.742187,0.1875 -0.277344,0.1875 -0.277344,0.52344 0,0.30859 0.273437,0.46093 0.175782,0.10157 0.75,0.23828 l 0.992188,0.23829 q 0.652344,0.15625 0.984375,0.41796 0.515625,0.40625 0.515625,1.17579 0,0.78906 -0.605469,1.3125 -0.601562,0.51953 -1.703125,0.51953 -1.125,0 -1.769531,-0.51172 -0.644531,-0.51563 -0.644531,-1.41406 h 1.148437 q 0.05469,0.39453 0.214844,0.58984 0.292969,0.35547 1.003906,0.35547 z"
       style="font-weight:bold;font-size:8px;font-family:Helvetica;text-anchor:middle;fill:#343434"
       id="path353" />
  </g>
  <g
     id="use136"
     transform="translate(84,224)">
    <g
       transform="translate(12,12)"
       id="g305" />
  </g>
  <g
     aria-label="IDX"
     id="text138"
     style="font-weight:bold;font-size:8px;font-family:Helvetica;text-anchor:middle;fill:#343434"
     class="label">
    <path
       d="m 89.84375,252.24219 h 1.195312 V 258 H 89.84375 Z"
       style="font-weight:bold;font-size:8px;font-family:Helvetica;text-anchor:middle;fill:#343434"
       id="path342" />
    <path
       d="M 94.636719,258 H 92.15625 v -5.75781 h 2.480469 q 0.535156,0.008 0.890625,0.125 0.605468,0.19922 0.980468,0.73047 0.300782,0.42968 0.410157,0.92968 0.109375,0.5 0.109375,0.95313 0,1.14844 -0.460938,1.94531 Q 95.941406,258 94.636719,258 Z m 0.894531,-4.28906 q -0.277344,-0.46875 -1.097656,-0.46875 H 93.324219 V 257 h 1.109375 q 0.851562,0 1.1875,-0.83984 0.183593,-0.46094 0.183593,-1.09766 0,-0.87891 -0.273437,-1.35156 z"
       style="font-weight:bold;font-size:8px;font-family:Helvetica;text-anchor:middle;fill:#343434"
       id="path344" />
    <path
       d="m 102.56641,258 h -1.46094 L 100.01172,256.03906 98.855469,258 h -1.398438 l 1.851563,-2.93359 -1.761719,-2.82422 h 1.4375 l 1.027345,1.87109 1.05469,-1.87109 h 1.39062 l -1.76172,2.77734 z"
       style="font-weight:bold;font-size:8px;font-family:Helvetica;text-anchor:middle;fill:#343434"
       id="path346" />
  </g>
  <!-- ======== row 3 ======== -->
  <g
     id="use142"
     transform="translate(12,266)">
    <g
       transform="translate(12,12)"
       id="g231" />
  </g>
  <g
     aria-label="V/OCT"
     id="text144"
     style="font-weight:bold;font-size:8px;font-family:Helvetica;text-anchor:middle;fill:#343434"
     class="label">
    <path
       d="m 11.957031,294.24219 h 1.285157 l 1.25,4.37109 1.261718,-4.37109 h 1.25 L 15.039063,300 h -1.136719 z"
       style="font-weight:bold;font-size:8px;font-family:Helvetica;text-anchor:middle;fill:#343434"
       id="path421" />
    <path
       d="m 16.679687,300 2.230469,-5.93359 h 0.925781 L 17.597656,300 Z"
       style="font-weight:bold;font-size:8px;font-family:Helvetica;text-anchor:middle;fill:#343434"
       id="path423" />
    <path
       d="m 22.492187,300.16016 q -1.234375,0 -1.886718,-0.67188 -0.875,-0.82422 -0.875,-2.375 0,-1.58203 0.875,-2.375 0.652343,-0.67187 1.886718,-0.67187 1.234375,0 1.886719,0.67187 0.871094,0.79297 0.871094,2.375 0,1.55078 -0.871094,2.375 -0.652344,0.67188 -1.886719,0.67188 z m 1.136719,-1.54688 q 0.417969,-0.52734 0.417969,-1.5 0,-0.96875 -0.421875,-1.49609 -0.417969,-0.53125 -1.132813,-0.53125 -0.714843,0 -1.140625,0.52734 -0.425781,0.52734 -0.425781,1.5 0,0.97266 0.425781,1.5 0.425782,0.52734 1.140625,0.52734 0.714844,0 1.136719,-0.52734 z"
       style="font-weight:bold;font-size:8px;font-family:Helvetica;text-anchor:middle;fill:#343434"
       id="path425" />
    <path
       d="m 30.226562,299.57031 q -0.644531,0.58985 -1.648437,0.58985 -1.242188,0 -1.953125,-0.79688 -0.710938,-0.80078 -0.710938,-2.19531 0,-1.50781 0.808594,-2.32422 0.703125,-0.71094 1.789063,-0.71094 1.453125,0 2.125,0.95313 0.371093,0.53515 0.398437,1.07422 h -1.203125 q -0.117187,-0.41407 -0.300781,-0.625 -0.328125,-0.375 -0.972656,-0.375 -0.65625,0 -1.035157,0.53125 -0.378906,0.52734 -0.378906,1.49609 0,0.96875 0.398438,1.45312 0.402343,0.48047 1.019531,0.48047 0.632812,0 0.964844,-0.41406 0.183593,-0.22266 0.304687,-0.66797 h 1.191406 q -0.15625,0.94141 -0.796875,1.53125 z"
       style="font-weight:bold;font-size:8px;font-family:Helvetica;text-anchor:middle;fill:#343434"
       id="path427" />
    <path
       d="m 36.128906,294.24219 v 1.01953 H 34.40625 V 300 h -1.210938 v -4.73828 h -1.730468 v -1.01953 z"
       style="font-weight:bold;font-size:8px;font-family:Helvetica;text-anchor:middle;fill:#343434"
       id="path429" />
  </g>
  <g
     id="use148"
     transform="translate(48,266)">
    <g
       transform="translate(12,12)"
       id="g309" />
  </g>
  <g
     aria-label="MOD"
     id="text150"
     style="font-weight:bold;font-size:8px;font-family:Helvetica;text-anchor:middle;fill:#343434"
     class="label">
    <path
       d="m 52.375,300 h -1.121094 v -5.75781 h 1.75 l 1.046875,4.52734 1.039063,-4.52734 h 1.730468 V 300 h -1.121093 v -3.89453 q 0,-0.16797 0.0039,-0.46875 0.0039,-0.30469 0.0039,-0.46875 L 54.617187,300 h -1.167968 l -1.082032,-4.83203 q 0,0.16406 0.0039,0.46875 0.0039,0.30078 0.0039,0.46875 z"
       style="font-weight:bold;font-size:8px;font-family:Helvetica;text-anchor:middle;fill:#343434"
       id="path335" />
    <path
       d="m 60.492187,300.16016 q -1.234375,0 -1.886718,-0.67188 -0.875,-0.82422 -0.875,-2.375 0,-1.58203 0.875,-2.375 0.652343,-0.67187 1.886718,-0.67187 1.234375,0 1.886719,0.67187 0.871094,0.79297 0.871094,2.375 0,1.55078 -0.871094,2.375 -0.652344,0.67188 -1.886719,0.67188 z m 1.136719,-1.54688 q 0.417969,-0.52734 0.417969,-1.5 0,-0.96875 -0.421875,-1.49609 -0.417969,-0.53125 -1.132813,-0.53125 -0.714843,0 -1.140625,0.52734 -0.425781,0.52734 -0.425781,1.5 0,0.97266 0.425781,1.5 0.425782,0.52734 1.140625,0.52734 0.714844,0 1.136719,-0.52734 z"
       style="font-weight:bold;font-size:8px;font-family:Helvetica;text-anchor:middle;fill:#343434"
       id="path337" />
    <path
       d="m 66.644531,300 h -2.480469 v -5.75781 h 2.480469 q 0.535156,0.008 0.890625,0.125 0.605469,0.19922 0.980469,0.73047 0.300781,0.42968 0.410156,0.92968 0.109375,0.5 0.109375,0.95313 0,1.14844 -0.460937,1.94531 Q 67.949219,300 66.644531,300 Z m 0.894531,-4.28906 q -0.277343,-0.46875 -1.097656,-0.46875 H 65.332031 V 299 h 1.109375 q 0.851563,0 1.1875,-0.83984 0.183594,-0.46094 0.183594,-1.09766 0,-0.87891 -0.273438,-1.35156 z"
       style="font-weight:bold;font-size:8px;font-family:Helvetica;text-anchor:middle;fill:#343434"
       id="path339" />
  </g>
  <!-- ======== row 4 ======== -->
  <!-- output rect -->
  <path
     id="rect154"
     style="fill:#b8b8b8"
     d="m 11,304 h 62 c 1.662,0 3,1.338 3,3 v 36 c 0,1.662 -1.338,3 -3,3 H 11 c -1.662,0 -3,-1.338 -3,-3 v -36 c 0,-1.662 1.338,-3 3,-3 z"
     class="output" />
  <g
     id="use158"
     transform="translate(12,308)">
    <g
       transform="translate(12,12)"
       id="g313" />
  </g>
  <g
     aria-label="MOD"
     id="text160"
     style="font-weight:bold;font-size:8px;font-family:Helvetica;text-anchor:middle;fill:#343434"
     class="label">
    <path
       d="m 16.375,342 h -1.121094 v -5.75781 h 1.75 l 1.046875,4.52734 1.039063,-4.52734 h 1.730468 V 342 h -1.121093 v -3.89453 q 0,-0.16797 0.0039,-0.46875 0.0039,-0.30469 0.0039,-0.46875 L 18.617187,342 h -1.167968 l -1.082032,-4.83203 q 0,0.16406 0.0039,0.46875 0.0039,0.30078 0.0039,0.46875 z"
       style="font-weight:bold;font-size:8px;font-family:Helvetica;text-anchor:middle;fill:#343434"
       id="path328" />
    <path
       d="m 24.492187,342.16016 q -1.234375,0 -1.886718,-0.67188 -0.875,-0.82422 -0.875,-2.375 0,-1.58203 0.875,-2.375 0.652343,-0.67187 1.886718,-0.67187 1.234375,0 1.886719,0.67187 0.871094,0.79297 0.871094,2.375 0,1.55078 -0.871094,2.375 -0.652344,0.67188 -1.886719,0.67188 z m 1.136719,-1.54688 q 0.417969,-0.52734 0.417969,-1.5 0,-0.96875 -0.421875,-1.49609 -0.417969,-0.53125 -1.132813,-0.53125 -0.714843,0 -1.140625,0.52734 -0.425781,0.52734 -0.425781,1.5 0,0.97266 0.425781,1.5 0.425782,0.52734 1.140625,0.52734 0.714844,0 1.136719,-0.52734 z"
       style="font-weight:bold;font-size:8px;font-family:Helvetica;text-anchor:middle;fill:#343434"
       id="path330" />
    <path
       d="m 30.644531,342 h -2.480469 v -5.75781 h 2.480469 q 0.535156,0.008 0.890625,0.125 0.605469,0.19922 0.980469,0.73047 0.300781,0.42968 0.410156,0.92968 0.109375,0.5 0.109375,0.95313 0,1.14844 -0.460937,1.94531 Q 31.949219,342 30.644531,342 Z m 0.894531,-4.28906 q -0.277343,-0.46875 -1.097656,-0.46875 H 29.332031 V 341 h 1.109375 q 0.851563,0 1.1875,-0.83984 0.183594,-0.46094 0.183594,-1.09766 0,-0.87891 -0.273438,-1.35156 z"
       style="font-weight:bold;font-size:8px;font-family:Helvetica;text-anchor:middle;fill:#343434"
       id="path332" />
  </g>
  <g
     id="use164"
     transform="translate(48,308)">
    <g
       transform="translate(12,12)"
       id="g317" />
  </g>
  <g
     aria-label="CAR"
     id="text166"
     style="font-weight:bold;font-size:8px;font-family:Helvetica;text-anchor:middle;fill:#343434"
     class="label">
    <path
       d="m 56,341.57031 q -0.644531,0.58985 -1.648438,0.58985 -1.242187,0 -1.953125,-0.79688 -0.710937,-0.80078 -0.710937,-2.19531 0,-1.50781 0.808594,-2.32422 0.703125,-0.71094 1.789062,-0.71094 1.453125,0 2.125,0.95313 0.371094,0.53515 0.398438,1.07422 h -1.203125 q -0.117188,-0.41407 -0.300782,-0.625 -0.328125,-0.375 -0.972656,-0.375 -0.65625,0 -1.035156,0.53125 -0.378906,0.52734 -0.378906,1.49609 0,0.96875 0.398437,1.45312 0.402344,0.48047 1.019531,0.48047 0.632813,0 0.964844,-0.41406 0.183594,-0.22266 0.304688,-0.66797 h 1.191406 Q 56.640625,340.98047 56,341.57031 Z"
       style="font-weight:bold;font-size:8px;font-family:Helvetica;text-anchor:middle;fill:#343434"
       id="path321" />
    <path
       d="M 61.089844,340.81641 H 58.96875 L 58.570312,342 H 57.3125 l 2.054687,-5.75781 h 1.359375 L 62.765625,342 h -1.304688 z m -0.335938,-0.99219 -0.71875,-2.26563 -0.742187,2.26563 z"
       style="font-weight:bold;font-size:8px;font-family:Helvetica;text-anchor:middle;fill:#343434"
       id="path323" />
    <path
       d="M 65.945312,339.74219 H 64.703125 V 342 h -1.175781 v -5.75781 h 2.824218 q 0.605469,0.0117 0.929688,0.14843 0.328125,0.13672 0.554687,0.40235 0.1875,0.21875 0.296875,0.48437 0.109375,0.26563 0.109375,0.60547 0,0.41016 -0.207031,0.8086 -0.207031,0.39453 -0.683594,0.55859 0.398438,0.16016 0.5625,0.45703 0.167969,0.29297 0.167969,0.89844 v 0.38672 q 0,0.39453 0.03125,0.53515 0.04687,0.22266 0.21875,0.32813 V 342 h -1.324219 q -0.05469,-0.19141 -0.07813,-0.30859 -0.04687,-0.24219 -0.05078,-0.4961 l -0.0078,-0.53515 q -0.0078,-0.55079 -0.203125,-0.73438 -0.191407,-0.18359 -0.722657,-0.18359 z m 0.730469,-1.04688 q 0.359375,-0.16406 0.359375,-0.64844 0,-0.52343 -0.347656,-0.70312 -0.195313,-0.10156 -0.585938,-0.10156 h -1.398437 v 1.54687 h 1.363281 q 0.40625,0 0.609375,-0.0937 z"
       style="font-weight:bold;font-size:8px;font-family:Helvetica;text-anchor:middle;fill:#343434"
       id="path325" />
  </g>
</svg>
