<?xml version="1.0" encoding="UTF-8" standalone="no"?>
<svg
   xmlns:dc="http://purl.org/dc/elements/1.1/"
   xmlns:cc="http://creativecommons.org/ns#"
   xmlns:rdf="http://www.w3.org/1999/02/22-rdf-syntax-ns#"
   xmlns:svg="http://www.w3.org/2000/svg"
   xmlns="http://www.w3.org/2000/svg"
   xmlns:sodipodi="http://sodipodi.sourceforge.net/DTD/sodipodi-0.dtd"
   xmlns:inkscape="http://www.inkscape.org/namespaces/inkscape"
   version="1.1"
   width="60"
   height="380"
   viewBox="0 0 60 380"
   id="svg72"
   sodipodi:docname="FM.svg"
   inkscape:version="1.0.2 (e86c8708, 2021-01-15)">
  <metadata
     id="metadata76">
    <rdf:RDF>
      <cc:Work
         rdf:about="">
        <dc:format>image/svg+xml</dc:format>
        <dc:type
           rdf:resource="http://purl.org/dc/dcmitype/StillImage" />
      </cc:Work>
    </rdf:RDF>
  </metadata>
  <sodipodi:namedview
     pagecolor="#ffffff"
     bordercolor="#666666"
     borderopacity="1"
     objecttolerance="10"
     gridtolerance="10"
     guidetolerance="10"
     inkscape:pageopacity="0"
     inkscape:pageshadow="2"
     inkscape:window-width="689"
     inkscape:window-height="480"
     id="namedview74"
     showgrid="false"
     inkscape:zoom="2.1763158"
     inkscape:cx="30"
     inkscape:cy="190"
     inkscape:window-x="0"
     inkscape:window-y="25"
     inkscape:window-maximized="0"
     inkscape:current-layer="svg72" />
  <style
     id="style2">
    text.logo {
      fill: #a91913;
      font-family: 'American Typewriter';
      font-size: 11pt;
      letter-spacing: 1px;
    }
    text.title {
      fill: #a91913;
      font-family: 'Helvetica';
      font-size: 12pt;
      letter-spacing: 1px;
    }
    text.big-label {
      fill: #3a3a3a;
      font-family: 'Helvetica';
      font-weight: bold;
      font-size: 8pt;
      letter-spacing: 1px;
    }
    text.label {
      fill: #3a3a3a;
      font-family: 'Helvetica';
      font-weight: bold;
      font-size: 6pt;
      letter-spacing: 1px;
    }
    polyline.connect {
      stroke: #7c6f64;
      stroke-width: 1;
    }
    .scaffold-button {
      stroke: #080;
      fill: #080;
    }
    .scaffold {
      stroke: #08f;
      fill: none;
    }
    .background {
      fill: #f6ebc3;
    }
    .output {
      fill: #d1bf99;
    }
  </style>
  <defs
     id="defs22">
    <symbol
       id="knob36">
      <g
         transform="translate(18 18)"
         id="g10">
        <polyline
           points="-5,0 5,0"
           stroke-width="1"
           class="scaffold"
           id="polyline4" />
        <polyline
           points="0,-5 0,5"
           stroke-width="1"
           class="scaffold"
           id="polyline6" />
        <circle
           cx="0"
           cy="0"
           r="17.5"
           stroke-width="1"
           class="scaffold"
           fill="none"
           id="circle8" />
      </g>
    </symbol>
    <symbol
       id="knob18">
      <g
         transform="translate(9 9)"
         id="g19">
        <polyline
           points="-5,0 5,0"
           stroke-width="1"
           class="scaffold"
           id="polyline13" />
        <polyline
           points="0,-5 0,5"
           stroke-width="1"
           class="scaffold"
           id="polyline15" />
        <circle
           cx="0"
           cy="0"
           r="8.5"
           stroke-width="1"
           class="scaffold"
           fill="none"
           id="circle17" />
      </g>
    </symbol>
  </defs>
  <path
     id="rect24"
     style="fill:#f6ebc3"
     d="M 0,0 H 60 V 380 H 0 Z"
     class="background" />
  <g
     aria-label="FM"
     id="text26"
     style="font-size:16px;font-family:Helvetica;letter-spacing:1px;text-anchor:middle;fill:#a91913"
     class="title">
    <path
       d="m 19.304687,14.523438 h 7.960938 v 1.40625 h -6.40625 v 3.484374 h 5.632812 V 20.78125 H 20.859375 V 26 h -1.554688 z"
       style="font-size:16px;font-family:Helvetica;letter-spacing:1px;text-anchor:middle;fill:#a91913"
       id="path203" />
    <path
       d="M 29.898437,14.523438 H 32.125 l 3.296875,9.703124 3.273437,-9.703124 h 2.203125 V 26 h -1.476562 v -6.773438 q 0,-0.351562 0.01563,-1.164062 0.01563,-0.8125 0.01563,-1.742188 L 36.179687,26 H 34.640625 L 31.34375,16.320312 v 0.351563 q 0,0.421875 0.01563,1.289062 0.02344,0.859375 0.02344,1.265625 V 26 h -1.484375 z"
       style="font-size:16px;font-family:Helvetica;letter-spacing:1px;text-anchor:middle;fill:#a91913"
       id="path205" />
  </g>
  <g
     aria-label="zäphød"
     id="text28"
     style="font-size:14.6667px;font-family:'American Typewriter';letter-spacing:1px;text-anchor:middle;fill:#a91913"
     class="logo">
    <path
       d="m 2.884864,364.48933 4.7813335,-4.84 H 5.4221974 q -1.1,0 -1.3786667,0.0733 -0.2786666,0.0587 -0.2786666,0.33733 0,0.11733 0.029333,0.264 0.073333,0.38133 0.073333,0.71867 0,0.55733 -0.484,0.55733 -0.4986667,0 -0.4986667,-0.64533 0,-0.27867 0.014667,-0.38134 0.058667,-0.44 0.058667,-0.63066 0,-0.14667 -0.058667,-0.42534 -0.044,-0.29333 -0.044,-0.44 0,-0.45466 0.7333334,-0.45466 0.2346666,0 0.6306666,0.0147 0.4546667,0.0293 0.6306667,0.0293 l 0.88,0.0147 h 2.4933334 q 0.9533334,0 0.9533334,0.67467 0,0.308 -0.5573334,0.86533 l -4.7520001,4.796 h 3.4906668 q 0.8653333,0 0.8653333,-0.49866 V 364.24 q 0,-0.24933 -0.029333,-0.42533 -0.029333,-0.55734 -0.029333,-0.528 0,-0.24934 0.1466666,-0.41067 0.1466667,-0.176 0.3666667,-0.176 0.4693334,0 0.4693334,0.55733 0,0.24934 -0.029333,0.51334 -0.058667,0.528 -0.058667,0.76266 0,0.16134 0.029333,0.46934 0.044,0.308 0.044,0.46933 0,0.572 -0.6453334,0.55733 L 7.5928642,366 H 3.3688641 q -0.3666667,0 -0.6013334,-0.22 -0.2346667,-0.22 -0.2346667,-0.55733 0,-0.38134 0.352,-0.73334 z"
       style="font-size:14.6667px;font-family:'American Typewriter';letter-spacing:1px;text-anchor:middle;fill:#a91913"
       id="path190" />
    <path
       d="m 17.632573,366.19067 q -1.202667,0 -1.481334,-1.04134 -0.748,1.1 -2.346667,1.1 -1.188,0 -1.906666,-0.58666 -0.704,-0.58667 -0.704,-1.56934 0,-1.21733 1.041333,-1.78933 0.396,-0.22 0.674667,-0.27867 0.293333,-0.0733 1.158666,-0.176 1.232,-0.132 1.598667,-0.36666 0.381333,-0.23467 0.381333,-0.86534 0,-0.60133 -0.425333,-0.93866 -0.410667,-0.352 -1.158667,-0.352 -0.66,0 -1.232,0.36666 -0.22,0.14667 -0.22,0.308 0,0.0587 0.132,0.14667 0.205334,0.14667 0.205334,0.49867 0,0.29333 -0.22,0.484 -0.205334,0.19066 -0.528,0.19066 -0.381334,0 -0.645334,-0.264 -0.249333,-0.264 -0.249333,-0.64533 0,-0.82133 0.806667,-1.408 0.821333,-0.58667 1.98,-0.58667 2.669333,0 2.669333,2.56667 v 2.96267 q 0,0.704 0.02933,0.836 0.088,0.51333 0.498666,0.51333 0.513334,0 0.513334,-0.93867 v -0.71866 q 0,-0.46934 0.454666,-0.46934 0.484,0 0.484,0.704 v 0.0733 l -0.01467,0.836 q -0.02933,1.408 -1.496,1.408 z m -4.429334,-8.56534 q -0.337333,0 -0.586667,-0.23466 -0.234666,-0.24934 -0.234666,-0.58667 0,-0.33733 0.234666,-0.572 0.234667,-0.24933 0.572,-0.24933 0.337334,0 0.572,0.24933 0.249334,0.23467 0.249334,0.572 0,0.33733 -0.234667,0.58667 -0.234667,0.23466 -0.572,0.23466 z m 2.596,0 q -0.322667,0 -0.572,-0.23466 -0.234667,-0.24934 -0.234667,-0.58667 0,-0.33733 0.234667,-0.572 0.234667,-0.24933 0.572,-0.24933 0.337333,0 0.572,0.24933 0.249333,0.23467 0.249333,0.572 0,0.33733 -0.249333,0.58667 -0.234667,0.23466 -0.572,0.23466 z m 0.205333,5.64667 0.01467,-1.04133 q -0.322667,0.29333 -0.689333,0.41066 -0.352,0.11734 -1.276,0.20534 -1.672,0.16133 -1.672,1.232 0,0.55733 0.396,0.88 0.410666,0.32266 1.1,0.32266 0.982666,0 1.54,-0.528 0.572,-0.54266 0.586666,-1.48133 z"
       style="font-size:14.6667px;font-family:'American Typewriter';letter-spacing:1px;text-anchor:middle;fill:#a91913"
       id="path192" />
    <path
       d="m 22.833886,359.092 v 0.46933 q 0.821333,-1.144 2.244,-1.144 1.466666,0 2.332,1.012 0.865333,1.012 0.865333,2.74267 0,1.86267 -0.924,2.97733 -0.909333,1.1 -2.449333,1.1 -1.276,0 -2.068,-0.89466 v 1.21733 q 0,0.55733 0.02933,0.71867 0.088,0.45466 0.425333,0.45466 0.102667,0 0.308,-0.044 0.205334,-0.044 0.308,-0.044 0.469334,0 0.469334,0.484 0,0.484 -0.616,0.484 -0.22,0 -0.66,-0.0587 -0.322667,-0.044 -0.968,-0.044 -0.352,0 -0.586667,0.0293 -0.586667,0.0733 -0.777333,0.0733 -0.249334,0 -0.425334,-0.16133 -0.176,-0.14667 -0.176,-0.352 0,-0.46933 0.498667,-0.46933 0.088,0 0.278667,0.044 0.249333,0.0587 0.366666,0.0587 0.278667,0 0.337334,-0.29333 0.07333,-0.27867 0.088,-1.584 l 0.01467,-5.66133 q -0.01467,-0.67467 -0.381333,-0.67467 -0.102667,0 -0.322667,0.0587 -0.205333,0.044 -0.322666,0.044 -0.542667,0 -0.542667,-0.484 0,-0.46934 0.645333,-0.46934 0.161334,0 0.352,0.0147 0.366667,0.0293 0.542667,0.0293 0.132,0 0.381333,-0.0147 0.249334,-0.0293 0.366667,-0.0293 0.366667,0 0.366667,0.41067 z m 0.22,1.78933 q -0.132,0.572 -0.146667,1.39334 0,0.0587 -0.01467,0.22 0,0.132 0,0.20533 0,0.98267 0.161334,1.43733 0.161333,0.44 0.630666,0.792 0.484,0.352 1.188,0.352 1.056,0 1.628,-0.76266 0.586667,-0.77734 0.586667,-2.2 0,-2.93334 -2.082667,-2.93334 -0.704,0 -1.261333,0.42534 -0.542667,0.42533 -0.689333,1.07066 z"
       style="font-size:14.6667px;font-family:'American Typewriter';letter-spacing:1px;text-anchor:middle;fill:#a91913"
       id="path194" />
    <path
       d="M 32.70149,356.55467 32.642824,359.4 q 0.586666,-0.55733 1.070666,-0.76267 0.484,-0.22 1.144,-0.22 1.261334,0 2.024,0.71867 0.762667,0.71867 0.762667,1.892 v 2.44933 q 0,0.86534 0.01467,0.95334 0.05867,0.73333 0.381333,0.73333 0.117333,0 0.337333,-0.0587 0.088,-0.0147 0.234667,-0.0147 0.542667,0 0.542667,0.484 0,0.484 -0.704,0.484 -0.190667,0 -0.557334,-0.044 -0.616,-0.0733 -0.997333,-0.0733 -0.381333,0 -0.586667,0.0293 -0.616,0.088 -0.762666,0.088 -0.264,0 -0.44,-0.14667 -0.176,-0.16133 -0.176,-0.396 0,-0.19067 0.146666,-0.32267 0.161334,-0.132 0.366667,-0.132 0.161333,0 0.381333,0.0733 0.132,0.044 0.249334,0.044 0.44,0 0.454666,-0.95334 0,-0.176 0.01467,-0.68933 l 0.01467,-0.63067 v -0.792 q 0,-1.496 -0.293334,-2.00933 -0.425333,-0.76267 -1.496,-0.76267 -1.158666,0 -1.686666,0.792 -0.366667,0.54267 -0.381334,1.74534 l -0.01467,1.056 q 0,0.088 -0.01467,0.29333 0,0.19067 0,0.27867 0,0.836 0.01467,0.968 0.07333,0.71866 0.425333,0.71866 0.117333,0 0.322667,-0.044 0.22,-0.0587 0.322666,-0.0587 0.469334,0 0.469334,0.45466 0,0.51334 -0.645334,0.51334 -0.205333,0 -0.616,-0.044 -0.557333,-0.0587 -0.953333,-0.0587 -0.249333,0 -0.689333,0.044 -0.586667,0.0587 -0.748,0.0587 -0.601334,0 -0.601334,-0.528 0,-0.44 0.557334,-0.44 0.190666,0 0.278666,0.0293 0.249334,0.044 0.352,0.044 0.234667,0 0.308,-0.44 0.088,-0.45467 0.102667,-1.83333 l 0.01467,-2.62534 q 0,-2.2 -0.088,-2.772 -0.088,-0.58666 -0.410667,-0.58666 -0.102667,0 -0.308,0.044 -0.205333,0.044 -0.322667,0.044 -0.498666,0 -0.498666,-0.46934 0,-0.20533 0.176,-0.352 0.176,-0.14666 0.425333,-0.14666 0.07333,0 0.498667,0.044 0.278666,0.0293 0.601333,0.0293 0.132,0 0.366667,-0.0293 0.234666,-0.0293 0.337333,-0.0293 0.337333,0 0.337333,0.484 z"
       style="font-size:14.6667px;font-family:'American Typewriter';letter-spacing:1px;text-anchor:middle;fill:#a91913"
       id="path196" />
    <path
       d="m 44.272033,358.41733 q 0.850667,0 1.54,0.396 L 46.2667,358.08 q 0.132,-0.22 0.293333,-0.22 H 47.1027 q 0.132,0 0.132,0.11733 0,0.0587 -0.02933,0.10267 l -0.733334,1.17333 q 1.129334,1.08534 1.129334,2.93334 0,1.83333 -0.953334,2.948 -0.938666,1.11466 -2.522666,1.11466 -0.88,0 -1.686667,-0.41066 l -0.557333,0.89466 q -0.132,0.22 -0.249334,0.22 H 41.0307 q -0.102667,0 -0.102667,-0.11733 0,-0.0733 0.02933,-0.10267 l 0.821333,-1.364 q -1.056,-1.20266 -1.056,-2.772 0,-1.848 0.982667,-3.00666 0.997333,-1.17334 2.566666,-1.17334 z m -1.833333,6.10134 2.830667,-4.94267 q -0.513334,-0.22 -0.938667,-0.22 -1.129333,0 -1.774667,0.86533 -0.645333,0.85067 -0.645333,2.332 0,1.144 0.528,1.96534 z m 3.446667,-4.444 -2.874667,4.972 q 0.528,0.264 1.085333,0.264 1.1,0 1.730667,-0.85067 0.645333,-0.86533 0.645333,-2.34667 0,-1.276 -0.586666,-2.03866 z"
       style="font-size:14.6667px;font-family:'American Typewriter';letter-spacing:1px;text-anchor:middle;fill:#a91913"
       id="path198" />
    <path
       d="m 53.043532,358.41733 q 1.452,0 2.170667,1.12934 v -1.48134 q 0,-0.58666 -0.02933,-0.71866 -0.07333,-0.45467 -0.410666,-0.45467 -0.117334,0 -0.337334,0.044 -0.205333,0.044 -0.322666,0.044 -0.542667,0 -0.542667,-0.46933 0,-0.484 0.733333,-0.484 0.117334,0 0.425334,0.0293 0.469333,0.044 0.484,0.044 0.132,0 0.381333,-0.0293 0.249333,-0.0293 0.381333,-0.0293 0.410667,0 0.410667,0.58667 v 0.16133 q -0.01467,0.044 -0.02933,0.77734 0,0.088 -0.044,1.12933 -0.02933,0.73333 -0.02933,1.11467 v 1.43733 l 0.02933,2.44933 q 0.01467,0.968 0.088,1.20267 0.07333,0.23467 0.352,0.23467 0.190666,0 0.293333,-0.0293 0.234667,-0.0293 0.322667,-0.0293 0.542666,0 0.542666,0.484 0,0.49867 -0.66,0.49867 -0.146666,0 -0.454666,-0.044 -0.293334,-0.0293 -0.44,-0.0293 -0.044,0 -0.337334,0.0293 -0.176,0.044 -0.308,0.044 -0.396,0 -0.396,-0.528 v -0.0733 l 0.01467,-0.24933 q -0.777333,1.04133 -2.258667,1.04133 -1.496,0 -2.405333,-1.08533 -0.909333,-1.08533 -0.909333,-2.84533 0,-1.77467 0.894666,-2.83067 0.894667,-1.07067 2.390667,-1.07067 z m 2.082667,5.17734 q 0.05867,-0.484 0.05867,-1.24667 0,-0.98267 -0.07333,-1.33467 -0.132,-0.73333 -0.630667,-1.144 -0.586666,-0.484 -1.349333,-0.484 -1.026667,0 -1.613333,0.77734 -0.572,0.77733 -0.572,2.12666 0,1.39334 0.601333,2.2 0.601333,0.792 1.642667,0.792 0.792,0 1.32,-0.45466 0.528,-0.46934 0.616,-1.232 z"
       style="font-size:14.6667px;font-family:'American Typewriter';letter-spacing:1px;text-anchor:middle;fill:#a91913"
       id="path200" />
  </g>
  <path
     id="circle30"
     style="fill:none;stroke:#0088ff;stroke-width:1"
     d="M 11.5,6 A 5.5,5.5 0 0 1 6,11.5 5.5,5.5 0 0 1 0.5,6 5.5,5.5 0 0 1 6,0.5 5.5,5.5 0 0 1 11.5,6 Z"
     class="scaffold" />
  <path
     id="circle32"
     style="fill:none;stroke:#0088ff;stroke-width:1"
     d="M 59.5,374 A 5.5,5.5 0 0 1 54,379.5 5.5,5.5 0 0 1 48.5,374 5.5,5.5 0 0 1 54,368.5 5.5,5.5 0 0 1 59.5,374 Z"
     class="scaffold" />
  <g
     aria-label="RATIO"
     id="text34"
     style="font-weight:bold;font-size:10.6667px;font-family:Helvetica;letter-spacing:1px;text-anchor:middle;fill:#3a3a3a"
     class="big-label">
    <path
       d="M 15.875,46.989583 H 14.21875 V 50 h -1.567709 v -7.677084 h 3.765625 q 0.807292,0.01563 1.239584,0.197917 0.4375,0.182292 0.739583,0.536458 0.25,0.291667 0.395833,0.645834 0.145834,0.354166 0.145834,0.807292 0,0.546875 -0.276042,1.078125 -0.276042,0.526041 -0.911458,0.744791 0.53125,0.213542 0.75,0.609375 0.223958,0.390625 0.223958,1.197917 v 0.515625 q 0,0.526042 0.04167,0.713542 0.0625,0.296875 0.291666,0.4375 V 50 H 17.291666 Q 17.21875,49.744792 17.1875,49.588542 17.125,49.265625 17.119791,48.927083 l -0.01042,-0.713541 Q 17.098958,47.479167 16.838541,47.234375 16.583333,46.989583 15.875,46.989583 Z m 0.973958,-1.395833 q 0.479167,-0.21875 0.479167,-0.864583 0,-0.697917 -0.463542,-0.937501 -0.260417,-0.135416 -0.78125,-0.135416 H 14.21875 v 2.0625 h 1.817708 q 0.541667,0 0.8125,-0.125 z"
       style="font-weight:bold;font-size:10.6667px;font-family:Helvetica;letter-spacing:1px;text-anchor:middle;fill:#3a3a3a"
       id="path177" />
    <path
       d="M 25.817709,48.421875 H 22.989584 L 22.458334,50 H 20.78125 l 2.739584,-7.677084 h 1.8125 L 28.052084,50 H 26.3125 Z m -0.447917,-1.322917 -0.958333,-3.020833 -0.989584,3.020833 z"
       style="font-weight:bold;font-size:10.6667px;font-family:Helvetica;letter-spacing:1px;text-anchor:middle;fill:#3a3a3a"
       id="path179" />
    <path
       d="m 34.820313,42.322916 v 1.359375 H 32.523438 V 50 h -1.614583 v -6.317709 h -2.307292 v -1.359375 z"
       style="font-weight:bold;font-size:10.6667px;font-family:Helvetica;letter-spacing:1px;text-anchor:middle;fill:#3a3a3a"
       id="path181" />
    <path
       d="m 36.635417,42.322916 h 1.59375 V 50 h -1.59375 z"
       style="font-weight:bold;font-size:10.6667px;font-family:Helvetica;letter-spacing:1px;text-anchor:middle;fill:#3a3a3a"
       id="path183" />
    <path
       d="m 44.114584,50.213542 q -1.645833,0 -2.515625,-0.895834 -1.166667,-1.098958 -1.166667,-3.166666 0,-2.109376 1.166667,-3.166667 0.869792,-0.895834 2.515625,-0.895834 1.645834,0 2.515625,0.895834 1.161459,1.057291 1.161459,3.166667 0,2.067708 -1.161459,3.166666 -0.869791,0.895834 -2.515625,0.895834 z m 1.515625,-2.0625 q 0.557292,-0.703125 0.557292,-2 0,-1.291667 -0.5625,-1.994792 -0.557292,-0.708334 -1.510417,-0.708334 -0.953125,0 -1.520833,0.703125 -0.567708,0.703126 -0.567708,2.000001 0,1.296875 0.567708,2 0.567708,0.703125 1.520833,0.703125 0.953125,0 1.515625,-0.703125 z"
       style="font-weight:bold;font-size:10.6667px;font-family:Helvetica;letter-spacing:1px;text-anchor:middle;fill:#3a3a3a"
       id="path185" />
  </g>
  <g
     id="use36"
     transform="translate(12,58)">
    <g
       transform="translate(18,18)"
       id="g99">
      <path
         id="polyline93"
         style="fill:none;stroke:#0088ff;stroke-width:1"
         d="M -5,0 H 5"
         class="scaffold" />
      <path
         id="polyline95"
         style="fill:none;stroke:#0088ff;stroke-width:1"
         d="M 0,-5 V 5"
         class="scaffold" />
      <path
         id="circle97"
         style="fill:none;stroke:#0088ff;stroke-width:1"
         d="M 17.5,0 A 17.5,17.5 0 0 1 0,17.5 17.5,17.5 0 0 1 -17.5,0 17.5,17.5 0 0 1 0,-17.5 17.5,17.5 0 0 1 17.5,0 Z"
         class="scaffold" />
    </g>
  </g>
  <g
     id="use38"
     transform="translate(6,101)">
    <g
       transform="translate(9,9)"
       id="g109">
      <path
         id="polyline103"
         style="fill:none;stroke:#0088ff;stroke-width:1"
         d="M -5,0 H 5"
         class="scaffold" />
      <path
         id="polyline105"
         style="fill:none;stroke:#0088ff;stroke-width:1"
         d="M 0,-5 V 5"
         class="scaffold" />
      <path
         id="circle107"
         style="fill:none;stroke:#0088ff;stroke-width:1"
         d="M 8.5,0 A 8.5,8.5 0 0 1 0,8.5 8.5,8.5 0 0 1 -8.5,0 8.5,8.5 0 0 1 0,-8.5 8.5,8.5 0 0 1 8.5,0 Z"
         class="scaffold" />
    </g>
  </g>
  <path
     id="circle40"
     style="fill:none;stroke:#0088ff;stroke-width:3"
     d="M 53.5,110 A 10.5,10.5 0 0 1 43,120.5 10.5,10.5 0 0 1 32.5,110 10.5,10.5 0 0 1 43,99.5 10.5,10.5 0 0 1 53.5,110 Z"
     class="scaffold" />
  <path
     id="polyline42"
     transform="translate(30,76)"
     style="stroke:#7c6f64;stroke-width:1"
     d="M -16,34 H 13"
     class="connect" />
  <g
     aria-label="OFFSET"
     id="text46"
     style="font-weight:bold;font-size:10.6667px;font-family:Helvetica;letter-spacing:1px;text-anchor:middle;fill:#3a3a3a"
     class="big-label">
    <path
       d="m 10.656249,148.21354 q -1.6458329,0 -2.5156246,-0.89583 -1.1666667,-1.09896 -1.1666667,-3.16667 0,-2.10937 1.1666667,-3.16667 0.8697917,-0.89583 2.5156246,-0.89583 1.645834,0 2.515626,0.89583 1.161458,1.0573 1.161458,3.16667 0,2.06771 -1.161458,3.16667 -0.869792,0.89583 -2.515626,0.89583 z m 1.515626,-2.0625 q 0.557291,-0.70312 0.557291,-2 0,-1.29167 -0.5625,-1.99479 -0.557291,-0.70833 -1.510417,-0.70833 -0.9531245,0 -1.5208329,0.70312 -0.5677083,0.70313 -0.5677083,2 0,1.29688 0.5677083,2 0.5677084,0.70313 1.5208329,0.70313 0.953126,0 1.515626,-0.70313 z"
       style="font-weight:bold;font-size:10.6667px;font-family:Helvetica;letter-spacing:1px;text-anchor:middle;fill:#3a3a3a"
       id="path156" />
    <path
       d="m 21.994792,141.68229 h -3.848959 v 1.76563 h 3.369792 v 1.33333 H 18.145833 V 148 h -1.59375 v -7.66667 h 5.442709 z"
       style="font-weight:bold;font-size:10.6667px;font-family:Helvetica;letter-spacing:1px;text-anchor:middle;fill:#3a3a3a"
       id="path158" />
    <path
       d="m 29.515625,141.68229 h -3.848959 v 1.76563 h 3.369792 v 1.33333 H 25.666666 V 148 h -1.59375 v -7.66667 h 5.442709 z"
       style="font-weight:bold;font-size:10.6667px;font-family:Helvetica;letter-spacing:1px;text-anchor:middle;fill:#3a3a3a"
       id="path160" />
    <path
       d="m 34.380208,146.89062 q 0.567709,0 0.921875,-0.125 0.671875,-0.23958 0.671875,-0.89062 0,-0.38021 -0.333333,-0.58854 -0.333333,-0.20313 -1.046875,-0.35938 l -0.8125,-0.18229 q -1.197917,-0.27083 -1.65625,-0.58854 -0.776042,-0.53125 -0.776042,-1.66146 0,-1.03125 0.75,-1.71354 0.75,-0.68229 2.203125,-0.68229 1.213542,0 2.067709,0.64583 0.859375,0.64063 0.901042,1.86458 H 35.729167 Q 35.6875,141.91667 35.125,141.625 q -0.375,-0.19271 -0.932292,-0.19271 -0.619791,0 -0.989583,0.25 -0.369792,0.25 -0.369792,0.69792 0,0.41146 0.364584,0.61458 0.234375,0.13542 1,0.31771 l 1.322916,0.31771 q 0.869792,0.20833 1.312501,0.55729 0.6875,0.54167 0.6875,1.56771 0,1.05208 -0.807292,1.75 -0.802084,0.69271 -2.270834,0.69271 -1.5,0 -2.359375,-0.6823 -0.859375,-0.6875 -0.859375,-1.88541 h 1.53125 q 0.07292,0.52604 0.286459,0.78646 0.390625,0.47395 1.338541,0.47395 z"
       style="font-weight:bold;font-size:10.6667px;font-family:Helvetica;letter-spacing:1px;text-anchor:middle;fill:#3a3a3a"
       id="path162" />
    <path
       d="m 45.062502,144.64583 h -3.729167 v 1.97396 h 4.25 V 148 h -5.817708 v -7.67708 h 5.630208 v 1.35937 h -4.0625 v 1.63021 h 3.729167 z"
       style="font-weight:bold;font-size:10.6667px;font-family:Helvetica;letter-spacing:1px;text-anchor:middle;fill:#3a3a3a"
       id="path164" />
    <path
       d="m 53.421877,140.32292 v 1.35937 H 51.125002 V 148 h -1.614583 v -6.31771 h -2.307292 v -1.35937 z"
       style="font-weight:bold;font-size:10.6667px;font-family:Helvetica;letter-spacing:1px;text-anchor:middle;fill:#3a3a3a"
       id="path166" />
  </g>
  <g
     id="use48"
     transform="translate(12,156)">
    <g
       transform="translate(18,18)"
       id="g119">
      <path
         id="polyline113"
         style="fill:none;stroke:#0088ff;stroke-width:1"
         d="M -5,0 H 5"
         class="scaffold" />
      <path
         id="polyline115"
         style="fill:none;stroke:#0088ff;stroke-width:1"
         d="M 0,-5 V 5"
         class="scaffold" />
      <path
         id="circle117"
         style="fill:none;stroke:#0088ff;stroke-width:1"
         d="M 17.5,0 A 17.5,17.5 0 0 1 0,17.5 17.5,17.5 0 0 1 -17.5,0 17.5,17.5 0 0 1 0,-17.5 17.5,17.5 0 0 1 17.5,0 Z"
         class="scaffold" />
    </g>
  </g>
  <g
     id="use50"
     transform="translate(6,199)">
    <g
       transform="translate(9,9)"
       id="g129">
      <path
         id="polyline123"
         style="fill:none;stroke:#0088ff;stroke-width:1"
         d="M -5,0 H 5"
         class="scaffold" />
      <path
         id="polyline125"
         style="fill:none;stroke:#0088ff;stroke-width:1"
         d="M 0,-5 V 5"
         class="scaffold" />
      <path
         id="circle127"
         style="fill:none;stroke:#0088ff;stroke-width:1"
         d="M 8.5,0 A 8.5,8.5 0 0 1 0,8.5 8.5,8.5 0 0 1 -8.5,0 8.5,8.5 0 0 1 0,-8.5 8.5,8.5 0 0 1 8.5,0 Z"
         class="scaffold" />
    </g>
  </g>
  <path
     id="circle52"
     style="fill:none;stroke:#0088ff;stroke-width:3"
     d="M 53.5,208 A 10.5,10.5 0 0 1 43,218.5 10.5,10.5 0 0 1 32.5,208 10.5,10.5 0 0 1 43,197.5 10.5,10.5 0 0 1 53.5,208 Z"
     class="scaffold" />
  <path
     id="polyline54"
     transform="translate(30,174)"
     style="stroke:#7c6f64;stroke-width:1"
     d="M -16,34 H 13"
     class="connect" />
  <path
     id="circle58"
     style="fill:none;stroke:#0088ff;stroke-width:3"
     d="M 40.5,266 A 10.5,10.5 0 0 1 30,276.5 10.5,10.5 0 0 1 19.5,266 10.5,10.5 0 0 1 30,255.5 10.5,10.5 0 0 1 40.5,266 Z"
     class="scaffold" />
  <g
     aria-label="IN"
     id="text60"
     style="font-weight:bold;font-size:8px;font-family:Helvetica;letter-spacing:1px;text-anchor:middle;fill:#3a3a3a"
     class="label">
    <path
       d="m 26.015625,282.24219 h 1.195312 V 288 h -1.195312 z"
       style="font-weight:bold;font-size:8px;font-family:Helvetica;letter-spacing:1px;text-anchor:middle;fill:#3a3a3a"
       id="path142" />
    <path
       d="M 33.984375,288 H 32.78125 l -2.351563,-4.08984 V 288 h -1.121093 v -5.75781 h 1.261718 l 2.292969,4.01953 v -4.01953 h 1.121094 z"
       style="font-weight:bold;font-size:8px;font-family:Helvetica;letter-spacing:1px;text-anchor:middle;fill:#3a3a3a"
       id="path144" />
  </g>
  <path
     id="rect64"
     style="fill:#d1bf99"
     d="m 17,294 h 26 c 1.662,0 3,1.338 3,3 v 40 c 0,1.662 -1.338,3 -3,3 H 17 c -1.662,0 -3,-1.338 -3,-3 v -40 c 0,-1.662 1.338,-3 3,-3 z"
     class="output" />
  <path
     id="circle66"
     style="fill:none;stroke:#0088ff;stroke-width:3"
     d="M 40.5,310 A 10.5,10.5 0 0 1 30,320.5 10.5,10.5 0 0 1 19.5,310 10.5,10.5 0 0 1 30,299.5 10.5,10.5 0 0 1 40.5,310 Z"
     class="scaffold" />
  <g
     aria-label="OUT"
     id="text68"
     style="font-weight:bold;font-size:8px;font-family:Helvetica;letter-spacing:1px;text-anchor:middle;fill:#3a3a3a"
     class="label">
    <path
       d="m 23.710937,332.16016 q -1.234375,0 -1.886718,-0.67188 -0.875,-0.82422 -0.875,-2.375 0,-1.58203 0.875,-2.375 0.652343,-0.67187 1.886718,-0.67187 1.234375,0 1.886719,0.67187 0.871094,0.79297 0.871094,2.375 0,1.55078 -0.871094,2.375 -0.652344,0.67188 -1.886719,0.67188 z m 1.136719,-1.54688 q 0.417969,-0.52734 0.417969,-1.5 0,-0.96875 -0.421875,-1.49609 -0.417969,-0.53125 -1.132813,-0.53125 -0.714843,0 -1.140625,0.52734 -0.425781,0.52734 -0.425781,1.5 0,0.97266 0.425781,1.5 0.425782,0.52734 1.140625,0.52734 0.714844,0 1.136719,-0.52734 z"
       style="font-weight:bold;font-size:8px;font-family:Helvetica;letter-spacing:1px;text-anchor:middle;fill:#3a3a3a"
       id="path133" />
    <path
       d="m 31.789062,329.78125 v -3.53906 h 1.222657 v 3.53906 q 0,0.91797 -0.285157,1.42969 -0.53125,0.9375 -2.027343,0.9375 -1.496094,0 -2.03125,-0.9375 -0.285157,-0.51172 -0.285157,-1.42969 v -3.53906 h 1.222657 v 3.53906 q 0,0.59375 0.140625,0.86719 0.21875,0.48437 0.953125,0.48437 0.730468,0 0.949218,-0.48437 0.140625,-0.27344 0.140625,-0.86719 z"
       style="font-weight:bold;font-size:8px;font-family:Helvetica;letter-spacing:1px;text-anchor:middle;fill:#3a3a3a"
       id="path135" />
    <path
       d="m 39.347656,326.24219 v 1.01953 H 37.625 V 332 h -1.210938 v -4.73828 h -1.730468 v -1.01953 z"
       style="font-weight:bold;font-size:8px;font-family:Helvetica;letter-spacing:1px;text-anchor:middle;fill:#3a3a3a"
       id="path137" />
  </g>
</svg>
