<?xml version="1.0" encoding="UTF-8" standalone="no"?>
<svg
   xmlns:dc="http://purl.org/dc/elements/1.1/"
   xmlns:cc="http://creativecommons.org/ns#"
   xmlns:rdf="http://www.w3.org/1999/02/22-rdf-syntax-ns#"
   xmlns:svg="http://www.w3.org/2000/svg"
   xmlns="http://www.w3.org/2000/svg"
   xmlns:xlink="http://www.w3.org/1999/xlink"
   xmlns:sodipodi="http://sodipodi.sourceforge.net/DTD/sodipodi-0.dtd"
   xmlns:inkscape="http://www.inkscape.org/namespaces/inkscape"
   version="1.1"
   width="75"
   height="380"
   viewBox="0 0 75 380"
   id="svg143"
   sodipodi:docname="FM.svg"
   inkscape:version="1.0.2 (e86c8708, 2021-01-15)">
  <metadata
     id="metadata147">
    <rdf:RDF>
      <cc:Work
         rdf:about="">
        <dc:format>image/svg+xml</dc:format>
        <dc:type
           rdf:resource="http://purl.org/dc/dcmitype/StillImage" />
      </cc:Work>
    </rdf:RDF>
  </metadata>
  <sodipodi:namedview
     pagecolor="#ffffff"
     bordercolor="#666666"
     borderopacity="1"
     objecttolerance="10"
     gridtolerance="10"
     guidetolerance="10"
     inkscape:pageopacity="0"
     inkscape:pageshadow="2"
     inkscape:window-width="689"
     inkscape:window-height="480"
     id="namedview145"
     showgrid="false"
     inkscape:zoom="2.1763158"
     inkscape:cx="37.5"
     inkscape:cy="190"
     inkscape:window-x="0"
     inkscape:window-y="25"
     inkscape:window-maximized="0"
     inkscape:current-layer="svg143" />
  <style
     id="style2">
    text.title {
      fill: #a91913;
      font-family: 'DIN Alternate';
      font-size: 12pt;
    }
    text.logo {
      fill: #a91913;
      font-family: 'DIN Alternate';
      font-size: 10pt;
    }
    text.big-label {
      fill: #343434;
      font-family: 'DIN Alternate';
      font-size: 7.5pt;
    }
    text.label {
      fill: #343434;
      font-family: 'DIN Alternate';
      font-size: 6pt;
    }
    .background {
      fill: #e0e0e0;
    }
    .output {
      fill: #bbbbbb;
    }
    polyline.icon {
      stroke: #343434;
      stroke-width: 1.2;
      fill: none;
    }
    polyline.connect {
      stroke: #343434;
      stroke-width: 1;
      fill: none;
    }

    .blueprint {
      stroke: #08f;
      fill: none;
    }
  </style>
  <!-- ======== defs ======== -->
  <defs
     id="defs53">
    <linearGradient
       id="smallKnobMediumGradient">
      <stop
         offset="5%"
         stop-color="#888"
         id="stop4" />
      <stop
         offset="95%"
         stop-color="#333"
         id="stop6" />
    </linearGradient>
    <linearGradient
       id="smallKnobDarkGradient">
      <stop
         offset="5%"
         stop-color="#444"
         id="stop9" />
      <stop
         offset="95%"
         stop-color="#222"
         id="stop11" />
    </linearGradient>
    <linearGradient
       id="bigKnobDarkGradient">
      <stop
         offset="5%"
         stop-color="#5c5c5c"
         id="stop14" />
      <stop
         offset="95%"
         stop-color="#282828"
         id="stop16" />
    </linearGradient>
    <linearGradient
       id="bigKnobMediumGradient">
      <stop
         offset="5%"
         stop-color="#888"
         id="stop19" />
      <stop
         offset="95%"
         stop-color="#333"
         id="stop21" />
    </linearGradient>
    <symbol
       id="knob18">
      <g
         transform="translate(9 9)"
         id="g30">
        <circle
           r="8.5"
           stroke="#222"
           fill="none"
           id="circle24" />
        <circle
           r="8"
           fill="url('#smallKnobMediumGradient')"
           transform="rotate(90)"
           id="circle26" />
        <circle
           r="7"
           fill="url('#smallKnobDarkGradient')"
           transform="rotate(90)"
           id="circle28" />
      </g>
    </symbol>
    <symbol
       id="knob40">
      <g
         transform="translate(20 20)"
         id="g37">
        <circle
           r="19.5"
           fill="url('#bigKnobDarkGradient')"
           transform="rotate(90)"
           id="circle33" />
        <circle
           r="17.5"
           fill="url('#bigKnobMediumGradient')"
           transform="rotate(90)"
           id="circle35" />
      </g>
    </symbol>
    <symbol
       id="knob50">
      <g
         transform="translate(25 25)"
         id="g44">
        <circle
           r="24.5"
           fill="url('#bigKnobDarkGradient')"
           transform="rotate(90)"
           id="circle40" />
        <circle
           r="22.5"
           fill="url('#bigKnobMediumGradient')"
           transform="rotate(90)"
           id="circle42" />
      </g>
    </symbol>
    <symbol
       id="port">
      <g
         transform="translate(12 12)"
         id="g47" />
    </symbol>
    <symbol
       id="hswitch14">
      <g
         transform="translate(12 7)"
         id="g50" />
    </symbol>
    <linearGradient
       inkscape:collect="always"
       xlink:href="#bigKnobDarkGradient"
       id="linearGradient187"
       x1="-19.5"
       y1="-19.5"
       x2="19.5"
       y2="-19.5"
       gradientUnits="userSpaceOnUse" />
    <linearGradient
       inkscape:collect="always"
       xlink:href="#bigKnobMediumGradient"
       id="linearGradient189"
       x1="-17.5"
       y1="-17.5"
       x2="17.5"
       y2="-17.5"
       gradientUnits="userSpaceOnUse" />
    <linearGradient
       inkscape:collect="always"
       xlink:href="#bigKnobDarkGradient"
       id="linearGradient211"
       x1="-19.5"
       y1="-19.5"
       x2="19.5"
       y2="-19.5"
       gradientUnits="userSpaceOnUse" />
    <linearGradient
       inkscape:collect="always"
       xlink:href="#bigKnobMediumGradient"
       id="linearGradient213"
       x1="-17.5"
       y1="-17.5"
       x2="17.5"
       y2="-17.5"
       gradientUnits="userSpaceOnUse" />
    <linearGradient
       inkscape:collect="always"
       xlink:href="#smallKnobMediumGradient"
       id="linearGradient225"
       x1="-8"
       y1="-8"
       x2="8"
       y2="-8"
       gradientUnits="userSpaceOnUse" />
    <linearGradient
       inkscape:collect="always"
       xlink:href="#smallKnobDarkGradient"
       id="linearGradient227"
       x1="-7"
       y1="-7"
       x2="7"
       y2="-7"
       gradientUnits="userSpaceOnUse" />
    <linearGradient
       inkscape:collect="always"
       xlink:href="#smallKnobMediumGradient"
       id="linearGradient239"
       x1="-8"
       y1="-8"
       x2="8"
       y2="-8"
       gradientUnits="userSpaceOnUse" />
    <linearGradient
       inkscape:collect="always"
       xlink:href="#smallKnobDarkGradient"
       id="linearGradient241"
       x1="-7"
       y1="-7"
       x2="7"
       y2="-7"
       gradientUnits="userSpaceOnUse" />
  </defs>
  <!-- ======== id ======== -->
  <path
     id="rect55"
     style="fill:#e0e0e0"
     d="M 0,0 H 75 V 380 H 0 Z"
     class="background" />
  <g
     aria-label="FM"
     id="text57"
     style="font-size:16px;font-family:'DIN Alternate';text-anchor:middle;fill:#a91913"
     class="title">
    <path
       d="m 28.34375,30 h 1.726562 v -4.867188 h 4.734375 v -1.53125 h -4.734375 v -3.359375 h 5.546875 V 18.609375 H 28.34375 Z"
       style="font-size:16px;font-family:'DIN Alternate';text-anchor:middle;fill:#a91913"
       id="path298" />
    <path
       d="m 36.9375,30 h 1.726562 v -7.101563 h 0.03125 l 2.382813,5.46875 h 1.4375 l 2.382812,-5.46875 H 44.9375 V 30 h 1.726562 V 18.609375 H 45.03125 l -3.203125,7.421875 v 0 L 38.5625,18.609375 h -1.625 z"
       style="font-size:16px;font-family:'DIN Alternate';text-anchor:middle;fill:#a91913"
       id="path300" />
  </g>
  <g
     aria-label="RM"
     id="text59"
     style="font-size:13.3333px;font-family:'DIN Alternate';text-anchor:middle;fill:#a91913"
     class="logo">
    <path
       d="m 30.826823,353.79036 h 2.252604 q 0.690104,0 1.054688,0.29297 0.462239,0.33203 0.47526,1.07422 0,0.61849 -0.397135,1.04167 -0.403646,0.45573 -1.210938,0.46875 H 30.826823 Z M 29.388021,362 h 1.438802 v -4.05599 h 1.835938 L 34.622396,362 h 1.712239 l -2.20052,-4.21224 q 1.809895,-0.69661 1.835937,-2.63021 -0.03906,-1.3151 -0.94401,-2.02474 -0.748698,-0.625 -1.933594,-0.625 h -3.704427 z"
       style="font-size:13.3333px;font-family:'DIN Alternate';text-anchor:middle;fill:#a91913"
       id="path293" />
    <path
       d="m 37.513021,362 h 1.438802 v -5.91797 h 0.02604 l 1.985677,4.55729 h 1.197916 l 1.985677,-4.55729 h 0.03255 V 362 h 1.438802 v -9.49219 h -1.360677 l -2.669271,6.1849 v 0 l -2.721354,-6.1849 h -1.354167 z"
       style="font-size:13.3333px;font-family:'DIN Alternate';text-anchor:middle;fill:#a91913"
       id="path295" />
  </g>
  <!-- ======== knobs and switches ======== -->
  <g
     aria-label="RATIO"
     id="text61"
     style="font-size:10px;font-family:'DIN Alternate';text-anchor:middle;fill:#343434"
     class="big-label">
    <path
       d="m 26.772461,49.842773 h 1.689453 q 0.517578,0 0.791016,0.219727 0.346679,0.249023 0.356445,0.805664 0,0.463867 -0.297852,0.78125 -0.302734,0.341797 -0.908203,0.351563 H 26.772461 Z M 25.693359,56 h 1.079102 v -3.041992 h 1.376953 L 29.619141,56 h 1.284179 l -1.65039,-3.15918 q 1.357422,-0.522461 1.376953,-1.972656 -0.0293,-0.986328 -0.708008,-1.518555 -0.561523,-0.46875 -1.450195,-0.46875 h -2.778321 z"
       style="font-size:10px;font-family:'DIN Alternate';text-anchor:middle;fill:#343434"
       id="path324" />
    <path
       d="m 33.046875,53.451172 1.030273,-3.110352 h 0.01953 l 1.030273,3.110352 z M 35.986328,56 h 1.137695 l -2.58789,-7.119141 H 33.632812 L 31.044922,56 H 32.1875 l 0.546875,-1.591797 h 2.700195 z"
       style="font-size:10px;font-family:'DIN Alternate';text-anchor:middle;fill:#343434"
       id="path326" />
    <path
       d="m 38.344727,56 h 1.083984 v -6.157227 h 1.948242 v -0.961914 h -4.980469 v 0.961914 h 1.948243 z"
       style="font-size:10px;font-family:'DIN Alternate';text-anchor:middle;fill:#343434"
       id="path328" />
    <path
       d="m 42.138672,56 h 1.079101 v -7.119141 h -1.079101 z"
       style="font-size:10px;font-family:'DIN Alternate';text-anchor:middle;fill:#343434"
       id="path330" />
    <path
       d="m 44.472656,52.44043 q 0,1.220703 0.07324,1.65039 0.03906,0.229492 0.09766,0.38086 0.06348,0.146484 0.141601,0.307617 0.258789,0.493164 0.830078,0.86914 0.561524,0.390625 1.401368,0.410157 0.849609,-0.01953 1.416015,-0.410157 0.561524,-0.375976 0.810547,-0.86914 0.180664,-0.258789 0.249023,-0.688477 0.06348,-0.429687 0.06348,-1.65039 0,-1.240235 -0.06348,-1.660157 -0.06836,-0.419921 -0.249023,-0.678711 -0.249023,-0.493164 -0.810547,-0.878906 -0.566406,-0.390625 -1.416015,-0.40039 -0.839844,0.0098 -1.401368,0.40039 -0.571289,0.385742 -0.830078,0.878906 -0.161133,0.25879 -0.239258,0.678711 -0.07324,0.419922 -0.07324,1.660157 z m 1.083985,0 q 0,-1.049805 0.07813,-1.430664 0.06836,-0.361329 0.27832,-0.590821 0.170898,-0.219726 0.449219,-0.366211 0.273437,-0.141601 0.654297,-0.151367 0.385742,0.0098 0.668945,0.151367 0.268555,0.146485 0.429687,0.366211 0.209961,0.229492 0.288086,0.590821 0.07324,0.380859 0.07324,1.430664 0,1.049804 -0.07324,1.420898 -0.07813,0.371094 -0.288086,0.600586 -0.161132,0.219727 -0.429687,0.356445 -0.283203,0.161133 -0.668945,0.161133 -0.38086,0 -0.654297,-0.161133 -0.278321,-0.136718 -0.449219,-0.356445 -0.209961,-0.229492 -0.27832,-0.600586 -0.07813,-0.371094 -0.07813,-1.420898 z"
       style="font-size:10px;font-family:'DIN Alternate';text-anchor:middle;fill:#343434"
       id="path332" />
  </g>
  <g
     id="use63"
     transform="translate(17.5,62)">
    <g
       transform="translate(20,20)"
       id="g183">
      <path
         id="circle179"
         style="fill:url(#linearGradient187)"
         transform="rotate(90)"
         d="M 19.5,0 A 19.5,19.5 0 0 1 0,19.5 19.5,19.5 0 0 1 -19.5,0 19.5,19.5 0 0 1 0,-19.5 19.5,19.5 0 0 1 19.5,0 Z" />
      <path
         id="circle181"
         style="fill:url(#linearGradient189)"
         transform="rotate(90)"
         d="M 17.5,0 A 17.5,17.5 0 0 1 0,17.5 17.5,17.5 0 0 1 -17.5,0 17.5,17.5 0 0 1 0,-17.5 17.5,17.5 0 0 1 17.5,0 Z" />
    </g>
  </g>
  <g
     id="use67"
     transform="translate(25.5,111)">
    <g
       transform="translate(12,7)"
       id="g199" />
  </g>
  <g
     transform="translate(56.5,118)"
     id="g71">
    <path
       id="polyline69"
       style="fill:none;stroke:#343434;stroke-width:1.2"
       d="M -4,4 4,-4"
       class="icon" />
  </g>
  <g
     transform="translate(18.5,118)"
     id="g75">
    <path
       id="polyline73"
       style="fill:none;stroke:#343434;stroke-width:1.2"
       d="M -4,4 V 0 h 4 v -4 h 4"
       class="icon" />
  </g>
  <g
     aria-label="OFFSET"
     id="text79"
     style="font-size:10px;font-family:'DIN Alternate';text-anchor:middle;fill:#343434"
     class="big-label">
    <path
       d="m 21.435547,150.44043 q 0,1.2207 0.07324,1.65039 0.03906,0.22949 0.09766,0.38086 0.06348,0.14648 0.141602,0.30762 0.258789,0.49316 0.830078,0.86914 0.561523,0.39062 1.401367,0.41015 0.84961,-0.0195 1.416016,-0.41015 0.561523,-0.37598 0.810547,-0.86914 0.180664,-0.25879 0.249023,-0.68848 0.06348,-0.42969 0.06348,-1.65039 0,-1.24023 -0.06348,-1.66016 -0.06836,-0.41992 -0.249023,-0.67871 -0.249024,-0.49316 -0.810547,-0.8789 -0.566406,-0.39063 -1.416016,-0.40039 -0.839844,0.01 -1.401367,0.40039 -0.571289,0.38574 -0.830078,0.8789 -0.161133,0.25879 -0.239258,0.67871 -0.07324,0.41993 -0.07324,1.66016 z m 1.083984,0 q 0,-1.04981 0.07813,-1.43066 0.06836,-0.36133 0.278321,-0.59082 0.170898,-0.21973 0.449218,-0.36622 0.273438,-0.1416 0.654297,-0.15136 0.385742,0.01 0.668945,0.15136 0.268555,0.14649 0.429688,0.36622 0.209961,0.22949 0.288086,0.59082 0.07324,0.38085 0.07324,1.43066 0,1.0498 -0.07324,1.4209 -0.07813,0.37109 -0.288086,0.60058 -0.161133,0.21973 -0.429688,0.35645 -0.283203,0.16113 -0.668945,0.16113 -0.380859,0 -0.654297,-0.16113 -0.27832,-0.13672 -0.449218,-0.35645 -0.209961,-0.22949 -0.278321,-0.60058 -0.07813,-0.3711 -0.07813,-1.4209 z"
       style="font-size:10px;font-family:'DIN Alternate';text-anchor:middle;fill:#343434"
       id="path278" />
    <path
       d="m 27.773437,154 h 1.079102 v -3.04199 h 2.958984 v -0.95703 h -2.958984 v -2.09961 h 3.466797 v -1.02051 h -4.545899 z"
       style="font-size:10px;font-family:'DIN Alternate';text-anchor:middle;fill:#343434"
       id="path280" />
    <path
       d="m 33.144531,154 h 1.079102 v -3.04199 h 2.958984 v -0.95703 h -2.958984 v -2.09961 h 3.466797 v -1.02051 h -4.545899 z"
       style="font-size:10px;font-family:'DIN Alternate';text-anchor:middle;fill:#343434"
       id="path282" />
    <path
       d="m 38.603516,152.27148 -0.708008,0.81055 q 1.137695,0.97656 2.719726,0.97656 2.446289,-0.0293 2.5,-2.07031 0,-0.75683 -0.473632,-1.32812 -0.478516,-0.58106 -1.479493,-0.71778 -0.507812,-0.0635 -0.800781,-0.1123 -0.527344,-0.0977 -0.766601,-0.35156 -0.239258,-0.24903 -0.239258,-0.55665 0.0098,-0.51269 0.356445,-0.77148 0.332031,-0.24902 0.830078,-0.24902 0.961914,0.0195 1.762695,0.54687 v 0 l 0.600586,-0.88867 q -0.981445,-0.70801 -2.30957,-0.7373 -1.103516,0.01 -1.704101,0.57617 -0.620118,0.57129 -0.620118,1.5039 0,0.77637 0.493164,1.31836 0.478516,0.52735 1.396485,0.67871 0.512695,0.0733 0.942383,0.13184 0.9375,0.16113 0.927734,0.95703 -0.01953,0.97168 -1.40625,0.99121 -1.171875,-0.01 -2.021484,-0.70801 z"
       style="font-size:10px;font-family:'DIN Alternate';text-anchor:middle;fill:#343434"
       id="path284" />
    <path
       d="m 44.257812,154 h 4.545899 v -1.02051 h -3.466797 v -2.08984 h 2.958984 v -0.95703 h -2.958984 v -2.03125 h 3.466797 v -1.02051 h -4.545899 z"
       style="font-size:10px;font-family:'DIN Alternate';text-anchor:middle;fill:#343434"
       id="path286" />
    <path
       d="m 51.030273,154 h 1.083985 v -6.15723 H 54.0625 v -0.96191 h -4.980469 v 0.96191 h 1.948242 z"
       style="font-size:10px;font-family:'DIN Alternate';text-anchor:middle;fill:#343434"
       id="path288" />
  </g>
  <g
     id="use81"
     transform="translate(17.5,160)">
    <g
       transform="translate(20,20)"
       id="g207">
      <path
         id="circle203"
         style="fill:url(#linearGradient211)"
         transform="rotate(90)"
         d="M 19.5,0 A 19.5,19.5 0 0 1 0,19.5 19.5,19.5 0 0 1 -19.5,0 19.5,19.5 0 0 1 0,-19.5 19.5,19.5 0 0 1 19.5,0 Z" />
      <path
         id="circle205"
         style="fill:url(#linearGradient213)"
         transform="rotate(90)"
         d="M 17.5,0 A 17.5,17.5 0 0 1 0,17.5 17.5,17.5 0 0 1 -17.5,0 17.5,17.5 0 0 1 0,-17.5 17.5,17.5 0 0 1 17.5,0 Z" />
    </g>
  </g>
  <!-- ======== row 1 ======== -->
  <path
     id="polyline85"
     transform="translate(19.5,236)"
     style="fill:none;stroke:#343434;stroke-width:1"
     d="M 0,0 V 42"
     class="connect" />
  <g
     transform="translate(19.5,251)"
     id="g93">
    <path
       id="polyline87"
       style="fill:none;stroke:#343434;stroke-width:1.2"
       d="m -7,0 h 4"
       class="icon" />
    <path
       id="polyline89"
       style="fill:none;stroke:#343434;stroke-width:1.2"
       d="M 7,0 H 3"
       class="icon" />
    <path
       id="polyline91"
       style="fill:none;stroke:#343434;stroke-width:1.2"
       d="M 5,-2 V 2"
       class="icon" />
  </g>
  <g
     id="use97"
     transform="translate(10.5,227)">
    <g
       transform="translate(9,9)"
       id="g221">
      <path
         id="circle215"
         style="fill:none;stroke:#222222"
         d="M 8.5,0 A 8.5,8.5 0 0 1 0,8.5 8.5,8.5 0 0 1 -8.5,0 8.5,8.5 0 0 1 0,-8.5 8.5,8.5 0 0 1 8.5,0 Z" />
      <path
         id="circle217"
         style="fill:url(#linearGradient225)"
         transform="rotate(90)"
         d="M 8,0 A 8,8 0 0 1 0,8 8,8 0 0 1 -8,0 8,8 0 0 1 0,-8 8,8 0 0 1 8,0 Z" />
      <path
         id="circle219"
         style="fill:url(#linearGradient227)"
         transform="rotate(90)"
         d="M 7,0 A 7,7 0 0 1 0,7 7,7 0 0 1 -7,0 7,7 0 0 1 0,-7 7,7 0 0 1 7,0 Z" />
    </g>
  </g>
  <path
     id="polyline101"
     transform="translate(55.5,236)"
     style="fill:none;stroke:#343434;stroke-width:1"
     d="M 0,0 V 42"
     class="connect" />
  <g
     transform="translate(55.5,251)"
     id="g109">
    <path
       id="polyline103"
       style="fill:none;stroke:#343434;stroke-width:1.2"
       d="m -7,0 h 4"
       class="icon" />
    <path
       id="polyline105"
       style="fill:none;stroke:#343434;stroke-width:1.2"
       d="M 7,0 H 3"
       class="icon" />
    <path
       id="polyline107"
       style="fill:none;stroke:#343434;stroke-width:1.2"
       d="M 5,-2 V 2"
       class="icon" />
  </g>
  <g
     id="use113"
     transform="translate(46.5,227)">
    <g
       transform="translate(9,9)"
       id="g235">
      <path
         id="circle229"
         style="fill:none;stroke:#222222"
         d="M 8.5,0 A 8.5,8.5 0 0 1 0,8.5 8.5,8.5 0 0 1 -8.5,0 8.5,8.5 0 0 1 0,-8.5 8.5,8.5 0 0 1 8.5,0 Z" />
      <path
         id="circle231"
         style="fill:url(#linearGradient239)"
         transform="rotate(90)"
         d="M 8,0 A 8,8 0 0 1 0,8 8,8 0 0 1 -8,0 8,8 0 0 1 0,-8 8,8 0 0 1 8,0 Z" />
      <path
         id="circle233"
         style="fill:url(#linearGradient241)"
         transform="rotate(90)"
         d="M 7,0 A 7,7 0 0 1 0,7 7,7 0 0 1 -7,0 7,7 0 0 1 0,-7 7,7 0 0 1 7,0 Z" />
    </g>
  </g>
  <!-- ======== row 2 ======== -->
  <g
     id="use117"
     transform="translate(7.5,266)">
    <g
       transform="translate(12,12)"
       id="g191" />
  </g>
  <g
     aria-label="RAT"
     id="text119"
     style="font-size:8px;font-family:'DIN Alternate';text-anchor:middle;fill:#343434"
     class="label">
    <path
       d="m 14.386719,295.07422 h 1.351562 q 0.414063,0 0.632813,0.17578 0.277343,0.19922 0.285156,0.64453 0,0.37109 -0.238281,0.625 -0.242188,0.27344 -0.726563,0.28125 H 14.386719 Z M 13.523438,300 h 0.863281 v -2.43359 h 1.101562 L 16.664062,300 h 1.027344 l -1.320312,-2.52734 q 1.085937,-0.41797 1.101562,-1.57813 -0.02344,-0.78906 -0.566406,-1.21484 -0.449219,-0.375 -1.160156,-0.375 h -2.222656 z"
       style="font-size:8px;font-family:'DIN Alternate';text-anchor:middle;fill:#343434"
       id="path311" />
    <path
       d="m 19.40625,297.96094 0.824219,-2.48828 h 0.01563 l 0.824218,2.48828 z M 21.757812,300 h 0.910157 l -2.070313,-5.69531 H 19.875 L 17.804687,300 h 0.914063 l 0.4375,-1.27344 h 2.160156 z"
       style="font-size:8px;font-family:'DIN Alternate';text-anchor:middle;fill:#343434"
       id="path313" />
    <path
       d="m 23.644531,300 h 0.867188 v -4.92578 h 1.558593 v -0.76953 h -3.984375 v 0.76953 h 1.558594 z"
       style="font-size:8px;font-family:'DIN Alternate';text-anchor:middle;fill:#343434"
       id="path315" />
  </g>
  <g
     id="use123"
     transform="translate(43.5,266)">
    <g
       transform="translate(12,12)"
       id="g243" />
  </g>
  <g
     aria-label="OFS"
     id="text125"
     style="font-size:8px;font-family:'DIN Alternate';text-anchor:middle;fill:#343434"
     class="label">
    <path
       d="m 49.023437,297.15234 q 0,0.97657 0.05859,1.32032 0.03125,0.18359 0.07813,0.30468 0.05078,0.11719 0.113281,0.2461 0.207032,0.39453 0.664063,0.69531 0.449219,0.3125 1.121094,0.32812 0.679687,-0.0156 1.132812,-0.32812 0.449219,-0.30078 0.648438,-0.69531 0.144531,-0.20703 0.199218,-0.55078 0.05078,-0.34375 0.05078,-1.32032 0,-0.99218 -0.05078,-1.32812 -0.05469,-0.33594 -0.199218,-0.54297 -0.199219,-0.39453 -0.648438,-0.70313 -0.453125,-0.3125 -1.132812,-0.32031 -0.671875,0.008 -1.121094,0.32031 -0.457031,0.3086 -0.664063,0.70313 -0.128906,0.20703 -0.191406,0.54297 -0.05859,0.33594 -0.05859,1.32812 z m 0.867188,0 q 0,-0.83984 0.0625,-1.14453 0.05469,-0.28906 0.222656,-0.47265 0.136719,-0.17579 0.359375,-0.29297 0.21875,-0.11328 0.523438,-0.1211 0.308593,0.008 0.535156,0.1211 0.214844,0.11718 0.34375,0.29297 0.167969,0.18359 0.230469,0.47265 0.05859,0.30469 0.05859,1.14453 0,0.83985 -0.05859,1.13672 -0.0625,0.29688 -0.230469,0.48047 -0.128906,0.17578 -0.34375,0.28516 -0.226563,0.1289 -0.535156,0.1289 -0.304688,0 -0.523438,-0.1289 -0.222656,-0.10938 -0.359375,-0.28516 -0.167969,-0.18359 -0.222656,-0.48047 -0.0625,-0.29687 -0.0625,-1.13672 z"
       style="font-size:8px;font-family:'DIN Alternate';text-anchor:middle;fill:#343434"
       id="path259" />
    <path
       d="m 54.09375,300 h 0.863281 v -2.43359 h 2.367188 v -0.76563 h -2.367188 v -1.67969 h 2.773438 v -0.8164 H 54.09375 Z"
       style="font-size:8px;font-family:'DIN Alternate';text-anchor:middle;fill:#343434"
       id="path261" />
    <path
       d="m 58.460937,298.61719 -0.566406,0.64843 q 0.910156,0.78125 2.175781,0.78125 1.957032,-0.0234 2,-1.65625 0,-0.60546 -0.378906,-1.0625 -0.382812,-0.46484 -1.183594,-0.57421 -0.40625,-0.0508 -0.640625,-0.0899 -0.421875,-0.0781 -0.613281,-0.28125 -0.191406,-0.19922 -0.191406,-0.44531 0.0078,-0.41016 0.285156,-0.61719 0.265625,-0.19922 0.664063,-0.19922 0.769531,0.0156 1.410156,0.4375 v 0 l 0.480469,-0.71093 q -0.785157,-0.56641 -1.847657,-0.58985 -0.882812,0.008 -1.363281,0.46094 -0.496094,0.45703 -0.496094,1.20312 0,0.6211 0.394532,1.05469 0.382812,0.42188 1.117187,0.54297 0.410156,0.0586 0.753906,0.10547 0.75,0.12891 0.742188,0.76562 -0.01563,0.77735 -1.125,0.79297 -0.9375,-0.008 -1.617188,-0.5664 z"
       style="font-size:8px;font-family:'DIN Alternate';text-anchor:middle;fill:#343434"
       id="path263" />
  </g>
  <!-- ======== row 3 ======== -->
  <g
     id="use129"
     transform="translate(7.5,308)">
    <g
       transform="translate(12,12)"
       id="g195" />
  </g>
  <g
     aria-label="CAR"
     id="text131"
     style="font-size:8px;font-family:'DIN Alternate';text-anchor:middle;fill:#343434"
     class="label">
    <path
       d="m 15.925781,340.40625 q -0.359375,0.77734 -1.085937,0.77734 -0.304688,0 -0.523438,-0.1289 -0.222656,-0.10938 -0.359375,-0.28516 -0.167968,-0.18359 -0.222656,-0.48047 -0.0625,-0.29687 -0.0625,-1.13672 0,-0.83984 0.0625,-1.14453 0.05469,-0.28906 0.222656,-0.47265 0.136719,-0.17579 0.359375,-0.29297 0.21875,-0.11328 0.523438,-0.1211 0.414062,0.008 0.703125,0.23828 0.277344,0.24219 0.382812,0.58594 h 0.914063 q -0.136719,-0.71484 -0.65625,-1.19922 -0.519531,-0.48047 -1.34375,-0.48828 -0.671875,0.008 -1.121094,0.32031 -0.457031,0.3086 -0.664062,0.70313 -0.128907,0.20703 -0.191407,0.54297 -0.05859,0.33594 -0.05859,1.32812 0,0.97657 0.05859,1.32032 0.03125,0.18359 0.07813,0.30468 0.05078,0.11719 0.113282,0.2461 0.207031,0.39453 0.664062,0.69531 0.449219,0.3125 1.121094,0.32812 0.742187,0 1.285156,-0.42187 0.527344,-0.42578 0.714844,-1.21875 z"
       style="font-size:8px;font-family:'DIN Alternate';text-anchor:middle;fill:#343434"
       id="path304" />
    <path
       d="m 18.460937,339.96094 0.824219,-2.48828 h 0.01563 L 20.125,339.96094 Z M 20.8125,342 h 0.910156 l -2.070312,-5.69531 H 18.929687 L 16.859375,342 h 0.914062 l 0.4375,-1.27344 h 2.160157 z"
       style="font-size:8px;font-family:'DIN Alternate';text-anchor:middle;fill:#343434"
       id="path306" />
    <path
       d="m 23.191406,337.07422 h 1.351563 q 0.414062,0 0.632812,0.17578 0.277344,0.19922 0.285156,0.64453 0,0.37109 -0.238281,0.625 -0.242187,0.27344 -0.726562,0.28125 H 23.191406 Z M 22.328125,342 h 0.863281 v -2.43359 h 1.101563 L 25.46875,342 h 1.027344 l -1.320313,-2.52734 q 1.085938,-0.41797 1.101563,-1.57813 -0.02344,-0.78906 -0.566407,-1.21484 -0.449218,-0.375 -1.160156,-0.375 h -2.222656 z"
       style="font-size:8px;font-family:'DIN Alternate';text-anchor:middle;fill:#343434"
       id="path308" />
  </g>
  <path
     id="rect135"
     style="fill:#bbbbbb"
     d="m 42.5,304 h 26 c 1.662,0 3,1.338 3,3 v 36 c 0,1.662 -1.338,3 -3,3 h -26 c -1.662,0 -3,-1.338 -3,-3 v -36 c 0,-1.662 1.338,-3 3,-3 z"
     class="output" />
  <g
     id="use137"
     transform="translate(43.5,308)">
    <g
       transform="translate(12,12)"
       id="g247" />
  </g>
  <g
     aria-label="MOD"
     id="text139"
     style="font-size:8px;font-family:'DIN Alternate';text-anchor:middle;fill:#343434"
     class="label">
    <path
       d="m 48.109375,342 h 0.863281 v -3.55078 h 0.01563 l 1.191406,2.73437 h 0.71875 l 1.191407,-2.73437 h 0.01953 V 342 h 0.863281 v -5.69531 H 52.15625 l -1.601563,3.71093 v 0 l -1.632812,-3.71093 h -0.8125 z"
       style="font-size:8px;font-family:'DIN Alternate';text-anchor:middle;fill:#343434"
       id="path251" />
    <path
       d="m 53.976562,339.15234 q 0,0.97657 0.05859,1.32032 0.03125,0.18359 0.07813,0.30468 0.05078,0.11719 0.113281,0.2461 0.207032,0.39453 0.664063,0.69531 0.449219,0.3125 1.121094,0.32812 0.679687,-0.0156 1.132812,-0.32812 0.449219,-0.30078 0.648438,-0.69531 0.144531,-0.20703 0.199218,-0.55078 0.05078,-0.34375 0.05078,-1.32032 0,-0.99218 -0.05078,-1.32812 -0.05469,-0.33594 -0.199218,-0.54297 -0.199219,-0.39453 -0.648438,-0.70313 -0.453125,-0.3125 -1.132812,-0.32031 -0.671875,0.008 -1.121094,0.32031 -0.457031,0.3086 -0.664063,0.70313 -0.128906,0.20703 -0.191406,0.54297 -0.05859,0.33594 -0.05859,1.32812 z m 0.867188,0 q 0,-0.83984 0.0625,-1.14453 0.05469,-0.28906 0.222656,-0.47265 0.136719,-0.17579 0.359375,-0.29297 0.21875,-0.11328 0.523438,-0.1211 0.308593,0.008 0.535156,0.1211 0.214844,0.11718 0.34375,0.29297 0.167969,0.18359 0.230469,0.47265 0.05859,0.30469 0.05859,1.14453 0,0.83985 -0.05859,1.13672 -0.0625,0.29688 -0.230469,0.48047 -0.128906,0.17578 -0.34375,0.28516 -0.226563,0.1289 -0.535156,0.1289 -0.304688,0 -0.523438,-0.1289 -0.222656,-0.10938 -0.359375,-0.28516 -0.167969,-0.18359 -0.222656,-0.48047 -0.0625,-0.29687 -0.0625,-1.13672 z"
       style="font-size:8px;font-family:'DIN Alternate';text-anchor:middle;fill:#343434"
       id="path253" />
    <path
       d="m 59.046875,342 h 1.933594 q 0.640625,0 1.082031,-0.28125 0.445312,-0.26172 0.695312,-0.66406 0.09375,-0.15235 0.160157,-0.29297 0.0625,-0.14453 0.09375,-0.32813 0.06641,-0.36328 0.06641,-1.28125 0,-0.86328 -0.04297,-1.21484 -0.05469,-0.35156 -0.261719,-0.67188 -0.578125,-0.95312 -1.734375,-0.96093 h -1.992187 z m 0.863281,-4.87891 h 1.03125 q 0.65625,-0.0156 1.015625,0.48047 0.175781,0.19922 0.222656,0.51953 0.03516,0.32032 0.03516,1.0625 0,0.76172 -0.03516,1.03907 -0.03906,0.28125 -0.183593,0.46484 -0.328125,0.49609 -1.054688,0.49609 h -1.03125 z"
       style="font-size:8px;font-family:'DIN Alternate';text-anchor:middle;fill:#343434"
       id="path255" />
  </g>
</svg>
