<?xml version="1.0" encoding="UTF-8" standalone="no"?>
<svg
   xmlns:dc="http://purl.org/dc/elements/1.1/"
   xmlns:cc="http://creativecommons.org/ns#"
   xmlns:rdf="http://www.w3.org/1999/02/22-rdf-syntax-ns#"
   xmlns:svg="http://www.w3.org/2000/svg"
   xmlns="http://www.w3.org/2000/svg"
   xmlns:xlink="http://www.w3.org/1999/xlink"
   xmlns:sodipodi="http://sodipodi.sourceforge.net/DTD/sodipodi-0.dtd"
   xmlns:inkscape="http://www.inkscape.org/namespaces/inkscape"
   version="1.1"
   width="75"
   height="380"
   viewBox="0 0 75 380"
   id="svg121"
   sodipodi:docname="FM.svg"
   inkscape:version="1.0.2 (e86c8708, 2021-01-15)">
  <metadata
     id="metadata125">
    <rdf:RDF>
      <cc:Work
         rdf:about="">
        <dc:format>image/svg+xml</dc:format>
        <dc:type
           rdf:resource="http://purl.org/dc/dcmitype/StillImage" />
      </cc:Work>
    </rdf:RDF>
  </metadata>
  <sodipodi:namedview
     pagecolor="#ffffff"
     bordercolor="#666666"
     borderopacity="1"
     objecttolerance="10"
     gridtolerance="10"
     guidetolerance="10"
     inkscape:pageopacity="0"
     inkscape:pageshadow="2"
     inkscape:window-width="689"
     inkscape:window-height="480"
     id="namedview123"
     showgrid="false"
     inkscape:zoom="2.1763158"
     inkscape:cx="37.5"
     inkscape:cy="190"
     inkscape:window-x="0"
     inkscape:window-y="25"
     inkscape:window-maximized="0"
     inkscape:current-layer="svg121" />
  <style
     id="style2">
    text.title {
      fill: #a91913;
      font-family: 'American Typewriter';
      font-size: 11pt;
    }
    text.big-label {
      fill: #343434;
      font-family: 'Helvetica';
      font-weight: bold;
      font-size: 7.5pt;
    }
    text.label {
      fill: #343434;
      font-family: 'Helvetica';
      font-weight: bold;
      font-size: 6pt;
    }
    .background {
      fill: #e0e0e0;
    }
    .output {
      fill: #b8b8b8;
    }
    polyline.connect {
      stroke: #343434;
      stroke-width: 1;
    }

    .blueprint {
      stroke: #08f;
      fill: none;
    }
  </style>
  <defs
     id="defs43">
    <linearGradient
       id="smallKnobMediumGradient">
      <stop
         offset="5%"
         stop-color="#888"
         id="stop4" />
      <stop
         offset="95%"
         stop-color="#333"
         id="stop6" />
    </linearGradient>
    <linearGradient
       id="smallKnobDarkGradient">
      <stop
         offset="5%"
         stop-color="#444"
         id="stop9" />
      <stop
         offset="95%"
         stop-color="#222"
         id="stop11" />
    </linearGradient>
    <linearGradient
       id="bigKnobMediumGradient">
      <stop
         offset="5%"
         stop-color="#888"
         id="stop14" />
      <stop
         offset="95%"
         stop-color="#555"
         id="stop16" />
    </linearGradient>
    <linearGradient
       id="bigKnobDarkGradient">
      <stop
         offset="5%"
         stop-color="#555"
         id="stop19" />
      <stop
         offset="95%"
         stop-color="#222"
         id="stop21" />
    </linearGradient>
    <symbol
       id="knob18">
      <g
         transform="translate(9 9)"
         id="g30">
        <circle
           r="8.5"
           stroke="#222"
           fill="none"
           id="circle24" />
        <circle
           r="8"
           fill="url('#smallKnobMediumGradient')"
           transform="rotate(90)"
           id="circle26" />
        <circle
           r="7"
           fill="url('#smallKnobDarkGradient')"
           transform="rotate(90)"
           id="circle28" />
      </g>
    </symbol>
    <symbol
       id="knob45">
      <g
         transform="translate(22.5, 22.5)"
         id="g37">
        <circle
           r="22"
           fill="url('#bigKnobDarkGradient')"
           transform="rotate(90)"
           id="circle33" />
        <circle
           r="20"
           fill="url('#bigKnobMediumGradient')"
           transform="rotate(90)"
           id="circle35" />
      </g>
    </symbol>
    <symbol
       id="port">
      <g
         transform="translate(12 12)"
         id="g40" />
    </symbol>
    <linearGradient
       inkscape:collect="always"
       xlink:href="#bigKnobDarkGradient"
       id="linearGradient160"
       x1="-22"
       y1="-22"
       x2="22"
       y2="-22"
       gradientUnits="userSpaceOnUse" />
    <linearGradient
       inkscape:collect="always"
       xlink:href="#bigKnobMediumGradient"
       id="linearGradient162"
       x1="-20"
       y1="-20"
       x2="20"
       y2="-20"
       gradientUnits="userSpaceOnUse" />
    <linearGradient
       inkscape:collect="always"
       xlink:href="#bigKnobDarkGradient"
       id="linearGradient172"
       x1="-22"
       y1="-22"
       x2="22"
       y2="-22"
       gradientUnits="userSpaceOnUse" />
    <linearGradient
       inkscape:collect="always"
       xlink:href="#bigKnobMediumGradient"
       id="linearGradient174"
       x1="-20"
       y1="-20"
       x2="20"
       y2="-20"
       gradientUnits="userSpaceOnUse" />
    <linearGradient
       inkscape:collect="always"
       xlink:href="#smallKnobMediumGradient"
       id="linearGradient186"
       x1="-8"
       y1="-8"
       x2="8"
       y2="-8"
       gradientUnits="userSpaceOnUse" />
    <linearGradient
       inkscape:collect="always"
       xlink:href="#smallKnobDarkGradient"
       id="linearGradient188"
       x1="-7"
       y1="-7"
       x2="7"
       y2="-7"
       gradientUnits="userSpaceOnUse" />
    <linearGradient
       inkscape:collect="always"
       xlink:href="#smallKnobMediumGradient"
       id="linearGradient208"
       x1="-8"
       y1="-8"
       x2="8"
       y2="-8"
       gradientUnits="userSpaceOnUse" />
    <linearGradient
       inkscape:collect="always"
       xlink:href="#smallKnobDarkGradient"
       id="linearGradient210"
       x1="-7"
       y1="-7"
       x2="7"
       y2="-7"
       gradientUnits="userSpaceOnUse" />
  </defs>
  <path
     id="rect45"
     style="fill:#e0e0e0"
     d="M 0,0 H 75 V 380 H 0 Z"
     class="background" />
  <g
     aria-label="FM"
     id="text47"
     style="font-size:14.6667px;font-family:'American Typewriter';text-anchor:middle;fill:#a91913"
     class="title">
    <path
       d="M 28.183687,23.732 V 22.5 l -0.01467,-2.332 q 0,-1.085334 -0.748,-1.085334 -0.190667,0 -0.293334,0.02933 -0.234666,0.044 -0.381333,0.044 -0.190667,0 -0.322667,-0.132 -0.132,-0.146667 -0.132,-0.352 0,-0.513334 0.616,-0.513334 0.07333,0 0.22,0.01467 l 1.012,0.102667 q 0.572,0.05867 1.276,0.05867 0.381334,0 1.642667,-0.044 L 32.745021,18.232 q 0.337333,-0.01467 0.792,-0.044 0.205333,-0.01467 0.44,-0.01467 0.777333,0 0.777333,0.689333 0,0.264 -0.07333,0.806667 -0.07333,0.542667 -0.07333,0.821334 0,0.234666 0.02933,0.586666 0.02933,0.352 0.02933,0.645334 0,0.601333 -0.528,0.601333 -0.542667,0 -0.542667,-0.689333 0,-0.205334 0.01467,-0.630667 0.02933,-0.425333 0.02933,-0.630667 0,-0.777333 -0.44,-0.982667 -0.44,-0.205333 -2.082666,-0.205333 -1.393334,0 -1.584,0.249333 -0.146667,0.190667 -0.146667,1.349334 v 1.085333 q 0,0.410667 0.102667,0.513334 0.117333,0.088 0.616,0.088 h 0.484 q 0.953333,0 0.953333,-0.704 0,-0.161334 -0.044,-0.44 -0.02933,-0.278667 -0.02933,-0.425334 0,-0.557333 0.528,-0.557333 0.498666,0 0.498666,0.645333 0,0.088 -0.02933,0.352 l -0.088,0.792 q -0.05867,0.528 -0.05867,0.792 0,0.601334 0.132,1.525334 0.044,0.308 0.044,0.586666 0,0.572 -0.528,0.572 -0.498666,0 -0.498666,-0.616 0,-0.146666 0.01467,-0.44 0.02933,-0.293333 0.02933,-0.44 0,-0.454666 -0.249334,-0.586666 Q 31.102354,23.424 30.589021,23.424 h -0.454667 q -0.513333,0 -0.630667,0.117333 -0.117333,0.117334 -0.117333,0.645334 V 25.932 q 0,0.689333 0.146667,0.938667 0.161333,0.234666 0.586666,0.234666 0.102667,0 0.322667,-0.01467 0.22,-0.01467 0.322667,-0.01467 0.674666,0 0.674666,0.498667 0,0.205333 -0.161333,0.352 -0.146667,0.146666 -0.366667,0.146666 -0.234666,0 -0.689333,-0.07333 -0.645333,-0.102667 -1.466667,-0.102667 -0.528,0 -1.129333,0.088 l -0.498667,0.07333 q -0.044,0 -0.102666,0.01467 -0.05867,0 -0.088,0 -0.645334,0 -0.645334,-0.528 0,-0.469333 0.454667,-0.469333 0.05867,0 0.381333,0.02933 0.161334,0.044 0.308,0.044 0.396,0 0.542667,-0.234666 0.161333,-0.249334 0.176,-0.865334 z"
       style="font-size:14.6667px;font-family:'American Typewriter';text-anchor:middle;fill:#a91913"
       id="path281" />
    <path
       d="M 39.772417,19.258666 42.031084,26.68 44.50975,18.774666 q 0.190667,-0.616 0.66,-0.616 h 0.07333 q 0.146666,0 0.381333,0.044 0.293333,0.07333 0.381333,0.07333 0.234667,0.02933 0.645334,0.02933 0.44,0 0.689333,-0.044 l 0.513333,-0.088 q 0.044,-0.01467 0.176,-0.01467 0.674667,0 0.674667,0.513334 0,0.469333 -0.469333,0.469333 -0.117334,0 -0.352,-0.02933 -0.22,-0.044 -0.337334,-0.044 -0.748,0 -0.748,1.1 v 1.026667 l -0.01467,1.290666 V 23.732 l 0.01467,2.317333 q 0,1.1 0.733334,1.1 0.146666,0 0.322666,-0.044 0.322667,-0.02933 0.381334,-0.02933 0.469333,0 0.469333,0.469333 0,0.528 -0.630667,0.528 0.02933,0 -0.22,-0.02933 -1.012,-0.117333 -1.716,-0.117333 -0.689333,0 -1.32,0.102666 -0.264,0.044 -0.469333,0.044 -0.572,0 -0.572,-0.484 0,-0.498666 0.586667,-0.498666 0.146666,0 0.22,0.01467 0.322666,0.02933 0.381333,0.02933 0.528,0 0.66,-1.1 0.02933,-0.234667 0.02933,-1.496 0,-0.484 0.01467,-1.408 l 0.02933,-1.32 v -2.596001 q 0,-0.088 -0.07333,-0.088 -0.044,0 -0.088,0.088 l -2.698667,8.374667 q -0.176,0.557334 -0.821333,0.557334 -0.381333,0 -0.572,-0.117334 -0.176,-0.102666 -0.278667,-0.44 l -2.654667,-8.374667 q -0.044,-0.088 -0.102666,-0.088 -0.05867,0 -0.05867,0.088 l 0.088,6.820001 q 0.01467,1.070666 0.586667,1.070666 0.161333,0 0.44,-0.05867 h 0.176 q 0.572,0 0.572,0.513333 0,0.513333 -0.586667,0.513333 -0.102667,0 -0.308,-0.02933 -0.322667,-0.044 -0.689333,-0.102667 -0.293334,-0.044 -0.748,-0.044 -0.806667,0 -1.041334,0.044 l -0.616,0.117334 q -0.02933,0 -0.088,0.01467 -0.05867,0 -0.088,0 -0.674666,0 -0.674666,-0.513333 0,-0.205333 0.132,-0.337333 0.132,-0.146667 0.322666,-0.146667 0.161334,0 0.381334,0.044 0.22,0.044 0.322666,0.044 0.748,0 0.748,-1.1 v -5.896 q 0,-1.1 -0.748,-1.1 -0.117333,0 -0.352,0.044 -0.234666,0.02933 -0.352,0.02933 -0.454666,0 -0.454666,-0.469333 0,-0.513334 0.66,-0.513334 0.05867,0 0.190666,0.01467 l 0.513334,0.05867 q 0.381333,0.044 0.718666,0.044 0.278667,0 0.748,-0.05867 0.484,-0.05867 0.704,-0.05867 0.572,0 0.762667,0.718667 z"
       style="font-size:14.6667px;font-family:'American Typewriter';text-anchor:middle;fill:#a91913"
       id="path283" />
  </g>
  <g
     aria-label="zephyr"
     id="text49"
     style="font-size:14.6667px;font-family:'American Typewriter';text-anchor:middle;fill:#a91913"
     class="title">
    <path
       d="m 13.70127,360.48933 4.781334,-4.84 h -2.244 q -1.1,0 -1.378667,0.0733 -0.278667,0.0587 -0.278667,0.33733 0,0.11733 0.02933,0.264 0.07333,0.38133 0.07333,0.71867 0,0.55733 -0.484,0.55733 -0.498667,0 -0.498667,-0.64533 0,-0.27867 0.01467,-0.38134 0.05867,-0.44 0.05867,-0.63066 0,-0.14667 -0.05867,-0.42534 -0.044,-0.29333 -0.044,-0.44 0,-0.45466 0.733333,-0.45466 0.234667,0 0.630667,0.0147 0.454667,0.0293 0.630667,0.0293 l 0.88,0.0147 h 2.493333 q 0.953333,0 0.953333,0.67467 0,0.308 -0.557333,0.86533 l -4.752,4.796 h 3.490667 q 0.865333,0 0.865333,-0.49866 V 360.24 q 0,-0.24933 -0.02933,-0.42533 -0.02933,-0.55734 -0.02933,-0.528 0,-0.24934 0.146667,-0.41067 0.146667,-0.176 0.366667,-0.176 0.469333,0 0.469333,0.55733 0,0.24934 -0.02933,0.51334 -0.05867,0.528 -0.05867,0.76266 0,0.16134 0.02933,0.46934 0.044,0.308 0.044,0.46933 0,0.572 -0.645333,0.55733 L 18.40927,362 h -4.224 q -0.366666,0 -0.601333,-0.22 -0.234667,-0.22 -0.234667,-0.55733 0,-0.38134 0.352,-0.73334 z"
       style="font-size:14.6667px;font-family:'American Typewriter';text-anchor:middle;fill:#a91913"
       id="path268" />
    <path
       d="m 27.800979,357.688 q 0,0.55733 -0.07333,0.68933 -0.07333,0.11734 -0.425333,0.11734 h -4.664 q -0.190667,0 -0.249333,0.0587 -0.05867,0.044 -0.05867,0.16134 0,1.1 0.66,1.83333 0.66,0.73333 1.642667,0.73333 0.645333,0 1.173333,-0.352 0.542667,-0.352 0.704,-0.89466 l 0.132,-0.42534 q 0.102667,-0.352 0.484,-0.352 0.542667,0 0.542667,0.55734 0,0.95333 -0.968,1.70133 -0.968,0.73333 -2.2,0.73333 -1.54,0 -2.449334,-1.02666 -0.909333,-1.04134 -0.909333,-2.78667 0,-1.78933 0.968,-2.904 0.968,-1.11467 2.522667,-1.11467 1.378666,0 2.273333,0.924 0.894667,0.924 0.894667,2.34667 z m -5.324,-0.38133 q 0,0.20533 0.322666,0.20533 h 3.505334 q 0.308,0 0.308,-0.20533 0,-0.77734 -0.586667,-1.34934 -0.586667,-0.572 -1.378667,-0.572 -0.821333,0 -1.496,0.60134 -0.674666,0.58666 -0.674666,1.32 z"
       style="font-size:14.6667px;font-family:'American Typewriter';text-anchor:middle;fill:#a91913"
       id="path270" />
    <path
       d="m 31.10602,355.092 v 0.46933 q 0.821334,-1.144 2.244,-1.144 1.466667,0 2.332,1.012 0.865334,1.012 0.865334,2.74267 0,1.86267 -0.924,2.97733 -0.909334,1.1 -2.449334,1.1 -1.276,0 -2.068,-0.89466 v 1.21733 q 0,0.55733 0.02933,0.71867 0.088,0.45466 0.425333,0.45466 0.102667,0 0.308,-0.044 0.205333,-0.044 0.308,-0.044 0.469333,0 0.469333,0.484 0,0.484 -0.616,0.484 -0.22,0 -0.66,-0.0587 -0.322666,-0.044 -0.968,-0.044 -0.352,0 -0.586666,0.0293 -0.586667,0.0733 -0.777334,0.0733 -0.249333,0 -0.425333,-0.16133 -0.176,-0.14667 -0.176,-0.352 0,-0.46933 0.498667,-0.46933 0.088,0 0.278666,0.044 0.249334,0.0587 0.366667,0.0587 0.278667,0 0.337333,-0.29333 0.07333,-0.27867 0.088,-1.584 l 0.01467,-5.66133 q -0.01467,-0.67467 -0.381333,-0.67467 -0.102667,0 -0.322667,0.0587 -0.205333,0.044 -0.322667,0.044 -0.542666,0 -0.542666,-0.484 0,-0.46934 0.645333,-0.46934 0.161333,0 0.352,0.0147 0.366667,0.0293 0.542667,0.0293 0.132,0 0.381333,-0.0147 0.249333,-0.0293 0.366667,-0.0293 0.366666,0 0.366666,0.41067 z m 0.22,1.78933 q -0.132,0.572 -0.146666,1.39334 0,0.0587 -0.01467,0.22 0,0.132 0,0.20533 0,0.98267 0.161333,1.43733 0.161334,0.44 0.630667,0.792 0.484,0.352 1.188,0.352 1.056,0 1.628,-0.76266 0.586667,-0.77734 0.586667,-2.2 0,-2.93334 -2.082667,-2.93334 -0.704,0 -1.261333,0.42534 -0.542667,0.42533 -0.689334,1.07066 z"
       style="font-size:14.6667px;font-family:'American Typewriter';text-anchor:middle;fill:#a91913"
       id="path272" />
    <path
       d="M 39.973625,352.55467 39.914958,355.4 q 0.586667,-0.55733 1.070667,-0.76267 0.484,-0.22 1.144,-0.22 1.261334,0 2.024,0.71867 0.762667,0.71867 0.762667,1.892 v 2.44933 q 0,0.86534 0.01467,0.95334 0.05867,0.73333 0.381333,0.73333 0.117333,0 0.337333,-0.0587 0.088,-0.0147 0.234667,-0.0147 0.542667,0 0.542667,0.484 0,0.484 -0.704,0.484 -0.190667,0 -0.557334,-0.044 -0.616,-0.0733 -0.997333,-0.0733 -0.381333,0 -0.586667,0.0293 -0.616,0.088 -0.762666,0.088 -0.264,0 -0.44,-0.14667 -0.176,-0.16133 -0.176,-0.396 0,-0.19067 0.146666,-0.32267 0.161334,-0.132 0.366667,-0.132 0.161333,0 0.381333,0.0733 0.132,0.044 0.249334,0.044 0.44,0 0.454666,-0.95334 0,-0.176 0.01467,-0.68933 l 0.01467,-0.63067 v -0.792 q 0,-1.496 -0.293334,-2.00933 -0.425333,-0.76267 -1.496,-0.76267 -1.158666,0 -1.686666,0.792 -0.366667,0.54267 -0.381334,1.74534 l -0.01467,1.056 q 0,0.088 -0.01467,0.29333 0,0.19067 0,0.27867 0,0.836 0.01467,0.968 0.07333,0.71866 0.425334,0.71866 0.117333,0 0.322667,-0.044 0.22,-0.0587 0.322666,-0.0587 0.469334,0 0.469334,0.45466 0,0.51334 -0.645334,0.51334 -0.205333,0 -0.616,-0.044 -0.557333,-0.0587 -0.953333,-0.0587 -0.249334,0 -0.689334,0.044 -0.586666,0.0587 -0.748,0.0587 -0.601333,0 -0.601333,-0.528 0,-0.44 0.557333,-0.44 0.190667,0 0.278667,0.0293 0.249333,0.044 0.352,0.044 0.234667,0 0.308,-0.44 0.088,-0.45467 0.102667,-1.83333 l 0.01467,-2.62534 q 0,-2.2 -0.088,-2.772 -0.088,-0.58666 -0.410666,-0.58666 -0.102667,0 -0.308,0.044 -0.205334,0.044 -0.322667,0.044 -0.498667,0 -0.498667,-0.46934 0,-0.20533 0.176,-0.352 0.176,-0.14666 0.425334,-0.14666 0.07333,0 0.498666,0.044 0.278667,0.0293 0.601334,0.0293 0.132,0 0.366666,-0.0293 0.234667,-0.0293 0.337334,-0.0293 0.337333,0 0.337333,0.484 z"
       style="font-size:14.6667px;font-family:'American Typewriter';text-anchor:middle;fill:#a91913"
       id="path274" />
    <path
       d="m 49.022268,356.07467 1.686667,4.95733 1.789333,-4.884 q 0.07333,-0.20533 0.07333,-0.32267 0,-0.24933 -0.337334,-0.24933 -0.176,0 -0.278666,0.0293 -0.234667,0.0293 -0.308,0.0293 -0.484,0 -0.484,-0.46934 0,-0.49866 0.630666,-0.49866 0.088,0 0.293334,0.0293 l 0.528,0.0733 q 0.205333,0.0293 0.44,0.0293 0.249333,0 0.733333,-0.0587 0.484,-0.0587 0.733333,-0.0587 0.630667,0 0.630667,0.484 0,0.46934 -0.484,0.46934 -0.146667,0 -0.22,-0.0293 -0.190667,-0.044 -0.264,-0.044 -0.278667,0 -0.572,0.748 l -1.994667,4.98667 q -0.66,1.65733 -1.246666,2.40533 -0.997334,1.276 -2.493334,1.276 -0.894666,0 -1.510666,-0.45466 -0.601334,-0.45467 -0.601334,-1.1 0,-0.45467 0.264,-0.748 0.264,-0.27867 0.689334,-0.27867 0.337333,0 0.557333,0.19067 0.22,0.20533 0.22,0.49866 0,0.46934 -0.425333,0.60134 0.22,0.32266 0.836,0.32266 0.777333,0 1.393333,-0.58666 0.630667,-0.572 0.630667,-1.29067 0,-0.36667 -0.396,-1.364 l -1.613334,-4.07733 q 0,0 -0.176,-0.46934 -0.249333,-0.66 -0.572,-0.66 -0.088,0 -0.322666,0.044 -0.22,0.044 -0.293334,0.044 -0.513333,0 -0.513333,-0.46933 0,-0.49867 0.674667,-0.49867 0.22,0 0.337333,0.0147 l 0.586667,0.0733 q 0.01467,0 0.117333,0 0.102667,0.0147 0.176,0.0147 0.528,0 1.129333,-0.0587 0.454667,-0.044 0.601334,-0.044 0.616,0 0.616,0.484 0,0.484 -0.557334,0.484 -0.088,0 -0.278666,-0.0293 -0.190667,-0.044 -0.278667,-0.044 -0.205333,0 -0.205333,0.20533 0,0.11734 0.05867,0.29334 z"
       style="font-size:14.6667px;font-family:'American Typewriter';text-anchor:middle;fill:#a91913"
       id="path276" />
    <path
       d="m 57.760627,355.092 v 0.396 q 0.762667,-1.07067 2.038667,-1.07067 1.026666,0 1.657333,0.58667 0.645333,0.572 0.645333,1.48133 0,0.64534 -0.322666,1.056 -0.322667,0.396 -0.850667,0.396 -0.337333,0 -0.572,-0.20533 -0.234667,-0.20533 -0.234667,-0.49867 0,-0.23466 0.176,-0.41066 0.176,-0.19067 0.410667,-0.19067 0.044,0 0.190667,0.044 0.088,-0.176 0.088,-0.32267 0,-0.42533 -0.381334,-0.71866 -0.366666,-0.29334 -0.924,-0.29334 -1.144,0 -1.525333,1.02667 -0.234667,0.63067 -0.234667,1.90667 v 0.968 q 0,0.98266 0.01467,1.1 0.07333,0.836 0.454667,0.836 0.190666,0 0.396,-0.0587 0.161333,-0.044 0.278666,-0.044 0.469334,0 0.469334,0.46933 0,0.51334 -0.601334,0.51334 h -0.05867 q -0.22,0 -0.674667,-0.0587 -0.44,-0.044 -0.66,-0.044 -0.586667,0 -0.924,0.0293 l -0.821333,0.0733 q -0.601334,0 -0.601334,-0.51334 0,-0.45466 0.557334,-0.45466 0.146666,0 0.22,0.0147 l 0.22,0.044 q 0.146666,0.0293 0.205333,0.0293 0.366667,0 0.396,-0.67467 l 0.02933,-0.748 -0.044,-3.32933 q -0.044,-0.86534 -0.44,-0.86534 -0.117333,0 -0.322666,0.044 -0.205334,0.044 -0.322667,0.044 -0.484,0 -0.484,-0.46933 0,-0.51333 0.630667,-0.51333 0.146666,0 0.44,0.044 0.293333,0.0293 0.44,0.0293 0.117333,0 0.381333,-0.0293 0.117333,-0.0293 0.278667,-0.0293 0.381333,0 0.381333,0.41067 z"
       style="font-size:14.6667px;font-family:'American Typewriter';text-anchor:middle;fill:#a91913"
       id="path278" />
  </g>
  <!-- big knobs -->
  <g
     aria-label="RATIO"
     id="text51"
     style="font-weight:bold;font-size:10px;font-family:Helvetica;text-anchor:middle;fill:#343434"
     class="big-label">
    <path
       d="M 26.132812,49.177734 H 24.580078 V 52 h -1.469726 v -7.197266 h 3.530273 q 0.756836,0.01465 1.162109,0.185547 0.410157,0.170899 0.69336,0.50293 0.234375,0.273437 0.371093,0.605469 0.136719,0.332031 0.136719,0.756836 0,0.512695 -0.258789,1.010742 -0.258789,0.493164 -0.854492,0.698242 0.498047,0.200195 0.703125,0.571289 0.209961,0.366211 0.209961,1.123047 v 0.483398 q 0,0.493164 0.03906,0.668946 0.05859,0.27832 0.273438,0.410156 V 52 h -1.655274 q -0.06836,-0.239258 -0.09766,-0.385742 -0.05859,-0.302735 -0.06348,-0.620117 l -0.0098,-0.668946 q -0.0098,-0.688476 -0.253906,-0.917968 -0.239258,-0.229493 -0.903321,-0.229493 z m 0.913086,-1.308593 q 0.449219,-0.205079 0.449219,-0.810547 0,-0.654297 -0.43457,-0.878907 -0.244141,-0.126953 -0.732422,-0.126953 h -1.748047 v 1.933594 h 1.704102 q 0.507812,0 0.761718,-0.117187 z"
       style="font-weight:bold;font-size:10px;font-family:Helvetica;text-anchor:middle;fill:#343434"
       id="path297" />
    <path
       d="M 34.516602,50.520508 H 31.865234 L 31.367187,52 h -1.572265 l 2.568359,-7.197266 H 34.0625 L 36.611328,52 h -1.630859 z m -0.419922,-1.240235 -0.898438,-2.832031 -0.927734,2.832031 z"
       style="font-weight:bold;font-size:10px;font-family:Helvetica;text-anchor:middle;fill:#343434"
       id="path299" />
    <path
       d="m 42.019043,44.802734 v 1.274414 h -2.15332 V 52 h -1.513672 v -5.922852 h -2.163086 v -1.274414 z"
       style="font-weight:bold;font-size:10px;font-family:Helvetica;text-anchor:middle;fill:#343434"
       id="path301" />
    <path
       d="m 42.783203,44.802734 h 1.494141 V 52 h -1.494141 z"
       style="font-weight:bold;font-size:10px;font-family:Helvetica;text-anchor:middle;fill:#343434"
       id="path303" />
    <path
       d="m 48.857422,52.200195 q -1.542969,0 -2.358399,-0.839843 -1.09375,-1.030274 -1.09375,-2.96875 0,-1.97754 1.09375,-2.96875 0.81543,-0.839844 2.358399,-0.839844 1.542969,0 2.358398,0.839844 1.088867,0.99121 1.088867,2.96875 0,1.938476 -1.088867,2.96875 -0.815429,0.839843 -2.358398,0.839843 z m 1.420898,-1.933593 q 0.522461,-0.65918 0.522461,-1.875 0,-1.210938 -0.527344,-1.870118 -0.52246,-0.664062 -1.416015,-0.664062 -0.893555,0 -1.425781,0.65918 -0.532227,0.659179 -0.532227,1.875 0,1.21582 0.532227,1.875 0.532226,0.659179 1.425781,0.659179 0.893555,0 1.420898,-0.659179 z"
       style="font-weight:bold;font-size:10px;font-family:Helvetica;text-anchor:middle;fill:#343434"
       id="path305" />
  </g>
  <g
     id="use53"
     transform="translate(15,57.5)">
    <g
       transform="translate(22.5,22.5)"
       id="g156">
      <path
         id="circle152"
         style="fill:url(#linearGradient160)"
         transform="rotate(90)"
         d="M 22,0 A 22,22 0 0 1 0,22 22,22 0 0 1 -22,0 22,22 0 0 1 0,-22 22,22 0 0 1 22,0 Z" />
      <path
         id="circle154"
         style="fill:url(#linearGradient162)"
         transform="rotate(90)"
         d="M 20,0 A 20,20 0 0 1 0,20 20,20 0 0 1 -20,0 20,20 0 0 1 0,-20 20,20 0 0 1 20,0 Z" />
    </g>
  </g>
  <g
     aria-label="OFFSET"
     id="text57"
     style="font-weight:bold;font-size:10px;font-family:Helvetica;text-anchor:middle;fill:#343434"
     class="big-label">
    <path
       d="m 21.708984,132.2002 q -1.542968,0 -2.358398,-0.83985 -1.09375,-1.03027 -1.09375,-2.96875 0,-1.97754 1.09375,-2.96875 0.81543,-0.83984 2.358398,-0.83984 1.542969,0 2.358399,0.83984 1.088867,0.99121 1.088867,2.96875 0,1.93848 -1.088867,2.96875 -0.81543,0.83985 -2.358399,0.83985 z m 1.420899,-1.9336 q 0.522461,-0.65918 0.522461,-1.875 0,-1.21094 -0.527344,-1.87012 -0.522461,-0.66406 -1.416016,-0.66406 -0.893554,0 -1.425781,0.65918 -0.532226,0.65918 -0.532226,1.875 0,1.21582 0.532226,1.875 0.532227,0.65918 1.425781,0.65918 0.893555,0 1.420899,-0.65918 z"
       style="font-weight:bold;font-size:10px;font-family:Helvetica;text-anchor:middle;fill:#343434"
       id="path255" />
    <path
       d="m 31.401367,126.07715 h -3.608398 v 1.65527 h 3.159179 v 1.25 H 27.792969 V 132 h -1.494141 v -7.1875 h 5.102539 z"
       style="font-weight:bold;font-size:10px;font-family:Helvetica;text-anchor:middle;fill:#343434"
       id="path257" />
    <path
       d="M 37.514648,126.07715 H 33.90625 v 1.65527 h 3.15918 v 1.25 H 33.90625 V 132 h -1.494141 v -7.1875 h 5.102539 z"
       style="font-weight:bold;font-size:10px;font-family:Helvetica;text-anchor:middle;fill:#343434"
       id="path259" />
    <path
       d="m 41.137695,130.95996 q 0.532227,0 0.864258,-0.11719 0.629883,-0.22461 0.629883,-0.83496 0,-0.35644 -0.3125,-0.55176 -0.3125,-0.19043 -0.981445,-0.33691 l -0.761719,-0.1709 q -1.123047,-0.2539 -1.552735,-0.55176 -0.727539,-0.49804 -0.727539,-1.55761 0,-0.9668 0.703125,-1.60645 0.703125,-0.63965 2.06543,-0.63965 1.137695,0 1.938477,0.60547 0.805664,0.60059 0.844726,1.74805 h -1.445312 q -0.03906,-0.64941 -0.566407,-0.92285 -0.351562,-0.18067 -0.874023,-0.18067 -0.581055,0 -0.927734,0.23438 -0.34668,0.23437 -0.34668,0.6543 0,0.38574 0.341797,0.57617 0.219726,0.12695 0.9375,0.29785 l 1.240234,0.29785 q 0.81543,0.19531 1.230469,0.52246 0.644531,0.50781 0.644531,1.46973 0,0.98633 -0.756836,1.64062 -0.751953,0.64942 -2.128906,0.64942 -1.40625,0 -2.211914,-0.63965 -0.805664,-0.64453 -0.805664,-1.76758 h 1.435547 q 0.06836,0.49316 0.268554,0.7373 0.366211,0.44434 1.254883,0.44434 z"
       style="font-weight:bold;font-size:10px;font-family:Helvetica;text-anchor:middle;fill:#343434"
       id="path261" />
    <path
       d="M 50.214844,128.85547 H 46.71875 v 1.85058 h 3.984375 V 132 h -5.454102 v -7.19727 h 5.278321 v 1.27442 H 46.71875 v 1.52832 h 3.496094 z"
       style="font-weight:bold;font-size:10px;font-family:Helvetica;text-anchor:middle;fill:#343434"
       id="path263" />
    <path
       d="m 57.114258,124.80273 v 1.27442 H 54.960937 V 132 h -1.513671 v -5.92285 H 51.28418 v -1.27442 z"
       style="font-weight:bold;font-size:10px;font-family:Helvetica;text-anchor:middle;fill:#343434"
       id="path265" />
  </g>
  <g
     id="use59"
     transform="translate(15,137.5)">
    <g
       transform="translate(22.5,22.5)"
       id="g168">
      <path
         id="circle164"
         style="fill:url(#linearGradient172)"
         transform="rotate(90)"
         d="M 22,0 A 22,22 0 0 1 0,22 22,22 0 0 1 -22,0 22,22 0 0 1 0,-22 22,22 0 0 1 22,0 Z" />
      <path
         id="circle166"
         style="fill:url(#linearGradient174)"
         transform="rotate(90)"
         d="M 20,0 A 20,20 0 0 1 0,20 20,20 0 0 1 -20,0 20,20 0 0 1 0,-20 20,20 0 0 1 20,0 Z" />
    </g>
  </g>
  <!-- left column -->
  <path
     id="polyline63"
     transform="translate(19.5,236)"
     style="stroke:#343434;stroke-width:1"
     d="M 0,0 V 42"
     class="connect" />
  <g
     transform="translate(19.5,251)"
     id="g71">
    <path
       id="polyline65"
       style="stroke:#343434;stroke-width:1"
       d="m -7,0 h 4"
       class="connect" />
    <path
       id="polyline67"
       style="stroke:#343434;stroke-width:1"
       d="M 7,0 H 3"
       class="connect" />
    <path
       id="polyline69"
       style="stroke:#343434;stroke-width:1"
       d="M 5,-2 V 2"
       class="connect" />
  </g>
  <g
     id="use75"
     transform="translate(10.5,227)">
    <g
       transform="translate(9,9)"
       id="g182">
      <path
         id="circle176"
         style="fill:none;stroke:#222222"
         d="M 8.5,0 A 8.5,8.5 0 0 1 0,8.5 8.5,8.5 0 0 1 -8.5,0 8.5,8.5 0 0 1 0,-8.5 8.5,8.5 0 0 1 8.5,0 Z" />
      <path
         id="circle178"
         style="fill:url(#linearGradient186)"
         transform="rotate(90)"
         d="M 8,0 A 8,8 0 0 1 0,8 8,8 0 0 1 -8,0 8,8 0 0 1 0,-8 8,8 0 0 1 8,0 Z" />
      <path
         id="circle180"
         style="fill:url(#linearGradient188)"
         transform="rotate(90)"
         d="M 7,0 A 7,7 0 0 1 0,7 7,7 0 0 1 -7,0 7,7 0 0 1 0,-7 7,7 0 0 1 7,0 Z" />
    </g>
  </g>
  <g
     id="use79"
     transform="translate(7.5,266)">
    <g
       transform="translate(12,12)"
       id="g190" />
  </g>
  <g
     aria-label="RAT"
     id="text81"
     style="font-weight:bold;font-size:8px;font-family:Helvetica;text-anchor:middle;fill:#343434"
     class="label">
    <path
       d="M 14.625,297.74219 H 13.382813 V 300 h -1.175782 v -5.75781 h 2.824219 q 0.605469,0.0117 0.929688,0.14843 0.328124,0.13672 0.554687,0.40235 0.1875,0.21875 0.296875,0.48437 0.109375,0.26563 0.109375,0.60547 0,0.41016 -0.207031,0.8086 -0.207032,0.39453 -0.683594,0.55859 0.398437,0.16016 0.5625,0.45703 0.167969,0.29297 0.167969,0.89844 v 0.38672 q 0,0.39453 0.03125,0.53515 0.04687,0.22266 0.21875,0.32813 V 300 H 15.6875 q -0.05469,-0.19141 -0.07813,-0.30859 -0.04687,-0.24219 -0.05078,-0.4961 l -0.0078,-0.53515 q -0.0078,-0.55079 -0.203125,-0.73438 -0.191406,-0.18359 -0.722656,-0.18359 z m 0.730469,-1.04688 q 0.359375,-0.16406 0.359375,-0.64844 0,-0.52343 -0.347656,-0.70312 -0.195313,-0.10156 -0.585938,-0.10156 h -1.398437 v 1.54687 h 1.363281 q 0.40625,0 0.609375,-0.0937 z"
       style="font-weight:bold;font-size:8px;font-family:Helvetica;text-anchor:middle;fill:#343434"
       id="path243" />
    <path
       d="M 21.332031,298.81641 H 19.210937 L 18.8125,300 h -1.257813 l 2.054688,-5.75781 H 20.96875 L 23.007812,300 h -1.304687 z m -0.335937,-0.99219 -0.71875,-2.26563 -0.742188,2.26563 z"
       style="font-weight:bold;font-size:8px;font-family:Helvetica;text-anchor:middle;fill:#343434"
       id="path245" />
    <path
       d="m 27.333984,294.24219 v 1.01953 H 25.611328 V 300 h -1.210937 v -4.73828 h -1.730469 v -1.01953 z"
       style="font-weight:bold;font-size:8px;font-family:Helvetica;text-anchor:middle;fill:#343434"
       id="path247" />
  </g>
  <g
     id="use85"
     transform="translate(7.5,308)">
    <g
       transform="translate(12,12)"
       id="g194" />
  </g>
  <g
     aria-label="IN"
     id="text87"
     style="font-weight:bold;font-size:8px;font-family:Helvetica;text-anchor:middle;fill:#343434"
     class="label">
    <path
       d="m 16.015625,336.24219 h 1.195312 V 342 h -1.195312 z"
       style="font-weight:bold;font-size:8px;font-family:Helvetica;text-anchor:middle;fill:#343434"
       id="path238" />
    <path
       d="M 22.984375,342 H 21.78125 l -2.351563,-4.08984 V 342 h -1.121093 v -5.75781 h 1.261718 l 2.292969,4.01953 v -4.01953 h 1.121094 z"
       style="font-weight:bold;font-size:8px;font-family:Helvetica;text-anchor:middle;fill:#343434"
       id="path240" />
  </g>
  <!-- right column -->
  <path
     id="polyline91"
     transform="translate(55.5,236)"
     style="stroke:#343434;stroke-width:1"
     d="M 0,0 V 42"
     class="connect" />
  <g
     transform="translate(55.5,251)"
     id="g99">
    <path
       id="polyline93"
       style="stroke:#343434;stroke-width:1"
       d="m -7,0 h 4"
       class="connect" />
    <path
       id="polyline95"
       style="stroke:#343434;stroke-width:1"
       d="M 7,0 H 3"
       class="connect" />
    <path
       id="polyline97"
       style="stroke:#343434;stroke-width:1"
       d="M 5,-2 V 2"
       class="connect" />
  </g>
  <g
     id="use103"
     transform="translate(46.5,227)">
    <g
       transform="translate(9,9)"
       id="g204">
      <path
         id="circle198"
         style="fill:none;stroke:#222222"
         d="M 8.5,0 A 8.5,8.5 0 0 1 0,8.5 8.5,8.5 0 0 1 -8.5,0 8.5,8.5 0 0 1 0,-8.5 8.5,8.5 0 0 1 8.5,0 Z" />
      <path
         id="circle200"
         style="fill:url(#linearGradient208)"
         transform="rotate(90)"
         d="M 8,0 A 8,8 0 0 1 0,8 8,8 0 0 1 -8,0 8,8 0 0 1 0,-8 8,8 0 0 1 8,0 Z" />
      <path
         id="circle202"
         style="fill:url(#linearGradient210)"
         transform="rotate(90)"
         d="M 7,0 A 7,7 0 0 1 0,7 7,7 0 0 1 -7,0 7,7 0 0 1 0,-7 7,7 0 0 1 7,0 Z" />
    </g>
  </g>
  <g
     id="use107"
     transform="translate(43.5,266)">
    <g
       transform="translate(12,12)"
       id="g212" />
  </g>
  <g
     aria-label="OFS"
     id="text109"
     style="font-weight:bold;font-size:8px;font-family:Helvetica;text-anchor:middle;fill:#343434"
     class="label">
    <path
       d="m 50.429687,300.16016 q -1.234375,0 -1.886718,-0.67188 -0.875,-0.82422 -0.875,-2.375 0,-1.58203 0.875,-2.375 0.652343,-0.67187 1.886718,-0.67187 1.234375,0 1.886719,0.67187 0.871094,0.79297 0.871094,2.375 0,1.55078 -0.871094,2.375 -0.652344,0.67188 -1.886719,0.67188 z m 1.136719,-1.54688 q 0.417969,-0.52734 0.417969,-1.5 0,-0.96875 -0.421875,-1.49609 -0.417969,-0.53125 -1.132813,-0.53125 -0.714843,0 -1.140625,0.52734 -0.425781,0.52734 -0.425781,1.5 0,0.97266 0.425781,1.5 0.425782,0.52734 1.140625,0.52734 0.714844,0 1.136719,-0.52734 z"
       style="font-weight:bold;font-size:8px;font-family:Helvetica;text-anchor:middle;fill:#343434"
       id="path228" />
    <path
       d="m 58.183594,295.26172 h -2.886719 v 1.32422 h 2.527344 v 1 H 55.296875 V 300 h -1.195313 v -5.75 h 4.082032 z"
       style="font-weight:bold;font-size:8px;font-family:Helvetica;text-anchor:middle;fill:#343434"
       id="path230" />
    <path
       d="m 61.082031,299.16797 q 0.425781,0 0.691406,-0.0937 0.503907,-0.17969 0.503907,-0.66797 0,-0.28516 -0.25,-0.44141 -0.25,-0.15234 -0.785157,-0.26953 l -0.609375,-0.13672 q -0.898437,-0.20312 -1.242187,-0.4414 -0.582031,-0.39844 -0.582031,-1.2461 0,-0.77343 0.5625,-1.28515 0.5625,-0.51172 1.652343,-0.51172 0.910157,0 1.550782,0.48437 0.644531,0.48047 0.675781,1.39844 h -1.15625 q -0.03125,-0.51953 -0.453125,-0.73828 -0.28125,-0.14453 -0.699219,-0.14453 -0.464844,0 -0.742187,0.1875 -0.277344,0.1875 -0.277344,0.52344 0,0.30859 0.273437,0.46093 0.175782,0.10157 0.75,0.23828 l 0.992188,0.23829 q 0.652344,0.15625 0.984375,0.41796 0.515625,0.40625 0.515625,1.17579 0,0.78906 -0.605469,1.3125 -0.601562,0.51953 -1.703125,0.51953 -1.125,0 -1.769531,-0.51172 -0.644531,-0.51563 -0.644531,-1.41406 h 1.148437 q 0.05469,0.39453 0.214844,0.58984 0.292969,0.35547 1.003906,0.35547 z"
       style="font-weight:bold;font-size:8px;font-family:Helvetica;text-anchor:middle;fill:#343434"
       id="path232" />
  </g>
  <path
     id="rect113"
     style="fill:#b8b8b8"
     d="m 42.5,304 h 26 c 1.662,0 3,1.338 3,3 v 36 c 0,1.662 -1.338,3 -3,3 h -26 c -1.662,0 -3,-1.338 -3,-3 v -36 c 0,-1.662 1.338,-3 3,-3 z"
     class="output" />
  <g
     id="use115"
     transform="translate(43.5,308)">
    <g
       transform="translate(12,12)"
       id="g216" />
  </g>
  <g
     aria-label="OUT"
     id="text117"
     style="font-weight:bold;font-size:8px;font-family:Helvetica;text-anchor:middle;fill:#343434"
     class="label">
    <path
       d="m 50.210937,342.16016 q -1.234375,0 -1.886718,-0.67188 -0.875,-0.82422 -0.875,-2.375 0,-1.58203 0.875,-2.375 0.652343,-0.67187 1.886718,-0.67187 1.234375,0 1.886719,0.67187 0.871094,0.79297 0.871094,2.375 0,1.55078 -0.871094,2.375 -0.652344,0.67188 -1.886719,0.67188 z m 1.136719,-1.54688 q 0.417969,-0.52734 0.417969,-1.5 0,-0.96875 -0.421875,-1.49609 -0.417969,-0.53125 -1.132813,-0.53125 -0.714843,0 -1.140625,0.52734 -0.425781,0.52734 -0.425781,1.5 0,0.97266 0.425781,1.5 0.425782,0.52734 1.140625,0.52734 0.714844,0 1.136719,-0.52734 z"
       style="font-weight:bold;font-size:8px;font-family:Helvetica;text-anchor:middle;fill:#343434"
       id="path220" />
    <path
       d="m 57.289062,339.78125 v -3.53906 h 1.222657 v 3.53906 q 0,0.91797 -0.285157,1.42969 -0.53125,0.9375 -2.027343,0.9375 -1.496094,0 -2.03125,-0.9375 -0.285157,-0.51172 -0.285157,-1.42969 v -3.53906 h 1.222657 v 3.53906 q 0,0.59375 0.140625,0.86719 0.21875,0.48437 0.953125,0.48437 0.730468,0 0.949218,-0.48437 0.140625,-0.27344 0.140625,-0.86719 z"
       style="font-weight:bold;font-size:8px;font-family:Helvetica;text-anchor:middle;fill:#343434"
       id="path222" />
    <path
       d="m 63.847656,336.24219 v 1.01953 H 62.125 V 342 h -1.210938 v -4.73828 h -1.730468 v -1.01953 z"
       style="font-weight:bold;font-size:8px;font-family:Helvetica;text-anchor:middle;fill:#343434"
       id="path224" />
  </g>
</svg>
