<?xml version="1.0" encoding="UTF-8" standalone="no"?>
<svg
   xmlns:dc="http://purl.org/dc/elements/1.1/"
   xmlns:cc="http://creativecommons.org/ns#"
   xmlns:rdf="http://www.w3.org/1999/02/22-rdf-syntax-ns#"
   xmlns:svg="http://www.w3.org/2000/svg"
   xmlns="http://www.w3.org/2000/svg"
   xmlns:xlink="http://www.w3.org/1999/xlink"
   xmlns:sodipodi="http://sodipodi.sourceforge.net/DTD/sodipodi-0.dtd"
   xmlns:inkscape="http://www.inkscape.org/namespaces/inkscape"
   version="1.1"
   width="75"
   height="380"
   viewBox="0 0 75 380"
   id="svg134"
   sodipodi:docname="FM.svg"
   inkscape:version="1.0.2 (e86c8708, 2021-01-15)">
  <metadata
     id="metadata138">
    <rdf:RDF>
      <cc:Work
         rdf:about="">
        <dc:format>image/svg+xml</dc:format>
        <dc:type
           rdf:resource="http://purl.org/dc/dcmitype/StillImage" />
      </cc:Work>
    </rdf:RDF>
  </metadata>
  <sodipodi:namedview
     pagecolor="#ffffff"
     bordercolor="#666666"
     borderopacity="1"
     objecttolerance="10"
     gridtolerance="10"
     guidetolerance="10"
     inkscape:pageopacity="0"
     inkscape:pageshadow="2"
     inkscape:window-width="689"
     inkscape:window-height="480"
     id="namedview136"
     showgrid="false"
     inkscape:zoom="2.1763158"
     inkscape:cx="37.5"
     inkscape:cy="190"
     inkscape:window-x="0"
     inkscape:window-y="25"
     inkscape:window-maximized="0"
     inkscape:current-layer="svg134" />
  <style
     id="style2">
    text.title {
      fill: #a91913;
      font-family: 'American Typewriter';
      font-size: 13pt;
    }
    text.logo {
      fill: #a91913;
      font-family: 'American Typewriter';
      font-size: 11pt;
    }
    text.big-label {
      fill: #343434;
      font-family: 'Helvetica';
      font-weight: bold;
      font-size: 7.5pt;
    }
    text.label {
      fill: #343434;
      font-family: 'Helvetica';
      font-weight: bold;
      font-size: 6pt;
    }
    .background {
      fill: #e0e0e0;
    }
    .output {
      fill: #c1c1c1;
    }
    polyline.icon {
      stroke: #343434;
      stroke-width: 1.2;
      fill: none;
    }
    polyline.connect {
      stroke: #343434;
      stroke-width: 1;
      fill: none;
    }

    .blueprint {
      stroke: #08f;
      fill: none;
    }
  </style>
  <!-- ======== defs ======== -->
  <defs
     id="defs44">
    <linearGradient
       id="smallKnobMediumGradient">
      <stop
         offset="5%"
         stop-color="#888"
         id="stop4" />
      <stop
         offset="95%"
         stop-color="#333"
         id="stop6" />
    </linearGradient>
    <linearGradient
       id="smallKnobDarkGradient">
      <stop
         offset="5%"
         stop-color="#444"
         id="stop9" />
      <stop
         offset="95%"
         stop-color="#222"
         id="stop11" />
    </linearGradient>
    <linearGradient
       id="bigKnobDarkGradient">
      <stop
         offset="5%"
         stop-color="#5c5c5c"
         id="stop14" />
      <stop
         offset="95%"
         stop-color="#282828"
         id="stop16" />
    </linearGradient>
    <symbol
       id="knob18">
      <g
         transform="translate(9 9)"
         id="g25">
        <circle
           r="8.5"
           stroke="#222"
           fill="none"
           id="circle19" />
        <circle
           r="8"
           fill="url('#smallKnobMediumGradient')"
           transform="rotate(90)"
           id="circle21" />
        <circle
           r="7"
           fill="url('#smallKnobDarkGradient')"
           transform="rotate(90)"
           id="circle23" />
      </g>
    </symbol>
    <symbol
       id="knob40">
      <g
         transform="translate(20 20)"
         id="g30">
        <circle
           r="19.5"
           fill="url('#bigKnobDarkGradient')"
           transform="rotate(90)"
           id="circle28" />
      </g>
    </symbol>
    <symbol
       id="knob50">
      <g
         transform="translate(25 25)"
         id="g35">
        <circle
           r="24.5"
           fill="url('#bigKnobDarkGradient')"
           transform="rotate(90)"
           id="circle33" />
      </g>
    </symbol>
    <symbol
       id="port">
      <g
         transform="translate(12 12)"
         id="g38" />
    </symbol>
    <symbol
       id="hswitch14">
      <g
         transform="translate(12 7)"
         id="g41" />
    </symbol>
    <linearGradient
       inkscape:collect="always"
       xlink:href="#bigKnobDarkGradient"
       id="linearGradient176"
       x1="-19.5"
       y1="-19.5"
       x2="19.5"
       y2="-19.5"
       gradientUnits="userSpaceOnUse" />
    <linearGradient
       inkscape:collect="always"
       xlink:href="#bigKnobDarkGradient"
       id="linearGradient196"
       x1="-19.5"
       y1="-19.5"
       x2="19.5"
       y2="-19.5"
       gradientUnits="userSpaceOnUse" />
    <linearGradient
       inkscape:collect="always"
       xlink:href="#smallKnobMediumGradient"
       id="linearGradient208"
       x1="-8"
       y1="-8"
       x2="8"
       y2="-8"
       gradientUnits="userSpaceOnUse" />
    <linearGradient
       inkscape:collect="always"
       xlink:href="#smallKnobDarkGradient"
       id="linearGradient210"
       x1="-7"
       y1="-7"
       x2="7"
       y2="-7"
       gradientUnits="userSpaceOnUse" />
    <linearGradient
       inkscape:collect="always"
       xlink:href="#smallKnobMediumGradient"
       id="linearGradient222"
       x1="-8"
       y1="-8"
       x2="8"
       y2="-8"
       gradientUnits="userSpaceOnUse" />
    <linearGradient
       inkscape:collect="always"
       xlink:href="#smallKnobDarkGradient"
       id="linearGradient224"
       x1="-7"
       y1="-7"
       x2="7"
       y2="-7"
       gradientUnits="userSpaceOnUse" />
  </defs>
  <!-- ======== id ======== -->
  <path
     id="rect46"
     style="fill:#e0e0e0"
     d="M 0,0 H 75 V 380 H 0 Z"
     class="background" />
  <g
     aria-label="FM"
     id="text48"
     style="font-size:17.3333px;font-family:'American Typewriter';text-anchor:middle;fill:#a91913"
     class="title">
    <path
       d="M 26.489812,24.956 V 23.5 l -0.01733,-2.756 q 0,-1.282667 -0.884,-1.282667 -0.225334,0 -0.346667,0.03467 -0.277333,0.052 -0.450667,0.052 -0.225333,0 -0.381333,-0.156 -0.156,-0.173334 -0.156,-0.416 0,-0.606667 0.728,-0.606667 0.08667,0 0.26,0.01733 l 1.196,0.121334 q 0.676,0.06933 1.508,0.06933 0.450667,0 1.941334,-0.052 L 31.880479,18.456 q 0.398667,-0.01733 0.936,-0.052 0.242667,-0.01733 0.52,-0.01733 0.918667,0 0.918667,0.814667 0,0.312 -0.08667,0.953333 -0.08667,0.641334 -0.08667,0.970667 0,0.277333 0.03467,0.693333 0.03467,0.416 0.03467,0.762667 0,0.710667 -0.624,0.710667 -0.641334,0 -0.641334,-0.814667 0,-0.242667 0.01733,-0.745333 0.03467,-0.502667 0.03467,-0.745334 0,-0.918666 -0.52,-1.161333 -0.52,-0.242667 -2.461333,-0.242667 -1.646667,0 -1.872,0.294667 -0.173334,0.225333 -0.173334,1.594667 v 1.282666 q 0,0.485334 0.121334,0.606667 0.138666,0.104 0.728,0.104 h 0.572 q 1.126667,0 1.126667,-0.832 0,-0.190667 -0.052,-0.52 -0.03467,-0.329333 -0.03467,-0.502667 0,-0.658666 0.624,-0.658666 0.589333,0 0.589333,0.762666 0,0.104 -0.03467,0.416 l -0.104,0.936 q -0.06933,0.624 -0.06933,0.936 0,0.710667 0.156,1.802667 0.052,0.364 0.052,0.693334 0,0.676 -0.624,0.676 -0.589333,0 -0.589333,-0.728 0,-0.173334 0.01733,-0.52 0.03467,-0.346667 0.03467,-0.520001 0,-0.537333 -0.294667,-0.693333 Q 29.939146,24.592 29.332479,24.592 h -0.537333 q -0.606667,0 -0.745334,0.138666 -0.138667,0.138667 -0.138667,0.762667 V 27.556 q 0,0.814667 0.173334,1.109333 0.190666,0.277334 0.693333,0.277334 0.121334,0 0.381334,-0.01733 0.26,-0.01733 0.381333,-0.01733 0.797333,0 0.797333,0.589333 0,0.242667 -0.190666,0.416 -0.173334,0.173334 -0.433334,0.173334 -0.277333,0 -0.814666,-0.08667 -0.762667,-0.121333 -1.733334,-0.121333 -0.624,0 -1.334667,0.104 l -0.589333,0.08667 q -0.052,0 -0.121333,0.01733 -0.06933,0 -0.104,0 -0.762667,0 -0.762667,-0.624 0,-0.554667 0.537333,-0.554667 0.06933,0 0.450667,0.03467 0.190667,0.052 0.364,0.052 0.468,0 0.641333,-0.277334 0.190667,-0.294666 0.208,-1.022666 z"
       style="font-size:17.3333px;font-family:'American Typewriter';text-anchor:middle;fill:#a91913"
       id="path288" />
    <path
       d="M 40.185584,19.669333 42.854917,28.44 45.784251,19.097333 q 0.225333,-0.728 0.78,-0.728 h 0.08667 q 0.173334,0 0.450667,0.052 0.346667,0.08667 0.450667,0.08667 0.277333,0.03467 0.762666,0.03467 0.52,0 0.814667,-0.052 l 0.606667,-0.104 q 0.052,-0.01733 0.208,-0.01733 0.797333,0 0.797333,0.606667 0,0.554666 -0.554667,0.554666 -0.138666,0 -0.416,-0.03467 -0.26,-0.052 -0.398666,-0.052 -0.884,0 -0.884,1.3 v 1.213333 l -0.01733,1.525333 V 24.956 l 0.01733,2.738667 q 0,1.3 0.866666,1.3 0.173334,0 0.381334,-0.052 0.381333,-0.03467 0.450666,-0.03467 0.554667,0 0.554667,0.554667 0,0.624 -0.745333,0.624 0.03467,0 -0.26,-0.03467 -1.196,-0.138667 -2.028,-0.138667 -0.814667,0 -1.56,0.121334 -0.312,0.052 -0.554667,0.052 -0.676,0 -0.676,-0.572 0,-0.589334 0.693333,-0.589334 0.173334,0 0.26,0.01733 0.381334,0.03467 0.450667,0.03467 0.624,0 0.78,-1.3 0.03467,-0.277333 0.03467,-1.768 0,-0.572 0.01733,-1.664 l 0.03467,-1.56 v -3.068 q 0,-0.104 -0.08667,-0.104 -0.052,0 -0.104,0.104 l -3.189334,9.897334 q -0.208,0.658666 -0.970666,0.658666 -0.450667,0 -0.676,-0.138666 -0.208,-0.121334 -0.329334,-0.52 l -3.137333,-9.897334 q -0.052,-0.104 -0.121333,-0.104 -0.06933,0 -0.06933,0.104 l 0.104,8.06 q 0.01733,1.265334 0.693334,1.265334 0.190666,0 0.52,-0.06933 h 0.208 q 0.676,0 0.676,0.606667 0,0.606667 -0.693334,0.606667 -0.121333,0 -0.364,-0.03467 -0.381333,-0.052 -0.814666,-0.121333 -0.346667,-0.052 -0.884,-0.052 -0.953334,0 -1.230667,0.052 l -0.728,0.138666 q -0.03467,0 -0.104,0.01733 -0.06933,0 -0.104,0 -0.797334,0 -0.797334,-0.606667 0,-0.242667 0.156,-0.398667 0.156,-0.173333 0.381334,-0.173333 0.190667,0 0.450667,0.052 0.26,0.052 0.381333,0.052 0.884,0 0.884,-1.3 v -6.968 q 0,-1.3 -0.884,-1.3 -0.138667,0 -0.416,0.052 -0.277333,0.03467 -0.416,0.03467 -0.537334,0 -0.537334,-0.554666 0,-0.606667 0.780001,-0.606667 0.06933,0 0.225333,0.01733 l 0.606667,0.06933 q 0.450666,0.052 0.849333,0.052 0.329333,0 0.884,-0.06933 0.572,-0.06933 0.832,-0.06933 0.676,0 0.901333,0.849333 z"
       style="font-size:17.3333px;font-family:'American Typewriter';text-anchor:middle;fill:#a91913"
       id="path290" />
  </g>
  <g
     aria-label="oberon"
     id="text50"
     style="font-size:14.6667px;font-family:'American Typewriter';text-anchor:middle;fill:#a91913"
     class="logo">
    <path
       d="m 17.153666,362.24933 q -1.54,0 -2.464,-1.056 -0.924,-1.07066 -0.924,-2.86 0,-1.78933 0.924,-2.84533 0.938667,-1.07067 2.508,-1.07067 1.598667,0 2.522667,1.04134 0.924,1.04133 0.924,2.83066 0,1.78934 -0.953333,2.87467 -0.953334,1.08533 -2.537334,1.08533 z m 0.07333,-6.864 q -1.026667,0 -1.613334,0.71867 -0.586666,0.71867 -0.645333,2.03867 0,0 0,0.19066 0,1.37867 0.572,2.17067 0.586667,0.77733 1.628,0.77733 1.070667,0 1.672,-0.77733 0.616,-0.792 0.616,-2.18533 0,-2.93334 -2.229333,-2.93334 z"
       style="font-size:14.6667px;font-family:'American Typewriter';text-anchor:middle;fill:#a91913"
       id="path275" />
    <path
       d="m 23.707833,352.64267 q -0.117333,1.21733 -0.132,2.88933 0.469334,-0.616 0.953334,-0.86533 0.484,-0.24934 1.217333,-0.24934 1.466667,0 2.332,1.02667 0.865334,1.02667 0.865334,2.728 0,1.86267 -0.924,2.97733 -0.909334,1.1 -2.464,1.1 -1.510667,0 -2.185334,-1.12933 0.05867,0.42533 0.05867,0.46933 0,0.528 -0.513334,0.528 -0.513333,0 -0.513333,-0.73333 0,-0.20533 0.01467,-0.308 0,-0.33733 0.01467,-0.71867 l 0.044,-1.12933 0.02933,-1.48133 -0.02933,-3.916 q -0.01467,-0.54267 -0.117333,-0.73334 -0.088,-0.19066 -0.322667,-0.19066 -0.044,0 -0.381333,0.0587 -0.161333,0.0293 -0.278667,0.0293 -0.498666,0 -0.498666,-0.46934 0,-0.484 0.586666,-0.484 0.176,0 0.293334,0.0147 l 0.352,0.044 q 0.234666,0.0293 0.381333,0.0293 0.161333,0 0.454667,-0.044 0.293333,-0.0587 0.44,-0.0587 0.322666,0 0.322666,0.41066 z m -0.01467,4.25333 q -0.102667,0.46933 -0.102667,1.32 0,1.452 0.234667,1.99467 0.454667,1.07066 1.730667,1.07066 1.012,0 1.598666,-0.792 0.601334,-0.80666 0.601334,-2.156 0,-1.37866 -0.572,-2.156 -0.557334,-0.792 -1.54,-0.792 -0.689334,0 -1.246667,0.44 -0.557334,0.42534 -0.704,1.07067 z"
       style="font-size:14.6667px;font-family:'American Typewriter';text-anchor:middle;fill:#a91913"
       id="path277" />
    <path
       d="m 36.73848,357.688 q 0,0.55733 -0.07333,0.68933 -0.07333,0.11734 -0.425334,0.11734 h -4.664 q -0.190666,0 -0.249333,0.0587 -0.05867,0.044 -0.05867,0.16134 0,1.1 0.66,1.83333 0.66,0.73333 1.642667,0.73333 0.645333,0 1.173333,-0.352 0.542667,-0.352 0.704,-0.89466 l 0.132,-0.42534 q 0.102667,-0.352 0.484,-0.352 0.542667,0 0.542667,0.55734 0,0.95333 -0.968,1.70133 -0.968,0.73333 -2.2,0.73333 -1.54,0 -2.449333,-1.02666 -0.909334,-1.04134 -0.909334,-2.78667 0,-1.78933 0.968,-2.904 0.968,-1.11467 2.522667,-1.11467 1.378667,0 2.273333,0.924 0.894667,0.924 0.894667,2.34667 z m -5.324,-0.38133 q 0,0.20533 0.322667,0.20533 h 3.505333 q 0.308,0 0.308,-0.20533 0,-0.77734 -0.586667,-1.34934 -0.586666,-0.572 -1.378666,-0.572 -0.821334,0 -1.496,0.60134 -0.674667,0.58666 -0.674667,1.32 z"
       style="font-size:14.6667px;font-family:'American Typewriter';text-anchor:middle;fill:#a91913"
       id="path279" />
    <path
       d="m 40.028855,355.092 v 0.396 q 0.762667,-1.07067 2.038667,-1.07067 1.026666,0 1.657333,0.58667 0.645333,0.572 0.645333,1.48133 0,0.64534 -0.322666,1.056 -0.322667,0.396 -0.850667,0.396 -0.337333,0 -0.572,-0.20533 -0.234667,-0.20533 -0.234667,-0.49867 0,-0.23466 0.176,-0.41066 0.176,-0.19067 0.410667,-0.19067 0.044,0 0.190667,0.044 0.088,-0.176 0.088,-0.32267 0,-0.42533 -0.381334,-0.71866 -0.366666,-0.29334 -0.924,-0.29334 -1.144,0 -1.525333,1.02667 -0.234667,0.63067 -0.234667,1.90667 v 0.968 q 0,0.98266 0.01467,1.1 0.07333,0.836 0.454667,0.836 0.190666,0 0.396,-0.0587 0.161333,-0.044 0.278666,-0.044 0.469334,0 0.469334,0.46933 0,0.51334 -0.601334,0.51334 h -0.05867 q -0.22,0 -0.674667,-0.0587 -0.44,-0.044 -0.66,-0.044 -0.586667,0 -0.924,0.0293 l -0.821333,0.0733 q -0.601334,0 -0.601334,-0.51334 0,-0.45466 0.557334,-0.45466 0.146666,0 0.22,0.0147 l 0.22,0.044 q 0.146666,0.0293 0.205333,0.0293 0.366667,0 0.396,-0.67467 l 0.02933,-0.748 -0.044,-3.32933 q -0.044,-0.86534 -0.44,-0.86534 -0.117333,0 -0.322666,0.044 -0.205334,0.044 -0.322667,0.044 -0.484,0 -0.484,-0.46933 0,-0.51333 0.630667,-0.51333 0.146666,0 0.44,0.044 0.293333,0.0293 0.44,0.0293 0.117333,0 0.381333,-0.0293 0.117333,-0.0293 0.278667,-0.0293 0.381333,0 0.381333,0.41067 z"
       style="font-size:14.6667px;font-family:'American Typewriter';text-anchor:middle;fill:#a91913"
       id="path281" />
    <path
       d="m 48.377627,362.24933 q -1.54,0 -2.464,-1.056 -0.924,-1.07066 -0.924,-2.86 0,-1.78933 0.924,-2.84533 0.938667,-1.07067 2.508,-1.07067 1.598667,0 2.522667,1.04134 0.924,1.04133 0.924,2.83066 0,1.78934 -0.953334,2.87467 -0.953333,1.08533 -2.537333,1.08533 z m 0.07333,-6.864 q -1.026666,0 -1.613333,0.71867 -0.586667,0.71867 -0.645333,2.03867 0,0 0,0.19066 0,1.37867 0.572,2.17067 0.586666,0.77733 1.628,0.77733 1.070666,0 1.672,-0.77733 0.616,-0.792 0.616,-2.18533 0,-2.93334 -2.229334,-2.93334 z"
       style="font-size:14.6667px;font-family:'American Typewriter';text-anchor:middle;fill:#a91913"
       id="path283" />
    <path
       d="m 55.269126,355.12133 v 0.41067 q 0.88,-1.11467 2.346667,-1.11467 0.792,0 1.496,0.41067 0.704,0.396 0.953333,0.99733 0.205333,0.49867 0.205333,1.30534 v 2.78666 q 0,0.63067 0.01467,0.748 0.07333,0.49867 0.396,0.49867 0.132,0 0.337333,-0.0293 0.22,-0.044 0.308,-0.044 0.190667,0 0.322667,0.132 0.146667,0.132 0.146667,0.32266 0,0.22 -0.176,0.36667 -0.176,0.14667 -0.425334,0.14667 -0.205333,0 -0.674666,-0.0587 -0.469334,-0.0587 -0.88,-0.0587 -0.381334,0 -0.630667,0.0293 -0.733333,0.088 -0.777333,0.088 -0.586667,0 -0.586667,-0.51334 0,-0.45466 0.498667,-0.45466 0.117333,0 0.264,0.0293 0.278666,0.0587 0.352,0.0587 0.352,0 0.381333,-0.80667 l 0.02933,-0.748 0.01467,-0.89467 v -1.11466 q 0,-0.77734 -0.07333,-1.07067 -0.132,-0.55733 -0.572,-0.86533 -0.484,-0.33734 -1.1,-0.33734 -1.173334,0 -1.686667,0.836 -0.352,0.572 -0.352,1.95067 v 1.95067 q 0,0.64533 0.088,0.88 0.088,0.23466 0.322666,0.23466 0.117334,0 0.322667,-0.0587 0.205333,-0.0587 0.337333,-0.0587 0.454667,0 0.454667,0.49867 0,0.484 -0.586667,0.484 -0.117333,0 -0.762666,-0.088 -0.322667,-0.044 -0.718667,-0.044 -0.308,0 -0.821333,0.0587 -0.645334,0.0733 -0.733334,0.0733 -0.616,0 -0.616,-0.49867 0,-0.46933 0.469334,-0.46933 0.07333,0 0.264,0.044 0.205333,0.044 0.396,0.044 0.44,0 0.454666,-0.85067 l 0.02933,-1.628 v -1.77467 l -0.02933,-0.51333 q -0.02933,-0.49867 -0.132,-0.67467 -0.088,-0.19066 -0.322666,-0.19066 -0.102667,0 -0.308,0.044 -0.190667,0.0293 -0.293334,0.0293 -0.528,0 -0.528,-0.46933 0,-0.484 0.66,-0.484 0.088,0 0.146667,0.0147 l 0.542667,0.0587 q 0.234666,0 0.410666,-0.0293 0.381334,-0.0293 0.396,-0.0293 0.425334,0 0.425334,0.44 z"
       style="font-size:14.6667px;font-family:'American Typewriter';text-anchor:middle;fill:#a91913"
       id="path285" />
  </g>
  <!-- ======== knobs and switches ======== -->
  <g
     aria-label="RATIO"
     id="text52"
     style="font-weight:bold;font-size:10px;font-family:Helvetica;text-anchor:middle;fill:#343434"
     class="big-label">
    <path
       d="M 26.132812,49.177734 H 24.580078 V 52 h -1.469726 v -7.197266 h 3.530273 q 0.756836,0.01465 1.162109,0.185547 0.410157,0.170899 0.69336,0.50293 0.234375,0.273437 0.371093,0.605469 0.136719,0.332031 0.136719,0.756836 0,0.512695 -0.258789,1.010742 -0.258789,0.493164 -0.854492,0.698242 0.498047,0.200195 0.703125,0.571289 0.209961,0.366211 0.209961,1.123047 v 0.483398 q 0,0.493164 0.03906,0.668946 0.05859,0.27832 0.273438,0.410156 V 52 h -1.655274 q -0.06836,-0.239258 -0.09766,-0.385742 -0.05859,-0.302735 -0.06348,-0.620117 l -0.0098,-0.668946 q -0.0098,-0.688476 -0.253906,-0.917968 -0.239258,-0.229493 -0.903321,-0.229493 z m 0.913086,-1.308593 q 0.449219,-0.205079 0.449219,-0.810547 0,-0.654297 -0.43457,-0.878907 -0.244141,-0.126953 -0.732422,-0.126953 h -1.748047 v 1.933594 h 1.704102 q 0.507812,0 0.761718,-0.117187 z"
       style="font-weight:bold;font-size:10px;font-family:Helvetica;text-anchor:middle;fill:#343434"
       id="path313" />
    <path
       d="M 34.516602,50.520508 H 31.865234 L 31.367187,52 h -1.572265 l 2.568359,-7.197266 H 34.0625 L 36.611328,52 h -1.630859 z m -0.419922,-1.240235 -0.898438,-2.832031 -0.927734,2.832031 z"
       style="font-weight:bold;font-size:10px;font-family:Helvetica;text-anchor:middle;fill:#343434"
       id="path315" />
    <path
       d="m 42.019043,44.802734 v 1.274414 h -2.15332 V 52 h -1.513672 v -5.922852 h -2.163086 v -1.274414 z"
       style="font-weight:bold;font-size:10px;font-family:Helvetica;text-anchor:middle;fill:#343434"
       id="path317" />
    <path
       d="m 42.783203,44.802734 h 1.494141 V 52 h -1.494141 z"
       style="font-weight:bold;font-size:10px;font-family:Helvetica;text-anchor:middle;fill:#343434"
       id="path319" />
    <path
       d="m 48.857422,52.200195 q -1.542969,0 -2.358399,-0.839843 -1.09375,-1.030274 -1.09375,-2.96875 0,-1.97754 1.09375,-2.96875 0.81543,-0.839844 2.358399,-0.839844 1.542969,0 2.358398,0.839844 1.088867,0.99121 1.088867,2.96875 0,1.938476 -1.088867,2.96875 -0.815429,0.839843 -2.358398,0.839843 z m 1.420898,-1.933593 q 0.522461,-0.65918 0.522461,-1.875 0,-1.210938 -0.527344,-1.870118 -0.52246,-0.664062 -1.416015,-0.664062 -0.893555,0 -1.425781,0.65918 -0.532227,0.659179 -0.532227,1.875 0,1.21582 0.532227,1.875 0.532226,0.659179 1.425781,0.659179 0.893555,0 1.420898,-0.659179 z"
       style="font-weight:bold;font-size:10px;font-family:Helvetica;text-anchor:middle;fill:#343434"
       id="path321" />
  </g>
  <g
     id="use54"
     transform="translate(17.5,56)">
    <g
       transform="translate(20,20)"
       id="g172">
      <path
         id="circle170"
         style="fill:url(#linearGradient176)"
         transform="rotate(90)"
         d="M 19.5,0 A 19.5,19.5 0 0 1 0,19.5 19.5,19.5 0 0 1 -19.5,0 19.5,19.5 0 0 1 0,-19.5 19.5,19.5 0 0 1 19.5,0 Z" />
    </g>
  </g>
  <g
     id="use58"
     transform="translate(25.5,105)">
    <g
       transform="translate(12,7)"
       id="g186" />
  </g>
  <g
     transform="translate(56.5,112)"
     id="g62">
    <path
       id="polyline60"
       style="fill:none;stroke:#343434;stroke-width:1.2"
       d="M -4,4 4,-4"
       class="icon" />
  </g>
  <g
     transform="translate(18.5,112)"
     id="g66">
    <path
       id="polyline64"
       style="fill:none;stroke:#343434;stroke-width:1.2"
       d="M -4,4 V 0 h 4 v -4 h 4"
       class="icon" />
  </g>
  <g
     aria-label="OFFSET"
     id="text70"
     style="font-weight:bold;font-size:10px;font-family:Helvetica;text-anchor:middle;fill:#343434"
     class="big-label">
    <path
       d="m 21.708984,152.2002 q -1.542968,0 -2.358398,-0.83985 -1.09375,-1.03027 -1.09375,-2.96875 0,-1.97754 1.09375,-2.96875 0.81543,-0.83984 2.358398,-0.83984 1.542969,0 2.358399,0.83984 1.088867,0.99121 1.088867,2.96875 0,1.93848 -1.088867,2.96875 -0.81543,0.83985 -2.358399,0.83985 z m 1.420899,-1.9336 q 0.522461,-0.65918 0.522461,-1.875 0,-1.21094 -0.527344,-1.87012 -0.522461,-0.66406 -1.416016,-0.66406 -0.893554,0 -1.425781,0.65918 -0.532226,0.65918 -0.532226,1.875 0,1.21582 0.532226,1.875 0.532227,0.65918 1.425781,0.65918 0.893555,0 1.420899,-0.65918 z"
       style="font-weight:bold;font-size:10px;font-family:Helvetica;text-anchor:middle;fill:#343434"
       id="path260" />
    <path
       d="m 31.401367,146.07715 h -3.608398 v 1.65527 h 3.159179 v 1.25 H 27.792969 V 152 h -1.494141 v -7.1875 h 5.102539 z"
       style="font-weight:bold;font-size:10px;font-family:Helvetica;text-anchor:middle;fill:#343434"
       id="path262" />
    <path
       d="M 37.514648,146.07715 H 33.90625 v 1.65527 h 3.15918 v 1.25 H 33.90625 V 152 h -1.494141 v -7.1875 h 5.102539 z"
       style="font-weight:bold;font-size:10px;font-family:Helvetica;text-anchor:middle;fill:#343434"
       id="path264" />
    <path
       d="m 41.137695,150.95996 q 0.532227,0 0.864258,-0.11719 0.629883,-0.22461 0.629883,-0.83496 0,-0.35644 -0.3125,-0.55176 -0.3125,-0.19043 -0.981445,-0.33691 l -0.761719,-0.1709 q -1.123047,-0.2539 -1.552735,-0.55176 -0.727539,-0.49804 -0.727539,-1.55761 0,-0.9668 0.703125,-1.60645 0.703125,-0.63965 2.06543,-0.63965 1.137695,0 1.938477,0.60547 0.805664,0.60059 0.844726,1.74805 h -1.445312 q -0.03906,-0.64942 -0.566407,-0.92285 -0.351562,-0.18067 -0.874023,-0.18067 -0.581055,0 -0.927734,0.23438 -0.34668,0.23437 -0.34668,0.6543 0,0.38574 0.341797,0.57617 0.219726,0.12695 0.9375,0.29785 l 1.240234,0.29785 q 0.81543,0.19531 1.230469,0.52246 0.644531,0.50781 0.644531,1.46973 0,0.98633 -0.756836,1.64062 -0.751953,0.64942 -2.128906,0.64942 -1.40625,0 -2.211914,-0.63965 -0.805664,-0.64453 -0.805664,-1.76758 h 1.435547 q 0.06836,0.49316 0.268554,0.7373 0.366211,0.44434 1.254883,0.44434 z"
       style="font-weight:bold;font-size:10px;font-family:Helvetica;text-anchor:middle;fill:#343434"
       id="path266" />
    <path
       d="M 50.214844,148.85547 H 46.71875 v 1.85058 h 3.984375 V 152 h -5.454102 v -7.19727 h 5.278321 v 1.27442 H 46.71875 v 1.52832 h 3.496094 z"
       style="font-weight:bold;font-size:10px;font-family:Helvetica;text-anchor:middle;fill:#343434"
       id="path268" />
    <path
       d="m 57.114258,144.80273 v 1.27442 H 54.960937 V 152 h -1.513671 v -5.92285 H 51.28418 v -1.27442 z"
       style="font-weight:bold;font-size:10px;font-family:Helvetica;text-anchor:middle;fill:#343434"
       id="path270" />
  </g>
  <g
     id="use72"
     transform="translate(17.5,156)">
    <g
       transform="translate(20,20)"
       id="g192">
      <path
         id="circle190"
         style="fill:url(#linearGradient196)"
         transform="rotate(90)"
         d="M 19.5,0 A 19.5,19.5 0 0 1 0,19.5 19.5,19.5 0 0 1 -19.5,0 19.5,19.5 0 0 1 0,-19.5 19.5,19.5 0 0 1 19.5,0 Z" />
    </g>
  </g>
  <!-- ======== row 1 ======== -->
  <path
     id="polyline76"
     transform="translate(19.5,236)"
     style="fill:none;stroke:#343434;stroke-width:1"
     d="M 0,0 V 42"
     class="connect" />
  <g
     transform="translate(19.5,251)"
     id="g84">
    <path
       id="polyline78"
       style="fill:none;stroke:#343434;stroke-width:1.2"
       d="m -7,0 h 4"
       class="icon" />
    <path
       id="polyline80"
       style="fill:none;stroke:#343434;stroke-width:1.2"
       d="M 7,0 H 3"
       class="icon" />
    <path
       id="polyline82"
       style="fill:none;stroke:#343434;stroke-width:1.2"
       d="M 5,-2 V 2"
       class="icon" />
  </g>
  <g
     id="use88"
     transform="translate(10.5,227)">
    <g
       transform="translate(9,9)"
       id="g204">
      <path
         id="circle198"
         style="fill:none;stroke:#222222"
         d="M 8.5,0 A 8.5,8.5 0 0 1 0,8.5 8.5,8.5 0 0 1 -8.5,0 8.5,8.5 0 0 1 0,-8.5 8.5,8.5 0 0 1 8.5,0 Z" />
      <path
         id="circle200"
         style="fill:url(#linearGradient208)"
         transform="rotate(90)"
         d="M 8,0 A 8,8 0 0 1 0,8 8,8 0 0 1 -8,0 8,8 0 0 1 0,-8 8,8 0 0 1 8,0 Z" />
      <path
         id="circle202"
         style="fill:url(#linearGradient210)"
         transform="rotate(90)"
         d="M 7,0 A 7,7 0 0 1 0,7 7,7 0 0 1 -7,0 7,7 0 0 1 0,-7 7,7 0 0 1 7,0 Z" />
    </g>
  </g>
  <path
     id="polyline92"
     transform="translate(55.5,236)"
     style="fill:none;stroke:#343434;stroke-width:1"
     d="M 0,0 V 42"
     class="connect" />
  <g
     transform="translate(55.5,251)"
     id="g100">
    <path
       id="polyline94"
       style="fill:none;stroke:#343434;stroke-width:1.2"
       d="m -7,0 h 4"
       class="icon" />
    <path
       id="polyline96"
       style="fill:none;stroke:#343434;stroke-width:1.2"
       d="M 7,0 H 3"
       class="icon" />
    <path
       id="polyline98"
       style="fill:none;stroke:#343434;stroke-width:1.2"
       d="M 5,-2 V 2"
       class="icon" />
  </g>
  <g
     id="use104"
     transform="translate(46.5,227)">
    <g
       transform="translate(9,9)"
       id="g218">
      <path
         id="circle212"
         style="fill:none;stroke:#222222"
         d="M 8.5,0 A 8.5,8.5 0 0 1 0,8.5 8.5,8.5 0 0 1 -8.5,0 8.5,8.5 0 0 1 0,-8.5 8.5,8.5 0 0 1 8.5,0 Z" />
      <path
         id="circle214"
         style="fill:url(#linearGradient222)"
         transform="rotate(90)"
         d="M 8,0 A 8,8 0 0 1 0,8 8,8 0 0 1 -8,0 8,8 0 0 1 0,-8 8,8 0 0 1 8,0 Z" />
      <path
         id="circle216"
         style="fill:url(#linearGradient224)"
         transform="rotate(90)"
         d="M 7,0 A 7,7 0 0 1 0,7 7,7 0 0 1 -7,0 7,7 0 0 1 0,-7 7,7 0 0 1 7,0 Z" />
    </g>
  </g>
  <!-- ======== row 2 ======== -->
  <g
     id="use108"
     transform="translate(7.5,266)">
    <g
       transform="translate(12,12)"
       id="g178" />
  </g>
  <g
     aria-label="RAT"
     id="text110"
     style="font-weight:bold;font-size:8px;font-family:Helvetica;text-anchor:middle;fill:#343434"
     class="label">
    <path
       d="M 14.625,297.74219 H 13.382813 V 300 h -1.175782 v -5.75781 h 2.824219 q 0.605469,0.0117 0.929688,0.14843 0.328124,0.13672 0.554687,0.40235 0.1875,0.21875 0.296875,0.48437 0.109375,0.26563 0.109375,0.60547 0,0.41016 -0.207031,0.8086 -0.207032,0.39453 -0.683594,0.55859 0.398437,0.16016 0.5625,0.45703 0.167969,0.29297 0.167969,0.89844 v 0.38672 q 0,0.39453 0.03125,0.53515 0.04687,0.22266 0.21875,0.32813 V 300 H 15.6875 q -0.05469,-0.19141 -0.07813,-0.30859 -0.04687,-0.24219 -0.05078,-0.4961 l -0.0078,-0.53515 q -0.0078,-0.55079 -0.203125,-0.73438 -0.191406,-0.18359 -0.722656,-0.18359 z m 0.730469,-1.04688 q 0.359375,-0.16406 0.359375,-0.64844 0,-0.52343 -0.347656,-0.70312 -0.195313,-0.10156 -0.585938,-0.10156 h -1.398437 v 1.54687 h 1.363281 q 0.40625,0 0.609375,-0.0937 z"
       style="font-weight:bold;font-size:8px;font-family:Helvetica;text-anchor:middle;fill:#343434"
       id="path301" />
    <path
       d="M 21.332031,298.81641 H 19.210937 L 18.8125,300 h -1.257813 l 2.054688,-5.75781 H 20.96875 L 23.007812,300 h -1.304687 z m -0.335937,-0.99219 -0.71875,-2.26563 -0.742188,2.26563 z"
       style="font-weight:bold;font-size:8px;font-family:Helvetica;text-anchor:middle;fill:#343434"
       id="path303" />
    <path
       d="m 27.333984,294.24219 v 1.01953 H 25.611328 V 300 h -1.210937 v -4.73828 h -1.730469 v -1.01953 z"
       style="font-weight:bold;font-size:8px;font-family:Helvetica;text-anchor:middle;fill:#343434"
       id="path305" />
  </g>
  <g
     id="use114"
     transform="translate(43.5,266)">
    <g
       transform="translate(12,12)"
       id="g226" />
  </g>
  <g
     aria-label="OFS"
     id="text116"
     style="font-weight:bold;font-size:8px;font-family:Helvetica;text-anchor:middle;fill:#343434"
     class="label">
    <path
       d="m 50.429687,300.16016 q -1.234375,0 -1.886718,-0.67188 -0.875,-0.82422 -0.875,-2.375 0,-1.58203 0.875,-2.375 0.652343,-0.67187 1.886718,-0.67187 1.234375,0 1.886719,0.67187 0.871094,0.79297 0.871094,2.375 0,1.55078 -0.871094,2.375 -0.652344,0.67188 -1.886719,0.67188 z m 1.136719,-1.54688 q 0.417969,-0.52734 0.417969,-1.5 0,-0.96875 -0.421875,-1.49609 -0.417969,-0.53125 -1.132813,-0.53125 -0.714843,0 -1.140625,0.52734 -0.425781,0.52734 -0.425781,1.5 0,0.97266 0.425781,1.5 0.425782,0.52734 1.140625,0.52734 0.714844,0 1.136719,-0.52734 z"
       style="font-weight:bold;font-size:8px;font-family:Helvetica;text-anchor:middle;fill:#343434"
       id="path242" />
    <path
       d="m 58.183594,295.26172 h -2.886719 v 1.32422 h 2.527344 v 1 H 55.296875 V 300 h -1.195313 v -5.75 h 4.082032 z"
       style="font-weight:bold;font-size:8px;font-family:Helvetica;text-anchor:middle;fill:#343434"
       id="path244" />
    <path
       d="m 61.082031,299.16797 q 0.425781,0 0.691406,-0.0937 0.503907,-0.17969 0.503907,-0.66797 0,-0.28516 -0.25,-0.44141 -0.25,-0.15234 -0.785157,-0.26953 l -0.609375,-0.13672 q -0.898437,-0.20312 -1.242187,-0.4414 -0.582031,-0.39844 -0.582031,-1.2461 0,-0.77343 0.5625,-1.28515 0.5625,-0.51172 1.652343,-0.51172 0.910157,0 1.550782,0.48437 0.644531,0.48047 0.675781,1.39844 h -1.15625 q -0.03125,-0.51953 -0.453125,-0.73828 -0.28125,-0.14453 -0.699219,-0.14453 -0.464844,0 -0.742187,0.1875 -0.277344,0.1875 -0.277344,0.52344 0,0.30859 0.273437,0.46093 0.175782,0.10157 0.75,0.23828 l 0.992188,0.23829 q 0.652344,0.15625 0.984375,0.41796 0.515625,0.40625 0.515625,1.17579 0,0.78906 -0.605469,1.3125 -0.601562,0.51953 -1.703125,0.51953 -1.125,0 -1.769531,-0.51172 -0.644531,-0.51563 -0.644531,-1.41406 h 1.148437 q 0.05469,0.39453 0.214844,0.58984 0.292969,0.35547 1.003906,0.35547 z"
       style="font-weight:bold;font-size:8px;font-family:Helvetica;text-anchor:middle;fill:#343434"
       id="path246" />
  </g>
  <!-- ======== row 3 ======== -->
  <g
     id="use120"
     transform="translate(7.5,308)">
    <g
       transform="translate(12,12)"
       id="g182" />
  </g>
  <g
     aria-label="CAR"
     id="text122"
     style="font-weight:bold;font-size:8px;font-family:Helvetica;text-anchor:middle;fill:#343434"
     class="label">
    <path
       d="m 15.5,341.57031 q -0.644531,0.58985 -1.648437,0.58985 -1.242188,0 -1.953125,-0.79688 -0.710938,-0.80078 -0.710938,-2.19531 0,-1.50781 0.808594,-2.32422 0.703125,-0.71094 1.789062,-0.71094 1.453125,0 2.125,0.95313 0.371094,0.53515 0.398438,1.07422 h -1.203125 q -0.117188,-0.41407 -0.300781,-0.625 -0.328125,-0.375 -0.972657,-0.375 -0.65625,0 -1.035156,0.53125 -0.378906,0.52734 -0.378906,1.49609 0,0.96875 0.398437,1.45312 0.402344,0.48047 1.019532,0.48047 0.632812,0 0.964843,-0.41406 0.183594,-0.22266 0.304688,-0.66797 h 1.191406 q -0.15625,0.94141 -0.796875,1.53125 z"
       style="font-weight:bold;font-size:8px;font-family:Helvetica;text-anchor:middle;fill:#343434"
       id="path294" />
    <path
       d="M 20.589844,340.81641 H 18.46875 L 18.070312,342 H 16.8125 l 2.054687,-5.75781 h 1.359375 L 22.265625,342 h -1.304688 z m -0.335938,-0.99219 -0.71875,-2.26563 -0.742187,2.26563 z"
       style="font-weight:bold;font-size:8px;font-family:Helvetica;text-anchor:middle;fill:#343434"
       id="path296" />
    <path
       d="M 25.445312,339.74219 H 24.203125 V 342 h -1.175781 v -5.75781 h 2.824218 q 0.605469,0.0117 0.929688,0.14843 0.328125,0.13672 0.554687,0.40235 0.1875,0.21875 0.296875,0.48437 0.109375,0.26563 0.109375,0.60547 0,0.41016 -0.207031,0.8086 -0.207031,0.39453 -0.683594,0.55859 0.398438,0.16016 0.5625,0.45703 0.167969,0.29297 0.167969,0.89844 v 0.38672 q 0,0.39453 0.03125,0.53515 0.04687,0.22266 0.21875,0.32813 V 342 h -1.324219 q -0.05469,-0.19141 -0.07813,-0.30859 -0.04687,-0.24219 -0.05078,-0.4961 l -0.0078,-0.53515 q -0.0078,-0.55079 -0.203125,-0.73438 -0.191407,-0.18359 -0.722657,-0.18359 z m 0.730469,-1.04688 q 0.359375,-0.16406 0.359375,-0.64844 0,-0.52343 -0.347656,-0.70312 -0.195313,-0.10156 -0.585938,-0.10156 h -1.398437 v 1.54687 h 1.363281 q 0.40625,0 0.609375,-0.0937 z"
       style="font-weight:bold;font-size:8px;font-family:Helvetica;text-anchor:middle;fill:#343434"
       id="path298" />
  </g>
  <path
     id="rect126"
     style="fill:#c1c1c1"
     d="m 42.5,304 h 26 c 1.662,0 3,1.338 3,3 v 36 c 0,1.662 -1.338,3 -3,3 h -26 c -1.662,0 -3,-1.338 -3,-3 v -36 c 0,-1.662 1.338,-3 3,-3 z"
     class="output" />
  <g
     id="use128"
     transform="translate(43.5,308)">
    <g
       transform="translate(12,12)"
       id="g230" />
  </g>
  <g
     aria-label="MOD"
     id="text130"
     style="font-weight:bold;font-size:8px;font-family:Helvetica;text-anchor:middle;fill:#343434"
     class="label">
    <path
       d="m 47.875,342 h -1.121094 v -5.75781 h 1.75 l 1.046875,4.52734 1.039063,-4.52734 h 1.730468 V 342 h -1.121093 v -3.89453 q 0,-0.16797 0.0039,-0.46875 0.0039,-0.30469 0.0039,-0.46875 L 50.117187,342 h -1.167968 l -1.082032,-4.83203 q 0,0.16406 0.0039,0.46875 0.0039,0.30078 0.0039,0.46875 z"
       style="font-weight:bold;font-size:8px;font-family:Helvetica;text-anchor:middle;fill:#343434"
       id="path234" />
    <path
       d="m 55.992187,342.16016 q -1.234375,0 -1.886718,-0.67188 -0.875,-0.82422 -0.875,-2.375 0,-1.58203 0.875,-2.375 0.652343,-0.67187 1.886718,-0.67187 1.234375,0 1.886719,0.67187 0.871094,0.79297 0.871094,2.375 0,1.55078 -0.871094,2.375 -0.652344,0.67188 -1.886719,0.67188 z m 1.136719,-1.54688 q 0.417969,-0.52734 0.417969,-1.5 0,-0.96875 -0.421875,-1.49609 -0.417969,-0.53125 -1.132813,-0.53125 -0.714843,0 -1.140625,0.52734 -0.425781,0.52734 -0.425781,1.5 0,0.97266 0.425781,1.5 0.425782,0.52734 1.140625,0.52734 0.714844,0 1.136719,-0.52734 z"
       style="font-weight:bold;font-size:8px;font-family:Helvetica;text-anchor:middle;fill:#343434"
       id="path236" />
    <path
       d="m 62.144531,342 h -2.480469 v -5.75781 h 2.480469 q 0.535156,0.008 0.890625,0.125 0.605469,0.19922 0.980469,0.73047 0.300781,0.42968 0.410156,0.92968 0.109375,0.5 0.109375,0.95313 0,1.14844 -0.460937,1.94531 Q 63.449219,342 62.144531,342 Z m 0.894531,-4.28906 q -0.277343,-0.46875 -1.097656,-0.46875 H 60.832031 V 341 h 1.109375 q 0.851563,0 1.1875,-0.83984 0.183594,-0.46094 0.183594,-1.09766 0,-0.87891 -0.273438,-1.35156 z"
       style="font-weight:bold;font-size:8px;font-family:Helvetica;text-anchor:middle;fill:#343434"
       id="path238" />
  </g>
</svg>
