<?xml version="1.0" encoding="UTF-8" standalone="no"?>
<svg
   xmlns:dc="http://purl.org/dc/elements/1.1/"
   xmlns:cc="http://creativecommons.org/ns#"
   xmlns:rdf="http://www.w3.org/1999/02/22-rdf-syntax-ns#"
   xmlns:svg="http://www.w3.org/2000/svg"
   xmlns="http://www.w3.org/2000/svg"
   xmlns:sodipodi="http://sodipodi.sourceforge.net/DTD/sodipodi-0.dtd"
   xmlns:inkscape="http://www.inkscape.org/namespaces/inkscape"
   version="1.1"
   width="18"
   height="18"
   viewBox="0 0 18 18"
   id="svg10"
   sodipodi:docname="knob18.svg"
   inkscape:version="1.0.2 (e86c8708, 2021-01-15)">
  <metadata
     id="metadata16">
    <rdf:RDF>
      <cc:Work
         rdf:about="">
        <dc:format>image/svg+xml</dc:format>
        <dc:type
           rdf:resource="http://purl.org/dc/dcmitype/StillImage" />
      </cc:Work>
    </rdf:RDF>
  </metadata>
  <defs
     id="defs14" />
  <sodipodi:namedview
     pagecolor="#ffffff"
     bordercolor="#666666"
     borderopacity="1"
     objecttolerance="10"
     gridtolerance="10"
     guidetolerance="10"
     inkscape:pageopacity="0"
     inkscape:pageshadow="2"
     inkscape:window-width="689"
     inkscape:window-height="480"
     id="namedview12"
     showgrid="false"
     inkscape:zoom="45.944444"
     inkscape:cx="9"
     inkscape:cy="9"
     inkscape:window-x="0"
     inkscape:window-y="25"
     inkscape:window-maximized="0"
     inkscape:current-layer="svg10" />
  <path
     id="circle2"
     style="fill:#555555"
     d="M 18,9 A 9,9 0 0 1 9,18 9,9 0 0 1 0,9 9,9 0 0 1 9,0 9,9 0 0 1 18,9 Z" />
  <path
     id="circle4"
     style="fill:#222222"
     d="M 16,9 A 7,7 0 0 1 9,16 7,7 0 0 1 2,9 7,7 0 0 1 9,2 7,7 0 0 1 16,9 Z" />
  <path
     id="polyline6"
     transform="translate(9,9)"
     style="fill:none;stroke:#eeeeee;stroke-width:2;stroke-linecap:round"
     d="M 0,-6 V 0" />
</svg>
