<?xml version="1.0" encoding="UTF-8" standalone="no"?>
<svg
   xmlns:dc="http://purl.org/dc/elements/1.1/"
   xmlns:cc="http://creativecommons.org/ns#"
   xmlns:rdf="http://www.w3.org/1999/02/22-rdf-syntax-ns#"
   xmlns:svg="http://www.w3.org/2000/svg"
   xmlns="http://www.w3.org/2000/svg"
   xmlns:sodipodi="http://sodipodi.sourceforge.net/DTD/sodipodi-0.dtd"
   xmlns:inkscape="http://www.inkscape.org/namespaces/inkscape"
   version="1.1"
   width="40"
   height="40"
   viewBox="0 0 40 40"
   id="svg10"
   sodipodi:docname="knob40.svg"
   inkscape:version="1.0.2 (e86c8708, 2021-01-15)">
  <metadata
     id="metadata16">
    <rdf:RDF>
      <cc:Work
         rdf:about="">
        <dc:format>image/svg+xml</dc:format>
        <dc:type
           rdf:resource="http://purl.org/dc/dcmitype/StillImage" />
      </cc:Work>
    </rdf:RDF>
  </metadata>
  <defs
     id="defs14" />
  <sodipodi:namedview
     pagecolor="#ffffff"
     bordercolor="#666666"
     borderopacity="1"
     objecttolerance="10"
     gridtolerance="10"
     guidetolerance="10"
     inkscape:pageopacity="0"
     inkscape:pageshadow="2"
     inkscape:window-width="689"
     inkscape:window-height="480"
     id="namedview12"
     showgrid="false"
     inkscape:zoom="20.675"
     inkscape:cx="20"
     inkscape:cy="20"
     inkscape:window-x="0"
     inkscape:window-y="25"
     inkscape:window-maximized="0"
     inkscape:current-layer="svg10" />
  <path
     id="circle2"
     style="fill:#222222"
     d="M 35.5,20 A 15.5,15.5 0 0 1 20,35.5 15.5,15.5 0 0 1 4.5,20 15.5,15.5 0 0 1 20,4.5 15.5,15.5 0 0 1 35.5,20 Z" />
  <path
     id="circle4"
     style="fill:#f0f0f0"
     d="M 34.5,20 A 14.5,14.5 0 0 1 20,34.5 14.5,14.5 0 0 1 5.5,20 14.5,14.5 0 0 1 20,5.5 14.5,14.5 0 0 1 34.5,20 Z" />
  <path
     id="polyline6"
     transform="translate(20,20)"
     style="fill:none;stroke:#343434;stroke-width:2.5;stroke-linecap:round"
     d="M 0,-14.5 V -2" />
</svg>
