<?xml version="1.0" encoding="UTF-8" standalone="no"?>
<svg
   xmlns:dc="http://purl.org/dc/elements/1.1/"
   xmlns:cc="http://creativecommons.org/ns#"
   xmlns:rdf="http://www.w3.org/1999/02/22-rdf-syntax-ns#"
   xmlns:svg="http://www.w3.org/2000/svg"
   xmlns="http://www.w3.org/2000/svg"
   xmlns:xlink="http://www.w3.org/1999/xlink"
   xmlns:sodipodi="http://sodipodi.sourceforge.net/DTD/sodipodi-0.dtd"
   xmlns:inkscape="http://www.inkscape.org/namespaces/inkscape"
   version="1.1"
   width="45"
   height="380"
   viewBox="0 0 45 380"
   id="svg112"
   sodipodi:docname="SAT.svg"
   inkscape:version="1.0.2 (e86c8708, 2021-01-15)">
  <metadata
     id="metadata116">
    <rdf:RDF>
      <cc:Work
         rdf:about="">
        <dc:format>image/svg+xml</dc:format>
        <dc:type
           rdf:resource="http://purl.org/dc/dcmitype/StillImage" />
      </cc:Work>
    </rdf:RDF>
  </metadata>
  <sodipodi:namedview
     pagecolor="#ffffff"
     bordercolor="#666666"
     borderopacity="1"
     objecttolerance="10"
     gridtolerance="10"
     guidetolerance="10"
     inkscape:pageopacity="0"
     inkscape:pageshadow="2"
     inkscape:window-width="689"
     inkscape:window-height="480"
     id="namedview114"
     showgrid="false"
     inkscape:zoom="2.1763158"
     inkscape:cx="22.5"
     inkscape:cy="190"
     inkscape:window-x="0"
     inkscape:window-y="25"
     inkscape:window-maximized="0"
     inkscape:current-layer="svg112" />
  <style
     id="style2">
    text.title {
      fill: #a91913;
      font-family: 'DIN Alternate';
      font-size: 12.5pt;
    }
    text.logo {
      fill: #a91913;
      font-family: 'DIN Alternate';
      font-size: 10pt;
    }
    text.big-label {
      fill: #343434;
      font-family: 'DIN Alternate';
      font-size: 7.5pt;
    }
    text.label {
      fill: #343434;
      font-family: 'DIN Alternate';
      font-size: 6pt;
    }
    .background {
      fill: #e0e0e0;
    }
    .output {
      fill: #bbbbbb;
    }
    polyline.icon {
      stroke: #343434;
      stroke-width: 1.2;
      fill: none;
    }
    polyline.connect {
      stroke: #343434;
      stroke-width: 1;
      fill: none;
    }

    .blueprint {
      stroke: #08f;
      fill: none;
    }
  </style>
  <!-- ======== defs ======== -->
  <defs
     id="defs60">
    <linearGradient
       id="smallKnobMediumGradient">
      <stop
         offset="5%"
         stop-color="#888"
         id="stop4" />
      <stop
         offset="95%"
         stop-color="#333"
         id="stop6" />
    </linearGradient>
    <linearGradient
       id="smallKnobDarkGradient">
      <stop
         offset="5%"
         stop-color="#444"
         id="stop9" />
      <stop
         offset="95%"
         stop-color="#222"
         id="stop11" />
    </linearGradient>
    <linearGradient
       id="bigKnobDarkGradient">
      <stop
         offset="5%"
         stop-color="#5c5c5c"
         id="stop14" />
      <stop
         offset="95%"
         stop-color="#282828"
         id="stop16" />
    </linearGradient>
    <linearGradient
       id="bigKnobMediumGradient">
      <stop
         offset="5%"
         stop-color="#888"
         id="stop19" />
      <stop
         offset="95%"
         stop-color="#333"
         id="stop21" />
    </linearGradient>
    <symbol
       id="knob18">
      <g
         transform="translate(9 9)"
         id="g30">
        <circle
           r="8.5"
           stroke="#222"
           fill="none"
           id="circle24" />
        <circle
           r="8"
           fill="url('#smallKnobMediumGradient')"
           transform="rotate(90)"
           id="circle26" />
        <circle
           r="7"
           fill="url('#smallKnobDarkGradient')"
           transform="rotate(90)"
           id="circle28" />
      </g>
    </symbol>
    <symbol
       id="knob32">
      <g
         transform="translate(16 16)"
         id="g37">
        <circle
           r="15.5"
           fill="url('#bigKnobDarkGradient')"
           transform="rotate(90)"
           id="circle33" />
        <circle
           r="13.5"
           fill="url('#bigKnobMediumGradient')"
           transform="rotate(90)"
           id="circle35" />
      </g>
    </symbol>
    <symbol
       id="knob40">
      <g
         transform="translate(20 20)"
         id="g44">
        <circle
           r="19.5"
           fill="url('#bigKnobDarkGradient')"
           transform="rotate(90)"
           id="circle40" />
        <circle
           r="17.5"
           fill="url('#bigKnobMediumGradient')"
           transform="rotate(90)"
           id="circle42" />
      </g>
    </symbol>
    <symbol
       id="knob50">
      <g
         transform="translate(25 25)"
         id="g51">
        <circle
           r="24.5"
           fill="url('#bigKnobDarkGradient')"
           transform="rotate(90)"
           id="circle47" />
        <circle
           r="22.5"
           fill="url('#bigKnobMediumGradient')"
           transform="rotate(90)"
           id="circle49" />
      </g>
    </symbol>
    <symbol
       id="port">
      <g
         transform="translate(12 12)"
         id="g54" />
    </symbol>
    <symbol
       id="hswitch14">
      <g
         transform="translate(12 7)"
         id="g57" />
    </symbol>
    <linearGradient
       inkscape:collect="always"
       xlink:href="#bigKnobDarkGradient"
       id="linearGradient153"
       x1="-15.5"
       y1="-15.5"
       x2="15.5"
       y2="-15.5"
       gradientUnits="userSpaceOnUse" />
    <linearGradient
       inkscape:collect="always"
       xlink:href="#bigKnobMediumGradient"
       id="linearGradient155"
       x1="-13.5"
       y1="-13.5"
       x2="13.5"
       y2="-13.5"
       gradientUnits="userSpaceOnUse" />
    <linearGradient
       inkscape:collect="always"
       xlink:href="#smallKnobMediumGradient"
       id="linearGradient167"
       x1="-8"
       y1="-8"
       x2="8"
       y2="-8"
       gradientUnits="userSpaceOnUse" />
    <linearGradient
       inkscape:collect="always"
       xlink:href="#smallKnobDarkGradient"
       id="linearGradient169"
       x1="-7"
       y1="-7"
       x2="7"
       y2="-7"
       gradientUnits="userSpaceOnUse" />
  </defs>
  <!-- ======== id ======== -->
  <path
     id="rect62"
     style="fill:#e0e0e0"
     d="M 0,0 H 45 V 380 H 0 Z"
     class="background" />
  <g
     aria-label="SAT"
     id="text64"
     style="font-size:16.6667px;font-family:'DIN Alternate';text-anchor:middle;fill:#a91913"
     class="title">
    <path
       d="m 10.488282,27.119141 -1.1800133,1.350911 q 1.8961593,1.627604 4.5328773,1.627604 4.077148,-0.04883 4.166667,-3.45052 0,-1.261394 -0.789388,-2.213542 Q 16.420899,23.46517 14.752604,23.237305 13.90625,23.131511 13.417969,23.05013 12.539063,22.88737 12.1403,22.464193 q -0.398763,-0.415039 -0.398763,-0.927734 0.01628,-0.854492 0.594075,-1.285808 0.553386,-0.415039 1.383464,-0.415039 1.60319,0.03255 2.937825,0.911459 v 0 l 1.000977,-1.48112 q -1.635742,-1.180013 -3.849284,-1.228841 -1.839193,0.01628 -2.840169,0.960286 -1.0335287,0.952149 -1.0335287,2.506511 0,1.293945 0.8219397,2.197265 0.797526,0.878906 2.327474,1.131185 0.854492,0.12207 1.570638,0.219727 1.5625,0.268554 1.546224,1.595052 -0.03255,1.619466 -2.34375,1.652018 -1.953125,-0.01628 -3.36914,-1.180013 z"
       style="font-size:16.6667px;font-family:'DIN Alternate';text-anchor:middle;fill:#a91913"
       id="path196" />
    <path
       d="m 22.011719,25.751953 1.717122,-5.183919 h 0.03255 l 1.717122,5.183919 z M 26.910807,30 h 1.896159 L 24.493815,18.134766 H 22.988282 L 18.675131,30 h 1.904297 l 0.911458,-2.652995 h 4.500325 z"
       style="font-size:16.6667px;font-family:'DIN Alternate';text-anchor:middle;fill:#a91913"
       id="path198" />
    <path
       d="m 30.84147,30 h 1.806641 V 19.737956 h 3.24707 v -1.60319 H 27.5944 v 1.60319 h 3.24707 z"
       style="font-size:16.6667px;font-family:'DIN Alternate';text-anchor:middle;fill:#a91913"
       id="path200" />
  </g>
  <g
     aria-label="ACME"
     id="text66"
     style="font-size:13.3333px;font-family:'DIN Alternate';text-anchor:middle;fill:#a91913"
     class="logo">
    <path
       d="m 8.7630212,358.60156 1.3736978,-4.14713 h 0.02604 l 1.373698,4.14713 z M 12.682292,362 h 1.516927 l -3.450521,-9.49219 H 9.5442711 L 6.0937504,362 h 1.5234375 l 0.7291666,-2.1224 h 3.6002605 z"
       style="font-size:13.3333px;font-family:'DIN Alternate';text-anchor:middle;fill:#a91913"
       id="path187" />
    <path
       d="m 19.850261,359.34375 q -0.598959,1.29557 -1.809896,1.29557 -0.507813,0 -0.872396,-0.21484 -0.371094,-0.18229 -0.598958,-0.47526 -0.279948,-0.30599 -0.371094,-0.80078 -0.104167,-0.49479 -0.104167,-1.89453 0,-1.39974 0.104167,-1.90756 0.09115,-0.48177 0.371094,-0.78776 0.227864,-0.29296 0.598958,-0.48828 0.364583,-0.1888 0.872396,-0.20182 0.690104,0.013 1.171875,0.39714 0.462239,0.40364 0.638021,0.97656 h 1.523437 q -0.227864,-1.19141 -1.09375,-1.9987 -0.865885,-0.80078 -2.239583,-0.8138 -1.119792,0.013 -1.86849,0.53385 -0.761718,0.51432 -1.10677,1.17188 -0.214844,0.34505 -0.319011,0.90494 -0.09766,0.5599 -0.09766,2.21355 0,1.6276 0.09766,2.20052 0.05208,0.30599 0.130208,0.50781 0.08464,0.19531 0.188803,0.41016 0.345052,0.65755 1.10677,1.15885 0.748698,0.52083 1.86849,0.54687 1.236979,0 2.141927,-0.70312 0.878906,-0.70964 1.191406,-2.03125 z"
       style="font-size:13.3333px;font-family:'DIN Alternate';text-anchor:middle;fill:#a91913"
       id="path189" />
    <path
       d="m 22.395834,362 h 1.438802 v -5.91797 h 0.02604 l 1.985677,4.55729 h 1.197917 l 1.985677,-4.55729 H 29.0625 V 362 h 1.438802 v -9.49219 h -1.360677 l -2.669271,6.1849 v 0 L 23.75,352.50781 h -1.354166 z"
       style="font-size:13.3333px;font-family:'DIN Alternate';text-anchor:middle;fill:#a91913"
       id="path191" />
    <path
       d="m 32.5,362 h 6.061198 v -1.36068 h -4.622396 v -2.78646 h 3.945312 v -1.27604 h -3.945312 v -2.70833 h 4.622396 v -1.36068 H 32.5 Z"
       style="font-size:13.3333px;font-family:'DIN Alternate';text-anchor:middle;fill:#a91913"
       id="path193" />
  </g>
  <!-- ======== knobs and switches ======== -->
  <path
     id="polyline68"
     transform="translate(22.5,78)"
     style="fill:none;stroke:#343434;stroke-width:1"
     d="M 0,0 V 42"
     class="connect" />
  <g
     aria-label="DRIVE"
     id="text72"
     style="font-size:10px;font-family:'DIN Alternate';text-anchor:middle;fill:#343434"
     class="big-label">
    <path
       d="m 10.195313,56 h 2.416992 q 0.800781,0 1.352539,-0.351563 0.55664,-0.327148 0.86914,-0.830078 0.117188,-0.190429 0.200196,-0.366211 0.07813,-0.180664 0.117187,-0.410156 0.08301,-0.454101 0.08301,-1.601562 0,-1.079102 -0.05371,-1.518555 -0.06836,-0.439453 -0.327148,-0.839844 -0.722657,-1.191406 -2.167969,-1.201172 h -2.490234 z m 1.079101,-6.098633 h 1.289063 q 0.820312,-0.01953 1.269531,0.600586 0.219726,0.249024 0.27832,0.649414 0.04394,0.400391 0.04394,1.328125 0,0.952149 -0.04394,1.298828 -0.04883,0.351563 -0.229492,0.581055 -0.410156,0.620117 -1.318359,0.620117 h -1.289063 z"
       style="font-size:10px;font-family:'DIN Alternate';text-anchor:middle;fill:#343434"
       id="path176" />
    <path
       d="m 17.583008,49.842773 h 1.689453 q 0.517578,0 0.791016,0.219727 0.346679,0.249023 0.356445,0.805664 0,0.463867 -0.297852,0.78125 -0.302734,0.341797 -0.908203,0.351563 H 17.583008 Z M 16.503906,56 h 1.079102 v -3.041992 h 1.376953 L 20.429687,56 h 1.28418 l -1.65039,-3.15918 q 1.357421,-0.522461 1.376953,-1.972656 -0.0293,-0.986328 -0.708008,-1.518555 -0.561524,-0.46875 -1.450195,-0.46875 h -2.778321 z"
       style="font-size:10px;font-family:'DIN Alternate';text-anchor:middle;fill:#343434"
       id="path178" />
    <path
       d="m 22.597656,56 h 1.079102 v -7.119141 h -1.079102 z"
       style="font-size:10px;font-family:'DIN Alternate';text-anchor:middle;fill:#343434"
       id="path180" />
    <path
       d="m 26.782227,56 h 0.839843 l 2.353516,-7.119141 h -1.142578 l -1.621094,5.419922 h -0.01953 l -1.616211,-5.419922 h -1.142578 z"
       style="font-size:10px;font-family:'DIN Alternate';text-anchor:middle;fill:#343434"
       id="path182" />
    <path
       d="m 30.742187,56 h 4.545899 v -1.020508 h -3.466797 v -2.089844 h 2.958984 v -0.957031 h -2.958984 v -2.03125 h 3.466797 v -1.020508 h -4.545899 z"
       style="font-size:10px;font-family:'DIN Alternate';text-anchor:middle;fill:#343434"
       id="path184" />
  </g>
  <g
     id="use74"
     transform="translate(6.5,62)">
    <g
       transform="translate(16,16)"
       id="g149">
      <path
         id="circle145"
         style="fill:url(#linearGradient153)"
         transform="rotate(90)"
         d="M 15.5,0 A 15.5,15.5 0 0 1 0,15.5 15.5,15.5 0 0 1 -15.5,0 15.5,15.5 0 0 1 0,-15.5 15.5,15.5 0 0 1 15.5,0 Z" />
      <path
         id="circle147"
         style="fill:url(#linearGradient155)"
         transform="rotate(90)"
         d="M 13.5,0 A 13.5,13.5 0 0 1 0,13.5 13.5,13.5 0 0 1 -13.5,0 13.5,13.5 0 0 1 0,-13.5 13.5,13.5 0 0 1 13.5,0 Z" />
    </g>
  </g>
  <!-- ======== row 1 ======== -->
  <path
     id="polyline78"
     transform="translate(22.5,120)"
     style="fill:none;stroke:#343434;stroke-width:1"
     d="M 0,0 V 42"
     class="connect" />
  <g
     transform="translate(22.5,135)"
     id="g86">
    <path
       id="polyline80"
       style="fill:none;stroke:#343434;stroke-width:1.2"
       d="m -7,0 h 4"
       class="icon" />
    <path
       id="polyline82"
       style="fill:none;stroke:#343434;stroke-width:1.2"
       d="M 7,0 H 3"
       class="icon" />
    <path
       id="polyline84"
       style="fill:none;stroke:#343434;stroke-width:1.2"
       d="M 5,-2 V 2"
       class="icon" />
  </g>
  <g
     id="use90"
     transform="translate(13.5,111)">
    <g
       transform="translate(9,9)"
       id="g163">
      <path
         id="circle157"
         style="fill:none;stroke:#222222"
         d="M 8.5,0 A 8.5,8.5 0 0 1 0,8.5 8.5,8.5 0 0 1 -8.5,0 8.5,8.5 0 0 1 0,-8.5 8.5,8.5 0 0 1 8.5,0 Z" />
      <path
         id="circle159"
         style="fill:url(#linearGradient167)"
         transform="rotate(90)"
         d="M 8,0 A 8,8 0 0 1 0,8 8,8 0 0 1 -8,0 8,8 0 0 1 0,-8 8,8 0 0 1 8,0 Z" />
      <path
         id="circle161"
         style="fill:url(#linearGradient169)"
         transform="rotate(90)"
         d="M 7,0 A 7,7 0 0 1 0,7 7,7 0 0 1 -7,0 7,7 0 0 1 0,-7 7,7 0 0 1 7,0 Z" />
    </g>
  </g>
  <!-- ======== row 2 ======== -->
  <g
     id="use94"
     transform="translate(10.5,150)">
    <g
       transform="translate(12,12)"
       id="g133" />
  </g>
  <!-- ======== row 3 ======== -->
  <g
     id="use98"
     transform="translate(10.5,266)">
    <g
       transform="translate(12,12)"
       id="g137" />
  </g>
  <g
     aria-label="IN"
     id="text100"
     style="font-size:8px;font-family:'DIN Alternate';text-anchor:middle;fill:#343434"
     class="label">
    <path
       d="m 19.335937,300 h 0.863282 v -5.69531 h -0.863282 z"
       style="font-size:8px;font-family:'DIN Alternate';text-anchor:middle;fill:#343434"
       id="path212" />
    <path
       d="m 21.398437,300 h 0.863282 v -4.04688 h 0.01563 L 24.851562,300 h 0.816407 v -5.69531 h -0.863282 v 4.04687 h -0.01563 l -2.578125,-4.04687 h -0.8125 z"
       style="font-size:8px;font-family:'DIN Alternate';text-anchor:middle;fill:#343434"
       id="path214" />
  </g>
  <!-- ======== row 4 ======== -->
  <path
     id="rect104"
     style="fill:#bbbbbb"
     d="m 9.5,304 h 26 c 1.662,0 3,1.338 3,3 v 36 c 0,1.662 -1.338,3 -3,3 h -26 c -1.662,0 -3,-1.338 -3,-3 v -36 c 0,-1.662 1.338,-3 3,-3 z"
     class="output" />
  <g
     id="use106"
     transform="translate(10.5,308)">
    <g
       transform="translate(12,12)"
       id="g141" />
  </g>
  <g
     aria-label="OUT"
     id="text108"
     style="font-size:8px;font-family:'DIN Alternate';text-anchor:middle;fill:#343434"
     class="label">
    <path
       d="m 15.945313,339.15234 q 0,0.97657 0.05859,1.32032 0.03125,0.18359 0.07813,0.30468 0.05078,0.11719 0.113281,0.2461 0.207032,0.39453 0.664063,0.69531 0.449219,0.3125 1.121094,0.32812 0.679687,-0.0156 1.132812,-0.32812 0.449219,-0.30078 0.648438,-0.69531 0.144531,-0.20703 0.199218,-0.55078 0.05078,-0.34375 0.05078,-1.32032 0,-0.99218 -0.05078,-1.32812 -0.05469,-0.33594 -0.199218,-0.54297 -0.199219,-0.39453 -0.648438,-0.70313 -0.453125,-0.3125 -1.132812,-0.32031 -0.671875,0.008 -1.121094,0.32031 -0.457031,0.3086 -0.664063,0.70313 -0.128906,0.20703 -0.191406,0.54297 -0.05859,0.33594 -0.05859,1.32812 z m 0.867187,0 q 0,-0.83984 0.0625,-1.14453 0.05469,-0.28906 0.222656,-0.47265 0.136719,-0.17579 0.359375,-0.29297 0.21875,-0.11328 0.523438,-0.1211 0.308593,0.008 0.535156,0.1211 0.214844,0.11718 0.34375,0.29297 0.167969,0.18359 0.230469,0.47265 0.05859,0.30469 0.05859,1.14453 0,0.83985 -0.05859,1.13672 -0.0625,0.29688 -0.230469,0.48047 -0.128906,0.17578 -0.34375,0.28516 -0.226563,0.1289 -0.535156,0.1289 -0.304688,0 -0.523438,-0.1289 -0.222656,-0.10938 -0.359375,-0.28516 -0.167969,-0.18359 -0.222656,-0.48047 -0.0625,-0.29687 -0.0625,-1.13672 z"
       style="font-size:8px;font-family:'DIN Alternate';text-anchor:middle;fill:#343434"
       id="path204" />
    <path
       d="m 20.910156,340.07031 q 0.0078,0.89844 0.59375,1.42578 0.574219,0.54297 1.429688,0.55078 0.871093,-0.008 1.441406,-0.55078 0.566406,-0.52734 0.582031,-1.42578 v -3.76562 H 24.09375 v 3.67187 q -0.0078,0.58203 -0.328125,0.88672 -0.328125,0.32031 -0.832031,0.32031 -0.503907,0 -0.824219,-0.32031 -0.328125,-0.30469 -0.335938,-0.88672 v -3.67187 h -0.863281 z"
       style="font-size:8px;font-family:'DIN Alternate';text-anchor:middle;fill:#343434"
       id="path206" />
    <path
       d="m 27.027344,342 h 0.867187 v -4.92578 h 1.558594 v -0.76953 H 25.46875 v 0.76953 h 1.558594 z"
       style="font-size:8px;font-family:'DIN Alternate';text-anchor:middle;fill:#343434"
       id="path208" />
  </g>
</svg>
