<?xml version="1.0" encoding="UTF-8" standalone="no"?>
<svg
   xmlns:dc="http://purl.org/dc/elements/1.1/"
   xmlns:cc="http://creativecommons.org/ns#"
   xmlns:rdf="http://www.w3.org/1999/02/22-rdf-syntax-ns#"
   xmlns:svg="http://www.w3.org/2000/svg"
   xmlns="http://www.w3.org/2000/svg"
   xmlns:xlink="http://www.w3.org/1999/xlink"
   xmlns:sodipodi="http://sodipodi.sourceforge.net/DTD/sodipodi-0.dtd"
   xmlns:inkscape="http://www.inkscape.org/namespaces/inkscape"
   version="1.1"
   width="60"
   height="380"
   viewBox="0 0 60 380"
   id="svg103"
   sodipodi:docname="SAT.svg"
   inkscape:version="1.0.2 (e86c8708, 2021-01-15)">
  <metadata
     id="metadata107">
    <rdf:RDF>
      <cc:Work
         rdf:about="">
        <dc:format>image/svg+xml</dc:format>
        <dc:type
           rdf:resource="http://purl.org/dc/dcmitype/StillImage" />
      </cc:Work>
    </rdf:RDF>
  </metadata>
  <sodipodi:namedview
     pagecolor="#ffffff"
     bordercolor="#666666"
     borderopacity="1"
     objecttolerance="10"
     gridtolerance="10"
     guidetolerance="10"
     inkscape:pageopacity="0"
     inkscape:pageshadow="2"
     inkscape:window-width="689"
     inkscape:window-height="480"
     id="namedview105"
     showgrid="false"
     inkscape:zoom="2.1763158"
     inkscape:cx="30"
     inkscape:cy="190"
     inkscape:window-x="0"
     inkscape:window-y="25"
     inkscape:window-maximized="0"
     inkscape:current-layer="svg103" />
  <style
     id="style2">
    text.title {
      fill: #a91913;
      font-family: 'American Typewriter';
      font-size: 13pt;
    }
    text.logo {
      fill: #a91913;
      font-family: 'American Typewriter';
      font-size: 11pt;
    }
    text.big-label {
      fill: #343434;
      font-family: 'Helvetica';
      font-weight: bold;
      font-size: 7.5pt;
    }
    text.label {
      fill: #343434;
      font-family: 'Helvetica';
      font-weight: bold;
      font-size: 6pt;
    }
    .background {
      fill: #e0e0e0;
    }
    .output {
      fill: #bbbbbb;
    }
    polyline.icon {
      stroke: #343434;
      stroke-width: 1.2;
      fill: none;
    }
    polyline.connect {
      stroke: #343434;
      stroke-width: 1;
      fill: none;
    }

    .blueprint {
      stroke: #08f;
      fill: none;
    }
  </style>
  <!-- ======== defs ======== -->
  <defs
     id="defs53">
    <linearGradient
       id="smallKnobMediumGradient">
      <stop
         offset="5%"
         stop-color="#888"
         id="stop4" />
      <stop
         offset="95%"
         stop-color="#333"
         id="stop6" />
    </linearGradient>
    <linearGradient
       id="smallKnobDarkGradient">
      <stop
         offset="5%"
         stop-color="#444"
         id="stop9" />
      <stop
         offset="95%"
         stop-color="#222"
         id="stop11" />
    </linearGradient>
    <linearGradient
       id="bigKnobDarkGradient">
      <stop
         offset="5%"
         stop-color="#5c5c5c"
         id="stop14" />
      <stop
         offset="95%"
         stop-color="#282828"
         id="stop16" />
    </linearGradient>
    <linearGradient
       id="bigKnobMediumGradient">
      <stop
         offset="5%"
         stop-color="#888"
         id="stop19" />
      <stop
         offset="95%"
         stop-color="#333"
         id="stop21" />
    </linearGradient>
    <symbol
       id="knob18">
      <g
         transform="translate(9 9)"
         id="g30">
        <circle
           r="8.5"
           stroke="#222"
           fill="none"
           id="circle24" />
        <circle
           r="8"
           fill="url('#smallKnobMediumGradient')"
           transform="rotate(90)"
           id="circle26" />
        <circle
           r="7"
           fill="url('#smallKnobDarkGradient')"
           transform="rotate(90)"
           id="circle28" />
      </g>
    </symbol>
    <symbol
       id="knob40">
      <g
         transform="translate(20 20)"
         id="g37">
        <circle
           r="19.5"
           fill="url('#bigKnobDarkGradient')"
           transform="rotate(90)"
           id="circle33" />
        <circle
           r="17.5"
           fill="url('#bigKnobMediumGradient')"
           transform="rotate(90)"
           id="circle35" />
      </g>
    </symbol>
    <symbol
       id="knob50">
      <g
         transform="translate(25 25)"
         id="g44">
        <circle
           r="24.5"
           fill="url('#bigKnobDarkGradient')"
           transform="rotate(90)"
           id="circle40" />
        <circle
           r="22.5"
           fill="url('#bigKnobMediumGradient')"
           transform="rotate(90)"
           id="circle42" />
      </g>
    </symbol>
    <symbol
       id="port">
      <g
         transform="translate(12 12)"
         id="g47" />
    </symbol>
    <symbol
       id="hswitch14">
      <g
         transform="translate(12 7)"
         id="g50" />
    </symbol>
    <linearGradient
       inkscape:collect="always"
       xlink:href="#bigKnobDarkGradient"
       id="linearGradient132"
       x1="-19.5"
       y1="-19.5"
       x2="19.5"
       y2="-19.5"
       gradientUnits="userSpaceOnUse" />
    <linearGradient
       inkscape:collect="always"
       xlink:href="#bigKnobMediumGradient"
       id="linearGradient134"
       x1="-17.5"
       y1="-17.5"
       x2="17.5"
       y2="-17.5"
       gradientUnits="userSpaceOnUse" />
    <linearGradient
       inkscape:collect="always"
       xlink:href="#smallKnobMediumGradient"
       id="linearGradient158"
       x1="-8"
       y1="-8"
       x2="8"
       y2="-8"
       gradientUnits="userSpaceOnUse" />
    <linearGradient
       inkscape:collect="always"
       xlink:href="#smallKnobDarkGradient"
       id="linearGradient160"
       x1="-7"
       y1="-7"
       x2="7"
       y2="-7"
       gradientUnits="userSpaceOnUse" />
  </defs>
  <!-- ======== id ======== -->
  <path
     id="rect55"
     style="fill:#e0e0e0"
     d="M 0,0 H 60 V 380 H 0 Z"
     class="background" />
  <g
     aria-label="SAT"
     id="text57"
     style="font-size:17.3333px;font-family:'American Typewriter';text-anchor:middle;fill:#a91913"
     class="title">
    <path
       d="m 18.343468,18.057333 q 1.698667,0 2.773334,1.092 v -0.242667 q 0,-0.676 0.537333,-0.676 0.589333,0 0.589333,0.745334 v 0.104 q 0,0.03467 -0.052,0.52 -0.052,0.485333 -0.052,1.161333 0,0.08667 0.03467,0.554667 l 0.052,0.693333 q 0.01733,0.08667 0.01733,0.242667 0,0.832 -0.641333,0.832 -0.676,0 -0.676,-0.693334 0,-0.08667 0,-0.08667 l 0.03467,-0.468 q 0.01733,-0.242667 0.01733,-0.381334 0,-1.04 -0.710667,-1.629333 -0.693333,-0.589333 -1.924,-0.589333 -1.126666,0 -1.802666,0.554666 -0.658667,0.554667 -0.658667,1.490667 0,1.092 0.988,1.612 0.554667,0.277333 1.941333,0.502667 2.062667,0.329333 2.825334,0.901333 1.144,0.849333 1.144,2.409334 0,1.629333 -1.178667,2.652 -1.161333,1.022666 -3.016,1.022666 -1.976,0 -3.276,-1.248 0,0.06933 0.01733,0.156 0,0.08667 0,0.104 0.03467,0.277334 0.03467,0.364 0,0.641334 -0.606667,0.641334 -0.658666,0 -0.658666,-0.728 0,-0.08667 0.01733,-0.138667 l 0.06933,-0.901333 q 0.052,-0.676 0.052,-0.866667 0,-0.346667 -0.08667,-1.04 -0.08667,-0.693333 -0.08667,-1.04 0,-0.78 0.658667,-0.78 0.676,0 0.676,0.78 v 0.312 q -0.01733,0.138667 -0.01733,0.398667 0,1.3 0.832,2.062666 0.832,0.762667 2.253334,0.762667 1.317333,0 2.097333,-0.624 0.78,-0.624 0.78,-1.698667 0,-1.646667 -2.08,-2.010667 l -0.988,-0.173333 q -1.473333,-0.26 -2.288,-0.606667 -0.745333,-0.329333 -1.196,-1.022666 -0.433333,-0.710667 -0.433333,-1.594667 0,-1.525333 1.109333,-2.478667 1.109333,-0.953333 2.877333,-0.953333 z"
       style="font-size:17.3333px;font-family:'American Typewriter';text-anchor:middle;fill:#a91913"
       id="path178" />
    <path
       d="m 32.605007,28.041333 -0.624,-1.698666 q -0.104,-0.277334 -0.225334,-0.346667 -0.104,-0.06933 -0.450667,-0.06933 h -3.085333 q -0.346667,0 -0.485333,0.121333 -0.121334,0.121333 -0.329334,0.658667 l -0.502666,1.334666 q -0.06933,0.190667 -0.06933,0.364 0,0.554667 0.676,0.554667 0.173334,0 0.485334,-0.03467 0.329333,-0.03467 0.485333,-0.03467 0.710667,0 0.710667,0.606666 0,0.572 -0.78,0.572 -0.138667,0 -0.381334,-0.03467 L 27.16234,29.913333 q -0.242667,-0.03467 -0.797334,-0.03467 -0.606666,0 -0.849333,0.03467 l -0.728,0.104 q -0.485333,0.06933 -0.710667,0.06933 -0.676,0 -0.676,-0.572 0,-0.606667 0.658667,-0.606667 0.138667,0 0.208,0.01733 h 0.225333 q 0.468,0 0.710667,-0.364 0.104,-0.138666 0.346667,-0.814666 l 3.224,-8.718667 q 0.277333,-0.728 1.092,-0.728 0.797333,0 1.057333,0.728 l 3.102667,8.597333 Q 34.321007,28.44 34.563673,28.7 q 0.242667,0.26 0.693334,0.26 0.138666,0 0.208,-0.01733 0.485333,-0.03467 0.485333,-0.03467 0.658667,0 0.658667,0.554667 0,0.589333 -0.658667,0.589333 -0.190667,0 -0.502667,-0.03467 -1.092,-0.121333 -1.629333,-0.121333 -0.641333,0 -2.08,0.138667 -0.364,0.03467 -0.554667,0.03467 -0.693333,0 -0.693333,-0.589333 0,-0.589333 0.762666,-0.589333 0.156,0 0.450667,0.03467 0.312,0.03467 0.468,0.03467 0.572,0 0.572,-0.468 0,-0.06933 -0.138666,-0.450667 z m -1.248001,-3.536 -1.56,-4.784 -1.594666,4.784 q -0.03467,0.104 -0.03467,0.121333 0,0.156 0.26,0.156 h 2.756 q 0.208,0 0.208,-0.138666 0,-0.03467 -0.03467,-0.138667 z"
       style="font-size:17.3333px;font-family:'American Typewriter';text-anchor:middle;fill:#a91913"
       id="path180" />
    <path
       d="m 42.140252,27.712 q 0,1.3 0.884,1.3 0.138666,0 0.416,-0.03467 0.277333,-0.052 0.416,-0.052 0.225333,0 0.381333,0.173334 0.173333,0.156 0.173333,0.381333 0,0.606667 -0.78,0.606667 -0.03467,0 -0.104,0 -0.08667,-0.01733 -0.121333,-0.01733 L 42.556252,29.948 q -0.485334,-0.06933 -1.092,-0.06933 -0.658667,0 -1.161334,0.06933 l -0.866666,0.121333 q -0.052,0 -0.121334,0.01733 -0.08667,0 -0.121333,0 -0.762667,0 -0.762667,-0.606667 0,-0.554667 0.554667,-0.554667 0.138667,0 0.416,0.052 0.277333,0.03467 0.416,0.03467 0.866667,0 0.866667,-1.3 v -1.213333 l 0.01733,-1.525334 V 23.5 l -0.01733,-2.825334 q 0,-1.230666 -1.265334,-1.230666 h -0.537333 q -1.248,0 -1.248,1.213333 0,0.433333 0.01733,0.589333 l 0.06933,0.641334 q 0.01733,0.156 0.01733,0.433333 0,1.092 -0.676,1.092 -0.641334,0 -0.641334,-0.797333 0,-0.225334 0.03467,-0.78 0.052,-0.832 0.052,-1.057334 0,-0.433333 -0.03467,-0.901333 -0.06933,-0.918667 -0.06933,-0.78 0,-0.728 0.658667,-0.728 0.242666,0 1.126667,0.052 0.08667,0 1.421333,0.03467 l 1.976,0.03467 q 0.346667,0 1.854667,-0.03467 0.329333,0 1.126666,-0.052 0.710667,-0.052 1.109334,-0.052 0.866667,0 0.866667,0.710666 v 0.03467 q 0,0.173333 -0.052,0.641333 -0.03467,0.468 -0.08667,1.005334 v 0.190666 q 0,0.26 0.052,0.814667 0.06933,0.728 0.06933,0.901333 0,0.710667 -0.676,0.710667 -0.658667,0 -0.658667,-0.866667 0,-0.312 0.052,-0.918666 0.052,-0.624 0.052,-0.936 0,-1.196 -1.369333,-1.196 h -0.485333 q -0.641334,0 -0.918667,0.277333 -0.277333,0.26 -0.312,0.884 l -0.052,1.213333 z"
       style="font-size:17.3333px;font-family:'American Typewriter';text-anchor:middle;fill:#a91913"
       id="path182" />
  </g>
  <g
     aria-label="oberon"
     id="text59"
     style="font-size:14.6667px;font-family:'American Typewriter';text-anchor:middle;fill:#a91913"
     class="logo">
    <path
       d="m 9.6536662,362.24933 q -1.54,0 -2.464,-1.056 -0.924,-1.07066 -0.924,-2.86 0,-1.78933 0.924,-2.84533 0.9386667,-1.07067 2.508,-1.07067 1.5986668,0 2.5226668,1.04134 0.924,1.04133 0.924,2.83066 0,1.78934 -0.953333,2.87467 -0.953334,1.08533 -2.5373338,1.08533 z m 0.073333,-6.864 q -1.0266667,0 -1.6133334,0.71867 -0.5866667,0.71867 -0.6453334,2.03867 0,0 0,0.19066 0,1.37867 0.5720001,2.17067 0.5866666,0.77733 1.628,0.77733 1.0706671,0 1.6720001,-0.77733 0.616,-0.792 0.616,-2.18533 0,-2.93334 -2.2293334,-2.93334 z"
       style="font-size:14.6667px;font-family:'American Typewriter';text-anchor:middle;fill:#a91913"
       id="path165" />
    <path
       d="m 16.207833,352.64267 q -0.117333,1.21733 -0.132,2.88933 0.469334,-0.616 0.953334,-0.86533 0.484,-0.24934 1.217333,-0.24934 1.466667,0 2.332,1.02667 0.865334,1.02667 0.865334,2.728 0,1.86267 -0.924,2.97733 -0.909334,1.1 -2.464,1.1 -1.510667,0 -2.185334,-1.12933 0.05867,0.42533 0.05867,0.46933 0,0.528 -0.513334,0.528 -0.513333,0 -0.513333,-0.73333 0,-0.20533 0.01467,-0.308 0,-0.33733 0.01467,-0.71867 l 0.044,-1.12933 0.02933,-1.48133 -0.02933,-3.916 q -0.01467,-0.54267 -0.117333,-0.73334 -0.088,-0.19066 -0.322667,-0.19066 -0.044,0 -0.381333,0.0587 -0.161333,0.0293 -0.278667,0.0293 -0.498666,0 -0.498666,-0.46934 0,-0.484 0.586666,-0.484 0.176,0 0.293334,0.0147 l 0.352,0.044 q 0.234666,0.0293 0.381333,0.0293 0.161333,0 0.454667,-0.044 0.293333,-0.0587 0.44,-0.0587 0.322666,0 0.322666,0.41066 z m -0.01467,4.25333 q -0.102667,0.46933 -0.102667,1.32 0,1.452 0.234667,1.99467 0.454667,1.07066 1.730667,1.07066 1.012,0 1.598666,-0.792 0.601334,-0.80666 0.601334,-2.156 0,-1.37866 -0.572,-2.156 -0.557334,-0.792 -1.54,-0.792 -0.689334,0 -1.246667,0.44 -0.557334,0.42534 -0.704,1.07067 z"
       style="font-size:14.6667px;font-family:'American Typewriter';text-anchor:middle;fill:#a91913"
       id="path167" />
    <path
       d="m 29.23848,357.688 q 0,0.55733 -0.07333,0.68933 -0.07333,0.11734 -0.425334,0.11734 h -4.664 q -0.190666,0 -0.249333,0.0587 -0.05867,0.044 -0.05867,0.16134 0,1.1 0.66,1.83333 0.66,0.73333 1.642667,0.73333 0.645333,0 1.173333,-0.352 0.542667,-0.352 0.704,-0.89466 l 0.132,-0.42534 q 0.102667,-0.352 0.484,-0.352 0.542667,0 0.542667,0.55734 0,0.95333 -0.968,1.70133 -0.968,0.73333 -2.2,0.73333 -1.54,0 -2.449333,-1.02666 -0.909334,-1.04134 -0.909334,-2.78667 0,-1.78933 0.968,-2.904 0.968,-1.11467 2.522667,-1.11467 1.378667,0 2.273333,0.924 0.894667,0.924 0.894667,2.34667 z m -5.324,-0.38133 q 0,0.20533 0.322667,0.20533 h 3.505333 q 0.308,0 0.308,-0.20533 0,-0.77734 -0.586667,-1.34934 -0.586666,-0.572 -1.378666,-0.572 -0.821334,0 -1.496,0.60134 -0.674667,0.58666 -0.674667,1.32 z"
       style="font-size:14.6667px;font-family:'American Typewriter';text-anchor:middle;fill:#a91913"
       id="path169" />
    <path
       d="m 32.528855,355.092 v 0.396 q 0.762667,-1.07067 2.038667,-1.07067 1.026666,0 1.657333,0.58667 0.645333,0.572 0.645333,1.48133 0,0.64534 -0.322666,1.056 -0.322667,0.396 -0.850667,0.396 -0.337333,0 -0.572,-0.20533 -0.234667,-0.20533 -0.234667,-0.49867 0,-0.23466 0.176,-0.41066 0.176,-0.19067 0.410667,-0.19067 0.044,0 0.190667,0.044 0.088,-0.176 0.088,-0.32267 0,-0.42533 -0.381334,-0.71866 -0.366666,-0.29334 -0.924,-0.29334 -1.144,0 -1.525333,1.02667 -0.234667,0.63067 -0.234667,1.90667 v 0.968 q 0,0.98266 0.01467,1.1 0.07333,0.836 0.454667,0.836 0.190666,0 0.396,-0.0587 0.161333,-0.044 0.278666,-0.044 0.469334,0 0.469334,0.46933 0,0.51334 -0.601334,0.51334 h -0.05867 q -0.22,0 -0.674667,-0.0587 -0.44,-0.044 -0.66,-0.044 -0.586667,0 -0.924,0.0293 l -0.821333,0.0733 q -0.601334,0 -0.601334,-0.51334 0,-0.45466 0.557334,-0.45466 0.146666,0 0.22,0.0147 l 0.22,0.044 q 0.146666,0.0293 0.205333,0.0293 0.366667,0 0.396,-0.67467 l 0.02933,-0.748 -0.044,-3.32933 q -0.044,-0.86534 -0.44,-0.86534 -0.117333,0 -0.322666,0.044 -0.205334,0.044 -0.322667,0.044 -0.484,0 -0.484,-0.46933 0,-0.51333 0.630667,-0.51333 0.146666,0 0.44,0.044 0.293333,0.0293 0.44,0.0293 0.117333,0 0.381333,-0.0293 0.117333,-0.0293 0.278667,-0.0293 0.381333,0 0.381333,0.41067 z"
       style="font-size:14.6667px;font-family:'American Typewriter';text-anchor:middle;fill:#a91913"
       id="path171" />
    <path
       d="m 40.877627,362.24933 q -1.54,0 -2.464,-1.056 -0.924,-1.07066 -0.924,-2.86 0,-1.78933 0.924,-2.84533 0.938667,-1.07067 2.508,-1.07067 1.598667,0 2.522667,1.04134 0.924,1.04133 0.924,2.83066 0,1.78934 -0.953334,2.87467 -0.953333,1.08533 -2.537333,1.08533 z m 0.07333,-6.864 q -1.026666,0 -1.613333,0.71867 -0.586667,0.71867 -0.645333,2.03867 0,0 0,0.19066 0,1.37867 0.572,2.17067 0.586666,0.77733 1.628,0.77733 1.070666,0 1.672,-0.77733 0.616,-0.792 0.616,-2.18533 0,-2.93334 -2.229334,-2.93334 z"
       style="font-size:14.6667px;font-family:'American Typewriter';text-anchor:middle;fill:#a91913"
       id="path173" />
    <path
       d="m 47.769126,355.12133 v 0.41067 q 0.88,-1.11467 2.346667,-1.11467 0.792,0 1.496,0.41067 0.704,0.396 0.953333,0.99733 0.205333,0.49867 0.205333,1.30534 v 2.78666 q 0,0.63067 0.01467,0.748 0.07333,0.49867 0.396,0.49867 0.132,0 0.337333,-0.0293 0.22,-0.044 0.308,-0.044 0.190667,0 0.322667,0.132 0.146667,0.132 0.146667,0.32266 0,0.22 -0.176,0.36667 -0.176,0.14667 -0.425334,0.14667 -0.205333,0 -0.674666,-0.0587 -0.469334,-0.0587 -0.88,-0.0587 -0.381334,0 -0.630667,0.0293 -0.733333,0.088 -0.777333,0.088 -0.586667,0 -0.586667,-0.51334 0,-0.45466 0.498667,-0.45466 0.117333,0 0.264,0.0293 0.278666,0.0587 0.352,0.0587 0.352,0 0.381333,-0.80667 l 0.02933,-0.748 0.01467,-0.89467 v -1.11466 q 0,-0.77734 -0.07333,-1.07067 -0.132,-0.55733 -0.572,-0.86533 -0.484,-0.33734 -1.1,-0.33734 -1.173334,0 -1.686667,0.836 -0.352,0.572 -0.352,1.95067 v 1.95067 q 0,0.64533 0.088,0.88 0.088,0.23466 0.322666,0.23466 0.117334,0 0.322667,-0.0587 0.205333,-0.0587 0.337333,-0.0587 0.454667,0 0.454667,0.49867 0,0.484 -0.586667,0.484 -0.117333,0 -0.762666,-0.088 -0.322667,-0.044 -0.718667,-0.044 -0.308,0 -0.821333,0.0587 -0.645334,0.0733 -0.733334,0.0733 -0.616,0 -0.616,-0.49867 0,-0.46933 0.469334,-0.46933 0.07333,0 0.264,0.044 0.205333,0.044 0.396,0.044 0.44,0 0.454666,-0.85067 l 0.02933,-1.628 v -1.77467 l -0.02933,-0.51333 q -0.02933,-0.49867 -0.132,-0.67467 -0.088,-0.19066 -0.322666,-0.19066 -0.102667,0 -0.308,0.044 -0.190667,0.0293 -0.293334,0.0293 -0.528,0 -0.528,-0.46933 0,-0.484 0.66,-0.484 0.088,0 0.146667,0.0147 l 0.542667,0.0587 q 0.234666,0 0.410666,-0.0293 0.381334,-0.0293 0.396,-0.0293 0.425334,0 0.425334,0.44 z"
       style="font-size:14.6667px;font-family:'American Typewriter';text-anchor:middle;fill:#a91913"
       id="path175" />
  </g>
  <!-- ======== knobs and switches ======== -->
  <g
     aria-label="TIMBRE"
     id="text61"
     style="font-weight:bold;font-size:10px;font-family:Helvetica;text-anchor:middle;fill:#343434"
     class="big-label">
    <path
       d="m 16.811523,44.802734 v 1.274414 h -2.15332 V 52 h -1.513672 v -5.922852 h -2.163086 v -1.274414 z"
       style="font-weight:bold;font-size:10px;font-family:Helvetica;text-anchor:middle;fill:#343434"
       id="path212" />
    <path
       d="m 17.578125,44.802734 h 1.494141 V 52 h -1.494141 z"
       style="font-weight:bold;font-size:10px;font-family:Helvetica;text-anchor:middle;fill:#343434"
       id="path214" />
    <path
       d="m 21.845703,52 h -1.401367 v -7.197266 h 2.1875 l 1.308594,5.65918 1.298828,-5.65918 h 2.163086 V 52 h -1.401367 v -4.868164 q 0,-0.209961 0.0049,-0.585938 0.0049,-0.380859 0.0049,-0.585937 L 24.648437,52 h -1.45996 l -1.35254,-6.040039 q 0,0.205078 0.0049,0.585937 0.0049,0.375977 0.0049,0.585938 z"
       style="font-weight:bold;font-size:10px;font-family:Helvetica;text-anchor:middle;fill:#343434"
       id="path216" />
    <path
       d="m 32.094727,52 h -3.261719 v -7.197266 h 3.496094 q 1.323242,0.01953 1.875,0.766602 0.332031,0.458984 0.332031,1.098633 0,0.659179 -0.332031,1.05957 -0.185547,0.224609 -0.546875,0.410156 0.551757,0.200196 0.830078,0.634766 0.283203,0.43457 0.283203,1.054687 0,0.639649 -0.322266,1.147461 -0.205078,0.336914 -0.512695,0.566407 -0.34668,0.263671 -0.820313,0.361328 Q 32.646484,52 32.094727,52 Z m -0.03418,-3.168945 H 30.268555 V 50.75 h 1.767578 q 0.473633,0 0.737304,-0.126953 0.478516,-0.234375 0.478516,-0.898438 0,-0.561523 -0.463867,-0.771484 -0.258789,-0.117188 -0.727539,-0.12207 z m 0.74707,-1.372071 q 0.292969,-0.175781 0.292969,-0.629882 0,-0.50293 -0.390625,-0.664063 -0.336914,-0.112305 -0.859375,-0.112305 h -1.582031 v 1.586914 h 1.767578 q 0.473633,0 0.771484,-0.180664 z"
       style="font-weight:bold;font-size:10px;font-family:Helvetica;text-anchor:middle;fill:#343434"
       id="path218" />
    <path
       d="M 39.091797,49.177734 H 37.539062 V 52 h -1.469726 v -7.197266 h 3.530273 q 0.756836,0.01465 1.16211,0.185547 0.410156,0.170899 0.693359,0.50293 0.234375,0.273437 0.371094,0.605469 0.136719,0.332031 0.136719,0.756836 0,0.512695 -0.258789,1.010742 -0.25879,0.493164 -0.854493,0.698242 0.498047,0.200195 0.703125,0.571289 0.209961,0.366211 0.209961,1.123047 v 0.483398 q 0,0.493164 0.03906,0.668946 0.05859,0.27832 0.273437,0.410156 V 52 h -1.655273 q -0.06836,-0.239258 -0.09766,-0.385742 -0.05859,-0.302735 -0.06348,-0.620117 l -0.0098,-0.668946 q -0.0098,-0.688476 -0.253906,-0.917968 -0.239258,-0.229493 -0.90332,-0.229493 z m 0.913086,-1.308593 q 0.449219,-0.205079 0.449219,-0.810547 0,-0.654297 -0.434571,-0.878907 -0.24414,-0.126953 -0.732422,-0.126953 h -1.748047 v 1.933594 h 1.704102 q 0.507813,0 0.761719,-0.117187 z"
       style="font-weight:bold;font-size:10px;font-family:Helvetica;text-anchor:middle;fill:#343434"
       id="path220" />
    <path
       d="m 48.271484,48.855469 h -3.496093 v 1.850586 h 3.984375 V 52 h -5.454102 v -7.197266 h 5.27832 v 1.274414 h -3.808593 v 1.528321 h 3.496093 z"
       style="font-weight:bold;font-size:10px;font-family:Helvetica;text-anchor:middle;fill:#343434"
       id="path222" />
  </g>
  <g
     id="use63"
     transform="translate(10,56)">
    <g
       transform="translate(20,20)"
       id="g128">
      <path
         id="circle124"
         style="fill:url(#linearGradient132)"
         transform="rotate(90)"
         d="M 19.5,0 A 19.5,19.5 0 0 1 0,19.5 19.5,19.5 0 0 1 -19.5,0 19.5,19.5 0 0 1 0,-19.5 19.5,19.5 0 0 1 19.5,0 Z" />
      <path
         id="circle126"
         style="fill:url(#linearGradient134)"
         transform="rotate(90)"
         d="M 17.5,0 A 17.5,17.5 0 0 1 0,17.5 17.5,17.5 0 0 1 -17.5,0 17.5,17.5 0 0 1 0,-17.5 17.5,17.5 0 0 1 17.5,0 Z" />
    </g>
  </g>
  <!-- ======== row 1 ======== -->
  <path
     id="polyline67"
     transform="translate(30,194)"
     style="fill:none;stroke:#343434;stroke-width:1"
     d="M 0,0 V 42"
     class="connect" />
  <g
     transform="translate(30,209)"
     id="g75">
    <path
       id="polyline69"
       style="fill:none;stroke:#343434;stroke-width:1.2"
       d="m -7,0 h 4"
       class="icon" />
    <path
       id="polyline71"
       style="fill:none;stroke:#343434;stroke-width:1.2"
       d="M 7,0 H 3"
       class="icon" />
    <path
       id="polyline73"
       style="fill:none;stroke:#343434;stroke-width:1.2"
       d="M 5,-2 V 2"
       class="icon" />
  </g>
  <g
     id="use79"
     transform="translate(21,185)">
    <g
       transform="translate(9,9)"
       id="g154">
      <path
         id="circle148"
         style="fill:none;stroke:#222222"
         d="M 8.5,0 A 8.5,8.5 0 0 1 0,8.5 8.5,8.5 0 0 1 -8.5,0 8.5,8.5 0 0 1 0,-8.5 8.5,8.5 0 0 1 8.5,0 Z" />
      <path
         id="circle150"
         style="fill:url(#linearGradient158)"
         transform="rotate(90)"
         d="M 8,0 A 8,8 0 0 1 0,8 8,8 0 0 1 -8,0 8,8 0 0 1 0,-8 8,8 0 0 1 8,0 Z" />
      <path
         id="circle152"
         style="fill:url(#linearGradient160)"
         transform="rotate(90)"
         d="M 7,0 A 7,7 0 0 1 0,7 7,7 0 0 1 -7,0 7,7 0 0 1 0,-7 7,7 0 0 1 7,0 Z" />
    </g>
  </g>
  <!-- ======== row 2 ======== -->
  <g
     id="use83"
     transform="translate(18,224)">
    <g
       transform="translate(12,12)"
       id="g136" />
  </g>
  <g
     aria-label="TMB"
     id="text85"
     style="font-weight:bold;font-size:8px;font-family:Helvetica;text-anchor:middle;fill:#343434"
     class="label">
    <path
       d="m 26.121094,252.24219 v 1.01953 H 24.398437 V 258 H 23.1875 v -4.73828 h -1.730469 v -1.01953 z"
       style="font-weight:bold;font-size:8px;font-family:Helvetica;text-anchor:middle;fill:#343434"
       id="path199" />
    <path
       d="m 27.929687,258 h -1.121093 v -5.75781 h 1.75 l 1.046875,4.52734 1.039062,-4.52734 H 32.375 V 258 h -1.121094 v -3.89453 q 0,-0.16797 0.0039,-0.46875 0.0039,-0.30469 0.0039,-0.46875 L 30.171875,258 h -1.167969 l -1.082031,-4.83203 q 0,0.16406 0.0039,0.46875 0.0039,0.30078 0.0039,0.46875 z"
       style="font-weight:bold;font-size:8px;font-family:Helvetica;text-anchor:middle;fill:#343434"
       id="path201" />
    <path
       d="m 36.128906,258 h -2.609375 v -5.75781 h 2.796875 q 1.058594,0.0156 1.5,0.61328 0.265625,0.36719 0.265625,0.8789 0,0.52735 -0.265625,0.84766 -0.148437,0.17969 -0.4375,0.32813 0.441406,0.16015 0.664063,0.50781 0.226562,0.34765 0.226562,0.84375 0,0.51172 -0.257812,0.91797 -0.164063,0.26953 -0.410157,0.45312 -0.277343,0.21094 -0.65625,0.28906 Q 36.570312,258 36.128906,258 Z m -0.02734,-2.53516 H 34.667969 V 257 h 1.414062 q 0.378906,0 0.589844,-0.10156 0.382812,-0.1875 0.382812,-0.71875 0,-0.44922 -0.371093,-0.61719 -0.207032,-0.0937 -0.582032,-0.0977 z m 0.597657,-1.09765 q 0.234375,-0.14063 0.234375,-0.50391 0,-0.40234 -0.3125,-0.53125 -0.269532,-0.0898 -0.6875,-0.0898 h -1.265625 v 1.26953 h 1.414062 q 0.378906,0 0.617188,-0.14453 z"
       style="font-weight:bold;font-size:8px;font-family:Helvetica;text-anchor:middle;fill:#343434"
       id="path203" />
  </g>
  <!-- ======== row 3 ======== -->
  <g
     id="use89"
     transform="translate(18,266)">
    <g
       transform="translate(12,12)"
       id="g140" />
  </g>
  <g
     aria-label="IN"
     id="text91"
     style="font-weight:bold;font-size:8px;font-family:Helvetica;text-anchor:middle;fill:#343434"
     class="label">
    <path
       d="m 26.515625,294.24219 h 1.195312 V 300 h -1.195312 z"
       style="font-weight:bold;font-size:8px;font-family:Helvetica;text-anchor:middle;fill:#343434"
       id="path194" />
    <path
       d="M 33.484375,300 H 32.28125 l -2.351563,-4.08984 V 300 h -1.121093 v -5.75781 h 1.261718 l 2.292969,4.01953 v -4.01953 h 1.121094 z"
       style="font-weight:bold;font-size:8px;font-family:Helvetica;text-anchor:middle;fill:#343434"
       id="path196" />
  </g>
  <!-- ======== row 4 ======== -->
  <path
     id="rect95"
     style="fill:#bbbbbb"
     d="m 17,304 h 26 c 1.662,0 3,1.338 3,3 v 36 c 0,1.662 -1.338,3 -3,3 H 17 c -1.662,0 -3,-1.338 -3,-3 v -36 c 0,-1.662 1.338,-3 3,-3 z"
     class="output" />
  <g
     id="use97"
     transform="translate(18,308)">
    <g
       transform="translate(12,12)"
       id="g144" />
  </g>
  <g
     aria-label="OUT"
     id="text99"
     style="font-weight:bold;font-size:8px;font-family:Helvetica;text-anchor:middle;fill:#343434"
     class="label">
    <path
       d="m 24.710937,342.16016 q -1.234375,0 -1.886718,-0.67188 -0.875,-0.82422 -0.875,-2.375 0,-1.58203 0.875,-2.375 0.652343,-0.67187 1.886718,-0.67187 1.234375,0 1.886719,0.67187 0.871094,0.79297 0.871094,2.375 0,1.55078 -0.871094,2.375 -0.652344,0.67188 -1.886719,0.67188 z m 1.136719,-1.54688 q 0.417969,-0.52734 0.417969,-1.5 0,-0.96875 -0.421875,-1.49609 -0.417969,-0.53125 -1.132813,-0.53125 -0.714843,0 -1.140625,0.52734 -0.425781,0.52734 -0.425781,1.5 0,0.97266 0.425781,1.5 0.425782,0.52734 1.140625,0.52734 0.714844,0 1.136719,-0.52734 z"
       style="font-weight:bold;font-size:8px;font-family:Helvetica;text-anchor:middle;fill:#343434"
       id="path186" />
    <path
       d="m 31.789062,339.78125 v -3.53906 h 1.222657 v 3.53906 q 0,0.91797 -0.285157,1.42969 -0.53125,0.9375 -2.027343,0.9375 -1.496094,0 -2.03125,-0.9375 -0.285157,-0.51172 -0.285157,-1.42969 v -3.53906 h 1.222657 v 3.53906 q 0,0.59375 0.140625,0.86719 0.21875,0.48437 0.953125,0.48437 0.730468,0 0.949218,-0.48437 0.140625,-0.27344 0.140625,-0.86719 z"
       style="font-weight:bold;font-size:8px;font-family:Helvetica;text-anchor:middle;fill:#343434"
       id="path188" />
    <path
       d="m 38.347656,336.24219 v 1.01953 H 36.625 V 342 h -1.210938 v -4.73828 h -1.730468 v -1.01953 z"
       style="font-weight:bold;font-size:8px;font-family:Helvetica;text-anchor:middle;fill:#343434"
       id="path190" />
  </g>
</svg>
