<?xml version="1.0" encoding="UTF-8" standalone="no"?>
<svg
   xmlns:dc="http://purl.org/dc/elements/1.1/"
   xmlns:cc="http://creativecommons.org/ns#"
   xmlns:rdf="http://www.w3.org/1999/02/22-rdf-syntax-ns#"
   xmlns:svg="http://www.w3.org/2000/svg"
   xmlns="http://www.w3.org/2000/svg"
   xmlns:xlink="http://www.w3.org/1999/xlink"
   xmlns:sodipodi="http://sodipodi.sourceforge.net/DTD/sodipodi-0.dtd"
   xmlns:inkscape="http://www.inkscape.org/namespaces/inkscape"
   version="1.1"
   width="45"
   height="380"
   viewBox="0 0 45 380"
   id="svg112"
   sodipodi:docname="SAT.svg"
   inkscape:version="1.0.2 (e86c8708, 2021-01-15)">
  <metadata
     id="metadata116">
    <rdf:RDF>
      <cc:Work
         rdf:about="">
        <dc:format>image/svg+xml</dc:format>
        <dc:type
           rdf:resource="http://purl.org/dc/dcmitype/StillImage" />
      </cc:Work>
    </rdf:RDF>
  </metadata>
  <sodipodi:namedview
     pagecolor="#ffffff"
     bordercolor="#666666"
     borderopacity="1"
     objecttolerance="10"
     gridtolerance="10"
     guidetolerance="10"
     inkscape:pageopacity="0"
     inkscape:pageshadow="2"
     inkscape:window-width="689"
     inkscape:window-height="480"
     id="namedview114"
     showgrid="false"
     inkscape:zoom="2.1763158"
     inkscape:cx="22.5"
     inkscape:cy="190"
     inkscape:window-x="0"
     inkscape:window-y="25"
     inkscape:window-maximized="0"
     inkscape:current-layer="svg112" />
  <style
     id="style2">
    text.title {
      fill: #a91913;
      font-family: 'Avenir Next';
      font-size: 12.5pt;
    }
    text.logo {
      fill: #a91913;
      font-family: 'Avenir Next';
      font-size: 10.5pt;
    }
    text.big-label {
      fill: #343434;
      font-family: 'Helvetica';
      font-weight: bold;
      font-size: 7.5pt;
    }
    text.label {
      fill: #343434;
      font-family: 'Helvetica';
      font-weight: bold;
      font-size: 6pt;
    }
    .background {
      fill: #e0e0e0;
    }
    .output {
      fill: #bbbbbb;
    }
    polyline.icon {
      stroke: #343434;
      stroke-width: 1.2;
      fill: none;
    }
    polyline.connect {
      stroke: #343434;
      stroke-width: 1;
      fill: none;
    }

    .blueprint {
      stroke: #08f;
      fill: none;
    }
  </style>
  <!-- ======== defs ======== -->
  <defs
     id="defs60">
    <linearGradient
       id="smallKnobMediumGradient">
      <stop
         offset="5%"
         stop-color="#888"
         id="stop4" />
      <stop
         offset="95%"
         stop-color="#333"
         id="stop6" />
    </linearGradient>
    <linearGradient
       id="smallKnobDarkGradient">
      <stop
         offset="5%"
         stop-color="#444"
         id="stop9" />
      <stop
         offset="95%"
         stop-color="#222"
         id="stop11" />
    </linearGradient>
    <linearGradient
       id="bigKnobDarkGradient">
      <stop
         offset="5%"
         stop-color="#5c5c5c"
         id="stop14" />
      <stop
         offset="95%"
         stop-color="#282828"
         id="stop16" />
    </linearGradient>
    <linearGradient
       id="bigKnobMediumGradient">
      <stop
         offset="5%"
         stop-color="#888"
         id="stop19" />
      <stop
         offset="95%"
         stop-color="#333"
         id="stop21" />
    </linearGradient>
    <symbol
       id="knob18">
      <g
         transform="translate(9 9)"
         id="g30">
        <circle
           r="8.5"
           stroke="#222"
           fill="none"
           id="circle24" />
        <circle
           r="8"
           fill="url('#smallKnobMediumGradient')"
           transform="rotate(90)"
           id="circle26" />
        <circle
           r="7"
           fill="url('#smallKnobDarkGradient')"
           transform="rotate(90)"
           id="circle28" />
      </g>
    </symbol>
    <symbol
       id="knob32">
      <g
         transform="translate(16 16)"
         id="g37">
        <circle
           r="15.5"
           fill="url('#bigKnobDarkGradient')"
           transform="rotate(90)"
           id="circle33" />
        <circle
           r="13.5"
           fill="url('#bigKnobMediumGradient')"
           transform="rotate(90)"
           id="circle35" />
      </g>
    </symbol>
    <symbol
       id="knob40">
      <g
         transform="translate(20 20)"
         id="g44">
        <circle
           r="19.5"
           fill="url('#bigKnobDarkGradient')"
           transform="rotate(90)"
           id="circle40" />
        <circle
           r="17.5"
           fill="url('#bigKnobMediumGradient')"
           transform="rotate(90)"
           id="circle42" />
      </g>
    </symbol>
    <symbol
       id="knob50">
      <g
         transform="translate(25 25)"
         id="g51">
        <circle
           r="24.5"
           fill="url('#bigKnobDarkGradient')"
           transform="rotate(90)"
           id="circle47" />
        <circle
           r="22.5"
           fill="url('#bigKnobMediumGradient')"
           transform="rotate(90)"
           id="circle49" />
      </g>
    </symbol>
    <symbol
       id="port">
      <g
         transform="translate(12 12)"
         id="g54" />
    </symbol>
    <symbol
       id="hswitch14">
      <g
         transform="translate(12 7)"
         id="g57" />
    </symbol>
    <linearGradient
       inkscape:collect="always"
       xlink:href="#bigKnobDarkGradient"
       id="linearGradient153"
       x1="-15.5"
       y1="-15.5"
       x2="15.5"
       y2="-15.5"
       gradientUnits="userSpaceOnUse" />
    <linearGradient
       inkscape:collect="always"
       xlink:href="#bigKnobMediumGradient"
       id="linearGradient155"
       x1="-13.5"
       y1="-13.5"
       x2="13.5"
       y2="-13.5"
       gradientUnits="userSpaceOnUse" />
    <linearGradient
       inkscape:collect="always"
       xlink:href="#smallKnobMediumGradient"
       id="linearGradient167"
       x1="-8"
       y1="-8"
       x2="8"
       y2="-8"
       gradientUnits="userSpaceOnUse" />
    <linearGradient
       inkscape:collect="always"
       xlink:href="#smallKnobDarkGradient"
       id="linearGradient169"
       x1="-7"
       y1="-7"
       x2="7"
       y2="-7"
       gradientUnits="userSpaceOnUse" />
  </defs>
  <!-- ======== id ======== -->
  <path
     id="rect62"
     style="fill:#e0e0e0"
     d="M 0,0 H 45 V 380 H 0 Z"
     class="background" />
  <g
     aria-label="SAT"
     id="text64"
     style="font-size:16.6667px;font-family:'Avenir Next';text-anchor:middle;fill:#a91913"
     class="title">
    <path
       d="m 15.004688,20.1 q -0.383334,-0.533333 -0.983334,-0.85 -0.599999,-0.333333 -1.449999,-0.333333 -0.433334,0 -0.883334,0.133333 -0.45,0.133334 -0.816666,0.416667 -0.366667,0.266667 -0.6,0.683333 -0.216667,0.416667 -0.216667,0.983334 0,0.566666 0.216667,0.933333 0.216666,0.366667 0.566666,0.633333 0.366667,0.25 0.816667,0.416667 0.466667,0.166667 0.966667,0.333333 0.616666,0.2 1.233333,0.433334 0.633333,0.233333 1.133333,0.616666 0.5,0.366667 0.816667,0.95 0.316666,0.566667 0.316666,1.45 0,0.883333 -0.35,1.533333 -0.333333,0.633334 -0.883333,1.05 Q 14.354688,29.9 13.654688,30.1 q -0.683333,0.2 -1.383333,0.2 -0.533334,0 -1.066667,-0.116667 -0.533333,-0.1 -1.016667,-0.316666 Q 9.704688,29.65 9.2880213,29.316667 8.8713547,28.983333 8.554688,28.55 l 1.0333333,-0.766667 q 0.3833333,0.633334 1.0666667,1.066667 0.7,0.416667 1.633333,0.416667 0.45,0 0.916667,-0.133334 0.466667,-0.15 0.833333,-0.433333 0.383333,-0.3 0.616667,-0.716667 0.25,-0.433333 0.25,-1 0,-0.616666 -0.25,-1.016666 Q 14.421354,25.55 14.021354,25.283334 13.621355,25 13.104688,24.816667 12.588021,24.633334 12.021355,24.45 11.438021,24.266667 10.871355,24.033334 10.304688,23.8 9.854688,23.433334 9.404688,23.05 9.1213547,22.5 8.854688,21.95 8.854688,21.15 q 0,-0.85 0.3333333,-1.466666 0.35,-0.616667 0.8999997,-1.016667 0.55,-0.4 1.216667,-0.583333 Q 11.971355,17.9 12.621355,17.9 q 1.199999,0 2.049999,0.433334 0.85,0.416666 1.283334,1 z"
       style="font-size:16.6667px;font-family:'Avenir Next';text-anchor:middle;fill:#a91913"
       id="path198" />
    <path
       d="m 18.61224,30 h -1.316667 l 5.1,-11.8 H 23.56224 L 28.628906,30 h -1.333333 l -1.3,-3.1 h -6.1 z m 1.733333,-4.2 h 5.2 l -2.6,-6.266666 z"
       style="font-size:16.6667px;font-family:'Avenir Next';text-anchor:middle;fill:#a91913"
       id="path200" />
    <path
       d="m 33.123437,30 h -1.2 V 19.266667 h -3.95 V 18.2 h 9.099999 v 1.066667 h -3.949999 z"
       style="font-size:16.6667px;font-family:'Avenir Next';text-anchor:middle;fill:#a91913"
       id="path202" />
  </g>
  <g
     aria-label="deneb"
     id="text66"
     style="font-size:14px;font-family:'Avenir Next';text-anchor:middle;fill:#a91913"
     class="logo">
    <path
       d="m 8.1636719,360.894 q -0.42,0.63 -1.092,0.952 -0.672,0.322 -1.386,0.322 -0.77,0 -1.4,-0.266 -0.616,-0.266 -1.064,-0.728 -0.434,-0.462 -0.686,-1.092 -0.238,-0.63 -0.238,-1.358 0,-0.728 0.238,-1.358 0.252,-0.63 0.686,-1.092 0.448,-0.462 1.064,-0.728 0.63,-0.266 1.4,-0.266 0.714,0 1.386,0.336 0.672,0.322 1.092,0.966 h 0.028 v -5.166 h 0.952 V 362 h -0.952 v -1.106 z m -4.858,-2.17 q 0,0.546 0.168,1.036 0.168,0.476 0.476,0.84 0.322,0.35 0.784,0.56 0.462,0.196 1.05,0.196 0.546,0 1.008,-0.196 0.462,-0.21 0.798,-0.56 0.336,-0.35 0.518,-0.826 0.196,-0.49 0.196,-1.05 0,-0.56 -0.196,-1.036 -0.182,-0.49 -0.518,-0.84 -0.336,-0.364 -0.798,-0.56 -0.462,-0.21 -1.008,-0.21 -0.588,0 -1.05,0.21 -0.462,0.21 -0.784,0.574 -0.308,0.35 -0.476,0.84 -0.168,0.476 -0.168,1.022 z"
       style="font-size:14px;font-family:'Avenir Next';text-anchor:middle;fill:#a91913"
       id="path187" />
    <path
       d="m 16.685734,358.22 q -0.042,-0.924 -0.602,-1.526 -0.546,-0.616 -1.568,-0.616 -0.476,0 -0.882,0.182 -0.406,0.168 -0.714,0.476 -0.308,0.294 -0.49,0.686 -0.182,0.378 -0.21,0.798 z m 0.966,0.308 q 0,0.098 0,0.21 0,0.112 -0.014,0.238 h -5.432 q 0.014,0.49 0.196,0.924 0.182,0.434 0.504,0.756 0.322,0.322 0.756,0.518 0.434,0.182 0.938,0.182 0.742,0 1.274,-0.336 0.546,-0.35 0.826,-0.798 l 0.714,0.56 q -0.588,0.742 -1.302,1.064 -0.7,0.322 -1.512,0.322 -0.728,0 -1.358,-0.252 -0.616,-0.266 -1.064,-0.728 -0.448,-0.462 -0.714,-1.092 -0.252,-0.63 -0.252,-1.372 0,-0.742 0.252,-1.372 0.252,-0.63 0.7,-1.092 0.448,-0.462 1.05,-0.714 0.602,-0.266 1.302,-0.266 0.77,0 1.358,0.266 0.588,0.252 0.98,0.7 0.392,0.434 0.588,1.022 0.21,0.588 0.21,1.26 z"
       style="font-size:14px;font-family:'Avenir Next';text-anchor:middle;fill:#a91913"
       id="path189" />
    <path
       d="m 20.553453,355.448 q 0.028,0.266 0.042,0.588 0.014,0.322 0.014,0.532 h 0.028 q 0.28,-0.574 0.91,-0.924 0.63,-0.364 1.33,-0.364 1.246,0 1.862,0.742 0.63,0.742 0.63,1.96 V 362 h -0.952 v -3.626 q 0,-0.518 -0.084,-0.938 -0.084,-0.42 -0.294,-0.714 -0.196,-0.308 -0.546,-0.476 -0.336,-0.168 -0.854,-0.168 -0.378,0 -0.742,0.154 -0.35,0.154 -0.63,0.476 -0.28,0.308 -0.448,0.798 -0.168,0.476 -0.168,1.134 V 362 h -0.952 v -5.11 q 0,-0.266 -0.014,-0.686 -0.014,-0.42 -0.042,-0.756 z"
       style="font-size:14px;font-family:'Avenir Next';text-anchor:middle;fill:#a91913"
       id="path191" />
    <path
       d="m 32.818547,358.22 q -0.042,-0.924 -0.602,-1.526 -0.546,-0.616 -1.568,-0.616 -0.476,0 -0.882,0.182 -0.406,0.168 -0.714,0.476 -0.308,0.294 -0.49,0.686 -0.182,0.378 -0.21,0.798 z m 0.966,0.308 q 0,0.098 0,0.21 0,0.112 -0.014,0.238 h -5.432 q 0.014,0.49 0.196,0.924 0.182,0.434 0.504,0.756 0.322,0.322 0.756,0.518 0.434,0.182 0.938,0.182 0.742,0 1.274,-0.336 0.546,-0.35 0.826,-0.798 l 0.714,0.56 q -0.588,0.742 -1.302,1.064 -0.7,0.322 -1.512,0.322 -0.728,0 -1.358,-0.252 -0.616,-0.266 -1.064,-0.728 -0.448,-0.462 -0.714,-1.092 -0.252,-0.63 -0.252,-1.372 0,-0.742 0.252,-1.372 0.252,-0.63 0.7,-1.092 0.448,-0.462 1.05,-0.714 0.602,-0.266 1.302,-0.266 0.77,0 1.358,0.266 0.588,0.252 0.98,0.7 0.392,0.434 0.588,1.022 0.21,0.588 0.21,1.26 z"
       style="font-size:14px;font-family:'Avenir Next';text-anchor:middle;fill:#a91913"
       id="path193" />
    <path
       d="M 36.812266,360.894 V 362 h -0.952 v -10.584 h 0.952 v 5.166 h 0.028 q 0.42,-0.644 1.092,-0.966 0.672,-0.336 1.386,-0.336 0.77,0 1.386,0.266 0.63,0.266 1.064,0.728 0.448,0.462 0.686,1.092 0.252,0.63 0.252,1.358 0,0.728 -0.252,1.358 -0.238,0.63 -0.686,1.092 -0.434,0.462 -1.064,0.728 -0.616,0.266 -1.386,0.266 -0.714,0 -1.386,-0.322 -0.672,-0.322 -1.092,-0.952 z m 4.886,-2.17 q 0,-0.546 -0.168,-1.022 -0.168,-0.49 -0.49,-0.84 -0.308,-0.364 -0.77,-0.574 -0.462,-0.21 -1.05,-0.21 -0.546,0 -1.008,0.21 -0.462,0.196 -0.798,0.56 -0.336,0.35 -0.532,0.84 -0.182,0.476 -0.182,1.036 0,0.56 0.182,1.05 0.196,0.476 0.532,0.826 0.336,0.35 0.798,0.56 0.462,0.196 1.008,0.196 0.588,0 1.05,-0.196 0.462,-0.21 0.77,-0.56 0.322,-0.364 0.49,-0.84 0.168,-0.49 0.168,-1.036 z"
       style="font-size:14px;font-family:'Avenir Next';text-anchor:middle;fill:#a91913"
       id="path195" />
  </g>
  <!-- ======== knobs and switches ======== -->
  <path
     id="polyline68"
     transform="translate(22.5,78)"
     style="fill:none;stroke:#343434;stroke-width:1"
     d="M 0,0 V 42"
     class="connect" />
  <g
     aria-label="DRIVE"
     id="text72"
     style="font-weight:bold;font-size:10px;font-family:Helvetica;text-anchor:middle;fill:#343434"
     class="big-label">
    <path
       d="M 11.069336,56 H 7.96875 v -7.197266 h 3.100586 q 0.668945,0.0098 1.113281,0.15625 0.756836,0.249024 1.225586,0.913086 0.375977,0.53711 0.512695,1.16211 0.136719,0.625 0.136719,1.191406 0,1.435547 -0.576172,2.431641 Q 12.700195,56 11.069336,56 Z M 12.1875,50.638672 Q 11.84082,50.052734 10.81543,50.052734 H 9.4287109 V 54.75 H 10.81543 q 1.064453,0 1.484375,-1.049805 0.229492,-0.576172 0.229492,-1.37207 0,-1.098633 -0.341797,-1.689453 z"
       style="font-weight:bold;font-size:10px;font-family:Helvetica;text-anchor:middle;fill:#343434"
       id="path176" />
    <path
       d="M 18.251953,53.177734 H 16.699219 V 56 h -1.469727 v -7.197266 h 3.530274 q 0.756836,0.01465 1.162109,0.185547 0.410156,0.170899 0.693359,0.50293 0.234375,0.273437 0.371094,0.605469 0.136719,0.332031 0.136719,0.756836 0,0.512695 -0.258789,1.010742 -0.258789,0.493164 -0.854492,0.698242 0.498046,0.200195 0.703125,0.571289 0.209961,0.366211 0.209961,1.123047 v 0.483398 q 0,0.493164 0.03906,0.668946 0.05859,0.27832 0.273438,0.410156 V 56 h -1.655274 q -0.06836,-0.239258 -0.09766,-0.385742 -0.05859,-0.302735 -0.06348,-0.620117 l -0.0098,-0.668946 q -0.0098,-0.688476 -0.253907,-0.917968 -0.239257,-0.229493 -0.90332,-0.229493 z m 0.913086,-1.308593 q 0.449219,-0.205079 0.449219,-0.810547 0,-0.654297 -0.434571,-0.878907 -0.24414,-0.126953 -0.732421,-0.126953 h -1.748047 v 1.933594 h 1.704101 q 0.507813,0 0.761719,-0.117187 z"
       style="font-weight:bold;font-size:10px;font-family:Helvetica;text-anchor:middle;fill:#343434"
       id="path178" />
    <path
       d="m 22.304687,48.802734 h 1.494141 V 56 h -1.494141 z"
       style="font-weight:bold;font-size:10px;font-family:Helvetica;text-anchor:middle;fill:#343434"
       id="path180" />
    <path
       d="m 24.663086,48.802734 h 1.606445 l 1.5625,5.463868 1.577149,-5.463868 h 1.5625 L 28.515625,56 h -1.420898 z"
       style="font-weight:bold;font-size:10px;font-family:Helvetica;text-anchor:middle;fill:#343434"
       id="path182" />
    <path
       d="m 36.884766,52.855469 h -3.496094 v 1.850586 h 3.984375 V 56 h -5.454102 v -7.197266 h 5.278321 v 1.274414 h -3.808594 v 1.528321 h 3.496094 z"
       style="font-weight:bold;font-size:10px;font-family:Helvetica;text-anchor:middle;fill:#343434"
       id="path184" />
  </g>
  <g
     id="use74"
     transform="translate(6.5,62)">
    <g
       transform="translate(16,16)"
       id="g149">
      <path
         id="circle145"
         style="fill:url(#linearGradient153)"
         transform="rotate(90)"
         d="M 15.5,0 A 15.5,15.5 0 0 1 0,15.5 15.5,15.5 0 0 1 -15.5,0 15.5,15.5 0 0 1 0,-15.5 15.5,15.5 0 0 1 15.5,0 Z" />
      <path
         id="circle147"
         style="fill:url(#linearGradient155)"
         transform="rotate(90)"
         d="M 13.5,0 A 13.5,13.5 0 0 1 0,13.5 13.5,13.5 0 0 1 -13.5,0 13.5,13.5 0 0 1 0,-13.5 13.5,13.5 0 0 1 13.5,0 Z" />
    </g>
  </g>
  <!-- ======== row 1 ======== -->
  <path
     id="polyline78"
     transform="translate(22.5,120)"
     style="fill:none;stroke:#343434;stroke-width:1"
     d="M 0,0 V 42"
     class="connect" />
  <g
     transform="translate(22.5,135)"
     id="g86">
    <path
       id="polyline80"
       style="fill:none;stroke:#343434;stroke-width:1.2"
       d="m -7,0 h 4"
       class="icon" />
    <path
       id="polyline82"
       style="fill:none;stroke:#343434;stroke-width:1.2"
       d="M 7,0 H 3"
       class="icon" />
    <path
       id="polyline84"
       style="fill:none;stroke:#343434;stroke-width:1.2"
       d="M 5,-2 V 2"
       class="icon" />
  </g>
  <g
     id="use90"
     transform="translate(13.5,111)">
    <g
       transform="translate(9,9)"
       id="g163">
      <path
         id="circle157"
         style="fill:none;stroke:#222222"
         d="M 8.5,0 A 8.5,8.5 0 0 1 0,8.5 8.5,8.5 0 0 1 -8.5,0 8.5,8.5 0 0 1 0,-8.5 8.5,8.5 0 0 1 8.5,0 Z" />
      <path
         id="circle159"
         style="fill:url(#linearGradient167)"
         transform="rotate(90)"
         d="M 8,0 A 8,8 0 0 1 0,8 8,8 0 0 1 -8,0 8,8 0 0 1 0,-8 8,8 0 0 1 8,0 Z" />
      <path
         id="circle161"
         style="fill:url(#linearGradient169)"
         transform="rotate(90)"
         d="M 7,0 A 7,7 0 0 1 0,7 7,7 0 0 1 -7,0 7,7 0 0 1 0,-7 7,7 0 0 1 7,0 Z" />
    </g>
  </g>
  <!-- ======== row 2 ======== -->
  <g
     id="use94"
     transform="translate(10.5,150)">
    <g
       transform="translate(12,12)"
       id="g133" />
  </g>
  <!-- ======== row 3 ======== -->
  <g
     id="use98"
     transform="translate(10.5,266)">
    <g
       transform="translate(12,12)"
       id="g137" />
  </g>
  <g
     aria-label="IN"
     id="text100"
     style="font-weight:bold;font-size:8px;font-family:Helvetica;text-anchor:middle;fill:#343434"
     class="label">
    <path
       d="m 19.015625,294.24219 h 1.195312 V 300 h -1.195312 z"
       style="font-weight:bold;font-size:8px;font-family:Helvetica;text-anchor:middle;fill:#343434"
       id="path214" />
    <path
       d="M 25.984375,300 H 24.78125 l -2.351563,-4.08984 V 300 h -1.121093 v -5.75781 h 1.261718 l 2.292969,4.01953 v -4.01953 h 1.121094 z"
       style="font-weight:bold;font-size:8px;font-family:Helvetica;text-anchor:middle;fill:#343434"
       id="path216" />
  </g>
  <!-- ======== row 4 ======== -->
  <path
     id="rect104"
     style="fill:#bbbbbb"
     d="m 9.5,304 h 26 c 1.662,0 3,1.338 3,3 v 36 c 0,1.662 -1.338,3 -3,3 h -26 c -1.662,0 -3,-1.338 -3,-3 v -36 c 0,-1.662 1.338,-3 3,-3 z"
     class="output" />
  <g
     id="use106"
     transform="translate(10.5,308)">
    <g
       transform="translate(12,12)"
       id="g141" />
  </g>
  <g
     aria-label="OUT"
     id="text108"
     style="font-weight:bold;font-size:8px;font-family:Helvetica;text-anchor:middle;fill:#343434"
     class="label">
    <path
       d="m 17.210937,342.16016 q -1.234374,0 -1.886718,-0.67188 -0.875,-0.82422 -0.875,-2.375 0,-1.58203 0.875,-2.375 0.652344,-0.67187 1.886718,-0.67187 1.234375,0 1.886719,0.67187 0.871094,0.79297 0.871094,2.375 0,1.55078 -0.871094,2.375 -0.652344,0.67188 -1.886719,0.67188 z m 1.136719,-1.54688 q 0.417969,-0.52734 0.417969,-1.5 0,-0.96875 -0.421875,-1.49609 -0.417969,-0.53125 -1.132813,-0.53125 -0.714843,0 -1.140625,0.52734 -0.425781,0.52734 -0.425781,1.5 0,0.97266 0.425781,1.5 0.425782,0.52734 1.140625,0.52734 0.714844,0 1.136719,-0.52734 z"
       style="font-weight:bold;font-size:8px;font-family:Helvetica;text-anchor:middle;fill:#343434"
       id="path206" />
    <path
       d="m 24.289062,339.78125 v -3.53906 h 1.222657 v 3.53906 q 0,0.91797 -0.285157,1.42969 -0.53125,0.9375 -2.027343,0.9375 -1.496094,0 -2.03125,-0.9375 -0.285157,-0.51172 -0.285157,-1.42969 v -3.53906 h 1.222657 v 3.53906 q 0,0.59375 0.140625,0.86719 0.21875,0.48437 0.953125,0.48437 0.730468,0 0.949218,-0.48437 0.140625,-0.27344 0.140625,-0.86719 z"
       style="font-weight:bold;font-size:8px;font-family:Helvetica;text-anchor:middle;fill:#343434"
       id="path208" />
    <path
       d="m 30.847656,336.24219 v 1.01953 H 29.125 V 342 h -1.210938 v -4.73828 h -1.730468 v -1.01953 z"
       style="font-weight:bold;font-size:8px;font-family:Helvetica;text-anchor:middle;fill:#343434"
       id="path210" />
  </g>
</svg>
