<?xml version="1.0" encoding="UTF-8" standalone="no"?>
<svg
   xmlns:dc="http://purl.org/dc/elements/1.1/"
   xmlns:cc="http://creativecommons.org/ns#"
   xmlns:rdf="http://www.w3.org/1999/02/22-rdf-syntax-ns#"
   xmlns:svg="http://www.w3.org/2000/svg"
   xmlns="http://www.w3.org/2000/svg"
   xmlns:xlink="http://www.w3.org/1999/xlink"
   xmlns:sodipodi="http://sodipodi.sourceforge.net/DTD/sodipodi-0.dtd"
   xmlns:inkscape="http://www.inkscape.org/namespaces/inkscape"
   version="1.1"
   width="45"
   height="380"
   viewBox="0 0 45 380"
   id="svg112"
   sodipodi:docname="SAT.svg"
   inkscape:version="1.0.2 (e86c8708, 2021-01-15)">
  <metadata
     id="metadata116">
    <rdf:RDF>
      <cc:Work
         rdf:about="">
        <dc:format>image/svg+xml</dc:format>
        <dc:type
           rdf:resource="http://purl.org/dc/dcmitype/StillImage" />
      </cc:Work>
    </rdf:RDF>
  </metadata>
  <sodipodi:namedview
     pagecolor="#ffffff"
     bordercolor="#666666"
     borderopacity="1"
     objecttolerance="10"
     gridtolerance="10"
     guidetolerance="10"
     inkscape:pageopacity="0"
     inkscape:pageshadow="2"
     inkscape:window-width="689"
     inkscape:window-height="480"
     id="namedview114"
     showgrid="false"
     inkscape:zoom="2.1763158"
     inkscape:cx="22.5"
     inkscape:cy="190"
     inkscape:window-x="0"
     inkscape:window-y="25"
     inkscape:window-maximized="0"
     inkscape:current-layer="svg112" />
  <style
     id="style2">
    text.title {
      fill: #a91913;
      font-family: 'American Typewriter';
      font-size: 12.5pt;
    }
    text.logo {
      fill: #a91913;
      font-family: 'American Typewriter';
      font-size: 11pt;
    }
    text.big-label {
      fill: #343434;
      font-family: 'Helvetica';
      font-weight: bold;
      font-size: 7.5pt;
    }
    text.label {
      fill: #343434;
      font-family: 'Helvetica';
      font-weight: bold;
      font-size: 6pt;
    }
    .background {
      fill: #e0e0e0;
    }
    .output {
      fill: #bbbbbb;
    }
    polyline.icon {
      stroke: #343434;
      stroke-width: 1.2;
      fill: none;
    }
    polyline.connect {
      stroke: #343434;
      stroke-width: 1;
      fill: none;
    }

    .blueprint {
      stroke: #08f;
      fill: none;
    }
  </style>
  <!-- ======== defs ======== -->
  <defs
     id="defs60">
    <linearGradient
       id="smallKnobMediumGradient">
      <stop
         offset="5%"
         stop-color="#888"
         id="stop4" />
      <stop
         offset="95%"
         stop-color="#333"
         id="stop6" />
    </linearGradient>
    <linearGradient
       id="smallKnobDarkGradient">
      <stop
         offset="5%"
         stop-color="#444"
         id="stop9" />
      <stop
         offset="95%"
         stop-color="#222"
         id="stop11" />
    </linearGradient>
    <linearGradient
       id="bigKnobDarkGradient">
      <stop
         offset="5%"
         stop-color="#5c5c5c"
         id="stop14" />
      <stop
         offset="95%"
         stop-color="#282828"
         id="stop16" />
    </linearGradient>
    <linearGradient
       id="bigKnobMediumGradient">
      <stop
         offset="5%"
         stop-color="#888"
         id="stop19" />
      <stop
         offset="95%"
         stop-color="#333"
         id="stop21" />
    </linearGradient>
    <symbol
       id="knob18">
      <g
         transform="translate(9 9)"
         id="g30">
        <circle
           r="8.5"
           stroke="#222"
           fill="none"
           id="circle24" />
        <circle
           r="8"
           fill="url('#smallKnobMediumGradient')"
           transform="rotate(90)"
           id="circle26" />
        <circle
           r="7"
           fill="url('#smallKnobDarkGradient')"
           transform="rotate(90)"
           id="circle28" />
      </g>
    </symbol>
    <symbol
       id="knob32">
      <g
         transform="translate(16 16)"
         id="g37">
        <circle
           r="15.5"
           fill="url('#bigKnobDarkGradient')"
           transform="rotate(90)"
           id="circle33" />
        <circle
           r="13.5"
           fill="url('#bigKnobMediumGradient')"
           transform="rotate(90)"
           id="circle35" />
      </g>
    </symbol>
    <symbol
       id="knob40">
      <g
         transform="translate(20 20)"
         id="g44">
        <circle
           r="19.5"
           fill="url('#bigKnobDarkGradient')"
           transform="rotate(90)"
           id="circle40" />
        <circle
           r="17.5"
           fill="url('#bigKnobMediumGradient')"
           transform="rotate(90)"
           id="circle42" />
      </g>
    </symbol>
    <symbol
       id="knob50">
      <g
         transform="translate(25 25)"
         id="g51">
        <circle
           r="24.5"
           fill="url('#bigKnobDarkGradient')"
           transform="rotate(90)"
           id="circle47" />
        <circle
           r="22.5"
           fill="url('#bigKnobMediumGradient')"
           transform="rotate(90)"
           id="circle49" />
      </g>
    </symbol>
    <symbol
       id="port">
      <g
         transform="translate(12 12)"
         id="g54" />
    </symbol>
    <symbol
       id="hswitch14">
      <g
         transform="translate(12 7)"
         id="g57" />
    </symbol>
    <linearGradient
       inkscape:collect="always"
       xlink:href="#bigKnobDarkGradient"
       id="linearGradient153"
       x1="-15.5"
       y1="-15.5"
       x2="15.5"
       y2="-15.5"
       gradientUnits="userSpaceOnUse" />
    <linearGradient
       inkscape:collect="always"
       xlink:href="#bigKnobMediumGradient"
       id="linearGradient155"
       x1="-13.5"
       y1="-13.5"
       x2="13.5"
       y2="-13.5"
       gradientUnits="userSpaceOnUse" />
    <linearGradient
       inkscape:collect="always"
       xlink:href="#smallKnobMediumGradient"
       id="linearGradient167"
       x1="-8"
       y1="-8"
       x2="8"
       y2="-8"
       gradientUnits="userSpaceOnUse" />
    <linearGradient
       inkscape:collect="always"
       xlink:href="#smallKnobDarkGradient"
       id="linearGradient169"
       x1="-7"
       y1="-7"
       x2="7"
       y2="-7"
       gradientUnits="userSpaceOnUse" />
  </defs>
  <!-- ======== id ======== -->
  <path
     id="rect62"
     style="fill:#e0e0e0"
     d="M 0,0 H 45 V 380 H 0 Z"
     class="background" />
  <g
     aria-label="SAT"
     id="text64"
     style="font-size:16.6667px;font-family:'American Typewriter';text-anchor:middle;fill:#a91913"
     class="title">
    <path
       d="m 11.291797,18.516667 q 1.633334,0 2.666667,1.05 v -0.233333 q 0,-0.65 0.516667,-0.65 0.566666,0 0.566666,0.716666 v 0.1 q 0,0.03333 -0.05,0.5 -0.05,0.466667 -0.05,1.116667 0,0.08333 0.03333,0.533333 l 0.05,0.666667 q 0.01667,0.08333 0.01667,0.233333 0,0.8 -0.616666,0.8 -0.65,0 -0.65,-0.666666 0,-0.08333 0,-0.08333 l 0.03333,-0.45 q 0.01667,-0.233333 0.01667,-0.366666 0,-1 -0.683334,-1.566667 -0.666666,-0.566667 -1.85,-0.566667 -1.083333,0 -1.733333,0.533334 -0.6333333,0.533333 -0.6333333,1.433333 0,1.05 0.95,1.55 0.5333333,0.266667 1.8666663,0.483333 1.983334,0.316667 2.716667,0.866667 1.1,0.816667 1.1,2.316666 0,1.566667 -1.133333,2.55 -1.116667,0.983334 -2.9,0.983334 -1.9000003,0 -3.1500003,-1.2 0,0.06667 0.016667,0.15 0,0.08333 0,0.1 0.033333,0.266666 0.033333,0.35 0,0.616666 -0.5833333,0.616666 -0.6333333,0 -0.6333333,-0.7 0,-0.08333 0.016667,-0.133333 l 0.066667,-0.866667 q 0.05,-0.65 0.05,-0.833333 0,-0.333333 -0.083333,-1 -0.083333,-0.666667 -0.083333,-1 0,-0.75 0.6333333,-0.75 0.65,0 0.65,0.75 v 0.3 q -0.016667,0.133333 -0.016667,0.383333 0,1.25 0.8,1.983334 Q 10.041797,29.25 11.408464,29.25 q 1.266667,0 2.016667,-0.6 0.75,-0.6 0.75,-1.633333 0,-1.583333 -2,-1.933333 l -0.95,-0.166667 Q 9.808464,24.666667 9.0251307,24.333334 8.3084641,24.016667 7.8751308,23.35 7.4584641,22.666667 7.4584641,21.816667 q 0,-1.466667 1.0666666,-2.383333 1.0666667,-0.916667 2.7666663,-0.916667 z"
       style="font-size:16.6667px;font-family:'American Typewriter';text-anchor:middle;fill:#a91913"
       id="path196" />
    <path
       d="m 25.004813,28.116667 -0.6,-1.633334 q -0.1,-0.266666 -0.216666,-0.333333 -0.1,-0.06667 -0.433334,-0.06667 h -2.966666 q -0.333334,0 -0.466667,0.116667 -0.116667,0.116667 -0.316667,0.633333 l -0.483333,1.283334 q -0.06667,0.183333 -0.06667,0.35 0,0.533333 0.649999,0.533333 0.166667,0 0.466667,-0.03333 0.316667,-0.03333 0.466667,-0.03333 0.683333,0 0.683333,0.583334 0,0.55 -0.75,0.55 -0.133333,0 -0.366667,-0.03333 L 19.77148,29.916667 q -0.233333,-0.03333 -0.766666,-0.03333 -0.583334,0 -0.816667,0.03333 l -0.7,0.1 q -0.466667,0.06667 -0.683333,0.06667 -0.65,0 -0.65,-0.55 0,-0.583333 0.633333,-0.583333 0.133333,0 0.2,0.01667 h 0.216667 q 0.45,0 0.683333,-0.35 0.1,-0.133334 0.333333,-0.783334 l 3.1,-8.383333 q 0.266667,-0.7 1.05,-0.7 0.766667,0 1.016667,0.7 l 2.983333,8.266667 Q 26.654813,28.5 26.888147,28.75 27.12148,29 27.554813,29 q 0.133334,0 0.2,-0.01667 Q 28.22148,28.95 28.22148,28.95 q 0.633333,0 0.633333,0.533333 0,0.566667 -0.633333,0.566667 -0.183333,0 -0.483333,-0.03333 Q 26.688147,29.9 26.17148,29.9 q -0.616667,0 -2,0.133333 -0.35,0.03333 -0.533333,0.03333 -0.666667,0 -0.666667,-0.566667 0,-0.566667 0.733333,-0.566667 0.15,0 0.433334,0.03333 0.3,0.03333 0.45,0.03333 0.55,0 0.55,-0.45 0,-0.06667 -0.133334,-0.433333 z m -1.2,-3.4 -1.5,-4.6 -1.533333,4.6 q -0.03333,0.1 -0.03333,0.116667 0,0.15 0.25,0.15 h 2.65 q 0.2,0 0.2,-0.133334 0,-0.03333 -0.03333,-0.133333 z"
       style="font-size:16.6667px;font-family:'American Typewriter';text-anchor:middle;fill:#a91913"
       id="path198" />
    <path
       d="m 34.173316,27.8 q 0,1.25 0.85,1.25 0.133333,0 0.4,-0.03333 0.266667,-0.05 0.4,-0.05 0.216667,0 0.366667,0.166666 0.166666,0.15 0.166666,0.366667 0,0.583333 -0.75,0.583333 -0.03333,0 -0.1,0 -0.08333,-0.01667 -0.116666,-0.01667 L 34.573316,29.95 q -0.466667,-0.06667 -1.05,-0.06667 -0.633333,0 -1.116667,0.06667 l -0.833333,0.116667 q -0.05,0 -0.116667,0.01667 -0.08333,0 -0.116666,0 -0.733334,0 -0.733334,-0.583333 0,-0.533333 0.533334,-0.533333 0.133333,0 0.4,0.05 0.266666,0.03333 0.4,0.03333 0.833333,0 0.833333,-1.25 v -1.166667 l 0.01667,-1.466666 V 23.75 l -0.01667,-2.716666 q 0,-1.183334 -1.216667,-1.183334 h -0.516666 q -1.2,0 -1.2,1.166667 0,0.416667 0.01667,0.566667 L 29.923316,22.2 q 0.01667,0.15 0.01667,0.416667 0,1.05 -0.65,1.05 -0.616667,0 -0.616667,-0.766667 0,-0.216666 0.03333,-0.75 0.05,-0.8 0.05,-1.016666 0,-0.416667 -0.03333,-0.866667 -0.06667,-0.883333 -0.06667,-0.75 0,-0.7 0.633334,-0.7 0.233333,0 1.083333,0.05 0.08333,0 1.366667,0.03333 l 1.9,0.03333 q 0.333333,0 1.783333,-0.03333 0.316667,0 1.083333,-0.05 0.683334,-0.05 1.066667,-0.05 0.833333,0 0.833333,0.683334 v 0.03333 q 0,0.166667 -0.05,0.616667 -0.03333,0.45 -0.08333,0.966666 v 0.183334 q 0,0.25 0.05,0.783333 0.06667,0.7 0.06667,0.866667 0,0.683333 -0.65,0.683333 -0.633333,0 -0.633333,-0.833333 0,-0.3 0.05,-0.883334 0.05,-0.6 0.05,-0.9 0,-1.15 -1.316666,-1.15 h -0.466667 q -0.616667,0 -0.883333,0.266667 -0.266667,0.25 -0.3,0.85 l -0.05,1.166667 z"
       style="font-size:16.6667px;font-family:'American Typewriter';text-anchor:middle;fill:#a91913"
       id="path200" />
  </g>
  <g
     aria-label="odin"
     id="text66"
     style="font-size:14.6667px;font-family:'American Typewriter';text-anchor:middle;fill:#a91913"
     class="logo">
    <path
       d="m 11.091166,362.24933 q -1.5399996,0 -2.4639996,-1.056 -0.9240001,-1.07066 -0.9240001,-2.86 0,-1.78933 0.9240001,-2.84533 0.9386667,-1.07067 2.5079996,-1.07067 1.598667,0 2.522667,1.04134 0.924,1.04133 0.924,2.83066 0,1.78934 -0.953333,2.87467 -0.953334,1.08533 -2.537334,1.08533 z m 0.07333,-6.864 q -1.026667,0 -1.6133336,0.71867 -0.5866667,0.71867 -0.6453334,2.03867 0,0 0,0.19066 0,1.37867 0.5720001,2.17067 0.5866669,0.77733 1.6279999,0.77733 1.070667,0 1.672,-0.77733 0.616,-0.792 0.616,-2.18533 0,-2.93334 -2.229333,-2.93334 z"
       style="font-size:14.6667px;font-family:'American Typewriter';text-anchor:middle;fill:#a91913"
       id="path187" />
    <path
       d="m 19.024,354.41733 q 1.452,0 2.170667,1.12934 v -1.48134 q 0,-0.58666 -0.02933,-0.71866 -0.07333,-0.45467 -0.410667,-0.45467 -0.117333,0 -0.337333,0.044 -0.205334,0.044 -0.322667,0.044 -0.542667,0 -0.542667,-0.46933 0,-0.484 0.733334,-0.484 0.117333,0 0.425333,0.0293 0.469333,0.044 0.484,0.044 0.132,0 0.381333,-0.0293 0.249334,-0.0293 0.381334,-0.0293 0.410666,0 0.410666,0.58667 v 0.16133 q -0.01467,0.044 -0.02933,0.77734 0,0.088 -0.044,1.12933 -0.02933,0.73333 -0.02933,1.11467 v 1.43733 l 0.02933,2.44933 q 0.01467,0.968 0.088,1.20267 0.07333,0.23467 0.352,0.23467 0.190667,0 0.293333,-0.0293 0.234667,-0.0293 0.322667,-0.0293 0.542667,0 0.542667,0.484 0,0.49867 -0.66,0.49867 -0.146667,0 -0.454667,-0.044 -0.293333,-0.0293 -0.44,-0.0293 -0.044,0 -0.337333,0.0293 -0.176,0.044 -0.308,0.044 -0.396,0 -0.396,-0.528 v -0.0733 L 21.312,361.208 q -0.777333,1.04133 -2.258666,1.04133 -1.496,0 -2.405334,-1.08533 -0.909333,-1.08533 -0.909333,-2.84533 0,-1.77467 0.894667,-2.83067 0.894666,-1.07067 2.390666,-1.07067 z m 2.082667,5.17734 q 0.05867,-0.484 0.05867,-1.24667 0,-0.98267 -0.07333,-1.33467 -0.132,-0.73333 -0.630666,-1.144 -0.586667,-0.484 -1.349334,-0.484 -1.026666,0 -1.613333,0.77734 -0.572,0.77733 -0.572,2.12666 0,1.39334 0.601333,2.2 0.601334,0.792 1.642667,0.792 0.792,0 1.32,-0.45466 0.528,-0.46934 0.616,-1.232 z"
       style="font-size:14.6667px;font-family:'American Typewriter';text-anchor:middle;fill:#a91913"
       id="path189" />
    <path
       d="m 26.908939,357.74667 v 1.90666 q 0,0.73334 0.01467,0.86534 0.07333,0.66 0.396,0.66 0.07333,0 0.366667,-0.0733 0.07333,-0.0293 0.22,-0.0293 0.557333,0 0.557333,0.484 0,0.20533 -0.190666,0.352 -0.176,0.14667 -0.454667,0.14667 -0.234667,0 -0.718667,-0.0587 -0.469333,-0.0733 -0.704,-0.0733 -0.381333,0 -0.850667,0.0587 -0.572,0.0733 -0.762666,0.0733 -0.586667,0 -0.586667,-0.49867 0,-0.484 0.498667,-0.484 0.117333,0 0.337333,0.044 0.234667,0.044 0.352,0.044 0.352,0 0.425333,-0.93867 0,-0.0587 0,-1.276 v -1.20266 q 0,-1.21734 0,-1.276 -0.07333,-0.924 -0.44,-0.924 -0.117333,0 -0.337333,0.0587 -0.205333,0.044 -0.308,0.044 -0.528,0 -0.528,-0.46933 0,-0.49867 0.645333,-0.49867 0.278667,0 0.396,0.0147 0.469334,0.0587 0.601334,0.0587 0.117333,0 0.352,-0.0293 0.249333,-0.044 0.366666,-0.044 0.425334,0 0.425334,0.572 0,0.0587 -0.01467,0.176 -0.01467,0.11734 -0.01467,0.176 -0.01467,0.11734 -0.02933,0.90934 -0.01467,0.60133 -0.01467,1.232 z M 26.146272,353.904 q -0.337334,0 -0.586667,-0.23467 -0.234667,-0.24933 -0.234667,-0.58666 0,-0.33734 0.234667,-0.572 0.249333,-0.23467 0.586667,-0.23467 0.337333,0 0.572,0.23467 0.249333,0.23466 0.249333,0.572 0,0.33733 -0.249333,0.58666 -0.234667,0.23467 -0.572,0.23467 z"
       style="font-size:14.6667px;font-family:'American Typewriter';text-anchor:middle;fill:#a91913"
       id="path191" />
    <path
       d="m 31.331626,355.12133 v 0.41067 q 0.88,-1.11467 2.346667,-1.11467 0.792,0 1.496,0.41067 0.704,0.396 0.953333,0.99733 0.205333,0.49867 0.205333,1.30534 v 2.78666 q 0,0.63067 0.01467,0.748 0.07333,0.49867 0.396,0.49867 0.132,0 0.337333,-0.0293 0.22,-0.044 0.308,-0.044 0.190667,0 0.322667,0.132 0.146667,0.132 0.146667,0.32266 0,0.22 -0.176,0.36667 -0.176,0.14667 -0.425334,0.14667 -0.205333,0 -0.674666,-0.0587 -0.469334,-0.0587 -0.88,-0.0587 -0.381334,0 -0.630667,0.0293 -0.733333,0.088 -0.777333,0.088 -0.586667,0 -0.586667,-0.51334 0,-0.45466 0.498667,-0.45466 0.117333,0 0.264,0.0293 0.278666,0.0587 0.352,0.0587 0.352,0 0.381333,-0.80667 l 0.02933,-0.748 0.01467,-0.89467 v -1.11466 q 0,-0.77734 -0.07333,-1.07067 -0.132,-0.55733 -0.572,-0.86533 -0.484,-0.33734 -1.1,-0.33734 -1.173334,0 -1.686667,0.836 -0.352,0.572 -0.352,1.95067 v 1.95067 q 0,0.64533 0.088,0.88 0.088,0.23466 0.322667,0.23466 0.117333,0 0.322666,-0.0587 0.205334,-0.0587 0.337334,-0.0587 0.454666,0 0.454666,0.49867 0,0.484 -0.586666,0.484 -0.117334,0 -0.762667,-0.088 -0.322667,-0.044 -0.718667,-0.044 -0.308,0 -0.821333,0.0587 -0.645333,0.0733 -0.733333,0.0733 -0.616,0 -0.616,-0.49867 0,-0.46933 0.469333,-0.46933 0.07333,0 0.264,0.044 0.205333,0.044 0.396,0.044 0.44,0 0.454667,-0.85067 l 0.02933,-1.628 v -1.77467 l -0.02933,-0.51333 q -0.02933,-0.49867 -0.132,-0.67467 -0.088,-0.19066 -0.322667,-0.19066 -0.102667,0 -0.308,0.044 -0.190667,0.0293 -0.293333,0.0293 -0.528,0 -0.528,-0.46933 0,-0.484 0.66,-0.484 0.088,0 0.146666,0.0147 l 0.542667,0.0587 q 0.234667,0 0.410667,-0.0293 0.381333,-0.0293 0.396,-0.0293 0.425333,0 0.425333,0.44 z"
       style="font-size:14.6667px;font-family:'American Typewriter';text-anchor:middle;fill:#a91913"
       id="path193" />
  </g>
  <!-- ======== knobs and switches ======== -->
  <path
     id="polyline68"
     transform="translate(22.5,78)"
     style="fill:none;stroke:#343434;stroke-width:1"
     d="M 0,0 V 42"
     class="connect" />
  <g
     aria-label="DRIVE"
     id="text72"
     style="font-weight:bold;font-size:10px;font-family:Helvetica;text-anchor:middle;fill:#343434"
     class="big-label">
    <path
       d="M 11.069336,56 H 7.96875 v -7.197266 h 3.100586 q 0.668945,0.0098 1.113281,0.15625 0.756836,0.249024 1.225586,0.913086 0.375977,0.53711 0.512695,1.16211 0.136719,0.625 0.136719,1.191406 0,1.435547 -0.576172,2.431641 Q 12.700195,56 11.069336,56 Z M 12.1875,50.638672 Q 11.84082,50.052734 10.81543,50.052734 H 9.4287109 V 54.75 H 10.81543 q 1.064453,0 1.484375,-1.049805 0.229492,-0.576172 0.229492,-1.37207 0,-1.098633 -0.341797,-1.689453 z"
       style="font-weight:bold;font-size:10px;font-family:Helvetica;text-anchor:middle;fill:#343434"
       id="path176" />
    <path
       d="M 18.251953,53.177734 H 16.699219 V 56 h -1.469727 v -7.197266 h 3.530274 q 0.756836,0.01465 1.162109,0.185547 0.410156,0.170899 0.693359,0.50293 0.234375,0.273437 0.371094,0.605469 0.136719,0.332031 0.136719,0.756836 0,0.512695 -0.258789,1.010742 -0.258789,0.493164 -0.854492,0.698242 0.498046,0.200195 0.703125,0.571289 0.209961,0.366211 0.209961,1.123047 v 0.483398 q 0,0.493164 0.03906,0.668946 0.05859,0.27832 0.273438,0.410156 V 56 h -1.655274 q -0.06836,-0.239258 -0.09766,-0.385742 -0.05859,-0.302735 -0.06348,-0.620117 l -0.0098,-0.668946 q -0.0098,-0.688476 -0.253907,-0.917968 -0.239257,-0.229493 -0.90332,-0.229493 z m 0.913086,-1.308593 q 0.449219,-0.205079 0.449219,-0.810547 0,-0.654297 -0.434571,-0.878907 -0.24414,-0.126953 -0.732421,-0.126953 h -1.748047 v 1.933594 h 1.704101 q 0.507813,0 0.761719,-0.117187 z"
       style="font-weight:bold;font-size:10px;font-family:Helvetica;text-anchor:middle;fill:#343434"
       id="path178" />
    <path
       d="m 22.304687,48.802734 h 1.494141 V 56 h -1.494141 z"
       style="font-weight:bold;font-size:10px;font-family:Helvetica;text-anchor:middle;fill:#343434"
       id="path180" />
    <path
       d="m 24.663086,48.802734 h 1.606445 l 1.5625,5.463868 1.577149,-5.463868 h 1.5625 L 28.515625,56 h -1.420898 z"
       style="font-weight:bold;font-size:10px;font-family:Helvetica;text-anchor:middle;fill:#343434"
       id="path182" />
    <path
       d="m 36.884766,52.855469 h -3.496094 v 1.850586 h 3.984375 V 56 h -5.454102 v -7.197266 h 5.278321 v 1.274414 h -3.808594 v 1.528321 h 3.496094 z"
       style="font-weight:bold;font-size:10px;font-family:Helvetica;text-anchor:middle;fill:#343434"
       id="path184" />
  </g>
  <g
     id="use74"
     transform="translate(6.5,62)">
    <g
       transform="translate(16,16)"
       id="g149">
      <path
         id="circle145"
         style="fill:url(#linearGradient153)"
         transform="rotate(90)"
         d="M 15.5,0 A 15.5,15.5 0 0 1 0,15.5 15.5,15.5 0 0 1 -15.5,0 15.5,15.5 0 0 1 0,-15.5 15.5,15.5 0 0 1 15.5,0 Z" />
      <path
         id="circle147"
         style="fill:url(#linearGradient155)"
         transform="rotate(90)"
         d="M 13.5,0 A 13.5,13.5 0 0 1 0,13.5 13.5,13.5 0 0 1 -13.5,0 13.5,13.5 0 0 1 0,-13.5 13.5,13.5 0 0 1 13.5,0 Z" />
    </g>
  </g>
  <!-- ======== row 1 ======== -->
  <path
     id="polyline78"
     transform="translate(22.5,120)"
     style="fill:none;stroke:#343434;stroke-width:1"
     d="M 0,0 V 42"
     class="connect" />
  <g
     transform="translate(22.5,135)"
     id="g86">
    <path
       id="polyline80"
       style="fill:none;stroke:#343434;stroke-width:1.2"
       d="m -7,0 h 4"
       class="icon" />
    <path
       id="polyline82"
       style="fill:none;stroke:#343434;stroke-width:1.2"
       d="M 7,0 H 3"
       class="icon" />
    <path
       id="polyline84"
       style="fill:none;stroke:#343434;stroke-width:1.2"
       d="M 5,-2 V 2"
       class="icon" />
  </g>
  <g
     id="use90"
     transform="translate(13.5,111)">
    <g
       transform="translate(9,9)"
       id="g163">
      <path
         id="circle157"
         style="fill:none;stroke:#222222"
         d="M 8.5,0 A 8.5,8.5 0 0 1 0,8.5 8.5,8.5 0 0 1 -8.5,0 8.5,8.5 0 0 1 0,-8.5 8.5,8.5 0 0 1 8.5,0 Z" />
      <path
         id="circle159"
         style="fill:url(#linearGradient167)"
         transform="rotate(90)"
         d="M 8,0 A 8,8 0 0 1 0,8 8,8 0 0 1 -8,0 8,8 0 0 1 0,-8 8,8 0 0 1 8,0 Z" />
      <path
         id="circle161"
         style="fill:url(#linearGradient169)"
         transform="rotate(90)"
         d="M 7,0 A 7,7 0 0 1 0,7 7,7 0 0 1 -7,0 7,7 0 0 1 0,-7 7,7 0 0 1 7,0 Z" />
    </g>
  </g>
  <!-- ======== row 2 ======== -->
  <g
     id="use94"
     transform="translate(10.5,150)">
    <g
       transform="translate(12,12)"
       id="g133" />
  </g>
  <!-- ======== row 3 ======== -->
  <g
     id="use98"
     transform="translate(10.5,266)">
    <g
       transform="translate(12,12)"
       id="g137" />
  </g>
  <g
     aria-label="IN"
     id="text100"
     style="font-weight:bold;font-size:8px;font-family:Helvetica;text-anchor:middle;fill:#343434"
     class="label">
    <path
       d="m 19.015625,294.24219 h 1.195312 V 300 h -1.195312 z"
       style="font-weight:bold;font-size:8px;font-family:Helvetica;text-anchor:middle;fill:#343434"
       id="path212" />
    <path
       d="M 25.984375,300 H 24.78125 l -2.351563,-4.08984 V 300 h -1.121093 v -5.75781 h 1.261718 l 2.292969,4.01953 v -4.01953 h 1.121094 z"
       style="font-weight:bold;font-size:8px;font-family:Helvetica;text-anchor:middle;fill:#343434"
       id="path214" />
  </g>
  <!-- ======== row 4 ======== -->
  <path
     id="rect104"
     style="fill:#bbbbbb"
     d="m 9.5,304 h 26 c 1.662,0 3,1.338 3,3 v 36 c 0,1.662 -1.338,3 -3,3 h -26 c -1.662,0 -3,-1.338 -3,-3 v -36 c 0,-1.662 1.338,-3 3,-3 z"
     class="output" />
  <g
     id="use106"
     transform="translate(10.5,308)">
    <g
       transform="translate(12,12)"
       id="g141" />
  </g>
  <g
     aria-label="OUT"
     id="text108"
     style="font-weight:bold;font-size:8px;font-family:Helvetica;text-anchor:middle;fill:#343434"
     class="label">
    <path
       d="m 17.210937,342.16016 q -1.234374,0 -1.886718,-0.67188 -0.875,-0.82422 -0.875,-2.375 0,-1.58203 0.875,-2.375 0.652344,-0.67187 1.886718,-0.67187 1.234375,0 1.886719,0.67187 0.871094,0.79297 0.871094,2.375 0,1.55078 -0.871094,2.375 -0.652344,0.67188 -1.886719,0.67188 z m 1.136719,-1.54688 q 0.417969,-0.52734 0.417969,-1.5 0,-0.96875 -0.421875,-1.49609 -0.417969,-0.53125 -1.132813,-0.53125 -0.714843,0 -1.140625,0.52734 -0.425781,0.52734 -0.425781,1.5 0,0.97266 0.425781,1.5 0.425782,0.52734 1.140625,0.52734 0.714844,0 1.136719,-0.52734 z"
       style="font-weight:bold;font-size:8px;font-family:Helvetica;text-anchor:middle;fill:#343434"
       id="path204" />
    <path
       d="m 24.289062,339.78125 v -3.53906 h 1.222657 v 3.53906 q 0,0.91797 -0.285157,1.42969 -0.53125,0.9375 -2.027343,0.9375 -1.496094,0 -2.03125,-0.9375 -0.285157,-0.51172 -0.285157,-1.42969 v -3.53906 h 1.222657 v 3.53906 q 0,0.59375 0.140625,0.86719 0.21875,0.48437 0.953125,0.48437 0.730468,0 0.949218,-0.48437 0.140625,-0.27344 0.140625,-0.86719 z"
       style="font-weight:bold;font-size:8px;font-family:Helvetica;text-anchor:middle;fill:#343434"
       id="path206" />
    <path
       d="m 30.847656,336.24219 v 1.01953 H 29.125 V 342 h -1.210938 v -4.73828 h -1.730468 v -1.01953 z"
       style="font-weight:bold;font-size:8px;font-family:Helvetica;text-anchor:middle;fill:#343434"
       id="path208" />
  </g>
</svg>
