<?xml version="1.0" encoding="UTF-8" standalone="no"?>
<svg
   xmlns:dc="http://purl.org/dc/elements/1.1/"
   xmlns:cc="http://creativecommons.org/ns#"
   xmlns:rdf="http://www.w3.org/1999/02/22-rdf-syntax-ns#"
   xmlns:svg="http://www.w3.org/2000/svg"
   xmlns="http://www.w3.org/2000/svg"
   xmlns:xlink="http://www.w3.org/1999/xlink"
   xmlns:sodipodi="http://sodipodi.sourceforge.net/DTD/sodipodi-0.dtd"
   xmlns:inkscape="http://www.inkscape.org/namespaces/inkscape"
   version="1.1"
   width="45"
   height="380"
   viewBox="0 0 45 380"
   id="svg112"
   sodipodi:docname="SAT.svg"
   inkscape:version="1.0.2 (e86c8708, 2021-01-15)">
  <metadata
     id="metadata116">
    <rdf:RDF>
      <cc:Work
         rdf:about="">
        <dc:format>image/svg+xml</dc:format>
        <dc:type
           rdf:resource="http://purl.org/dc/dcmitype/StillImage" />
      </cc:Work>
    </rdf:RDF>
  </metadata>
  <sodipodi:namedview
     pagecolor="#ffffff"
     bordercolor="#666666"
     borderopacity="1"
     objecttolerance="10"
     gridtolerance="10"
     guidetolerance="10"
     inkscape:pageopacity="0"
     inkscape:pageshadow="2"
     inkscape:window-width="689"
     inkscape:window-height="480"
     id="namedview114"
     showgrid="false"
     inkscape:zoom="2.1763158"
     inkscape:cx="22.5"
     inkscape:cy="190"
     inkscape:window-x="0"
     inkscape:window-y="25"
     inkscape:window-maximized="0"
     inkscape:current-layer="svg112" />
  <style
     id="style2">
    text.title {
      fill: #a91913;
      font-family: 'American Typewriter';
      font-size: 12pt;
    }
    text.logo {
      fill: #a91913;
      font-family: 'American Typewriter';
      font-size: 11pt;
    }
    text.big-label {
      fill: #343434;
      font-family: 'Helvetica';
      font-weight: bold;
      font-size: 7.5pt;
    }
    text.label {
      fill: #343434;
      font-family: 'Helvetica';
      font-weight: bold;
      font-size: 6pt;
    }
    .background {
      fill: #e0e0e0;
    }
    .output {
      fill: #bbbbbb;
    }
    polyline.icon {
      stroke: #343434;
      stroke-width: 1.2;
      fill: none;
    }
    polyline.connect {
      stroke: #343434;
      stroke-width: 1;
      fill: none;
    }

    .blueprint {
      stroke: #08f;
      fill: none;
    }
  </style>
  <!-- ======== defs ======== -->
  <defs
     id="defs60">
    <linearGradient
       id="smallKnobMediumGradient">
      <stop
         offset="5%"
         stop-color="#888"
         id="stop4" />
      <stop
         offset="95%"
         stop-color="#333"
         id="stop6" />
    </linearGradient>
    <linearGradient
       id="smallKnobDarkGradient">
      <stop
         offset="5%"
         stop-color="#444"
         id="stop9" />
      <stop
         offset="95%"
         stop-color="#222"
         id="stop11" />
    </linearGradient>
    <linearGradient
       id="bigKnobDarkGradient">
      <stop
         offset="5%"
         stop-color="#5c5c5c"
         id="stop14" />
      <stop
         offset="95%"
         stop-color="#282828"
         id="stop16" />
    </linearGradient>
    <linearGradient
       id="bigKnobMediumGradient">
      <stop
         offset="5%"
         stop-color="#888"
         id="stop19" />
      <stop
         offset="95%"
         stop-color="#333"
         id="stop21" />
    </linearGradient>
    <symbol
       id="knob18">
      <g
         transform="translate(9 9)"
         id="g30">
        <circle
           r="8.5"
           stroke="#222"
           fill="none"
           id="circle24" />
        <circle
           r="8"
           fill="url('#smallKnobMediumGradient')"
           transform="rotate(90)"
           id="circle26" />
        <circle
           r="7"
           fill="url('#smallKnobDarkGradient')"
           transform="rotate(90)"
           id="circle28" />
      </g>
    </symbol>
    <symbol
       id="knob32">
      <g
         transform="translate(16 16)"
         id="g37">
        <circle
           r="15.5"
           fill="url('#bigKnobDarkGradient')"
           transform="rotate(90)"
           id="circle33" />
        <circle
           r="13.5"
           fill="url('#bigKnobMediumGradient')"
           transform="rotate(90)"
           id="circle35" />
      </g>
    </symbol>
    <symbol
       id="knob40">
      <g
         transform="translate(20 20)"
         id="g44">
        <circle
           r="19.5"
           fill="url('#bigKnobDarkGradient')"
           transform="rotate(90)"
           id="circle40" />
        <circle
           r="17.5"
           fill="url('#bigKnobMediumGradient')"
           transform="rotate(90)"
           id="circle42" />
      </g>
    </symbol>
    <symbol
       id="knob50">
      <g
         transform="translate(25 25)"
         id="g51">
        <circle
           r="24.5"
           fill="url('#bigKnobDarkGradient')"
           transform="rotate(90)"
           id="circle47" />
        <circle
           r="22.5"
           fill="url('#bigKnobMediumGradient')"
           transform="rotate(90)"
           id="circle49" />
      </g>
    </symbol>
    <symbol
       id="port">
      <g
         transform="translate(12 12)"
         id="g54" />
    </symbol>
    <symbol
       id="hswitch14">
      <g
         transform="translate(12 7)"
         id="g57" />
    </symbol>
    <linearGradient
       inkscape:collect="always"
       xlink:href="#bigKnobDarkGradient"
       id="linearGradient153"
       x1="-15.5"
       y1="-15.5"
       x2="15.5"
       y2="-15.5"
       gradientUnits="userSpaceOnUse" />
    <linearGradient
       inkscape:collect="always"
       xlink:href="#bigKnobMediumGradient"
       id="linearGradient155"
       x1="-13.5"
       y1="-13.5"
       x2="13.5"
       y2="-13.5"
       gradientUnits="userSpaceOnUse" />
    <linearGradient
       inkscape:collect="always"
       xlink:href="#smallKnobMediumGradient"
       id="linearGradient167"
       x1="-8"
       y1="-8"
       x2="8"
       y2="-8"
       gradientUnits="userSpaceOnUse" />
    <linearGradient
       inkscape:collect="always"
       xlink:href="#smallKnobDarkGradient"
       id="linearGradient169"
       x1="-7"
       y1="-7"
       x2="7"
       y2="-7"
       gradientUnits="userSpaceOnUse" />
  </defs>
  <!-- ======== id ======== -->
  <path
     id="rect62"
     style="fill:#e0e0e0"
     d="M 0,0 H 45 V 380 H 0 Z"
     class="background" />
  <g
     aria-label="FOLD"
     id="text64"
     style="font-size:16px;font-family:'American Typewriter';text-anchor:middle;fill:#a91913"
     class="title">
    <path
       d="M 3.758625,25.344 V 24 l -0.016,-2.544 q 0,-1.184 -0.816,-1.184 -0.208,0 -0.32,0.032 -0.256,0.048 -0.416,0.048 -0.208,0 -0.352,-0.144 -0.144,-0.16 -0.144,-0.384 0,-0.56 0.672,-0.56 0.08,0 0.24,0.016 l 1.104,0.112 q 0.624,0.064 1.392,0.064 0.416,0 1.792,-0.048 l 1.84,-0.064 q 0.368,-0.016 0.864,-0.048 0.224,-0.016 0.48,-0.016 0.848,0 0.848,0.752 0,0.288 -0.08,0.88 -0.08,0.592 -0.08,0.896 0,0.256 0.032,0.64 0.032,0.384 0.032,0.704 0,0.656 -0.576,0.656 -0.592,0 -0.592,-0.752 0,-0.224 0.016,-0.688 0.032,-0.464 0.032,-0.688 0,-0.848 -0.48,-1.072 -0.48,-0.224 -2.272,-0.224 -1.52,0 -1.728,0.272 -0.16,0.208 -0.16,1.472 v 1.184 q 0,0.448 0.112,0.56 0.128,0.096 0.672,0.096 h 0.528 q 1.04,0 1.04,-0.768 0,-0.176 -0.048,-0.48 -0.032,-0.304 -0.032,-0.464 0,-0.608 0.576,-0.608 0.544,0 0.544,0.704 0,0.096 -0.032,0.384 l -0.096,0.864 q -0.064,0.576 -0.064,0.864 0,0.656 0.144,1.664 0.048,0.336 0.048,0.64 0,0.624 -0.576,0.624 -0.544,0 -0.544,-0.672 0,-0.16 0.016,-0.48 0.032,-0.32 0.032,-0.48 0,-0.496 -0.272,-0.64 -0.176,-0.112 -0.736,-0.112 h -0.496 q -0.56,0 -0.688,0.128 -0.128,0.128 -0.128,0.704 v 1.904 q 0,0.752 0.16,1.024 0.176,0.256 0.64,0.256 0.112,0 0.352,-0.016 0.24,-0.016 0.352,-0.016 0.736,0 0.736,0.544 0,0.224 -0.176,0.384 -0.16,0.16 -0.4,0.16 -0.256,0 -0.752,-0.08 -0.704,-0.112 -1.6,-0.112 -0.576,0 -1.232,0.096 l -0.544,0.08 q -0.048,0 -0.112,0.016 -0.064,0 -0.096,0 -0.704,0 -0.704,-0.576 0,-0.512 0.496,-0.512 0.064,0 0.416,0.032 0.176,0.048 0.336,0.048 0.432,0 0.592,-0.256 0.176,-0.272 0.192,-0.944 z"
       style="font-size:16px;font-family:'American Typewriter';text-anchor:middle;fill:#a91913"
       id="path200" />
    <path
       d="m 16.512875,30.352 q -2.128,0 -3.376,-1.536 -1.232,-1.536 -1.232,-4.16 0,-2.656 1.248,-4.16 1.248,-1.52 3.44,-1.52 2.096,0 3.328,1.472 1.248,1.472 1.248,3.984 0,2.72 -1.264,4.32 -1.248,1.6 -3.392,1.6 z m 0.032,-10.224 q -1.536,0 -2.384,1.184 -0.848,1.184 -0.848,3.328 0,2.176 0.848,3.376 0.848,1.184 2.368,1.184 1.488,0 2.352,-1.232 0.88,-1.248 0.88,-3.376 0,-2.144 -0.832,-3.296 -0.832,-1.168 -2.384,-1.168 z"
       style="font-size:16px;font-family:'American Typewriter';text-anchor:middle;fill:#a91913"
       id="path202" />
    <path
       d="m 25.493625,27.696 q 0,0.944 0.192,1.12 0.144,0.144 0.368,0.176 0.24,0.032 1.056,0.032 h 1.408 q 1.104,0 1.472,-0.288 0.368,-0.304 0.368,-1.2 0,-0.24 -0.016,-0.56 -0.032,-0.624 -0.032,-0.752 0,-0.704 0.56,-0.704 0.672,0 0.672,0.64 0,0.192 -0.016,0.304 l -0.112,0.816 q -0.048,0.352 -0.048,0.736 0,0.224 0.032,0.672 0.048,0.432 0.048,0.656 0,0.72 -0.816,0.72 -0.16,0 -0.736,-0.032 -0.384,-0.016 -1.184,-0.032 l -1.2,-0.016 h -2.56 q -0.384,0 -1.28,0.032 -0.128,0 -0.448,0.032 -0.304,0.032 -0.48,0.032 -0.672,0 -0.672,-0.576 0,-0.512 0.496,-0.512 0.128,0 0.384,0.048 0.256,0.032 0.384,0.032 0.816,0 0.816,-1.2 v -6.416 q 0,-1.184 -0.816,-1.184 -0.224,0 -0.336,0.032 -0.256,0.048 -0.432,0.048 -0.208,0 -0.352,-0.144 -0.144,-0.16 -0.144,-0.384 0,-0.56 0.688,-0.56 0.096,0 0.24,0.016 l 0.848,0.096 q 0.704,0.08 1.04,0.08 0.416,0 1.024,-0.08 l 0.736,-0.096 q 0.128,-0.016 0.208,-0.016 0.72,0 0.72,0.56 0,0.224 -0.144,0.384 -0.144,0.144 -0.352,0.144 -0.16,0 -0.432,-0.048 -0.112,-0.032 -0.336,-0.032 -0.816,0 -0.816,1.184 z"
       style="font-size:16px;font-family:'American Typewriter';text-anchor:middle;fill:#a91913"
       id="path204" />
    <path
       d="m 34.337125,21.456 q 0,-1.2 -0.816,-1.2 -0.144,0 -0.336,0.032 -0.288,0.048 -0.432,0.048 -0.496,0 -0.496,-0.512 0,-0.56 0.72,-0.56 0.08,0 0.208,0.016 l 0.848,0.112 q 0.48,0.064 1.024,0.064 0.448,0 0.896,-0.048 l 1.04,-0.112 q 0.304,-0.032 0.8,-0.032 1.456,0 2.432,0.416 1.28,0.544 2.016,1.888 0.752,1.344 0.752,3.12 0,1.568 -0.592,2.832 -0.592,1.248 -1.616,1.84 -1.232,0.72 -2.976,0.72 -0.352,0 -0.72,-0.032 l -1.104,-0.096 q -0.56,-0.048 -1.168,-0.048 -0.528,0 -0.864,0.048 l -0.768,0.112 q -0.032,0 -0.112,0.016 -0.08,0 -0.128,0 -0.688,0 -0.688,-0.56 0,-0.224 0.144,-0.368 0.144,-0.16 0.352,-0.16 0.176,0 0.432,0.048 0.112,0.032 0.336,0.032 0.816,0 0.816,-1.2 z m 1.344,-0.16 v 6.768 q 0,0.736 0.72,0.896 0.24,0.064 1.344,0.064 1.92,0 2.784,-1.04 1.04,-1.248 1.04,-3.296 0,-1.6 -0.64,-2.704 -0.624,-1.12 -1.728,-1.44 -0.704,-0.208 -1.696,-0.208 -1.264,0 -1.552,0.144 -0.272,0.144 -0.272,0.816 z"
       style="font-size:16px;font-family:'American Typewriter';text-anchor:middle;fill:#a91913"
       id="path206" />
  </g>
  <g
     aria-label="a.r.c."
     id="text66"
     style="font-size:14.6667px;font-family:'American Typewriter';text-anchor:middle;fill:#a91913"
     class="logo">
    <path
       d="m 12.577885,362.19067 q -1.202666,0 -1.481333,-1.04134 -0.748,1.1 -2.3466669,1.1 -1.188,0 -1.9066667,-0.58666 -0.704,-0.58667 -0.704,-1.56934 0,-1.21733 1.0413334,-1.78933 0.396,-0.22 0.6746666,-0.27867 0.2933334,-0.0733 1.1586667,-0.176 1.2319999,-0.132 1.5986669,-0.36666 0.381333,-0.23467 0.381333,-0.86534 0,-0.60133 -0.425333,-0.93866 -0.410667,-0.352 -1.1586669,-0.352 -0.66,0 -1.232,0.36666 -0.22,0.14667 -0.22,0.308 0,0.0587 0.132,0.14667 0.2053333,0.14667 0.2053333,0.49867 0,0.29333 -0.22,0.484 -0.2053333,0.19066 -0.528,0.19066 -0.3813333,0 -0.6453333,-0.264 -0.2493334,-0.264 -0.2493334,-0.64533 0,-0.82133 0.8066667,-1.408 0.8213334,-0.58667 1.9800001,-0.58667 2.6693335,0 2.6693335,2.56667 v 2.96267 q 0,0.704 0.02933,0.836 0.088,0.51333 0.498667,0.51333 0.513333,0 0.513333,-0.93867 v -0.71866 q 0,-0.46934 0.454667,-0.46934 0.484,0 0.484,0.704 v 0.0733 l -0.01467,0.836 q -0.02933,1.408 -1.496,1.408 z m -1.628,-2.91867 0.01467,-1.04133 q -0.322667,0.29333 -0.689334,0.41066 -0.3519995,0.11734 -1.2759995,0.20534 -1.6720001,0.16133 -1.6720001,1.232 0,0.55733 0.396,0.88 0.4106667,0.32266 1.1000001,0.32266 0.9826666,0 1.5399995,-0.528 0.572,-0.54266 0.586667,-1.48133 z"
       style="font-size:14.6667px;font-family:'American Typewriter';text-anchor:middle;fill:#a91913"
       id="path187" />
    <path
       d="m 15.972532,362.24933 q -0.381334,0 -0.645334,-0.264 -0.264,-0.27866 -0.264,-0.66 0,-0.38133 0.264,-0.64533 0.264,-0.27867 0.645334,-0.27867 0.381333,0 0.645333,0.27867 0.264,0.264 0.264,0.64533 0,0.38134 -0.264,0.66 -0.264,0.264 -0.645333,0.264 z"
       style="font-size:14.6667px;font-family:'American Typewriter';text-anchor:middle;fill:#a91913"
       id="path189" />
    <path
       d="m 20.774949,355.092 v 0.396 q 0.762666,-1.07067 2.038666,-1.07067 1.026667,0 1.657334,0.58667 0.645333,0.572 0.645333,1.48133 0,0.64534 -0.322667,1.056 -0.322666,0.396 -0.850666,0.396 -0.337334,0 -0.572,-0.20533 -0.234667,-0.20533 -0.234667,-0.49867 0,-0.23466 0.176,-0.41066 0.176,-0.19067 0.410667,-0.19067 0.044,0 0.190666,0.044 0.088,-0.176 0.088,-0.32267 0,-0.42533 -0.381333,-0.71866 -0.366667,-0.29334 -0.924,-0.29334 -1.144,0 -1.525333,1.02667 -0.234667,0.63067 -0.234667,1.90667 v 0.968 q 0,0.98266 0.01467,1.1 0.07333,0.836 0.454666,0.836 0.190667,0 0.396,-0.0587 0.161334,-0.044 0.278667,-0.044 0.469333,0 0.469333,0.46933 0,0.51334 -0.601333,0.51334 h -0.05867 q -0.22,0 -0.674666,-0.0587 -0.44,-0.044 -0.66,-0.044 -0.586667,0 -0.924,0.0293 l -0.821334,0.0733 q -0.601333,0 -0.601333,-0.51334 0,-0.45466 0.557333,-0.45466 0.146667,0 0.22,0.0147 l 0.22,0.044 q 0.146667,0.0293 0.205334,0.0293 0.366666,0 0.396,-0.67467 l 0.02933,-0.748 -0.044,-3.32933 q -0.044,-0.86534 -0.44,-0.86534 -0.117333,0 -0.322667,0.044 -0.205333,0.044 -0.322666,0.044 -0.484,0 -0.484,-0.46933 0,-0.51333 0.630666,-0.51333 0.146667,0 0.44,0.044 0.293334,0.0293 0.44,0.0293 0.117334,0 0.381334,-0.0293 0.117333,-0.0293 0.278666,-0.0293 0.381334,0 0.381334,0.41067 z"
       style="font-size:14.6667px;font-family:'American Typewriter';text-anchor:middle;fill:#a91913"
       id="path191" />
    <path
       d="m 25.810893,362.24933 q -0.381333,0 -0.645333,-0.264 -0.264,-0.27866 -0.264,-0.66 0,-0.38133 0.264,-0.64533 0.264,-0.27867 0.645333,-0.27867 0.381334,0 0.645334,0.27867 0.264,0.264 0.264,0.64533 0,0.38134 -0.264,0.66 -0.264,0.264 -0.645334,0.264 z"
       style="font-size:14.6667px;font-family:'American Typewriter';text-anchor:middle;fill:#a91913"
       id="path193" />
    <path
       d="m 32.653802,357.16 q 0,-0.58667 0.733334,-0.67467 -0.07333,-0.51333 -0.498667,-0.80666 -0.410667,-0.29334 -1.070667,-0.29334 -1.012,0 -1.628,0.80667 -0.616,0.80667 -0.616,2.14133 0,1.37867 0.572,2.17067 0.586667,0.77733 1.613334,0.77733 0.645333,0 1.114666,-0.36666 0.484,-0.36667 0.66,-1.012 0.146667,-0.51334 0.176,-0.58667 0.161334,-0.29333 0.469334,-0.29333 0.249333,0 0.410667,0.16133 0.161333,0.16133 0.161333,0.41067 0,0.36666 -0.234667,0.88 -0.234667,0.51333 -0.557333,0.85066 -0.865334,0.924 -2.244,0.924 -1.496,0 -2.42,-1.056 -0.909334,-1.056 -0.909334,-2.772 0,-1.81866 0.938667,-2.904 0.953333,-1.1 2.522667,-1.1 1.173333,0 1.950666,0.64534 0.777334,0.63066 0.777334,1.61333 0,0.54267 -0.308,0.89467 -0.293334,0.352 -0.762667,0.352 -0.366667,0 -0.616,-0.22 -0.234667,-0.22 -0.234667,-0.54267 z"
       style="font-size:14.6667px;font-family:'American Typewriter';text-anchor:middle;fill:#a91913"
       id="path195" />
    <path
       d="m 37.285032,362.24933 q -0.381334,0 -0.645334,-0.264 -0.264,-0.27866 -0.264,-0.66 0,-0.38133 0.264,-0.64533 0.264,-0.27867 0.645334,-0.27867 0.381333,0 0.645333,0.27867 0.264,0.264 0.264,0.64533 0,0.38134 -0.264,0.66 -0.264,0.264 -0.645333,0.264 z"
       style="font-size:14.6667px;font-family:'American Typewriter';text-anchor:middle;fill:#a91913"
       id="path197" />
  </g>
  <!-- ======== knobs and switches ======== -->
  <path
     id="polyline68"
     transform="translate(22.5,78)"
     style="fill:none;stroke:#343434;stroke-width:1"
     d="M 0,0 V 42"
     class="connect" />
  <g
     aria-label="DRIVE"
     id="text72"
     style="font-weight:bold;font-size:10px;font-family:Helvetica;text-anchor:middle;fill:#343434"
     class="big-label">
    <path
       d="M 11.069336,56 H 7.96875 v -7.197266 h 3.100586 q 0.668945,0.0098 1.113281,0.15625 0.756836,0.249024 1.225586,0.913086 0.375977,0.53711 0.512695,1.16211 0.136719,0.625 0.136719,1.191406 0,1.435547 -0.576172,2.431641 Q 12.700195,56 11.069336,56 Z M 12.1875,50.638672 Q 11.84082,50.052734 10.81543,50.052734 H 9.4287109 V 54.75 H 10.81543 q 1.064453,0 1.484375,-1.049805 0.229492,-0.576172 0.229492,-1.37207 0,-1.098633 -0.341797,-1.689453 z"
       style="font-weight:bold;font-size:10px;font-family:Helvetica;text-anchor:middle;fill:#343434"
       id="path176" />
    <path
       d="M 18.251953,53.177734 H 16.699219 V 56 h -1.469727 v -7.197266 h 3.530274 q 0.756836,0.01465 1.162109,0.185547 0.410156,0.170899 0.693359,0.50293 0.234375,0.273437 0.371094,0.605469 0.136719,0.332031 0.136719,0.756836 0,0.512695 -0.258789,1.010742 -0.258789,0.493164 -0.854492,0.698242 0.498046,0.200195 0.703125,0.571289 0.209961,0.366211 0.209961,1.123047 v 0.483398 q 0,0.493164 0.03906,0.668946 0.05859,0.27832 0.273438,0.410156 V 56 h -1.655274 q -0.06836,-0.239258 -0.09766,-0.385742 -0.05859,-0.302735 -0.06348,-0.620117 l -0.0098,-0.668946 q -0.0098,-0.688476 -0.253907,-0.917968 -0.239257,-0.229493 -0.90332,-0.229493 z m 0.913086,-1.308593 q 0.449219,-0.205079 0.449219,-0.810547 0,-0.654297 -0.434571,-0.878907 -0.24414,-0.126953 -0.732421,-0.126953 h -1.748047 v 1.933594 h 1.704101 q 0.507813,0 0.761719,-0.117187 z"
       style="font-weight:bold;font-size:10px;font-family:Helvetica;text-anchor:middle;fill:#343434"
       id="path178" />
    <path
       d="m 22.304687,48.802734 h 1.494141 V 56 h -1.494141 z"
       style="font-weight:bold;font-size:10px;font-family:Helvetica;text-anchor:middle;fill:#343434"
       id="path180" />
    <path
       d="m 24.663086,48.802734 h 1.606445 l 1.5625,5.463868 1.577149,-5.463868 h 1.5625 L 28.515625,56 h -1.420898 z"
       style="font-weight:bold;font-size:10px;font-family:Helvetica;text-anchor:middle;fill:#343434"
       id="path182" />
    <path
       d="m 36.884766,52.855469 h -3.496094 v 1.850586 h 3.984375 V 56 h -5.454102 v -7.197266 h 5.278321 v 1.274414 h -3.808594 v 1.528321 h 3.496094 z"
       style="font-weight:bold;font-size:10px;font-family:Helvetica;text-anchor:middle;fill:#343434"
       id="path184" />
  </g>
  <g
     id="use74"
     transform="translate(6.5,62)">
    <g
       transform="translate(16,16)"
       id="g149">
      <path
         id="circle145"
         style="fill:url(#linearGradient153)"
         transform="rotate(90)"
         d="M 15.5,0 A 15.5,15.5 0 0 1 0,15.5 15.5,15.5 0 0 1 -15.5,0 15.5,15.5 0 0 1 0,-15.5 15.5,15.5 0 0 1 15.5,0 Z" />
      <path
         id="circle147"
         style="fill:url(#linearGradient155)"
         transform="rotate(90)"
         d="M 13.5,0 A 13.5,13.5 0 0 1 0,13.5 13.5,13.5 0 0 1 -13.5,0 13.5,13.5 0 0 1 0,-13.5 13.5,13.5 0 0 1 13.5,0 Z" />
    </g>
  </g>
  <!-- ======== row 1 ======== -->
  <path
     id="polyline78"
     transform="translate(22.5,120)"
     style="fill:none;stroke:#343434;stroke-width:1"
     d="M 0,0 V 42"
     class="connect" />
  <g
     transform="translate(22.5,135)"
     id="g86">
    <path
       id="polyline80"
       style="fill:none;stroke:#343434;stroke-width:1.2"
       d="m -7,0 h 4"
       class="icon" />
    <path
       id="polyline82"
       style="fill:none;stroke:#343434;stroke-width:1.2"
       d="M 7,0 H 3"
       class="icon" />
    <path
       id="polyline84"
       style="fill:none;stroke:#343434;stroke-width:1.2"
       d="M 5,-2 V 2"
       class="icon" />
  </g>
  <g
     id="use90"
     transform="translate(13.5,111)">
    <g
       transform="translate(9,9)"
       id="g163">
      <path
         id="circle157"
         style="fill:none;stroke:#222222"
         d="M 8.5,0 A 8.5,8.5 0 0 1 0,8.5 8.5,8.5 0 0 1 -8.5,0 8.5,8.5 0 0 1 0,-8.5 8.5,8.5 0 0 1 8.5,0 Z" />
      <path
         id="circle159"
         style="fill:url(#linearGradient167)"
         transform="rotate(90)"
         d="M 8,0 A 8,8 0 0 1 0,8 8,8 0 0 1 -8,0 8,8 0 0 1 0,-8 8,8 0 0 1 8,0 Z" />
      <path
         id="circle161"
         style="fill:url(#linearGradient169)"
         transform="rotate(90)"
         d="M 7,0 A 7,7 0 0 1 0,7 7,7 0 0 1 -7,0 7,7 0 0 1 0,-7 7,7 0 0 1 7,0 Z" />
    </g>
  </g>
  <!-- ======== row 2 ======== -->
  <g
     id="use94"
     transform="translate(10.5,150)">
    <g
       transform="translate(12,12)"
       id="g133" />
  </g>
  <!-- ======== row 3 ======== -->
  <g
     id="use98"
     transform="translate(10.5,266)">
    <g
       transform="translate(12,12)"
       id="g137" />
  </g>
  <g
     aria-label="IN"
     id="text100"
     style="font-weight:bold;font-size:8px;font-family:Helvetica;text-anchor:middle;fill:#343434"
     class="label">
    <path
       d="m 19.015625,294.24219 h 1.195312 V 300 h -1.195312 z"
       style="font-weight:bold;font-size:8px;font-family:Helvetica;text-anchor:middle;fill:#343434"
       id="path218" />
    <path
       d="M 25.984375,300 H 24.78125 l -2.351563,-4.08984 V 300 h -1.121093 v -5.75781 h 1.261718 l 2.292969,4.01953 v -4.01953 h 1.121094 z"
       style="font-weight:bold;font-size:8px;font-family:Helvetica;text-anchor:middle;fill:#343434"
       id="path220" />
  </g>
  <!-- ======== row 4 ======== -->
  <path
     id="rect104"
     style="fill:#bbbbbb"
     d="m 9.5,304 h 26 c 1.662,0 3,1.338 3,3 v 36 c 0,1.662 -1.338,3 -3,3 h -26 c -1.662,0 -3,-1.338 -3,-3 v -36 c 0,-1.662 1.338,-3 3,-3 z"
     class="output" />
  <g
     id="use106"
     transform="translate(10.5,308)">
    <g
       transform="translate(12,12)"
       id="g141" />
  </g>
  <g
     aria-label="OUT"
     id="text108"
     style="font-weight:bold;font-size:8px;font-family:Helvetica;text-anchor:middle;fill:#343434"
     class="label">
    <path
       d="m 17.210937,342.16016 q -1.234374,0 -1.886718,-0.67188 -0.875,-0.82422 -0.875,-2.375 0,-1.58203 0.875,-2.375 0.652344,-0.67187 1.886718,-0.67187 1.234375,0 1.886719,0.67187 0.871094,0.79297 0.871094,2.375 0,1.55078 -0.871094,2.375 -0.652344,0.67188 -1.886719,0.67188 z m 1.136719,-1.54688 q 0.417969,-0.52734 0.417969,-1.5 0,-0.96875 -0.421875,-1.49609 -0.417969,-0.53125 -1.132813,-0.53125 -0.714843,0 -1.140625,0.52734 -0.425781,0.52734 -0.425781,1.5 0,0.97266 0.425781,1.5 0.425782,0.52734 1.140625,0.52734 0.714844,0 1.136719,-0.52734 z"
       style="font-weight:bold;font-size:8px;font-family:Helvetica;text-anchor:middle;fill:#343434"
       id="path210" />
    <path
       d="m 24.289062,339.78125 v -3.53906 h 1.222657 v 3.53906 q 0,0.91797 -0.285157,1.42969 -0.53125,0.9375 -2.027343,0.9375 -1.496094,0 -2.03125,-0.9375 -0.285157,-0.51172 -0.285157,-1.42969 v -3.53906 h 1.222657 v 3.53906 q 0,0.59375 0.140625,0.86719 0.21875,0.48437 0.953125,0.48437 0.730468,0 0.949218,-0.48437 0.140625,-0.27344 0.140625,-0.86719 z"
       style="font-weight:bold;font-size:8px;font-family:Helvetica;text-anchor:middle;fill:#343434"
       id="path212" />
    <path
       d="m 30.847656,336.24219 v 1.01953 H 29.125 V 342 h -1.210938 v -4.73828 h -1.730468 v -1.01953 z"
       style="font-weight:bold;font-size:8px;font-family:Helvetica;text-anchor:middle;fill:#343434"
       id="path214" />
  </g>
</svg>
