<svg
  version="1.1"
  xmlns="http://www.w3.org/2000/svg"
  xmlns:xlink="http://www.w3.org/1999/xlink"
  width="80"
  height="80"
  viewBox="0 0 80 80"
>
  <style>
    .flask-outline {
      stroke: #343434;
      stroke-width: 4;
      stroke-linecap: round;
      stroke-linejoin: round;
      fill: none;
    }
    .red-mercury {
      stroke: #a91913;
      stroke-width: 1;
      stroke-linecap: round;
      stroke-linejoin: round;
      fill: #a91913;
    }
  </style>

  <!-- Top -->
  <path class="flask-outline" d="M 43 10 A 4 4 0 0 0 43 2"/>
  <path class="flask-outline" d="M 43 2 21 2"/>
  <path class="flask-outline" d="M 21 2 A 4 4 0 1 0 21 10"/>

  <!-- Hatching -->
  <path class="flask-outline" d="M 35 10 43 10"/>
  <path class="flask-outline" d= "M 21 16 25 16 M 21 23 25 23"/>

  <!-- Bottom -->
  <path class="flask-outline" d="M 21 10 21 32 7 61"/>
  <path class="flask-outline" d="M 7 61 Q 3 68 11 68"/>
  <path class="flask-outline" d="M 11 68 53 68"/>
  <path class="flask-outline" d="M 53 68 Q 61 68 57 61"/>
  <path class="flask-outline" d="M 57 61 43 32 43 10"/>

  <!-- Liquid -->
  <path class="red-mercury" d="M 15 61 49 61 41 45 Q 36.5 47 32 45 Q 27.5 43 23 45 Z"/>
  <circle cx="28" cy="52" r="2.5" fill="#e0e0e0"/>
  <circle cx="35" cy="35" r="2.5" fill="#a91913"/>

</svg>
