<svg
  version="1.1"
  xmlns="http://www.w3.org/2000/svg"
  xmlns:xlink="http://www.w3.org/1999/xlink"
  width="60"
  height="380"
  viewBox="0 0 60 380"
>

  <style>
    text.title {
      fill: #a91913;
      font-family: 'American Typewriter';
      font-size: 13pt;
    }
    text.logo {
      fill: #a91913;
      font-family: 'American Typewriter';
      font-size: 11pt;
    }
    text.big-label {
      fill: #343434;
      font-family: 'Helvetica';
      font-weight: bold;
      font-size: 7.5pt;
    }
    text.label {
      fill: #343434;
      font-family: 'Helvetica';
      font-weight: bold;
      font-size: 6pt;
    }
    .background {
      fill: #e0e0e0;
    }
    .output {
      fill: #c1c1c1;
    }
    polyline.icon {
      stroke: #343434;
      stroke-width: 1.2;
      fill: none;
    }
    polyline.connect {
      stroke: #343434;
      stroke-width: 1;
      fill: none;
    }

    .blueprint {
      stroke: #08f;
      fill: none;
    }
  </style>

  <!-- ======== defs ======== -->  

  <defs>
    <linearGradient id="smallKnobMediumGradient">
      <stop offset="5%"  stop-color="#888" />
      <stop offset="95%" stop-color="#333" />
    </linearGradient>
    <linearGradient id="smallKnobDarkGradient">
      <stop offset="5%"  stop-color="#444" />
      <stop offset="95%" stop-color="#222" />
    </linearGradient>

    <linearGradient id="bigKnobDarkGradient">
      <stop offset="5%"  stop-color="#5c5c5c" />
      <stop offset="95%" stop-color="#282828" />
    </linearGradient>

    <symbol id="knob18" >
      <g transform="translate(9 9)">
        <circle r="8.5" stroke="#222" fill="none"/>
        <circle r="8" fill="url('#smallKnobMediumGradient')" transform="rotate(90)"/>
        <circle r="7" fill="url('#smallKnobDarkGradient')" transform="rotate(90)"/>
      </g>
    </symbol>

    <symbol id="knob40" >
      <g transform="translate(20 20)">
        <circle r="19.5" fill="url('#bigKnobDarkGradient')" transform="rotate(90)"/>
      </g>
    </symbol>

    <symbol id="knob50" >
      <g transform="translate(25 25)">
        <circle r="24.5" fill="url('#bigKnobDarkGradient')" transform="rotate(90)"/>
      </g>
    </symbol>

    <symbol id="port" >
      <g transform="translate(12 12)">
        <polyline points="-5,0 5,0" stroke-width="1" class="blueprint"/>
        <polyline points="0,-5 0,5" stroke-width="1" class="blueprint"/>
        <circle cx="0" cy="0" r="10.5" stroke-width="2" class="blueprint"/>
      </g>
    </symbol>

    <symbol id="hswitch14" >
      <rect x="1" y="1" rx="2" width="20" height="12" stroke-width="2" class="blueprint" />
      <g transform="translate(12 7)">
        <polyline points="-5,0 5,0" stroke-width="1" class="blueprint"/>
        <polyline points="0,-5 0,5" stroke-width="1" class="blueprint"/>
      </g>
    </symbol>
  </defs>

  <!-- ======== id ======== -->  

  <rect class="background" width="100%" height="100%"/>
  <text class="title" x="50%" y="30"  text-anchor="middle">FM</text>
  <text class="logo" x="50%" y="362" text-anchor="middle">zaphod</text>

  <!-- ======== knobs and switches ======== -->  

  <g transform="translate(30 76)">
    <text x="0" y="-24" class="big-label" text-anchor="middle">RATIO</text>
    <use xlink:href="#knob40" transform="translate(-20 -20)"/>
  </g>

  <g transform="translate(30 112)">
    <use xlink:href="#hswitch14" transform="translate(-12 -7)"/>
    <g transform="translate(19 0)">
      <polyline points="-4 4 4 -4" class="icon"/>
    </g>
    <g transform="translate(-19 0)">
      <polyline points="-4 4 -4 0 0 0 0 -4 4 -4" class="icon"/>
    </g>
  </g>

  <g transform="translate(30 176)">
    <text x="0" y="-24" class="big-label" text-anchor="middle">OFFSET</text>
    <use xlink:href="#knob40" transform="translate(-20 -20)"/>
  </g>

  <!-- ======== row 1 ======== -->  

  <g transform="translate(16 236)">
      <polyline points="0 0 0 42" class="connect"/>
      <g transform="translate(0 15)">
        <polyline points="-7 0 -3 0" class="icon"/>
        <polyline points="7 0 3 0" class="icon"/>
        <polyline points="5 -2 5 2" class="icon"/>
    </g>
  </g>
  <g transform="translate(16 236)">
      <use xlink:href="#knob18" transform="translate(-9 -9)"/>
  </g>

  <g transform="translate(44 236)">
      <polyline points="0 0 0 42" class="connect"/>
      <g transform="translate(0 15)">
        <polyline points="-7 0 -3 0" class="icon"/>
        <polyline points="7 0 3 0" class="icon"/>
        <polyline points="5 -2 5 2" class="icon"/>
    </g>
  </g>
  <g transform="translate(44 236)">
      <use xlink:href="#knob18" transform="translate(-9 -9)"/>
  </g>

  <!-- ======== row 2 ======== -->  

  <g transform="translate(16 278)">
    <use xlink:href="#port" transform="translate(-12 -12)"/>
    <text x="0" y="22" class="label" text-anchor="middle">RAT</text>
  </g>

  <g transform="translate(44 278)">
    <use xlink:href="#port" transform="translate(-12 -12)"/>
    <text x="0" y="22" class="label" text-anchor="middle">OFS</text>
  </g>

  <!-- ======== row 3 ======== -->  

  <g transform="translate(16 320)">
    <use xlink:href="#port" transform="translate(-12 -12)"/>
    <text x="0" y="22" class="label" text-anchor="middle">CAR</text>
  </g>

  <g transform="translate(44 320)">
    <!-- NOTE: width 32 looks better if we have enough room -->
    <rect x="-14" y="-16" width="28" height="42" rx="3" class="output"/>
    <use xlink:href="#port" transform="translate(-12 -12)"/>
    <text x="0" y="22" class="label" text-anchor="middle">MOD</text>
  </g>

</svg>
