<svg
  version="1.1"
  xmlns="http://www.w3.org/2000/svg"
  xmlns:xlink="http://www.w3.org/1999/xlink"
  width="90"
  height="380"
  viewBox="0 0 90 380"
>

  <style>
    text.title {
      fill: #a91913;
      font-family: 'American Typewriter';
      font-size: 13pt;
    }
    text.logo {
      fill: #a91913;
      font-family: 'American Typewriter';
      font-size: 12pt;
    }
    text.big-label {
      fill: #343434;
      font-family: 'Helvetica';
      font-weight: bold;
      font-size: 7.5pt;
    }
    text.label {
      fill: #343434;
      font-family: 'Helvetica';
      font-weight: bold;
      font-size: 6pt;
    }
    .background {
      fill: #e0e0e0;
    }
    .output {
      fill: #b8b8b8;
    }
    polyline.connect {
      stroke: #343434;
      stroke-width: 1;
    }

    .blueprint {
      stroke: #08f;
      fill: none;
    }
  </style>

  <!-- ======== defs ======== -->  

  <defs>
    <linearGradient id="smallKnobMediumGradient">
      <stop offset="5%"  stop-color="#888" />
      <stop offset="95%" stop-color="#333" />
    </linearGradient>
    <linearGradient id="smallKnobDarkGradient">
      <stop offset="5%"  stop-color="#444" />
      <stop offset="95%" stop-color="#222" />
    </linearGradient>

    <linearGradient id="bigKnobMediumGradient">
      <stop offset="5%"  stop-color="#888" />
      <stop offset="95%" stop-color="#555" />
    </linearGradient>
    <linearGradient id="bigKnobDarkGradient">
      <stop offset="5%"  stop-color="#555" />
      <stop offset="95%" stop-color="#222" />
    </linearGradient>

    <symbol id="knob18" >
      <g transform="translate(9 9)">
        <circle r="8.5" stroke="#222" fill="none"/>
        <circle r="8" fill="url('#smallKnobMediumGradient')" transform="rotate(90)"/>
        <circle r="7" fill="url('#smallKnobDarkGradient')" transform="rotate(90)"/>
      </g>
    </symbol>

    <symbol id="knob40" >
      <g transform="translate(20 20)">
        <circle r="19.5" fill="url('#bigKnobDarkGradient')" transform="rotate(90)"/>
        <circle r="16.5" fill="url('#bigKnobMediumGradient')" transform="rotate(90)"/>
      </g>
    </symbol>

    <symbol id="knob50" >
      <g transform="translate(25 25)">
        <circle r="24.5" fill="url('#bigKnobDarkGradient')" transform="rotate(90)"/>
        <circle r="21.5" fill="url('#bigKnobMediumGradient')" transform="rotate(90)"/>
      </g>
    </symbol>

    <symbol id="port" >
      <g transform="translate(12 12)">
        <polyline points="-5,0 5,0" stroke-width="1" class="blueprint"/>
        <polyline points="0,-5 0,5" stroke-width="1" class="blueprint"/>
        <circle cx="0" cy="0" r="10.5" stroke-width="2" class="blueprint"/>
      </g>
    </symbol>
  </defs>

  <!-- ======== id ======== -->  

  <rect class="background" width="100%" height="100%"/>
  <text class="title" x="50%" y="28"  text-anchor="middle">FM</text>
  <text class="logo" x="50%" y="362" text-anchor="middle">zaphod</text>

  <!-- ======== knobs ======== -->  

  <g transform="translate(45 82)">
    <text x="0" y="-30" class="big-label" text-anchor="middle">RATIO</text>
    <use xlink:href="#knob50" transform="translate(-25 -25)"/>
  </g>

  <g transform="translate(45 150)">
    <text x="0" y="-24" class="big-label" text-anchor="middle">OFFSET</text>
    <use xlink:href="#knob40" transform="translate(-20 -20)"/>
  </g>

  <!-- ======== row 1 ======== -->  

  <g transform="translate(27 236)">
      <polyline points="0 0 0 42" class="connect"/>
      <g transform="translate(0 15)">
        <polyline points="-7 0 -3 0" class="connect"/>
        <polyline points="7 0 3 0" class="connect"/>
        <polyline points="5 -2 5 2" class="connect"/>
    </g>
  </g>
  <g transform="translate(27 236)">
      <use xlink:href="#knob18" transform="translate(-9 -9)"/>
  </g>

  <g transform="translate(63 236)">
      <polyline points="0 0 0 42" class="connect"/>
      <g transform="translate(0 15)">
        <polyline points="-7 0 -3 0" class="connect"/>
        <polyline points="7 0 3 0" class="connect"/>
        <polyline points="5 -2 5 2" class="connect"/>
    </g>
  </g>
  <g transform="translate(63 236)">
      <use xlink:href="#knob18" transform="translate(-9 -9)"/>
  </g>

  <!-- ======== row 2 ======== -->  

  <g transform="translate(27 278)">
    <use xlink:href="#port" transform="translate(-12 -12)"/>
    <text x="0" y="22" class="label" text-anchor="middle">RAT</text>
  </g>

  <g transform="translate(63 278)">
    <use xlink:href="#port" transform="translate(-12 -12)"/>
    <text x="0" y="22" class="label" text-anchor="middle">OFS</text>
  </g>

  <!-- ======== row 3 ======== -->  

  <g transform="translate(27 320)">
    <use xlink:href="#port" transform="translate(-12 -12)"/>
    <text x="0" y="22" class="label" text-anchor="middle">CAR</text>
  </g>

  <g transform="translate(63 320)">
    <rect x="-16" y="-16" width="32" height="42" rx="3" class="output"/>
    <use xlink:href="#port" transform="translate(-12 -12)"/>
    <text x="0" y="22" class="label" text-anchor="middle">MOD</text>
  </g>

</svg>
